<svg width="80" height="50" viewBox="0 0 80 50" fill="none" xmlns="http://www.w3.org/2000/svg">
<path d="M75.4808 31.9125C72.076 29.7997 66.8069 30.1034 64.0235 33.0481C66.0172 21.1638 61.8874 2.57142 49.2519 0.234167C36.2151 -2.18231 31.917 14.6406 32.4219 25.9571C26.1819 16.9382 15.4366 7.37796 5.17025 15.8951C-3.62019 23.1841 -0.616676 43.6251 9.76614 48.1412C9.94266 48.2229 10.1398 48.2465 10.33 48.2087C10.5203 48.1708 10.6943 48.0733 10.8277 47.9299C21.6507 48.2204 32.4737 47.9299 43.2967 48.194C54.1197 48.4581 64.852 49.9899 75.5197 49.7786C75.7968 49.9668 76.1344 50.0389 76.4622 49.9799C76.7901 49.9209 77.0831 49.7353 77.2803 49.4617C80.9441 44.2986 81.4231 35.5834 75.4808 31.9125ZM44.3324 45.6719C33.0771 45.2667 21.8082 45.5224 10.5817 46.4378C2.19263 41.618 -1.4323 23.3558 7.28046 17.2155C18.1552 9.55676 28.3827 22.854 33.1728 31.2654C33.3103 31.5004 33.5265 31.6768 33.7814 31.7622C34.0363 31.8475 34.3128 31.8362 34.5602 31.7301C34.8075 31.6241 35.009 31.4305 35.1275 31.185C35.246 30.9395 35.2737 30.6586 35.2053 30.3939C33.8045 24.7687 34.0429 18.8488 35.8915 13.3597C38.2218 6.59888 44.2547 -0.769394 51.9577 3.50896C62.949 9.62278 62.6512 25.7723 61.02 36.3889C60.9826 36.5259 60.972 36.6691 60.9888 36.8102C61.0057 36.9514 61.0496 37.0878 61.1181 37.2116C61.1866 37.3355 61.2784 37.4443 61.3882 37.532C61.498 37.6197 61.6236 37.6844 61.7579 37.7226C61.8922 37.7607 62.0326 37.7715 62.171 37.7544C62.3094 37.7372 62.4431 37.6924 62.5645 37.6225C62.6859 37.5526 62.7927 37.459 62.8786 37.347C62.9646 37.235 63.0281 37.1069 63.0655 36.9699C63.0655 36.8643 63.0655 36.7586 63.1561 36.6662C63.2527 36.6543 63.3452 36.6194 63.4261 36.5644C63.5071 36.5093 63.5742 36.4356 63.6222 36.3493C64.1654 35.3696 64.9109 34.5221 65.8071 33.8654C66.7034 33.2088 67.7288 32.7587 68.8125 32.5465C69.8962 32.3342 71.0122 32.3648 72.0831 32.6361C73.1541 32.9074 74.1544 33.4129 75.0148 34.1177C78.8209 37.4321 78.1477 43.361 75.7268 47.3225C65.5252 45.553 54.6116 45.8435 44.3324 45.6719Z" fill="white"/>
</svg>
