<svg width="148" height="117" viewBox="0 0 148 117" fill="none" xmlns="http://www.w3.org/2000/svg">
<path d="M70.5734 53.9817C70.5734 51.461 68.3797 49.8857 66.1861 48.9404C63.679 47.9952 61.1719 47.6801 58.6648 48.3103C53.3373 48.9404 48.6366 51.7761 44.876 55.242C40.802 59.338 37.3547 63.7491 32.9674 67.53C28.8934 70.9959 23.8792 73.2014 18.8651 74.1467C12.9108 75.407 6.95651 75.407 1.3156 73.5165C0.688832 73.2014 -0.25132 74.1467 0.0620643 74.7768C1.94237 82.6538 7.26989 89.5855 13.5376 94.6267C20.1186 99.668 27.9532 103.134 36.1012 104.394C45.5027 105.97 56.1578 105.339 64.6191 100.298C71.5136 96.5172 76.2143 89.9006 78.7214 82.6538C81.2285 75.407 81.5419 67.53 78.7214 60.2832C78.7214 59.338 78.0946 58.3928 77.7813 57.7626C77.4679 58.3928 77.1545 59.0229 76.8411 59.6531C78.7214 59.0229 80.9151 58.0777 82.482 56.8174C83.4222 56.1872 83.1088 54.9269 82.1686 54.6118C79.9749 53.9817 77.4679 53.9817 75.2742 54.6118C75.5876 55.242 75.901 55.8721 76.2143 56.8174C78.7214 55.8721 80.6017 53.3515 80.9151 50.8309C80.9151 49.8857 80.2883 49.2555 79.6616 49.5706C76.8411 50.2007 74.0206 51.461 71.827 53.3515C71.2002 53.6666 70.8868 54.2967 71.2002 54.9269C71.5136 55.242 72.1403 55.5571 72.7671 55.242C74.9608 53.3515 77.4679 52.0912 80.2883 51.461C79.9749 51.146 79.3482 50.5158 79.0348 50.2007C78.7214 52.0912 77.4679 53.9817 75.5876 54.9269C74.0207 55.242 74.6474 57.4475 76.2143 57.1325C78.0946 56.5023 79.9749 56.5023 81.8552 57.1325C81.8552 56.5023 81.5419 55.5571 81.5419 54.9269C79.9749 55.8721 78.0946 56.5023 76.2143 57.1325C75.2742 57.1325 74.9608 58.3928 75.5876 59.0229C78.7214 65.3245 79.0348 72.8864 77.1545 79.8181C75.2742 86.4347 71.2002 92.7363 65.5593 96.8323C58.0381 102.189 48.3232 103.134 39.235 102.189C31.4004 101.558 23.8792 98.7228 17.2982 94.3117C11.0305 90.2156 5.38959 84.2292 2.88252 76.9824C2.56914 76.0371 2.56913 75.0919 2.25575 74.1467C1.62898 74.7768 1.3156 75.0919 1.00222 75.7221C10.7171 78.8728 21.9989 77.2974 30.4603 71.9411C35.1611 69.1054 38.6083 65.0094 42.3689 60.9134C45.8161 57.1325 49.5767 53.3515 54.5909 51.146C57.0979 50.2007 60.2318 49.5706 62.7388 50.2007C65.2459 50.5158 68.6931 51.461 69.0065 54.2967C69.3199 55.242 70.5734 54.9269 70.5734 53.9817Z" fill="white"/>
<path d="M60.2298 59.9671C59.603 60.9123 59.2896 61.5425 58.9763 62.4877C58.6629 62.8028 58.9763 63.1179 58.9763 63.4329C59.9164 64.6932 62.1101 64.3782 63.0502 63.1179C63.9904 61.8575 63.0502 59.3369 61.4833 59.3369C60.8566 59.3369 60.2298 60.2821 60.8566 60.9123C61.1699 61.2274 61.7967 61.8575 61.4833 62.4877C61.1699 62.4877 60.2298 62.4877 59.9164 62.1726C59.9164 62.4877 59.9164 62.4877 60.2298 62.8028C60.5432 62.1726 60.8566 61.5425 61.1699 60.5972C61.4833 59.9671 60.5432 59.3369 60.2298 59.9671Z" fill="white"/>
<path d="M46.4404 80.1346C44.2467 78.5592 42.053 76.9838 39.5459 76.0386C38.2924 75.4084 37.0389 75.0934 35.7853 74.7783C34.5318 74.4632 33.2782 74.4632 32.6515 75.4084C31.3979 77.2989 32.9649 79.5045 34.8452 80.4497C37.3522 81.71 39.8593 82.3402 42.6798 82.3402C43.9333 82.3402 43.9333 80.7648 42.9931 80.4497C40.1727 79.8195 37.3522 80.1346 34.8452 81.3949C32.6515 82.3402 30.1444 83.9156 30.1444 86.4362C30.1444 88.9568 32.9649 89.587 34.8452 89.587C37.6656 89.587 40.4861 88.6417 42.9931 87.3814C42.9931 87.0663 42.6798 86.4362 42.3664 85.806C41.1128 86.4362 39.8593 87.3814 38.6058 88.0116C37.6656 88.6417 36.4121 89.2719 35.4719 89.902C33.905 91.1623 32.9649 93.683 34.5318 95.5734C36.0987 97.1488 38.2924 96.5187 40.1727 95.8885C42.053 95.2584 44.2467 94.6282 46.127 93.683C48.0073 92.4227 50.201 90.8473 51.1411 88.6417C51.7679 87.3814 49.8876 86.4362 49.2608 87.3814C47.0671 91.1623 42.9931 92.7377 38.9192 93.9981C38.2924 94.3131 37.0389 94.6282 36.0987 93.9981C35.4719 93.683 35.7853 92.4227 36.4121 91.7925C37.3522 90.8473 38.6058 90.2171 39.5459 89.587C40.7995 88.9568 42.053 88.3266 43.3065 87.6965C44.5601 87.0663 43.3065 85.4909 42.3664 85.806C40.4861 86.7513 38.2924 87.3814 36.0987 87.6965C35.1586 87.6965 32.3381 88.0116 32.3381 86.4362C32.3381 85.806 32.9649 84.8608 33.5916 84.5457C34.5318 83.9156 35.4719 83.6005 36.4121 82.9703C38.2924 82.3402 40.4861 82.0251 42.3664 82.6552C42.3664 82.0251 42.6798 81.3949 42.6798 80.7648C40.4861 80.7648 38.6058 80.1346 36.7255 79.5045C35.4719 78.8743 34.5318 78.5592 34.2184 77.614C33.905 77.2989 33.905 76.3537 34.5318 76.3537C34.8452 76.3537 35.4719 76.6688 35.7853 76.6688C36.4121 76.6688 37.0389 76.9838 37.6656 77.2989C38.6058 77.614 39.5459 77.9291 40.4861 78.2441C42.3664 79.1894 44.2467 79.8195 46.127 81.0798C46.7538 81.3949 47.0671 80.4497 46.4404 80.1346Z" fill="white"/>
<path d="M48.3247 104.712C46.7578 107.233 44.8775 109.753 42.3704 111.644C41.7436 112.274 42.3704 113.219 42.9972 113.219C44.2507 113.219 45.1908 113.534 46.4444 114.164C47.3845 114.794 48.0113 115.74 49.2648 115.425C49.5782 115.425 49.8916 115.11 49.8916 114.794C49.8916 113.534 48.3247 112.589 47.0712 112.274C45.8176 111.644 44.5641 111.329 42.9972 111.329C43.3105 111.959 43.3105 112.274 43.6239 112.904C46.131 111.014 48.0113 108.178 49.2648 105.342C49.8916 104.397 48.6381 103.767 48.3247 104.712Z" fill="white"/>
<path d="M58.6678 102.192C58.041 104.712 57.1009 107.233 55.534 109.124C55.2206 110.069 55.8474 110.699 56.7875 110.699C57.7277 110.384 58.9812 110.384 59.9213 110.699C60.8615 111.014 61.8017 111.329 62.7418 111.959C63.682 112.589 64.6221 111.329 63.682 110.699C62.115 108.493 58.6678 108.178 56.1607 108.808C56.4741 109.124 56.7875 109.754 57.1009 110.069C58.6678 107.863 59.608 105.343 60.2347 102.507C60.5481 101.562 58.9812 101.247 58.6678 102.192Z" fill="white"/>
<path d="M58.0434 110.379C57.7301 111.639 57.7301 112.899 58.6702 114.16C59.297 115.105 60.5505 114.16 60.2371 113.214C59.6104 112.584 59.6104 111.639 59.6104 111.009C59.9237 109.749 58.3568 109.433 58.0434 110.379Z" fill="white"/>
<path d="M44.2452 112.274C43.9318 112.904 43.6184 113.534 43.305 114.48C42.9916 115.11 42.6782 115.74 42.9916 116.685C42.9916 117 43.305 117 43.6184 117C44.2452 116.685 44.5585 116.055 44.8719 115.425C45.1853 114.48 45.4987 113.849 45.8121 112.904C46.1255 111.959 44.8719 111.329 44.2452 112.274Z" fill="white"/>
<path d="M79.6598 45.1603C80.9134 44.2151 82.1669 43.585 83.107 42.6397C83.7338 42.0096 84.0472 41.3794 84.674 41.0643C85.3007 40.4342 85.6141 40.1191 85.3007 39.1739C85.3007 38.8588 84.9874 38.5437 84.674 38.5437C83.7338 38.5437 83.4204 38.8588 83.107 39.4889C82.7937 40.1191 82.1669 40.7492 81.8535 41.0643C80.9134 42.0096 79.9732 43.2699 79.0331 44.2151C78.4063 44.5302 79.0331 45.4754 79.6598 45.1603Z" fill="white"/>
<path d="M82.7964 47.3639C83.7365 46.7338 84.6767 46.4187 85.6168 46.1036C86.557 45.7886 87.4971 45.4735 88.1239 44.8433C88.4373 44.2132 88.4373 43.583 87.4971 43.583C86.557 43.583 85.6168 44.2132 84.99 44.8433C84.0499 45.1584 83.1097 45.4735 82.1696 46.1036C81.5428 46.4187 82.1696 47.679 82.7964 47.3639Z" fill="white"/>
<path d="M82.7886 53.6645C83.7288 53.3494 84.9823 53.3494 85.9225 53.0343C86.8626 52.7192 88.1161 52.7192 88.7429 52.0891C89.0563 51.774 89.0563 51.1438 88.4295 50.8288C87.4894 50.5137 86.2358 50.8288 85.2957 51.1438C84.3555 51.4589 83.102 51.774 82.1618 52.0891C81.2217 52.4041 81.8485 53.9795 82.7886 53.6645Z" fill="white"/>
<path d="M84.676 58.7094C85.6162 58.3943 86.243 58.7094 87.1831 59.0245C87.8099 59.6546 89.0634 58.7094 88.1233 57.7642C87.1831 56.8189 85.6162 56.5038 84.0493 57.134C83.1091 57.4491 83.4225 59.0245 84.676 58.7094Z" fill="white"/>
<path d="M70.5786 54.927C70.892 54.927 71.2053 54.927 71.5187 54.927C71.8321 54.927 72.1455 54.927 72.4589 54.6119C72.7723 54.2968 72.7723 53.6666 72.4589 53.6666C71.8321 53.3516 71.5187 53.3516 71.2053 53.3516C70.892 53.3516 70.5786 53.3516 70.2652 53.3516C69.9518 53.3516 69.6384 53.6666 69.6384 53.9817C69.9518 54.2968 70.2652 54.6119 70.5786 54.927Z" fill="white"/>
<path d="M102.849 15.4533C105.172 14.011 109.479 13.6205 110.041 17.2462C110.499 20.2066 107.471 23.1709 104.578 22.0632C101.506 20.8879 101.008 16.8239 101.347 14.0149C101.59 11.979 102.2 10.0227 102.662 8.03449C103.196 5.74749 103.247 3.52823 103.184 1.18944C103.69 1.57193 104.192 1.95841 104.698 2.34091C102.941 2.7752 101.172 3.16167 99.3866 3.46448C98.6216 3.59596 97.8527 3.70752 97.0877 3.8151C96.7251 3.86291 96.3625 3.91072 96 3.95455C95.1354 3.91471 94.7808 4.20955 94.9282 4.84305C94.5576 5.81523 94.8525 7.44083 94.6851 8.51659C94.4381 10.0784 94.0038 11.5805 93.3902 13.0388C92.4459 15.2859 89.4816 20.0313 93.0715 21.4138C94.2469 21.868 98.6694 22.3302 97.0478 19.6248C95.9561 17.8 93.7767 19.1109 93.0157 20.5054C92.2786 21.8561 90.2147 20.6528 90.9518 19.2981C92.9121 15.7043 99.0479 15.0867 99.6536 20.0312C100.275 25.1192 92.7288 25.1989 90.147 22.4537C88.6848 20.8958 88.8202 17.5729 89.4697 15.7003C89.8322 14.6564 90.4578 13.7281 90.9239 12.732C91.6889 11.1024 92.1989 9.32142 92.422 7.53246C92.6491 5.69968 91.8802 2.80309 94.0476 1.91458C95.4501 1.34084 97.2709 1.41256 98.7491 1.16155C100.534 0.858742 102.303 0.476248 104.06 0.0379737C104.829 -0.153273 105.55 0.400546 105.574 1.18944C105.678 5.04227 104.969 8.37315 104.112 12.1025C103.658 14.0747 103.255 16.3617 104.12 18.2861C104.646 19.4615 106.096 20.6289 107.048 19.2224C107.431 18.8399 107.475 18.3817 107.184 17.8439C107.395 16.9673 107.108 16.6207 106.319 16.8079C105.451 16.6326 104.761 17.0709 104.052 17.5132C102.745 18.3299 101.546 16.2621 102.849 15.4533Z" fill="white"/>
<path d="M103.789 6.67186C100.928 6.68779 98.6692 8.95487 95.7248 8.76362C94.1988 8.66401 94.1868 6.27343 95.7248 6.37303C98.5696 6.5603 100.908 4.29721 103.789 4.28127C105.327 4.2733 105.331 6.66389 103.789 6.67186Z" fill="white"/>
<path d="M131.547 22.0877C132.141 15.4246 139.766 15.5302 143.63 11.7451C144.357 11.0295 145.62 11.5535 145.632 12.574C145.694 18.1775 142.39 23.8161 139.665 28.5358C138.828 29.9865 137.803 31.4919 138.777 33.1655C139.285 34.0375 140.65 35.5234 141.635 35.848C142.863 36.2546 143.688 35.4726 144.302 34.5419C145.166 33.2359 144.85 32.0394 143.18 31.8165C142.003 31.6561 139.946 33.2867 139.098 33.9319C137.897 34.8469 136.728 32.8097 137.913 31.9064C140.454 29.9669 146.429 27.3744 147.145 32.5203C147.634 36.0356 143.481 39.813 140.239 37.7288C138.718 36.7512 137.17 35.4022 136.431 33.7208C135.578 31.7852 136.177 29.9513 137.142 28.1956C139.735 23.4876 143.34 18.1383 143.278 12.574C143.946 12.8517 144.611 13.1254 145.28 13.403C143.563 15.0844 141.452 15.9486 139.281 16.8832C137.006 17.8646 134.132 19.2958 133.881 22.0877C133.76 23.5814 131.414 23.5932 131.547 22.0877Z" fill="white"/>
</svg>
