<svg width="108" height="169" viewBox="0 0 108 169" fill="none" xmlns="http://www.w3.org/2000/svg">
<path d="M31.7685 102.195C31.7685 99.4831 34.1288 97.788 36.4892 96.771C39.1867 95.754 41.8842 95.415 44.5817 96.093C50.3139 96.771 55.3718 99.8221 59.4181 103.551C63.8015 107.958 67.5106 112.705 72.2313 116.773C76.6147 120.502 82.0097 122.875 87.4048 123.892C93.8114 125.248 100.218 125.248 106.287 123.214C106.962 122.875 107.973 123.892 107.636 124.57C105.613 133.045 99.8808 140.504 93.137 145.928C86.056 151.352 77.6263 155.081 68.8594 156.437C58.7437 158.132 47.2792 157.454 38.1751 152.03C30.757 147.962 25.6991 140.843 23.0016 133.045C20.3041 125.248 19.9669 116.773 23.0016 108.975C23.0016 107.958 23.676 106.941 24.0132 106.263C24.3503 106.941 24.6875 107.619 25.0247 108.297C23.0016 107.619 20.6413 106.602 18.9553 105.246C17.9437 104.568 18.2809 103.212 19.2925 102.873C21.6528 102.195 24.3503 102.195 26.7107 102.873C26.3735 103.551 26.0363 104.229 25.6991 105.246C23.0016 104.229 20.9785 101.517 20.6413 98.8051C20.6413 97.788 21.3156 97.11 21.99 97.449C25.0247 98.1271 28.0594 99.4831 30.4198 101.517C31.0941 101.856 31.4313 102.534 31.0941 103.212C30.757 103.551 30.0826 103.89 29.4082 103.551C27.0479 101.517 24.3503 100.161 21.3156 99.4831C21.6528 99.1441 22.3272 98.4661 22.6644 98.1271C23.0016 100.161 24.3503 102.195 26.3735 103.212C28.0594 103.551 27.385 105.924 25.6991 105.585C23.676 104.907 21.6528 104.907 19.6297 105.585C19.6297 104.907 19.9669 103.89 19.9669 103.212C21.6528 104.229 23.676 104.907 25.6991 105.585C26.7107 105.585 27.0479 106.941 26.3735 107.619C23.0016 114.4 22.6644 122.536 24.6875 129.994C26.7107 137.113 31.0941 143.894 37.1636 148.301C45.2561 154.064 55.709 155.081 65.4875 154.064C73.9172 153.386 82.0097 150.335 89.0907 145.589C95.8345 141.182 101.904 134.74 104.601 126.943C104.939 125.926 104.939 124.909 105.276 123.892C105.95 124.57 106.287 124.909 106.625 125.587C96.1717 128.977 84.0329 127.282 74.9288 121.519C69.8709 118.468 66.1618 114.061 62.1156 109.653C58.4065 105.585 54.3602 101.517 48.9652 99.1441C46.2677 98.1271 42.8958 97.449 40.1982 98.1271C37.5007 98.4661 33.7916 99.4831 33.4545 102.534C33.1173 103.551 31.7685 103.212 31.7685 102.195Z" fill="white"/>
<path d="M42.8979 108.635C43.5722 109.652 43.9094 110.33 44.2466 111.347C44.5838 111.686 44.2466 112.025 44.2466 112.364C43.2351 113.72 40.8747 113.381 39.8632 112.025C38.8516 110.669 39.8632 107.957 41.5491 107.957C42.2235 107.957 42.8979 108.974 42.2235 109.652C41.8863 109.991 41.2119 110.669 41.5491 111.347C41.8863 111.347 42.8979 111.347 43.2351 111.008C43.2351 111.347 43.2351 111.347 42.8979 111.686C42.5607 111.008 42.2235 110.33 41.8863 109.313C41.5491 108.635 42.5607 107.957 42.8979 108.635Z" fill="white"/>
<path d="M57.7337 130.335C60.0941 128.64 62.4544 126.944 65.1519 125.927C66.5007 125.249 67.8494 124.91 69.1982 124.571C70.5469 124.232 71.8957 124.232 72.5701 125.249C73.9188 127.284 72.2329 129.657 70.2097 130.674C67.5122 132.03 64.8147 132.708 61.78 132.708C60.4312 132.708 60.4312 131.013 61.4428 130.674C64.4775 129.996 67.5122 130.335 70.2097 131.691C72.5701 132.708 75.2676 134.403 75.2676 137.115C75.2676 139.827 72.2329 140.505 70.2097 140.505C67.175 140.505 64.1403 139.488 61.4428 138.132C61.4428 137.793 61.78 137.115 62.1172 136.437C63.4659 137.115 64.8147 138.132 66.1635 138.81C67.175 139.488 68.5238 140.166 69.5354 140.844C71.2213 142.2 72.2329 144.912 70.5469 146.946C68.861 148.641 66.5007 147.963 64.4775 147.285C62.4544 146.607 60.0941 145.929 58.0709 144.912C56.0478 143.556 53.6875 141.861 52.6759 139.488C52.0015 138.132 54.0246 137.115 54.699 138.132C57.0593 142.2 61.4428 143.895 65.8263 145.251C66.5007 145.59 67.8494 145.929 68.861 145.251C69.5354 144.912 69.1982 143.556 68.5238 142.878C67.5122 141.861 66.1635 141.183 65.1519 140.505C63.8031 139.827 62.4544 139.149 61.1056 138.471C59.7569 137.793 61.1056 136.098 62.1172 136.437C64.1403 137.454 66.5007 138.132 68.861 138.471C69.8725 138.471 72.9073 138.81 72.9073 137.115C72.9073 136.437 72.2329 135.42 71.5585 135.081C70.5469 134.403 69.5354 134.064 68.5238 133.386C66.5007 132.708 64.1403 132.369 62.1172 133.047C62.1172 132.369 61.78 131.691 61.78 131.013C64.1403 131.013 66.1635 130.335 68.1866 129.657C69.5354 128.979 70.5469 128.64 70.8841 127.623C71.2213 127.284 71.2213 126.266 70.5469 126.266C70.2097 126.266 69.5354 126.605 69.1982 126.605C68.5238 126.605 67.8494 126.944 67.175 127.284C66.1635 127.623 65.1519 127.962 64.1403 128.301C62.1172 129.318 60.0941 129.996 58.0709 131.352C57.3965 131.691 57.0593 130.674 57.7337 130.335Z" fill="white"/>
<path d="M55.7086 156.779C57.3945 159.491 59.4177 162.203 62.1152 164.237C62.7896 164.915 62.1152 165.932 61.4408 165.932C60.0921 165.932 59.0805 166.271 57.7317 166.949C56.7202 167.627 56.0458 168.644 54.697 168.305C54.3598 168.305 54.0226 167.966 54.0226 167.627C54.0226 166.271 55.7086 165.254 57.0574 164.915C58.4061 164.237 59.7549 163.898 61.4408 163.898C61.1036 164.576 61.1036 164.915 60.7664 165.593C58.0689 163.559 56.0458 160.508 54.697 157.457C54.0226 156.44 55.3714 155.762 55.7086 156.779Z" fill="white"/>
<path d="M44.5775 154.067C45.2519 156.779 46.2634 159.491 47.9494 161.525C48.2866 162.543 47.6122 163.221 46.6006 163.221C45.5891 162.882 44.2403 162.882 43.2287 163.221C42.2172 163.56 41.2056 163.899 40.194 164.577C39.1825 165.255 38.1709 163.899 39.1825 163.221C40.8684 160.847 44.5775 160.508 47.275 161.186C46.9378 161.525 46.6006 162.204 46.2634 162.543C44.5775 160.169 43.5659 157.457 42.8916 154.406C42.5544 153.389 44.2403 153.05 44.5775 154.067Z" fill="white"/>
<path d="M21.9935 92.7037C20.6448 91.6867 19.296 91.0087 18.2845 89.9916C17.6101 89.3136 17.2729 88.6356 16.5985 88.2966C15.9241 87.6185 15.5869 87.2795 15.9241 86.2625C15.9241 85.9235 16.2613 85.5845 16.5985 85.5845C17.6101 85.5845 17.9473 85.9235 18.2845 86.6015C18.6216 87.2795 19.296 87.9576 19.6332 88.2966C20.6448 89.3136 21.6564 90.6697 22.6679 91.6867C23.3423 92.0257 22.6679 93.0427 21.9935 92.7037Z" fill="white"/>
<path d="M18.6166 95.0745C17.605 94.3965 16.5935 94.0575 15.5819 93.7184C14.5703 93.3794 13.5588 93.0404 12.8844 92.3624C12.5472 91.6844 12.5472 91.0063 13.5588 91.0063C14.5703 91.0063 15.5819 91.6844 16.2563 92.3624C17.2678 92.7014 18.2794 93.0404 19.291 93.7184C19.9654 94.0575 19.291 95.4135 18.6166 95.0745Z" fill="white"/>
<path d="M18.626 101.854C17.6144 101.515 16.2657 101.515 15.2541 101.176C14.2425 100.837 12.8938 100.837 12.2194 100.159C11.8822 99.8198 11.8822 99.1418 12.5566 98.8028C13.5682 98.4638 14.9169 98.8028 15.9285 99.1418C16.9401 99.4808 18.2888 99.8198 19.3004 100.159C20.312 100.498 19.6376 102.193 18.626 101.854Z" fill="white"/>
<path d="M16.5949 107.282C15.5833 106.943 14.9089 107.282 13.8974 107.621C13.223 108.299 11.8742 107.282 12.8858 106.265C13.8974 105.248 15.5833 104.909 17.2693 105.587C18.2808 105.926 17.9436 107.621 16.5949 107.282Z" fill="white"/>
<path d="M31.7638 103.212C31.4266 103.212 31.0894 103.212 30.7523 103.212C30.4151 103.212 30.0779 103.212 29.7407 102.873C29.4035 102.534 29.4035 101.856 29.7407 101.856C30.4151 101.517 30.7523 101.517 31.0894 101.517C31.4266 101.517 31.7638 101.517 32.101 101.517C32.4382 101.517 32.7754 101.856 32.7754 102.195C32.4382 102.534 32.101 102.873 31.7638 103.212Z" fill="white"/>
<path d="M5.4017 53.5328C3.66814 52.4564 0.453781 52.165 0.0345161 54.8709C-0.307437 57.0802 1.95243 59.2925 4.1112 58.4659C6.40377 57.5887 6.77546 54.5557 6.52271 52.4594C6.34133 50.9399 5.88638 49.48 5.54145 47.9962C5.143 46.2894 5.10435 44.6331 5.15192 42.8877C4.77429 43.1731 4.39963 43.4616 4.02199 43.747C5.33331 44.0711 6.65355 44.3596 7.98568 44.5856C8.55659 44.6837 9.13048 44.7669 9.70139 44.8472C9.97198 44.8829 10.2426 44.9186 10.5132 44.9513C11.1584 44.9216 11.4231 45.1416 11.313 45.6144C11.5896 46.3399 11.3695 47.5531 11.4944 48.356C11.6788 49.5216 12.0029 50.6426 12.4608 51.7309C13.1655 53.408 15.3778 56.9494 12.6987 57.9812C11.8215 58.3202 8.52091 58.6651 9.73113 56.6461C10.5459 55.2842 12.1724 56.2625 12.7403 57.3033C13.2904 58.3113 14.8307 57.4133 14.2806 56.4023C12.8176 53.7202 8.23843 53.2593 7.78645 56.9494C7.32259 60.7466 12.9544 60.806 14.8812 58.7573C15.9725 57.5947 15.8714 55.1147 15.3867 53.7172C15.1161 52.9381 14.6493 52.2453 14.3014 51.5019C13.7305 50.2858 13.3499 48.9566 13.1834 47.6215C13.0139 46.2537 13.5878 44.092 11.9702 43.4289C10.9235 43.0007 9.56461 43.0542 8.46144 42.8669C7.12931 42.6409 5.80907 42.3554 4.49775 42.0283C3.92386 41.8856 3.38566 42.2989 3.36782 42.8877C3.29051 45.7631 3.81979 48.2489 4.4591 51.0321C4.79808 52.504 5.0984 54.2108 4.45315 55.647C4.06065 56.5242 2.97829 57.3954 2.26762 56.3458C1.98216 56.0603 1.94946 55.7184 2.16652 55.3169C2.00893 54.6628 2.22302 54.4041 2.81177 54.5438C3.46 54.413 3.97441 54.7401 4.5037 55.0701C5.47901 55.6797 6.37404 54.1365 5.4017 53.5328Z" fill="white"/>
<path d="M4.70029 46.9792C6.83527 46.9911 8.52125 48.683 10.7187 48.5403C11.8575 48.4659 11.8664 46.6818 10.7187 46.7562C8.59559 46.8959 6.85014 45.207 4.70029 45.1951C3.55252 45.1891 3.54955 46.9732 4.70029 46.9792Z" fill="white"/>
<path d="M57.2898 8.11626C56.8378 3.0494 51.0395 3.12969 48.1016 0.251333C47.5486 -0.292819 46.5881 0.105631 46.5792 0.881717C46.5316 5.14275 49.0442 9.43056 51.1168 13.0196C51.7531 14.1228 52.5322 15.2676 51.7917 16.5402C51.4052 17.2033 50.3674 18.3332 49.6181 18.58C48.6844 18.8893 48.057 18.2946 47.5902 17.5869C46.933 16.5937 47.1739 15.6838 48.4436 15.5144C49.3386 15.3924 50.9027 16.6324 51.5479 17.123C52.4608 17.8188 53.3499 16.2696 52.4489 15.5827C50.5161 14.1079 45.9726 12.1364 45.4284 16.0496C45.0568 18.7228 48.2146 21.5952 50.6797 20.0103C51.8364 19.2669 53.0139 18.2411 53.5759 16.9625C54.2241 15.4906 53.7691 14.096 53.0347 12.7609C51.0632 9.18078 48.3217 5.11302 48.3692 0.881717C47.8608 1.09284 47.3553 1.30098 46.8468 1.5121C48.1522 2.79071 49.7579 3.44785 51.4082 4.15852C53.1387 4.90487 55.3243 5.99318 55.5146 8.11626C55.6068 9.25214 57.3909 9.26106 57.2898 8.11626Z" fill="white"/>
</svg>
