<svg width="377" height="117" viewBox="0 0 377 117" fill="none" xmlns="http://www.w3.org/2000/svg">
<path d="M374.323 96.83C365.979 89.6876 356.15 84.5023 345.549 81.651C337.531 79.4892 324.987 76.8486 318.941 84.5205C316.489 87.6366 315.638 91.5587 317.593 95.1524C319.649 98.9679 324.471 101.177 328.218 102.88C338.055 107.357 348.906 109.133 359.663 108.027C365.035 107.478 371.077 105.786 373.862 100.707C374.212 100.067 373.262 99.453 372.911 100.097C370.542 104.413 365.715 105.973 361.144 106.702C355.81 107.545 350.265 107.37 344.957 106.65C339.509 105.868 334.196 104.328 329.173 102.076C324.659 100.082 318.112 97.1073 317.632 91.4522C317.183 86.1998 322.087 82.3709 326.614 81.2004C331.955 79.8163 338.033 81.0579 343.277 82.2573C354.431 84.8653 364.791 90.1255 373.484 97.5947C374.033 98.0637 374.875 97.3038 374.323 96.83Z" fill="#FFD233"/>
<path d="M324.93 89.109L325.65 89.3341C325.793 89.3789 325.948 89.3647 326.081 89.2948C326.214 89.2248 326.314 89.1047 326.359 88.961C326.404 88.8173 326.39 88.6616 326.321 88.5284C326.251 88.3951 326.132 88.295 325.989 88.2502L325.269 88.0251C325.125 87.9804 324.97 87.9945 324.837 88.0645C324.704 88.1345 324.604 88.2545 324.559 88.3983C324.514 88.542 324.528 88.6976 324.597 88.8309C324.667 88.9642 324.786 89.0642 324.93 89.109Z" fill="#FFD233"/>
<path d="M340.246 83.3837C340.709 86.5036 340.475 89.689 339.56 92.7098C338.646 95.7306 337.074 98.5113 334.959 100.851L335.819 101.576C339.786 95.9931 342.01 89.3568 342.211 82.5106C342.211 82.3629 342.154 82.221 342.052 82.1148C341.95 82.0087 341.811 81.9466 341.664 81.9419C341.517 81.9372 341.373 81.9902 341.264 82.0896C341.155 82.189 341.089 82.327 341.08 82.4744C340.887 89.1168 338.723 95.5545 334.864 100.964C334.496 101.484 335.279 102.165 335.721 101.688C337.977 99.2074 339.653 96.2538 340.627 93.043C341.6 89.8322 341.847 86.4454 341.349 83.1297C341.244 82.4029 340.139 82.6641 340.246 83.3837Z" fill="#FFD233"/>
<path d="M340.863 81.6016C338.675 89.282 336.438 97.0184 332.119 103.818C331.783 104.348 332.529 105.033 332.974 104.546C338.064 98.9239 341.109 91.7424 341.612 84.1719C341.662 83.442 340.528 83.4047 340.481 84.1357C340.002 91.404 337.088 98.3016 332.212 103.709L333.069 104.433C337.424 97.541 339.728 89.7183 341.943 81.9392C342.161 81.2419 341.082 80.9007 340.863 81.6016Z" fill="#FFD233"/>
<path d="M340.44 81.7667C340.507 89.1329 338.151 96.3208 333.738 102.218C333.345 102.742 334.13 103.376 334.593 102.946C337.227 100.484 339.323 97.5008 340.748 94.1857C342.173 90.8705 342.895 87.2958 342.87 83.6885C342.864 82.961 341.737 82.9139 341.736 83.6512C341.734 91.9477 339.434 100.62 332.876 106.149C332.389 106.556 332.984 107.436 333.521 107.069C336.316 105.163 338.68 102.689 340.461 99.8091C342.241 96.9289 343.399 93.7064 343.858 90.3509C343.958 89.6248 342.826 89.5922 342.728 90.3111C342.287 93.4693 341.194 96.5018 339.519 99.2145C337.843 101.927 335.622 104.26 332.998 106.064L333.638 106.986C340.419 101.273 342.865 92.2736 342.868 83.6958L341.733 83.6584C341.766 87.1144 341.08 90.5407 339.719 93.7187C338.358 96.8967 336.352 99.7567 333.829 102.116L334.685 102.84C339.213 96.7709 341.632 89.3833 341.572 81.8113C341.567 81.0801 340.434 81.0391 340.437 81.7739L340.44 81.7667Z" fill="#FFD233"/>
<path d="M343.201 84.819C343.627 92.0307 341.384 99.1517 336.902 104.817L337.856 105.429C342.347 99.286 344.688 91.8296 344.514 84.2221L343.397 84.3328C344.161 87.5934 344.164 90.9886 343.405 94.2536C342.646 97.5186 341.146 100.565 339.022 103.156L339.972 103.77C344.088 97.7201 348.412 90.8424 347.034 83.2015C346.922 82.5634 345.931 82.674 345.917 83.3122C345.822 88.8976 344.656 94.4146 342.481 99.5616C342.196 100.234 343.278 100.564 343.561 99.8993C345.77 94.6558 346.956 89.0374 347.051 83.3496L345.93 83.4592C347.25 90.7649 342.942 97.3898 339.022 103.156C338.598 103.777 339.522 104.324 339.972 103.77C342.183 101.055 343.743 97.8661 344.531 94.4516C345.319 91.0372 345.314 87.4884 344.515 84.0797C344.371 83.4673 343.382 83.5348 343.398 84.1904C343.573 91.5929 341.293 98.8494 336.916 104.822C336.48 105.419 337.425 106 337.871 105.434C342.473 99.5975 344.778 92.2725 344.349 84.8525C344.311 84.1268 343.173 84.0883 343.219 84.8127L343.201 84.819Z" fill="#FFD233"/>
<path d="M356.017 88.001C356.942 94.3573 355.46 100.835 351.862 106.159C351.449 106.772 352.385 107.354 352.813 106.77C356.93 101.162 359.652 94.6509 360.75 87.7792L359.62 87.7393C359.073 93.9139 358.231 101.031 352.83 104.983L353.687 105.707C357.139 101.129 359.718 95.9511 361.291 90.435L360.165 90.2419C359.793 96.6171 357.523 102.738 353.649 107.813L354.683 108.295L362.295 90.8125L361.206 90.7694C361.634 92.8916 361.619 95.0807 361.161 97.1984C360.703 99.3162 359.812 101.317 358.545 103.073C358.121 103.67 359.072 104.281 359.495 103.687C360.841 101.801 361.784 99.6563 362.265 97.3887C362.746 95.121 362.755 92.7791 362.291 90.5098C362.172 89.9053 361.407 89.9875 361.197 90.4692L353.585 107.951C353.311 108.576 354.24 108.906 354.599 108.427C358.582 103.183 360.913 96.8679 361.292 90.2926C361.295 90.1566 361.249 90.0242 361.162 89.9196C361.076 89.8149 360.955 89.7449 360.821 89.7224C360.687 89.6998 360.55 89.7261 360.434 89.7966C360.318 89.867 360.23 89.9769 360.188 90.1062C358.647 95.5247 356.118 100.612 352.731 105.11C352.313 105.662 353.109 106.188 353.587 105.834C359.226 101.704 360.167 94.268 360.745 87.7937C360.812 87.0491 359.728 87.0514 359.616 87.7538C358.527 94.4227 355.867 100.738 351.857 106.174L352.808 106.784C356.564 101.2 358.101 94.4123 357.117 87.7579C357.011 87.0347 355.907 87.2923 356.013 88.0155L356.017 88.001Z" fill="#FFD233"/>
<path d="M343.538 83.1403C342.803 76.2275 343.768 69.2358 346.348 62.7766C346.898 61.3977 347.667 60.1234 348.908 59.2658C351.064 57.7665 351.88 60.5917 352.131 62.1773C352.662 65.8176 352.452 69.5295 351.514 73.0892L352.62 73.2803C353.233 69.601 356.749 67.9994 360.022 67.3014C361.604 66.9337 363.221 66.7411 364.845 66.7271C367.103 66.7589 367.408 69.3093 367.345 70.9909C367.103 77.1223 362.609 83.1058 357.669 86.3406C357.063 86.738 357.581 87.7487 358.197 87.3463C361.531 85.1683 364.261 82.1775 366.131 78.6544C367.755 75.6206 369.283 71.363 368.074 67.9509C366.795 64.3426 361.88 65.7446 359.135 66.3459C355.5 67.1253 352.14 69.3905 351.496 73.2582C351.389 73.8911 352.432 74.0583 352.6 73.4446C353.669 69.306 353.817 64.984 353.033 60.7854C352.45 57.7714 349.8 57.0424 347.559 58.9155C344.731 61.2875 343.834 66.2303 343.09 69.6189C342.134 74.1608 341.918 78.8265 342.45 83.4347C342.527 84.1609 343.629 83.8985 343.553 83.1807L343.538 83.1403Z" fill="#FFD233"/>
<path d="M335.637 78.9248C334.913 75.6596 334.732 72.2959 335.102 68.9693C335.307 67.0503 335.789 63.9649 338.439 64.5276C339.998 64.8605 341.235 66.4529 342.129 67.6644C342.566 68.2529 343.4 67.4788 342.965 66.8986C341.465 64.8829 337.291 61.1585 335.156 64.7267C334.05 66.5702 333.925 68.867 333.795 70.964C333.656 73.7277 333.904 76.4964 334.531 79.1897C334.547 79.2624 334.578 79.331 334.621 79.3917C334.665 79.4523 334.719 79.5039 334.782 79.5433C334.845 79.5827 334.916 79.6093 334.989 79.6215C335.062 79.6336 335.137 79.6312 335.21 79.6143C335.282 79.5974 335.351 79.5663 335.412 79.5229C335.472 79.4794 335.524 79.4245 335.563 79.3611C335.602 79.2978 335.629 79.2273 335.641 79.1536C335.654 79.08 335.651 79.0047 335.635 78.9321L335.637 78.9248Z" fill="#FFD233"/>
<g clip-path="url(#clip0_1018_212)">
<path d="M264.102 38.198C263.256 39.075 263.961 40.0544 264.774 40.6625C266.171 41.7123 268.353 41.8532 270.01 41.6803C273.535 41.3155 276.662 38.6781 277.03 35.0774C277.411 31.3487 272.865 29.662 269.831 30.2541C267.938 30.6059 266.248 31.6586 265.099 33.2016C263.95 34.7445 263.427 36.6639 263.634 38.5757C263.695 39.187 264.656 39.1902 264.595 38.5757C264.435 37.2476 264.671 35.9019 265.272 34.7067C265.873 33.5114 266.813 32.5194 267.975 31.8544C270.436 30.4269 274.941 30.8302 275.96 33.8804C276.838 36.5017 274.358 39.0014 272.253 40.0512C271.147 40.5528 269.942 40.7979 268.728 40.7681C268.369 40.7681 263.813 39.8688 264.794 38.8478C265.226 38.4029 264.547 37.7212 264.114 38.166L264.102 38.198Z" fill="#FFD233"/>
<path d="M266.671 32.1904C267.108 28.3603 266.159 24.5002 263.995 21.3083C262.537 19.1222 258.638 15.0575 255.873 17.7556C253.508 20.0632 254.232 23.8752 254.998 26.7173C256.158 30.7814 258.396 34.4564 261.477 37.353L262.06 36.5977C260.676 35.6998 259.064 35.2168 257.415 35.206C255.765 35.1952 254.147 35.6571 252.752 36.5368C251.44 37.3818 250.399 38.5847 249.751 40.0029C249.103 41.4211 248.876 42.9951 249.096 44.5384C249.653 47.9311 253.8 48.3504 256.433 47.5982C260.298 46.494 263.969 43.6806 266.985 41.1169L266.305 40.4352C265.295 41.5971 264.524 42.9464 264.035 44.4061C263.547 45.8658 263.352 47.4073 263.46 48.9425C263.639 51.8454 265.149 55.0589 268.157 55.843C271.22 56.64 272.617 53.8618 273.226 51.4165C274.187 47.595 273.7 43.5238 272.819 39.7407C272.678 39.1357 271.752 39.3918 271.89 39.9935C272.529 42.5839 272.817 45.2482 272.746 47.9151C272.653 50.5748 272.105 55.4781 268.41 54.9564C265.565 54.5436 264.537 50.8788 264.389 48.4912C264.275 45.8031 265.205 43.1749 266.985 41.1553C267.075 41.0654 267.126 40.9432 267.126 40.8156C267.127 40.6881 267.076 40.5656 266.986 40.4752C266.896 40.3848 266.774 40.3339 266.646 40.3336C266.518 40.3333 266.396 40.3836 266.305 40.4736C264.221 42.246 261.967 43.8091 259.577 45.1401C256.956 46.6092 253.364 48.2575 250.781 45.8187C248.199 43.3798 251.07 38.9341 253.226 37.3946C255.706 35.6247 259.083 35.8871 261.557 37.4554C261.657 37.5111 261.775 37.5289 261.887 37.5057C262 37.4824 262.1 37.4195 262.171 37.3285C262.241 37.2375 262.276 37.1243 262.27 37.0096C262.263 36.8949 262.216 36.7862 262.137 36.7033C259.702 34.3679 257.806 31.5317 256.578 28.3913C255.514 25.7155 254.556 22.2429 255.77 19.4711C257.776 14.8974 262.701 20.8794 263.937 23.0142C265.495 25.8027 266.116 29.0168 265.709 32.184C265.639 32.7985 266.6 32.7921 266.671 32.184V32.1904Z" fill="#FFD233"/>
<path d="M270.717 40.3616C271.354 43.7841 273.26 46.8404 276.055 48.9201C278.711 50.8405 282.588 52.3032 285.526 50.1235C288.154 48.1744 287.548 44.3624 286.02 41.9811C283.905 38.6781 279.83 36.6297 276.106 35.8231L275.85 36.7513C279.961 37.321 284.389 35.8743 287.545 33.2082C290.496 30.7117 290.925 26.4581 288 23.824C285.293 21.3851 280.451 20.6234 277.106 22.0541C273.761 23.4847 271.544 26.9894 272.466 30.6477C272.617 31.2494 273.543 30.9934 273.392 30.3949C272.62 27.3287 274.411 24.4737 277.106 23.0911C280.051 21.5836 283.921 22.3613 286.622 24.0032C290.435 26.3205 289.186 30.7725 286.148 33.093C283.412 35.1766 279.49 36.2936 276.09 35.8231C275.494 35.7431 275.216 36.6169 275.834 36.7513C278.87 37.3826 281.67 38.848 283.918 40.9825C286.311 43.2614 287.763 47.7487 284.274 49.7907C281.605 51.3526 277.917 49.2786 275.885 47.5694C273.656 45.6398 272.154 43.0076 271.627 40.1088C271.512 39.5006 270.582 39.7567 270.701 40.3616H270.717Z" fill="#FFD233"/>
<path d="M264.569 22.3677C262.553 19.1191 265.53 15.7936 268.926 15.9665C272.617 16.1649 274.402 20.0633 274.178 23.3023C274.133 23.92 275.094 23.9136 275.139 23.3023C275.44 18.9751 272.637 14.8879 268.029 14.9807C264.136 15.0671 261.701 19.5448 263.739 22.8286C264.059 23.3535 264.895 22.8734 264.569 22.3453V22.3677Z" fill="#FFD233"/>
</g>
<g clip-path="url(#clip1_1018_212)">
<path d="M310.685 23.5934C311.29 24.3782 312.162 23.9274 312.748 23.3448C313.758 22.3455 314.131 20.6067 314.189 19.2533C314.314 16.3742 312.563 13.5448 309.71 12.8206C306.755 12.0709 304.858 15.5287 304.974 18.0403C305.032 19.6049 305.679 21.0895 306.783 22.1972C307.888 23.3049 309.371 23.954 310.933 24.0147C311.432 24.0383 311.549 23.2653 311.048 23.2413C309.96 23.2119 308.905 22.8626 308.015 22.2369C307.125 21.6112 306.438 20.7369 306.041 19.7231C305.185 17.5736 306.045 13.9969 308.62 13.5395C310.833 13.1445 312.55 15.4368 313.144 17.2552C313.417 18.2044 313.471 19.203 313.302 20.1761C313.26 20.4649 311.995 24.0239 311.29 23.1138C310.983 22.7129 310.354 23.1784 310.661 23.5793L310.685 23.5934Z" fill="#FFD233"/>
<path d="M306.158 20.8123C303.128 20.0053 299.91 20.3103 297.084 21.6722C295.152 22.5855 291.419 25.24 293.261 27.7853C294.837 29.962 297.99 29.8322 300.368 29.5537C303.775 29.1034 306.998 27.7388 309.694 25.6044L309.156 25.0455C308.269 26.0519 307.689 27.2915 307.485 28.6175C307.28 29.9436 307.459 31.3004 308.001 32.5273C308.525 33.6829 309.369 34.6637 310.434 35.3535C311.498 36.0434 312.737 36.4132 314.005 36.4193C316.801 36.3737 317.631 33.0877 317.338 30.8792C316.909 27.639 315.082 24.3505 313.377 21.62L312.748 22.0856C313.563 23.0365 314.557 23.8173 315.673 24.3835C316.79 24.9497 318.007 25.2902 319.255 25.3854C321.612 25.5859 324.376 24.7534 325.365 22.4259C326.37 20.056 324.301 18.602 322.405 17.8217C319.445 16.5943 316.111 16.5025 312.963 16.7621C312.459 16.8036 312.556 17.5791 313.056 17.5397C315.216 17.3335 317.394 17.4185 319.531 17.7924C321.66 18.1831 325.54 19.2065 324.681 22.1169C324.011 24.3571 320.941 24.7493 319.002 24.5842C316.826 24.3567 314.822 23.2963 313.408 21.6246C313.346 21.5411 313.254 21.4855 313.152 21.4701C313.049 21.4548 312.944 21.4808 312.861 21.5425C312.778 21.6043 312.722 21.6966 312.707 21.7993C312.691 21.902 312.717 22.0066 312.779 22.0902C313.957 23.9775 314.947 25.9765 315.734 28.0582C316.605 30.3415 317.504 33.4272 315.235 35.2154C312.966 37.0035 309.73 34.1655 308.748 32.2477C307.618 30.0421 308.231 27.3561 309.786 25.5522C309.843 25.4778 309.871 25.3856 309.866 25.2923C309.861 25.1989 309.822 25.1105 309.757 25.0432C309.692 24.976 309.605 24.9342 309.512 24.9256C309.419 24.917 309.326 24.942 309.25 24.9962C307.082 26.6774 304.575 27.8666 301.902 28.4816C299.623 29.0196 296.715 29.3779 294.629 28.0716C291.188 25.9144 296.586 22.6627 298.45 21.9212C300.879 20.9992 303.538 20.8813 306.038 21.5849C306.524 21.7146 306.634 20.9405 306.153 20.8115L306.158 20.8123Z" fill="#FFD233"/>
<path d="M313.212 18.5269C316.041 18.4209 318.727 17.2502 320.732 15.2487C322.593 13.3397 324.23 10.3941 322.825 7.7712C321.569 5.42572 318.43 5.46012 316.333 6.40694C313.424 7.71602 311.292 10.7519 310.2 13.6516L310.917 13.9681C311.864 10.7283 311.226 6.99369 309.455 4.13767C307.797 1.4668 304.426 0.616053 301.959 2.65682C299.675 4.54549 298.487 8.35031 299.241 11.2117C299.995 14.073 302.551 16.2733 305.604 15.9654C306.106 15.9157 306.01 15.1403 305.511 15.1903C302.952 15.4474 300.868 13.6672 300.075 11.3348C299.212 8.78661 300.298 5.76482 301.94 3.78664C304.257 0.994128 307.691 2.52841 309.197 5.24798C310.548 7.69708 310.981 10.9852 310.199 13.6645C310.063 14.1345 310.733 14.4626 310.915 13.981C311.784 11.613 313.295 9.53451 315.28 7.97946C317.397 6.32443 321.18 5.68966 322.409 8.73964C323.348 11.0726 321.241 13.7935 319.625 15.2249C317.808 16.789 315.511 17.685 313.116 17.7647C312.613 17.7853 312.709 18.5633 313.21 18.5398L313.212 18.5269Z" fill="#FFD233"/>
<path d="M298.005 21.3365C295.152 22.5722 292.83 19.7822 293.372 17.0701C293.97 14.1238 297.319 13.151 299.898 13.7162C300.39 13.8257 300.499 13.0516 300.012 12.9429C296.567 12.1865 292.945 13.9567 292.472 17.6748C292.08 20.8173 295.393 23.3085 298.277 22.059C298.737 21.8635 298.451 21.1337 297.987 21.3339L298.005 21.3365Z" fill="#FFD233"/>
</g>
<g clip-path="url(#clip2_1018_212)">
<path d="M27.9176 51.2726C25.7142 45.2326 21.1252 40.3976 14.6378 39.3017C9.01598 38.3546 3.1581 41.2605 1.00382 46.6707C-1.06685 51.8776 -0.0339754 57.7539 4.44674 61.3194C6.53421 62.9229 9.05488 63.8505 11.676 63.9797C14.2972 64.109 16.8956 63.4338 19.1283 62.0434L18.1446 61.0219C14.5935 65.8469 10.8702 71.6439 13.4377 77.8029C15.4051 82.499 20.9826 83.5404 25.4436 82.7618C39.0776 80.4162 36.2642 60.7243 30.7408 52.2991C30.2195 51.5007 28.9407 52.2445 29.4669 53.0479C32.1863 57.1826 33.6918 62.0079 33.8099 66.9676C33.9772 72.4224 32.5803 78.5814 27.1061 80.7535C22.6401 82.5238 16.6101 81.5866 14.5837 76.7268C12.3556 71.386 16.4379 65.8172 19.4185 61.7657C19.8661 61.1508 19.0054 60.3673 18.4053 60.7442C14.5148 63.2236 9.73408 62.9509 5.88293 60.5161C1.54977 57.7738 0.6792 52.2346 2.23835 47.6625C4.09261 42.2325 9.75867 39.9662 15.0706 40.8638C20.6039 41.811 24.637 46.5864 26.506 51.6743C26.8306 52.5669 28.257 52.1702 27.9275 51.2776L27.9176 51.2726Z" fill="#8BD5ED"/>
<path d="M27.8035 49.8494C24.6458 44.0326 22.3932 36.4603 27.3116 30.8765C30.6562 27.0929 34.8664 29.6021 35.4222 33.9163C35.8304 37.095 34.1385 40.4473 33.563 43.5268C33.445 44.1813 34.286 44.8806 34.7975 44.2508C40.9997 36.6388 51.0776 44.4938 54.7517 50.6428C58.0028 56.0977 51.6728 59.7524 47.1232 60.1392C42.431 60.5409 37.8666 58.2796 33.7548 56.3208C32.899 55.9142 32.1514 57.1936 33.0121 57.6052C38.3044 60.1293 43.7295 62.4798 49.6906 61.2599C54.25 60.3227 58.052 56.301 56.7289 51.4809C56.0895 49.1651 54.1517 47.1567 52.5679 45.4558C50.7903 43.4542 48.6107 41.8568 46.1739 40.7696C41.9195 39.034 36.8043 39.4406 33.745 43.1995L34.9795 43.9235C35.7714 39.6638 37.8666 35.5528 36.2485 31.2336C35.0779 28.1243 32.0825 26.8251 29.038 27.9012C25.4082 29.1855 23.5736 33.4453 23.0572 36.9711C22.3538 41.7564 24.2868 46.4872 26.5001 50.6032C26.9526 51.4412 28.2314 50.6924 27.774 49.8494H27.8035Z" fill="#8BD5ED"/>
<path d="M24.7792 44.4044C19.4507 36.3738 12.1533 29.8688 3.59541 25.5208C2.74944 25.0894 2.00183 26.3738 2.85272 26.8052C11.1925 31.023 18.3088 37.3437 23.5102 45.1532C24.0365 45.9467 25.3153 45.2028 24.7841 44.4044H24.7792Z" fill="#8BD5ED"/>
<path d="M24.6751 45.907C21.8569 37.5562 19.0189 28.8533 20.5289 19.9371C20.6863 18.9949 19.2648 18.5932 19.1074 19.5404C17.5483 28.7591 20.3371 37.6554 23.2537 46.3186C23.5586 47.2212 24.9801 46.8145 24.6751 45.9219V45.907Z" fill="#8BD5ED"/>
<path d="M24.7101 48.2329C21.6853 46.2493 16.9636 46.8642 14.9273 50.0826C11.6861 55.2052 18.8965 56.2763 22.487 55.3142L21.6558 54.2183C21.0463 55.3903 20.6776 56.6743 20.572 57.9933C20.4664 59.3124 20.6259 60.6394 21.041 61.8948C21.5328 63.437 23.1903 65.4255 25.0151 65.0238C30.2926 63.8535 28.6006 55.7606 26.4513 52.6265C25.9152 51.848 24.6314 52.5868 25.1774 53.3803C26.9185 55.9093 27.6809 59.1624 26.4316 62.0931C25.9053 63.432 24.8429 63.6701 23.2395 62.7923C22.738 62.1926 22.3871 61.4799 22.2165 60.7145C21.6115 58.8004 22.0689 56.7028 22.9297 54.9622C23.0002 54.8336 23.0319 54.6871 23.0209 54.5407C23.01 54.3942 22.9568 54.2542 22.868 54.1378C22.7792 54.0214 22.6586 53.9336 22.521 53.8854C22.3834 53.8372 22.2348 53.8305 22.0935 53.8662C20.628 54.2855 19.0804 54.3196 17.598 53.9654C14.647 53.3059 15.9356 50.6925 17.598 49.5024C18.5415 48.8741 19.6472 48.5391 20.7778 48.5391C21.9085 48.5391 23.0142 48.8741 23.9576 49.5024C24.7593 50.028 25.4971 48.7387 24.7003 48.218L24.7101 48.2329Z" fill="#8BD5ED"/>
<path d="M25.7631 47.5435C26.3843 46.2983 27.2165 45.1722 28.2223 44.216L30.3864 44.7764C30.5193 45.5539 30.4376 46.3533 30.1503 47.0873C29.9241 47.8658 29.6585 48.5749 29.4962 49.3882C29.4565 49.5459 29.4688 49.7124 29.5314 49.8624C29.5939 50.0124 29.7031 50.1378 29.8426 50.2196C29.9821 50.3014 30.1443 50.3352 30.3045 50.3158C30.4647 50.2964 30.6144 50.225 30.7307 50.1122C32.885 48.2923 35.2655 46.4376 38.2215 47.4939L37.6805 46.7798C37.71 51.6247 29.4372 51.2081 26.2107 51.1734C26.0158 51.176 25.8296 51.2552 25.6918 51.3941C25.554 51.5331 25.4754 51.7208 25.4729 51.9172V55.4976C25.4729 55.6949 25.5506 55.8841 25.689 56.0236C25.8273 56.1631 26.015 56.2414 26.2107 56.2414C26.4063 56.2414 26.594 56.1631 26.7323 56.0236C26.8707 55.8841 26.9484 55.6949 26.9484 55.4976V51.9172L26.2107 52.6611C30.3766 52.7057 39.1905 52.9041 39.156 46.7798C39.1541 46.6173 39.1005 46.4598 39.0031 46.3304C38.9057 46.2009 38.7697 46.1064 38.615 46.0607C35.1377 44.8161 32.2554 46.8839 29.6831 49.0609L30.9324 49.7849C31.4242 47.3054 33.2047 43.8342 30.0962 42.3465C27.7108 41.1812 25.3106 45.1979 24.4892 46.8096C24.0564 47.6625 25.3302 48.4113 25.7631 47.5584V47.5435Z" fill="#8BD5ED"/>
<path d="M17.0485 50.8511C16.9329 52.2024 16.9329 53.5612 17.0485 54.9125C17.0977 55.4729 17.8699 56.0084 18.3076 55.4381C19.4857 53.9406 20.3553 52.221 20.8652 50.38L19.3897 50.1817C19.5175 51.5454 19.6208 52.9041 19.6946 54.2678C19.734 54.967 20.7078 55.334 21.0718 54.6447L23.8605 49.3287L22.4883 48.9519L23.4031 62.1278C23.4572 62.9113 24.7311 63.1989 24.8787 62.3211C25.1246 60.5558 25.3738 58.7904 25.6263 57.025H24.1999C24.5635 58.4116 24.5888 59.8663 24.2737 61.2649L25.7197 61.4632C26.1525 56.5043 26.5821 51.5454 27.0084 46.5864L25.5623 46.7848C25.7689 48.332 25.9804 49.8841 26.1919 51.4313C26.2952 52.19 27.4412 52.0958 27.6133 51.4313C28.0509 49.7406 28.2772 48.0015 28.2872 46.2542H26.8116C26.8198 47.1305 27.0167 47.9945 27.3886 48.7865C27.7606 49.5785 28.2987 50.2796 28.9659 50.8412C29.1057 50.9796 29.2938 51.0572 29.4897 51.0572C29.6856 51.0572 29.8737 50.9796 30.0135 50.8412L31.3612 49.0907L30.2053 48.9419C30.6703 49.7311 31.2469 50.4478 31.917 51.0693C32.2957 51.4065 33.0531 51.3272 33.1515 50.742C33.3043 49.8449 33.5146 48.9587 33.7811 48.089L32.4334 48.2626C32.6547 48.7089 32.881 49.1552 33.1072 49.5965C33.1894 49.7388 33.3161 49.8496 33.4674 49.9115C33.6187 49.9734 33.7861 49.983 33.9434 49.9387C34.5066 49.7144 35.1087 49.6065 35.714 49.6213C36.6584 49.5767 36.6633 48.089 35.714 48.1336C34.979 48.1558 34.2507 48.2809 33.5499 48.5056L34.3811 48.8477C34.1549 48.4014 33.9286 47.9601 33.7073 47.5138C33.6317 47.39 33.5222 47.2909 33.3921 47.2285C33.2619 47.166 33.1166 47.1428 32.9737 47.1617C32.8308 47.1805 32.6963 47.2407 32.5865 47.3348C32.4767 47.4289 32.3962 47.5531 32.3547 47.6923C32.0922 48.5627 31.8835 49.4488 31.7301 50.3453L32.9646 50.018C32.3708 49.4861 31.8572 48.8696 31.4399 48.1882C31.3822 48.0905 31.3032 48.0073 31.2088 47.945C31.1145 47.8827 31.0073 47.8429 30.8955 47.8285C30.7836 47.8142 30.67 47.8257 30.5632 47.8623C30.4564 47.8988 30.3592 47.9594 30.2791 48.0394L28.9659 49.785H30.0135C29.4854 49.3594 29.0585 48.8201 28.764 48.2066C28.4696 47.5931 28.315 46.9209 28.3117 46.2393C28.3117 46.042 28.234 45.8528 28.0957 45.7133C27.9573 45.5738 27.7696 45.4955 27.574 45.4955C27.3783 45.4955 27.1907 45.5738 27.0523 45.7133C26.9139 45.8528 26.8362 46.042 26.8362 46.2393C26.8249 47.8524 26.6168 49.4579 26.2165 51.0197H27.6379C27.4264 49.4725 27.2198 47.9204 27.0084 46.3732C26.8903 45.4856 25.6263 45.798 25.5328 46.5716C25.1033 51.5305 24.6737 56.4894 24.2442 61.4484C24.1753 62.2864 25.523 62.4402 25.7197 61.6467C26.0907 59.9869 26.0671 58.2622 25.6509 56.6134C25.4836 55.939 24.3327 55.8596 24.2245 56.6134C23.9786 58.3788 23.731 60.1458 23.4818 61.9145L24.9278 62.1129L24.013 48.937C23.9638 48.2427 23.0293 47.8609 22.6358 48.5601L19.8471 53.881L21.2193 54.253C21.1456 52.8893 21.0423 51.5305 20.9144 50.1668C20.9405 49.9695 20.8878 49.7699 20.7679 49.6118C20.6479 49.4537 20.4707 49.3501 20.275 49.3238C20.0793 49.2975 19.8813 49.3506 19.7245 49.4715C19.5677 49.5924 19.4649 49.7712 19.4388 49.9684C19.016 51.569 18.2765 53.0669 17.2649 54.372L18.524 54.8976C18.4084 53.5463 18.4084 52.1875 18.524 50.8362C18.6027 49.8792 17.1272 49.8891 17.0485 50.8362V50.8511Z" fill="#8BD5ED"/>
</g>
<defs>
<clipPath id="clip0_1018_212">
<rect width="41" height="41" fill="white" transform="translate(249 14.9999)"/>
</clipPath>
<clipPath id="clip1_1018_212">
<rect width="33.3453" height="33.3453" fill="white" transform="translate(290.227 32.9877) rotate(-81.6012)"/>
</clipPath>
<clipPath id="clip2_1018_212">
<rect width="57" height="64" fill="white" transform="translate(0 18.9999)"/>
</clipPath>
</defs>
</svg>
