<svg width="942" height="211" viewBox="0 0 942 211" fill="none" xmlns="http://www.w3.org/2000/svg">
<g clip-path="url(#clip0_1019_213)">
<path d="M929.69 129.325C919.799 120.858 908.148 114.712 895.582 111.332C886.078 108.77 871.209 105.64 864.042 114.734C861.136 118.427 860.127 123.076 862.445 127.336C864.881 131.859 870.597 134.478 875.039 136.497C886.699 141.803 899.561 143.908 912.312 142.598C918.68 141.946 925.841 139.94 929.143 133.921C929.558 133.162 928.432 132.434 928.015 133.197C925.207 138.313 919.486 140.163 914.067 141.026C907.745 142.025 901.172 141.818 894.881 140.965C888.422 140.038 882.125 138.213 876.171 135.544C870.82 133.18 863.06 129.654 862.49 122.95C861.959 116.724 867.771 112.186 873.138 110.798C879.469 109.158 886.672 110.629 892.889 112.051C906.11 115.142 918.39 121.378 928.694 130.231C929.345 130.787 930.343 129.886 929.69 129.325Z" fill="#FFD233"/>
<path d="M871.141 120.173L871.994 120.44C872.164 120.493 872.348 120.476 872.506 120.393C872.663 120.31 872.782 120.168 872.835 119.997C872.888 119.827 872.872 119.642 872.79 119.484C872.707 119.326 872.566 119.208 872.396 119.155L871.542 118.888C871.373 118.835 871.189 118.852 871.031 118.935C870.873 119.018 870.755 119.16 870.702 119.33C870.648 119.501 870.665 119.685 870.747 119.843C870.829 120.001 870.971 120.12 871.141 120.173Z" fill="#FFD233"/>
<path d="M889.296 113.386C889.845 117.084 889.567 120.86 888.483 124.441C887.399 128.022 885.536 131.318 883.029 134.091L884.049 134.951C888.75 128.333 891.387 120.467 891.625 112.351C891.625 112.176 891.558 112.008 891.437 111.882C891.316 111.756 891.151 111.683 890.977 111.677C890.802 111.672 890.632 111.734 890.503 111.852C890.374 111.97 890.295 112.134 890.284 112.308C890.055 120.182 887.49 127.813 882.917 134.225C882.481 134.841 883.409 135.649 883.932 135.083C886.606 132.143 888.593 128.642 889.747 124.836C890.901 121.03 891.194 117.015 890.603 113.085C890.479 112.224 889.169 112.533 889.296 113.386V113.386Z" fill="#FFD233"/>
<path d="M890.027 111.274C887.433 120.378 884.782 129.548 879.662 137.608C879.264 138.236 880.149 139.049 880.676 138.471C886.71 131.807 890.319 123.294 890.915 114.32C890.975 113.455 889.63 113.411 889.575 114.278C889.007 122.893 885.553 131.069 879.773 137.478L880.788 138.336C885.951 130.168 888.682 120.895 891.307 111.674C891.565 110.847 890.286 110.443 890.027 111.274V111.274Z" fill="#FFD233"/>
<path d="M889.526 111.469C889.605 120.201 886.813 128.721 881.581 135.712C881.115 136.332 882.047 137.084 882.595 136.574C885.717 133.656 888.202 130.12 889.891 126.19C891.58 122.261 892.437 118.023 892.406 113.747C892.4 112.885 891.063 112.829 891.062 113.703C891.06 123.537 888.333 133.817 880.56 140.371C879.983 140.853 880.687 141.896 881.325 141.461C884.637 139.202 887.439 136.27 889.55 132.856C891.661 129.442 893.033 125.622 893.577 121.645C893.696 120.784 892.354 120.745 892.238 121.598C891.716 125.341 890.42 128.936 888.434 132.151C886.448 135.367 883.815 138.132 880.704 140.27L881.463 141.363C889.501 134.591 892.401 123.924 892.404 113.756L891.059 113.712C891.098 117.808 890.284 121.87 888.671 125.637C887.058 129.404 884.68 132.794 881.689 135.59L882.705 136.448C888.071 129.255 890.939 120.498 890.868 111.522C890.862 110.656 889.519 110.607 889.523 111.478L889.526 111.469Z" fill="#FFD233"/>
<path d="M892.799 115.087C893.303 123.636 890.644 132.077 885.332 138.793L886.463 139.518C891.786 132.236 894.561 123.397 894.355 114.38L893.031 114.511C893.937 118.376 893.94 122.401 893.04 126.271C892.141 130.141 890.363 133.752 887.844 136.823L888.971 137.551C893.85 130.38 898.975 122.227 897.343 113.17C897.209 112.414 896.034 112.545 896.018 113.301C895.906 119.922 894.523 126.462 891.945 132.563C891.607 133.36 892.89 133.751 893.225 132.963C895.844 126.748 897.249 120.088 897.363 113.346L896.034 113.476C897.599 122.135 892.492 129.988 887.844 136.823C887.343 137.56 888.438 138.208 888.971 137.551C891.592 134.332 893.442 130.553 894.375 126.506C895.309 122.458 895.303 118.252 894.357 114.211C894.185 113.485 893.013 113.565 893.032 114.342C893.239 123.117 890.537 131.718 885.349 138.798C884.832 139.506 885.952 140.195 886.48 139.523C891.935 132.605 894.668 123.922 894.159 115.127C894.114 114.267 892.765 114.221 892.82 115.08L892.799 115.087Z" fill="#FFD233"/>
<path d="M907.99 118.86C909.087 126.394 907.329 134.073 903.065 140.383C902.575 141.109 903.685 141.8 904.192 141.107C909.072 134.46 912.298 126.742 913.6 118.597L912.261 118.549C911.612 125.868 910.614 134.305 904.213 138.989L905.228 139.847C909.321 134.421 912.377 128.283 914.241 121.745L912.907 121.516C912.466 129.073 909.775 136.328 905.183 142.343L906.409 142.915L915.432 122.192L914.141 122.141C914.649 124.657 914.631 127.251 914.088 129.762C913.545 132.272 912.489 134.643 910.986 136.725C910.484 137.433 911.612 138.157 912.113 137.453C913.708 135.217 914.826 132.675 915.396 129.987C915.966 127.299 915.977 124.523 915.427 121.833C915.285 121.117 914.379 121.214 914.13 121.785L905.108 142.508C904.783 143.248 905.883 143.639 906.309 143.071C911.03 136.856 913.793 129.37 914.242 121.576C914.246 121.415 914.191 121.258 914.089 121.134C913.986 121.01 913.843 120.927 913.684 120.9C913.526 120.873 913.363 120.904 913.225 120.988C913.088 121.071 912.985 121.202 912.934 121.355C911.107 127.778 908.11 133.808 904.095 139.14C903.6 139.794 904.543 140.418 905.11 139.998C911.794 135.102 912.91 126.288 913.595 118.614C913.674 117.731 912.389 117.734 912.256 118.566C910.966 126.471 907.813 133.957 903.059 140.4L904.187 141.124C908.638 134.505 910.46 126.459 909.294 118.571C909.168 117.714 907.859 118.019 907.985 118.877L907.99 118.86Z" fill="#FFD233"/>
<path d="M893.198 113.098C892.327 104.904 893.47 96.6159 896.529 88.9595C897.18 87.325 898.093 85.8145 899.563 84.798C902.119 83.0208 903.086 86.3696 903.384 88.2491C904.013 92.5641 903.764 96.9641 902.652 101.183L903.963 101.41C904.689 97.0488 908.857 95.1503 912.737 94.3229C914.612 93.8871 916.529 93.6588 918.454 93.6422C921.131 93.6799 921.493 96.703 921.417 98.6963C921.131 105.964 915.804 113.057 909.949 116.891C909.23 117.362 909.844 118.56 910.574 118.083C914.526 115.501 917.762 111.956 919.978 107.78C921.903 104.184 923.715 99.1374 922.282 95.0928C920.766 90.8157 914.939 92.4776 911.686 93.1904C907.378 94.1142 903.395 96.7992 902.632 101.384C902.505 102.134 903.74 102.332 903.94 101.605C905.207 96.6992 905.382 91.576 904.453 86.5993C903.761 83.0265 900.621 82.1624 897.964 84.3828C894.612 87.1943 893.549 93.0533 892.668 97.07C891.534 102.454 891.278 107.984 891.909 113.447C892 114.307 893.306 113.996 893.216 113.145L893.198 113.098Z" fill="#FFD233"/>
<path d="M883.833 108.101C882.975 104.23 882.76 100.243 883.198 96.3001C883.441 94.0254 884.013 90.3681 887.154 91.0351C889.002 91.4297 890.469 93.3173 891.528 94.7533C892.046 95.4509 893.035 94.5333 892.519 93.8456C890.741 91.4563 885.793 87.0415 883.262 91.2711C881.951 93.4563 881.803 96.1788 881.649 98.6646C881.485 101.94 881.778 105.222 882.521 108.415C882.541 108.501 882.578 108.582 882.629 108.654C882.68 108.726 882.745 108.787 882.82 108.834C882.894 108.881 882.978 108.912 883.065 108.927C883.152 108.941 883.241 108.938 883.326 108.918C883.412 108.898 883.494 108.861 883.565 108.81C883.637 108.758 883.698 108.693 883.745 108.618C883.792 108.543 883.823 108.459 883.838 108.372C883.852 108.285 883.85 108.196 883.83 108.109L883.833 108.101Z" fill="#FFD233"/>
</g>
<g clip-path="url(#clip1_1019_213)">
<path d="M755.047 62.475C753.644 63.9295 754.813 65.5538 756.163 66.5624C758.48 68.3036 762.098 68.5371 764.846 68.2505C770.691 67.6453 775.878 63.2713 776.489 57.2994C777.122 51.1151 769.581 48.3176 764.548 49.2997C761.409 49.8832 758.607 51.6291 756.701 54.1881C754.796 56.7471 753.928 59.9305 754.271 63.1014C754.372 64.1153 755.966 64.1206 755.865 63.1014C755.6 60.8986 755.991 58.6668 756.988 56.6844C757.985 54.702 759.544 53.0567 761.471 51.9538C765.553 49.5863 773.024 50.2552 774.714 55.314C776.17 59.6616 772.057 63.8074 768.566 65.5485C766.732 66.3805 764.734 66.787 762.72 66.7376C762.125 66.7376 754.568 65.246 756.194 63.5526C756.912 62.8147 755.785 61.6841 755.068 62.4219L755.047 62.475Z" fill="#FFD233"/>
<path d="M759.307 52.5111C760.033 46.1587 758.459 39.7567 754.87 34.4627C752.452 30.8371 745.985 24.0955 741.398 28.5704C737.477 32.3978 738.678 38.72 739.948 43.4338C741.871 50.1742 745.584 56.2694 750.693 61.0735L751.66 59.8207C749.366 58.3315 746.692 57.5305 743.956 57.5126C741.22 57.4947 738.536 58.2607 736.222 59.7199C734.047 61.1212 732.32 63.1162 731.245 65.4684C730.171 67.8205 729.794 70.4311 730.159 72.9907C731.084 78.6176 737.96 79.313 742.328 78.0655C748.737 76.2341 754.827 71.5681 759.828 67.3161L758.701 66.1854C757.026 68.1125 755.747 70.3504 754.937 72.7713C754.127 75.1923 753.803 77.7489 753.982 80.295C754.28 85.1097 756.783 90.4393 761.773 91.7398C766.853 93.0616 769.17 88.454 770.18 84.3984C771.774 78.0602 770.966 71.308 769.505 65.0335C769.271 64.0302 767.735 64.4549 767.964 65.4529C769.023 69.7491 769.501 74.168 769.383 78.591C769.229 83.0023 768.32 91.1347 762.193 90.2694C757.474 89.5846 755.768 83.5066 755.523 79.5465C755.334 75.0883 756.876 70.7293 759.828 67.3798C759.978 67.2306 760.063 67.0279 760.063 66.8163C760.064 66.6048 759.98 66.4017 759.831 66.2518C759.681 66.1018 759.478 66.0173 759.267 66.0168C759.055 66.0163 758.851 66.0999 758.701 66.2491C755.245 69.1887 751.507 71.7811 747.542 73.9887C743.195 76.4252 737.237 79.159 732.954 75.1141C728.671 71.0691 733.433 63.6958 737.009 61.1425C741.122 58.207 746.723 58.6423 750.826 61.2434C750.993 61.3357 751.187 61.3653 751.374 61.3267C751.561 61.288 751.727 61.1838 751.844 61.0328C751.96 60.8818 752.018 60.6942 752.008 60.5039C751.998 60.3137 751.92 60.1334 751.788 59.9959C747.75 56.1226 744.604 51.4186 742.568 46.2101C740.803 41.7723 739.214 36.0127 741.228 31.4157C744.555 23.8301 752.723 33.7514 754.774 37.2921C757.358 41.9168 758.388 47.2475 757.713 52.5005C757.596 53.5197 759.19 53.5091 759.307 52.5005V52.5111Z" fill="#FFD233"/>
<path d="M766.018 66.0634C767.075 71.7397 770.237 76.8088 774.872 80.258C779.277 83.443 785.707 85.8689 790.581 82.2539C794.938 79.0211 793.934 72.6989 791.399 68.7495C787.892 63.2713 781.132 59.8739 774.957 58.5362L774.532 60.0756C781.35 61.0205 788.694 58.6211 793.928 54.1993C798.823 50.0588 799.535 43.004 794.683 38.6352C790.193 34.5902 782.163 33.3268 776.615 35.6997C771.067 38.0725 767.39 43.8851 768.92 49.9526C769.17 50.9506 770.706 50.5259 770.456 49.5332C769.175 44.4478 772.146 39.7128 776.615 37.4196C781.499 34.9193 787.918 36.2093 792.398 38.9325C798.722 42.7757 796.649 50.1596 791.611 54.0082C787.073 57.4639 780.569 59.3165 774.93 58.5362C773.942 58.4035 773.48 59.8527 774.505 60.0756C779.541 61.1227 784.185 63.5531 787.913 67.0933C791.882 70.8728 794.29 78.3151 788.503 81.7018C784.076 84.2923 777.959 80.8525 774.59 78.0178C770.894 74.8174 768.402 70.452 767.528 65.6441C767.336 64.6355 765.795 65.0602 765.992 66.0634H766.018Z" fill="#FFD233"/>
<path d="M755.821 36.2198C752.478 30.8318 757.415 25.3165 763.048 25.6031C769.17 25.9322 772.13 32.3978 771.758 37.7699C771.684 38.7944 773.278 38.7838 773.352 37.7699C773.852 30.593 769.202 23.8142 761.56 23.9681C755.104 24.1115 751.065 31.5379 754.445 36.9842C754.976 37.8548 756.363 37.0585 755.821 36.1827V36.2198Z" fill="#FFD233"/>
</g>
<g clip-path="url(#clip2_1019_213)">
<path d="M831.744 38.9153C832.742 40.2097 834.18 39.4661 835.146 38.5052C836.813 36.857 837.427 33.9889 837.523 31.7567C837.729 27.0079 834.842 22.341 830.136 21.1465C825.262 19.9099 822.133 25.6132 822.324 29.756C822.42 32.3365 823.486 34.7853 825.308 36.6124C827.131 38.4395 829.575 39.5101 832.153 39.6101C832.976 39.6491 833.169 38.3741 832.342 38.3345C830.548 38.286 828.808 37.7098 827.34 36.6778C825.871 35.6459 824.739 34.2038 824.084 32.5315C822.672 28.9862 824.09 23.0867 828.337 22.3322C831.988 21.6807 834.819 25.4617 835.8 28.461C836.249 30.0265 836.338 31.6736 836.061 33.2788C835.991 33.755 833.904 39.6253 832.742 38.1241C832.236 37.4629 831.198 38.2308 831.704 38.892L831.744 38.9153Z" fill="#FFD233"/>
<path d="M824.277 34.328C819.279 32.997 813.971 33.5001 809.311 35.7463C806.124 37.2527 799.966 41.631 803.005 45.8293C805.604 49.4195 810.804 49.2054 814.726 48.7461C820.347 48.0034 825.662 45.7526 830.11 42.2322L829.222 41.3103C827.759 42.9702 826.802 45.0148 826.465 47.202C826.127 49.3892 826.423 51.6272 827.317 53.6508C828.182 55.5568 829.574 57.1746 831.329 58.3124C833.084 59.4502 835.128 60.0603 837.22 60.0703C841.831 59.9952 843.2 54.5751 842.718 50.9324C842.01 45.588 838.996 40.1639 836.184 35.6603L835.146 36.4282C836.49 37.9966 838.13 39.2845 839.971 40.2184C841.813 41.1523 843.82 41.7138 845.879 41.8709C849.766 42.2016 854.327 40.8285 855.957 36.9894C857.614 33.0805 854.201 30.6823 851.076 29.3952C846.192 27.3708 840.694 27.2194 835.501 27.6475C834.671 27.7161 834.829 28.9951 835.655 28.9302C839.217 28.59 842.809 28.7302 846.335 29.347C849.846 29.9914 856.246 31.6793 854.83 36.4798C853.724 40.1748 848.659 40.8216 845.462 40.5494C841.872 40.1741 838.567 38.4252 836.235 35.6678C836.134 35.5301 835.981 35.4384 835.812 35.4131C835.643 35.3877 835.471 35.4306 835.333 35.5324C835.195 35.6343 835.104 35.7866 835.078 35.956C835.053 36.1254 835.096 36.298 835.197 36.4357C837.141 39.5487 838.774 42.8459 840.072 46.2795C841.508 50.0456 842.992 55.1352 839.249 58.0845C835.506 61.0339 830.169 56.3529 828.549 53.1896C826.686 49.5516 827.696 45.1213 830.262 42.146C830.355 42.0234 830.402 41.8713 830.393 41.7173C830.384 41.5632 830.32 41.4175 830.213 41.3066C830.106 41.1956 829.963 41.1267 829.81 41.1125C829.656 41.0983 829.503 41.1396 829.377 41.229C825.801 44.0019 821.665 45.9635 817.257 46.9778C813.498 47.8652 808.702 48.4561 805.261 46.3015C799.585 42.7435 808.488 37.3801 811.563 36.1571C815.569 34.6363 819.956 34.4419 824.08 35.6023C824.881 35.8163 825.061 34.5394 824.268 34.3267L824.277 34.328Z" fill="#FFD233"/>
<path d="M835.911 30.5586C840.578 30.3837 845.008 28.4527 848.315 25.1515C851.384 22.0027 854.085 17.1442 851.768 12.818C849.696 8.94932 844.519 9.00607 841.059 10.5678C836.261 12.727 832.744 17.7343 830.944 22.5172L832.126 23.0393C833.688 17.6954 832.635 11.5355 829.716 6.82481C826.981 2.41945 821.42 1.01622 817.351 4.38228C813.584 7.49746 811.625 13.7732 812.868 18.4927C814.111 23.2122 818.327 26.8414 823.363 26.3336C824.191 26.2516 824.033 24.9726 823.209 25.0552C818.989 25.4792 815.551 22.5428 814.244 18.6959C812.82 14.4928 814.611 9.50863 817.319 6.24581C821.141 1.63982 826.805 4.17048 829.289 8.65615C831.518 12.6957 832.232 18.1192 830.941 22.5385C830.718 23.3137 831.823 23.8549 832.123 23.0605C833.556 19.1547 836.049 15.7264 839.322 13.1615C842.815 10.4317 849.055 9.38467 851.081 14.4153C852.631 18.2634 849.156 22.7512 846.489 25.1122C843.492 27.692 839.704 29.17 835.754 29.3014C834.925 29.3353 835.082 30.6186 835.908 30.5798L835.911 30.5586Z" fill="#FFD233"/>
<path d="M810.829 35.1927C806.123 37.2307 802.293 32.6289 803.188 28.1556C804.174 23.296 809.698 21.6914 813.952 22.6237C814.763 22.8043 814.943 21.5274 814.14 21.3481C808.457 20.1005 802.483 23.0203 801.704 29.153C801.056 34.3363 806.521 38.4452 811.278 36.3843C812.037 36.0619 811.564 34.858 810.799 35.1883L810.829 35.1927Z" fill="#FFD233"/>
</g>
<g clip-path="url(#clip3_1019_213)">
<path d="M32.8154 173.82C30.2254 166.742 24.8314 161.076 17.2058 159.791C10.5977 158.681 3.71211 162.087 1.17988 168.427C-1.25407 174.529 -0.0399852 181.415 5.22682 185.593C7.68052 187.472 10.6434 188.559 13.7244 188.711C16.8054 188.862 19.8597 188.071 22.4841 186.442L21.3279 185.245C17.1537 190.899 12.7773 197.692 15.7951 204.91C18.1077 210.413 24.6637 211.633 29.9074 210.721C45.9333 207.972 42.6263 184.896 36.1339 175.023C35.5211 174.087 34.0179 174.959 34.6365 175.9C37.833 180.745 39.6026 186.4 39.7414 192.212C39.938 198.605 38.2961 205.822 31.8615 208.368C26.612 210.442 19.5241 209.344 17.1422 203.649C14.5232 197.39 19.3217 190.864 22.8252 186.116C23.3513 185.396 22.3396 184.477 21.6343 184.919C17.0612 187.825 11.4418 187.505 6.91497 184.652C1.82161 181.438 0.798309 174.947 2.631 169.589C4.81056 163.226 11.4707 160.57 17.7145 161.622C24.2185 162.732 28.9592 168.328 31.1562 174.29C31.5377 175.336 33.2143 174.871 32.827 173.825L32.8154 173.82Z" fill="#8BD5ED"/>
<path d="M32.6814 172.152C28.9697 165.335 26.3219 156.461 32.1032 149.918C36.0345 145.484 40.9834 148.425 41.6367 153.48C42.1165 157.205 40.1277 161.134 39.4513 164.743C39.3126 165.51 40.3012 166.329 40.9024 165.591C48.1927 156.671 60.0387 165.876 64.3573 173.082C68.1788 179.474 60.7382 183.757 55.3905 184.21C49.8751 184.681 44.51 182.031 39.6768 179.736C38.6708 179.259 37.7921 180.758 38.8038 181.241C45.0245 184.199 51.4013 186.953 58.4083 185.524C63.7676 184.425 68.2366 179.712 66.6814 174.064C65.9299 171.35 63.652 168.996 61.7904 167.003C59.701 164.658 57.139 162.786 54.2747 161.511C49.2738 159.478 43.2612 159.954 39.6652 164.359L41.1163 165.207C42.0471 160.216 44.51 155.398 42.6079 150.336C41.232 146.693 37.7111 145.17 34.1325 146.431C29.8658 147.936 27.7094 152.928 27.1024 157.06C26.2756 162.668 28.5477 168.212 31.1493 173.035C31.6812 174.017 33.1843 173.14 32.6467 172.152H32.6814Z" fill="#8BD5ED"/>
<path d="M29.1264 165.771C22.8631 156.36 14.2854 148.737 4.22616 143.642C3.23177 143.136 2.353 144.641 3.35318 145.147C13.1561 150.09 21.5208 157.497 27.6348 166.649C28.2534 167.578 29.7566 166.707 29.1322 165.771H29.1264Z" fill="#8BD5ED"/>
<path d="M29.0041 167.532C25.6914 157.746 22.3556 147.547 24.1304 137.098C24.3154 135.994 22.6446 135.524 22.4596 136.633C20.6269 147.437 23.905 157.862 27.3333 168.014C27.6918 169.072 29.3626 168.595 29.0041 167.549V167.532Z" fill="#8BD5ED"/>
<path d="M29.0452 170.257C25.4897 167.933 19.9396 168.653 17.5461 172.425C13.7362 178.428 22.2116 179.683 26.432 178.556L25.455 177.272C24.7385 178.645 24.3052 180.15 24.1811 181.695C24.0569 183.241 24.2444 184.796 24.7323 186.267C25.3104 188.075 27.2587 190.405 29.4036 189.934C35.607 188.563 33.6182 179.079 31.0918 175.406C30.4616 174.494 28.9527 175.36 29.5944 176.289C31.641 179.253 32.5371 183.065 31.0687 186.5C30.4501 188.069 29.2013 188.348 27.3166 187.319C26.727 186.616 26.3145 185.781 26.114 184.884C25.4029 182.641 25.9406 180.183 26.9523 178.143C27.0352 177.993 27.0725 177.821 27.0596 177.649C27.0468 177.478 26.9843 177.314 26.8799 177.177C26.7755 177.041 26.6337 176.938 26.472 176.881C26.3102 176.825 26.1356 176.817 25.9695 176.859C24.2468 177.35 22.4278 177.39 20.6854 176.975C17.2166 176.202 18.7313 173.14 20.6854 171.745C21.7943 171.009 23.094 170.616 24.423 170.616C25.752 170.616 27.0517 171.009 28.1606 171.745C29.103 172.361 29.9702 170.85 29.0336 170.24L29.0452 170.257Z" fill="#8BD5ED"/>
<path d="M30.283 169.45C31.0131 167.99 31.9914 166.671 33.1736 165.55L35.7174 166.207C35.8736 167.118 35.7776 168.055 35.4399 168.915C35.174 169.827 34.8618 170.658 34.671 171.611C34.6244 171.796 34.6389 171.991 34.7123 172.167C34.7858 172.343 34.9143 172.49 35.0782 172.586C35.2422 172.682 35.4328 172.721 35.6211 172.698C35.8095 172.676 35.9853 172.592 36.1221 172.46C38.6543 170.327 41.4525 168.154 44.9271 169.391L44.2912 168.555C44.3258 174.232 34.6016 173.744 30.8091 173.703C30.58 173.706 30.3612 173.799 30.1992 173.962C30.0372 174.125 29.9449 174.345 29.9419 174.575V178.771C29.9419 179.002 30.0332 179.224 30.1959 179.387C30.3585 179.551 30.5791 179.642 30.8091 179.642C31.0391 179.642 31.2596 179.551 31.4223 179.387C31.5849 179.224 31.6763 179.002 31.6763 178.771V174.575L30.8091 175.447C35.7059 175.499 46.066 175.732 46.0256 168.555C46.0233 168.364 45.9603 168.18 45.8458 168.028C45.7313 167.876 45.5714 167.765 45.3896 167.712C41.3022 166.253 37.9143 168.677 34.8907 171.228L36.3592 172.076C36.9373 169.171 39.0301 165.103 35.3763 163.359C32.5724 161.994 29.7511 166.701 28.7856 168.589C28.2768 169.589 29.7742 170.467 30.283 169.467V169.45Z" fill="#8BD5ED"/>
<path d="M20.0394 173.326C19.9035 174.909 19.9035 176.502 20.0394 178.085C20.0972 178.742 21.0049 179.369 21.5194 178.701C22.9042 176.946 23.9263 174.931 24.5257 172.774L22.7913 172.541C22.9416 174.139 23.063 175.732 23.1498 177.33C23.196 178.149 24.3407 178.579 24.7685 177.771L28.0466 171.542L26.4336 171.1L27.5089 186.54C27.5725 187.459 29.0699 187.796 29.2433 186.767C29.5324 184.698 29.8253 182.63 30.1221 180.561H28.4455C28.8728 182.186 28.9026 183.89 28.5322 185.529L30.2319 185.762C30.7407 179.951 31.2456 174.139 31.7466 168.328L30.0469 168.56C30.2897 170.374 30.5383 172.193 30.7869 174.006C30.9083 174.895 32.2554 174.784 32.4577 174.006C32.972 172.024 33.2381 169.986 33.2498 167.939H31.5154C31.525 168.966 31.7564 169.978 32.1936 170.906C32.6308 171.834 33.2634 172.656 34.0476 173.314C34.2119 173.476 34.433 173.567 34.6633 173.567C34.8936 173.567 35.1147 173.476 35.279 173.314L36.8631 171.263L35.5045 171.088C36.0511 172.013 36.7288 172.853 37.5164 173.581C37.9616 173.977 38.8519 173.884 38.9675 173.198C39.1471 172.147 39.3943 171.108 39.7075 170.089L38.1234 170.292C38.3836 170.815 38.6495 171.338 38.9155 171.855C39.0121 172.022 39.1609 172.152 39.3388 172.225C39.5167 172.297 39.7134 172.308 39.8983 172.256C40.5603 171.994 41.2681 171.867 41.9796 171.885C43.0896 171.832 43.0954 170.089 41.9796 170.141C41.1157 170.167 40.2595 170.314 39.4358 170.577L40.4129 170.978C40.1469 170.455 39.881 169.938 39.6208 169.415C39.532 169.27 39.4033 169.154 39.2503 169.08C39.0973 169.007 38.9265 168.98 38.7585 169.002C38.5905 169.024 38.4324 169.095 38.3034 169.205C38.1743 169.315 38.0797 169.461 38.0309 169.624C37.7223 170.644 37.4771 171.682 37.2967 172.733L38.7478 172.349C38.0499 171.726 37.4461 171.004 36.9556 170.205C36.8878 170.091 36.7949 169.993 36.684 169.92C36.5731 169.847 36.4472 169.8 36.3157 169.784C36.1842 169.767 36.0506 169.78 35.9251 169.823C35.7996 169.866 35.6854 169.937 35.5912 170.031L34.0476 172.076H35.279C34.6583 171.578 34.1564 170.946 33.8103 170.227C33.4642 169.508 33.2825 168.72 33.2787 167.921C33.2787 167.69 33.1873 167.468 33.0247 167.305C32.862 167.141 32.6415 167.05 32.4115 167.05C32.1815 167.05 31.9609 167.141 31.7983 167.305C31.6356 167.468 31.5443 167.69 31.5443 167.921C31.531 169.812 31.2863 171.693 30.8158 173.523H32.4866C32.238 171.71 31.9952 169.891 31.7466 168.078C31.6079 167.038 30.1221 167.404 30.0122 168.311C29.5073 174.122 29.0024 179.933 28.4975 185.744C28.4166 186.726 30.0007 186.907 30.2319 185.977C30.6679 184.032 30.6402 182.011 30.151 180.078C29.9544 179.288 28.6016 179.195 28.4744 180.078C28.1853 182.147 27.8943 184.218 27.6014 186.291L29.3011 186.523L28.2258 171.083C28.168 170.269 27.0695 169.822 26.607 170.641L23.329 176.876L24.942 177.312C24.8553 175.714 24.7338 174.122 24.5835 172.524C24.6142 172.293 24.5522 172.059 24.4113 171.873C24.2703 171.688 24.062 171.567 23.832 171.536C23.602 171.505 23.3692 171.567 23.1849 171.709C23.0006 171.851 22.8798 172.06 22.8491 172.291C22.3521 174.167 21.4829 175.922 20.2938 177.452L21.7738 178.068C21.6379 176.484 21.6379 174.892 21.7738 173.308C21.8663 172.187 20.1319 172.198 20.0394 173.308V173.326Z" fill="#8BD5ED"/>
</g>
<defs>
<clipPath id="clip0_1019_213">
<rect width="68.7853" height="61.9068" fill="white" transform="translate(875.473 75) rotate(17.3613)"/>
</clipPath>
<clipPath id="clip1_1019_213">
<rect width="68" height="68" fill="white" transform="translate(730 24)"/>
</clipPath>
<clipPath id="clip2_1019_213">
<rect width="55" height="55" fill="white" transform="translate(798 54.4102) rotate(-81.6012)"/>
</clipPath>
<clipPath id="clip3_1019_213">
<rect width="67" height="75" fill="white" transform="translate(0 136)"/>
</clipPath>
</defs>
</svg>
