<svg width="1440" height="1187" viewBox="0 0 1440 1187" fill="none" xmlns="http://www.w3.org/2000/svg">
<path fill-rule="evenodd" clip-rule="evenodd" d="M0 862.724C2.25195 862.87 4.52272 863.009 6.81273 863.142C71.0527 866.878 122.971 857.356 176.234 847.588C236.095 836.61 297.654 825.321 380.311 832.19C460.857 838.883 530.059 850.647 591.718 861.13C682.629 876.585 757.141 889.252 827.438 878.766C1055.68 844.703 1044.49 782.992 1044.49 782.992L1125.46 394.596C1125.46 394.596 938.722 227.369 775.284 195.438C678.36 176.498 596.599 168.252 518.944 160.419C426.279 151.072 339.462 142.315 239.705 116.684C128.788 88.1917 69.382 49.4013 0 0V862.724Z" fill="url(#paint0_linear_1005_1319)"/>
<path d="M1440 126.925C1140.92 239.428 1107.5 153.399 886.821 190.9C766.964 211.273 706.167 279.541 568.243 298.992C392.258 323.812 270.943 303.403 171.732 345.315C-20.2118 426.418 0.666545 485.404 0.666545 485.404V888.001C0.666545 888.001 193 1015.45 340.633 1013.33C532.66 1010.57 652.072 971.825 819.74 980.655C977.817 988.971 1031.82 1048.05 1184 1110.86C1340.34 1175.38 1439.99 1186.92 1439.99 1186.92V126.925H1440Z" fill="url(#paint1_linear_1005_1319)"/>
<defs>
<linearGradient id="paint0_linear_1005_1319" x1="442" y1="121.925" x2="881.321" y2="1218.63" gradientUnits="userSpaceOnUse">
<stop stop-color="#50A4DE"/>
<stop offset="0.333333" stop-color="#35BAD3"/>
<stop offset="0.666667" stop-color="#55CAB4"/>
<stop offset="1" stop-color="#00AA78"/>
</linearGradient>
<linearGradient id="paint1_linear_1005_1319" x1="752.5" y1="-50.6252" x2="470.346" y2="1293.65" gradientUnits="userSpaceOnUse">
<stop stop-color="#50A4DE"/>
<stop offset="0.333333" stop-color="#35BAD3"/>
<stop offset="0.666667" stop-color="#55CAB4"/>
<stop offset="1" stop-color="#00AA78"/>
</linearGradient>
</defs>
</svg>
