<svg width="1440" height="1825" viewBox="0 0 1440 1825" fill="none" xmlns="http://www.w3.org/2000/svg">
<path fill-rule="evenodd" clip-rule="evenodd" d="M0 0H1440V601.464V1015.24V1510.12C1427.38 1526.57 1404.71 1545.14 1362.06 1557.4C1316.36 1570.54 1282.64 1569.68 1243.35 1568.67C1196.15 1567.45 1140.91 1566.03 1047.21 1588.43C1009.59 1597.42 976.553 1616.49 938.681 1638.36C865.985 1680.32 775.478 1732.57 600.57 1743.55C566.27 1745.7 532.302 1746.23 497.48 1746.77C433.116 1747.77 365.837 1748.82 288.16 1760.25C249.534 1765.94 209.54 1780.96 171.903 1795.1C132.65 1809.84 95.9604 1823.62 66.06 1824.85C39.9117 1825.92 17.1677 1821.24 0 1815.74V626.909V546.242V0Z" fill="url(#paint0_linear_1001_50)"/>
<defs>
<linearGradient id="paint0_linear_1001_50" x1="752.5" y1="-305.688" x2="531.566" y2="1605.31" gradientUnits="userSpaceOnUse">
<stop stop-color="#63B9F3"/>
<stop offset="0.333333" stop-color="#55C1D6"/>
<stop offset="0.666667" stop-color="#52D2BA"/>
<stop offset="1" stop-color="#0FA67B"/>
</linearGradient>
</defs>
</svg>
