<svg width="723" height="97" viewBox="0 0 723 97" fill="none" xmlns="http://www.w3.org/2000/svg">
<path d="M722.934 5.40354C704.962 21.4676 682.851 19.6873 665.798 0.0209444L665.777 0.0418869C647.011 21.677 622.1 21.677 603.333 0.0418869L603.312 0.0209444C584.546 21.677 559.635 21.677 540.868 0.0209444L540.847 0L540.827 0.0209444C522.06 21.677 497.17 21.677 478.403 0.0209444L478.383 0L478.362 0.0209444C459.595 21.677 434.705 21.677 415.938 0.0209444L415.918 0L415.876 0.0209444C397.109 21.677 372.219 21.677 353.453 0.0209444L353.432 0L353.411 0.0209444C334.644 21.677 309.733 21.677 290.967 0.0209444H290.946C272.179 21.677 247.268 21.677 228.502 0.0209444C209.735 21.677 184.824 21.6561 166.058 0.0209444H166.037C147.27 21.677 122.359 21.677 103.593 0.0209444V0H103.572C84.8052 21.6561 59.8945 21.677 41.1278 0.0209444C28.8605 14.1162 14.0436 19.0171 0 14.7445V78.5817H722.934V5.40354Z" fill="url(#paint0_linear_1005_443)"/>
<path d="M722.934 79.2519V35.2906C709.664 38.2437 695.913 33.1124 684.419 19.8758L684.398 19.8967C665.631 41.5319 640.72 41.5319 621.954 19.8967L621.933 19.8758C603.166 41.5319 578.255 41.5319 559.489 19.8758L559.468 19.8549L559.447 19.8758C540.68 41.5319 515.79 41.5319 497.024 19.8758L497.003 19.8549L496.982 19.8758C478.215 41.5319 453.325 41.5319 434.559 19.8758L434.538 19.8549L434.517 19.8758C415.75 41.5319 390.861 41.5319 372.094 19.8758L372.073 19.8549L372.052 19.8758C353.285 41.5319 328.375 41.5319 309.608 19.8758H309.587C290.82 41.5319 265.91 41.5319 247.143 19.8758C228.376 41.5319 203.466 41.5109 184.699 19.8758H184.678C165.911 41.5319 141.001 41.5319 122.234 19.8758V19.8549H122.213C103.446 41.5109 78.5357 41.5319 59.7691 19.8758C41.8384 40.4847 18.4114 41.4481 0 22.787V79.2729H722.934V79.2519Z" fill="url(#paint1_linear_1005_443)"/>
<path d="M722.934 96.0219V45.2599C704.962 61.3239 682.851 59.5437 665.798 39.8773L665.777 39.8983C647.011 61.5334 622.1 61.5334 603.333 39.8983L603.312 39.8773C584.546 61.5334 559.635 61.5334 540.868 39.8773L540.847 39.8564L540.827 39.8773C522.06 61.5334 497.17 61.5334 478.403 39.8773L478.383 39.8564L478.362 39.8773C459.595 61.5334 434.705 61.5334 415.938 39.8773L415.918 39.8564L415.876 39.8773C397.109 61.5334 372.219 61.5334 353.453 39.8773L353.432 39.8564L353.411 39.8773C334.644 61.5334 309.733 61.5334 290.967 39.8773H290.946C272.179 61.5334 247.268 61.5334 228.502 39.8773C209.735 61.5334 184.824 61.5124 166.058 39.8773H166.037C147.27 61.5334 122.359 61.5334 103.593 39.8773V39.8564H103.572C84.8052 61.5124 59.8945 61.5334 41.1278 39.8773C28.8605 53.9726 14.0436 58.8735 0 54.6009V96.0219H722.934Z" fill="white"/>
<defs>
<linearGradient id="paint0_linear_1005_443" x1="377.783" y1="-13.1624" x2="376.957" y2="70.214" gradientUnits="userSpaceOnUse">
<stop stop-color="#63B9F3"/>
<stop offset="0.333333" stop-color="#55C1D6"/>
<stop offset="0.666667" stop-color="#52D2BA"/>
<stop offset="1" stop-color="#0FA67B"/>
</linearGradient>
<linearGradient id="paint1_linear_1005_443" x1="377.783" y1="9.90234" x2="377.311" y2="72.9484" gradientUnits="userSpaceOnUse">
<stop stop-color="#63B9F3"/>
<stop offset="0.333333" stop-color="#55C1D6"/>
<stop offset="0.666667" stop-color="#52D2BA"/>
<stop offset="1" stop-color="#0FA67B"/>
</linearGradient>
</defs>
</svg>
