<svg width="1438" height="191" viewBox="0 0 1438 191" fill="none" xmlns="http://www.w3.org/2000/svg">
<path d="M1438 10.7483C1402.25 42.7015 1358.27 39.1604 1324.35 0.0416609L1324.31 0.0833179C1286.98 43.1181 1237.43 43.1181 1200.1 0.0833179L1200.06 0.0416609C1162.73 43.1181 1113.18 43.1181 1075.85 0.0416609L1075.81 0L1075.77 0.0416609C1038.44 43.1181 988.929 43.1181 951.6 0.0416609L951.558 0L951.517 0.0416609C914.188 43.1181 864.679 43.1181 827.35 0.0416609L827.308 0L827.225 0.0416609C789.896 43.1181 740.387 43.1181 703.058 0.0416609L703.017 0L702.975 0.0416609C665.646 43.1181 616.096 43.1181 578.767 0.0416609H578.725C541.396 43.1181 491.846 43.1181 454.517 0.0416609C417.188 43.1181 367.637 43.0764 330.308 0.0416609H330.267C292.937 43.1181 243.387 43.1181 206.058 0.0416609V0H206.016C168.687 43.0764 119.137 43.1181 81.808 0.0416609C57.4069 28.0788 27.9344 37.8272 0 29.3286V156.308H1438V10.7483Z" fill="url(#paint0_linear_1005_468)"/>
<path d="M1438 157.641V70.1969C1411.6 76.071 1384.25 65.8643 1361.39 39.5352L1361.35 39.5768C1324.02 82.6116 1274.47 82.6116 1237.14 39.5768L1237.1 39.5352C1199.77 82.6116 1150.22 82.6116 1112.89 39.5352L1112.85 39.4935L1112.8 39.5352C1075.48 82.6116 1025.97 82.6116 988.638 39.5352L988.596 39.4935L988.555 39.5352C951.226 82.6116 901.717 82.6116 864.388 39.5352L864.346 39.4935L864.305 39.5352C826.976 82.6116 777.467 82.6116 740.138 39.5352L740.096 39.4935L740.055 39.5352C702.726 82.6116 653.175 82.6116 615.846 39.5352H615.805C578.476 82.6116 528.925 82.6116 491.596 39.5352C454.267 82.6116 404.717 82.5699 367.388 39.5352H367.346C330.017 82.6116 280.467 82.6116 243.138 39.5352V39.4935H243.096C205.767 82.5699 156.217 82.6116 118.888 39.5352C83.2213 80.5286 36.6224 82.445 0 45.3259V157.683H1438V157.641Z" fill="url(#paint1_linear_1005_468)"/>
<path d="M1438 190.999V90.0273C1402.25 121.981 1358.27 118.439 1324.35 79.3207L1324.31 79.3624C1286.98 122.397 1237.43 122.397 1200.1 79.3624L1200.06 79.3207C1162.73 122.397 1113.18 122.397 1075.85 79.3207L1075.81 79.2791L1075.77 79.3207C1038.44 122.397 988.929 122.397 951.6 79.3207L951.558 79.2791L951.517 79.3207C914.188 122.397 864.679 122.397 827.35 79.3207L827.308 79.2791L827.225 79.3207C789.896 122.397 740.387 122.397 703.058 79.3207L703.017 79.2791L702.975 79.3207C665.646 122.397 616.096 122.397 578.767 79.3207H578.725C541.396 122.397 491.846 122.397 454.517 79.3207C417.188 122.397 367.637 122.355 330.308 79.3207H330.267C292.937 122.397 243.387 122.397 206.058 79.3207V79.2791H206.016C168.687 122.355 119.137 122.397 81.808 79.3207C57.4069 107.358 27.9344 117.106 0 108.608V190.999H1438Z" fill="white"/>
<defs>
<linearGradient id="paint0_linear_1005_468" x1="751.455" y1="-26.1816" x2="752.818" y2="141.813" gradientUnits="userSpaceOnUse">
<stop stop-color="#50A4DE"/>
<stop offset="0.333333" stop-color="#35BAD3"/>
<stop offset="0.666667" stop-color="#55CAB4"/>
<stop offset="1" stop-color="#00AA78"/>
</linearGradient>
<linearGradient id="paint1_linear_1005_468" x1="700.5" y1="50.5651" x2="699.134" y2="145.828" gradientUnits="userSpaceOnUse">
<stop stop-color="#50A4DE"/>
<stop offset="0.333333" stop-color="#35BAD3"/>
<stop offset="0.666667" stop-color="#55CAB4"/>
<stop offset="1" stop-color="#00AA78"/>
</linearGradient>
</defs>
</svg>
