<svg width="1286" height="224" viewBox="0 0 1286 224" fill="none" xmlns="http://www.w3.org/2000/svg">
<path d="M1258.22 220.701C1260.17 207.809 1263.17 195.112 1267.21 182.716C1266.84 182.716 1266.47 182.716 1266.09 182.716C1269.56 194.234 1273.03 205.752 1276.51 217.269C1276.69 217.023 1276.88 216.781 1277.07 216.535C1274.42 216.559 1272.75 212.616 1271.31 210.777C1270 209.086 1268.53 207.502 1266.8 206.23C1263.51 203.81 1259.31 202.742 1255.39 204.182C1254.7 204.437 1254.99 205.552 1255.7 205.301C1265.8 201.748 1275.75 197.796 1285.54 193.463C1285.3 193.161 1285.07 192.855 1284.83 192.553C1276.71 202.631 1264.27 209.077 1258.6 221.114C1258.29 221.788 1259.29 222.378 1259.61 221.7C1265.22 209.769 1277.59 203.369 1285.66 193.375C1286.08 192.85 1285.57 192.191 1284.95 192.465C1275.26 196.756 1265.4 200.666 1255.4 204.186C1255.5 204.558 1255.6 204.934 1255.71 205.306C1261 203.355 1266.05 206.378 1269.46 210.335C1271.49 212.685 1273.4 217.734 1277.07 217.701C1277.44 217.696 1277.74 217.334 1277.63 216.967C1274.16 205.45 1270.69 193.932 1267.22 182.415C1267.05 181.853 1266.28 181.871 1266.1 182.415C1262.05 194.81 1259.05 207.507 1257.11 220.399C1256.99 221.124 1258.11 221.435 1258.22 220.701Z" fill="url(#paint0_linear_1019_214)"/>
<path d="M1110.28 29.862C1114.57 19.972 1119.45 10.3664 1124.91 1.07425C1124.47 1.01621 1124.03 0.958176 1123.59 0.900137C1125.21 5.60136 1126.82 10.3026 1128.44 15.0038C1129.31 17.5343 1130.18 20.0649 1131.05 22.5954C1131.23 23.1236 1132.28 25.3117 1132.17 25.8514C1131.36 29.92 1128.62 26.072 1128.08 25.3871C1123.54 19.6122 1117.85 13.1988 1109.7 14.969C1109.83 15.4333 1109.95 15.9034 1110.08 16.3677C1115.74 14.702 1121.41 13.0363 1127.06 11.3763C1132.71 9.71638 1138.91 6.9827 1144.88 7.58632C1144.81 7.11039 1144.75 6.63447 1144.69 6.15854C1128.32 12.984 1113.55 23.0249 1101.21 35.753C1100.56 36.4263 1101.58 37.4536 1102.23 36.7803C1114.39 24.2437 1128.95 14.2899 1145.07 7.5573C1145.83 7.24389 1145.73 6.21657 1144.88 6.12951C1139.08 5.54911 1133.25 8.03902 1127.78 9.65253C1121.75 11.4227 1115.72 13.1988 1109.7 14.969C1108.8 15.236 1109.18 16.5651 1110.08 16.3677C1116.63 14.9458 1121.7 19.7282 1125.49 24.4237C1126.98 26.2751 1129.69 30.9822 1132.77 28.8927C1133.72 28.2485 1133.95 27.4011 1133.81 26.3042C1133.47 23.5415 1131.86 20.5118 1130.95 17.8768C1128.96 12.0902 1126.97 6.30363 1124.98 0.522864C1124.78 -0.0517303 1123.98 -0.214235 1123.66 0.348751C1118.2 9.64092 1113.31 19.2465 1109.03 29.1365C1108.66 29.9781 1109.91 30.721 1110.28 29.862Z" fill="url(#paint1_linear_1019_214)"/>
<path d="M975.192 153.935C977.184 145.41 979.633 137.013 982.544 128.758C982.151 128.758 981.753 128.758 981.361 128.758C985.194 138.029 989.022 147.3 992.855 156.565C993.228 156.408 993.601 156.251 993.974 156.094C988.065 147.246 978.235 141.71 967.6 141.268C967.654 141.67 967.708 142.073 967.762 142.475C978.033 139.761 988.305 137.052 998.577 134.338C998.469 133.946 998.361 133.548 998.253 133.156C988.266 136.944 979.839 143.84 974.176 152.899C973.754 153.572 974.819 154.185 975.236 153.518C980.718 144.748 988.899 138.009 998.577 134.338C999.303 134.064 999.028 132.95 998.253 133.156C987.976 135.87 977.71 138.579 967.438 141.288C966.756 141.469 966.918 142.466 967.6 142.495C977.783 142.922 987.255 148.237 992.918 156.717C993.277 157.257 994.322 156.923 994.037 156.246C990.204 146.971 986.376 137.7 982.544 128.435C982.313 127.88 981.572 127.831 981.361 128.435C978.451 136.689 976.002 145.086 974.009 153.611C973.828 154.376 975.01 154.705 975.192 153.935Z" fill="url(#paint2_linear_1019_214)"/>
<path d="M348.223 84.7011C350.169 71.8089 353.173 59.1117 357.214 46.7164C356.842 46.7164 356.466 46.7164 356.095 46.7164C359.564 58.234 363.033 69.7515 366.507 81.2691C366.693 81.0229 366.878 80.7814 367.069 80.5353C364.422 80.5585 362.745 76.6156 361.31 74.7765C359.996 73.086 358.533 71.5024 356.8 70.2299C353.512 67.8103 349.309 66.7421 345.394 68.1818C344.702 68.4372 344.995 69.5518 345.701 69.301C355.797 65.7482 365.745 61.796 375.535 57.463C375.303 57.1612 375.066 56.8546 374.834 56.5528C366.706 66.6306 354.269 73.0767 348.603 85.1145C348.288 85.7879 349.286 86.3777 349.607 85.6996C355.221 73.7687 367.594 67.3691 375.656 57.3748C376.078 56.85 375.568 56.1905 374.955 56.4645C365.258 60.7558 355.403 64.6661 345.399 68.1864C345.501 68.558 345.603 68.9341 345.706 69.3057C351 67.3551 356.053 70.3785 359.462 74.3353C361.486 76.6853 363.4 81.7335 367.069 81.701C367.436 81.6963 367.738 81.3341 367.631 80.9672C364.161 69.4497 360.692 57.9321 357.218 46.4145C357.051 45.8526 356.276 45.8712 356.099 46.4145C352.054 58.8098 349.049 71.507 347.108 84.3993C346.992 85.1238 348.111 85.4349 348.223 84.7011Z" fill="url(#paint3_linear_1019_214)"/>
<path d="M64.7039 220.556C66.8209 211.498 69.4229 202.576 72.515 193.806C72.0979 193.806 71.6755 193.806 71.2584 193.806C75.3308 203.656 79.398 213.506 83.4705 223.351C83.8668 223.184 84.2631 223.017 84.6594 222.85C78.3812 213.448 67.9368 207.567 56.6372 207.097C56.6946 207.525 56.7519 207.952 56.8093 208.38C67.723 205.496 78.6367 202.618 89.5504 199.735C89.4357 199.317 89.321 198.895 89.2063 198.478C78.595 202.503 69.6419 209.83 63.6245 219.455C63.1761 220.17 64.3076 220.822 64.7508 220.112C70.5753 210.794 79.2677 203.635 89.5504 199.735C90.3222 199.443 90.0302 198.259 89.2063 198.478C78.2874 201.361 67.3789 204.24 56.4652 207.118C55.7404 207.311 55.9124 208.37 56.6372 208.401C67.4571 208.855 77.5209 214.502 83.5383 223.512C83.9189 224.086 85.0296 223.731 84.7271 223.012C80.6547 213.156 76.5875 203.306 72.515 193.462C72.27 192.872 71.4826 192.82 71.2584 193.462C68.1662 202.232 65.5643 211.154 63.4472 220.211C63.2543 221.025 64.511 221.374 64.7039 220.556Z" fill="url(#paint4_linear_1019_214)"/>
<path d="M148.192 167.935C150.184 159.41 152.633 151.013 155.544 142.758C155.151 142.758 154.753 142.758 154.361 142.758C158.194 152.029 162.022 161.3 165.855 170.565C166.228 170.408 166.601 170.251 166.974 170.094C161.065 161.246 151.235 155.71 140.6 155.268C140.654 155.67 140.708 156.073 140.762 156.475C151.033 153.761 161.305 151.052 171.577 148.338C171.469 147.946 171.361 147.548 171.253 147.156C161.266 150.944 152.839 157.84 147.176 166.899C146.754 167.572 147.819 168.185 148.236 167.518C153.718 158.748 161.899 152.009 171.577 148.338C172.303 148.064 172.028 146.95 171.253 147.156C160.976 149.87 150.71 152.579 140.438 155.288C139.756 155.469 139.918 156.466 140.6 156.495C150.783 156.922 160.255 162.237 165.918 170.717C166.277 171.257 167.322 170.923 167.037 170.246C163.204 160.971 159.376 151.7 155.544 142.435C155.313 141.88 154.572 141.831 154.361 142.435C151.451 150.689 149.002 159.086 147.009 167.611C146.828 168.376 148.01 168.705 148.192 167.935Z" fill="url(#paint5_linear_1019_214)"/>
<path d="M2.61352 50.5519C5.69716 40.0501 8.46427 29.4565 10.9097 18.7863C10.5217 18.8373 10.1337 18.8884 9.74571 18.9394C13.9781 26.8732 18.2104 34.812 22.4428 42.7458C22.7338 42.4548 23.0248 42.1637 23.3158 41.8727C19.3438 39.8561 16.9136 35.9505 13.1612 33.6378C9.41897 31.3302 4.90072 30.983 0.622423 30.6767C0.678583 31.0953 0.734742 31.514 0.790901 31.9326C10.6034 28.1495 20.518 24.6575 30.5399 21.4666C30.3306 21.1092 30.1263 20.757 29.917 20.3996C20.5027 28.1444 11.2875 36.1292 2.28167 44.3437C1.67413 44.9002 2.57778 45.7988 3.18532 45.2474C12.1963 37.0329 21.4064 29.0481 30.8207 21.3032C31.321 20.8948 30.7849 20.0524 30.1978 20.2362C20.176 23.4271 10.2614 26.9191 0.448843 30.7022C-0.21996 30.9575 -0.122957 31.902 0.617321 31.9581C5.48273 32.3053 10.343 32.8005 14.2537 36.0118C17.0974 38.35 19.3285 41.2856 22.6725 42.9857C23.2392 43.2767 23.8518 42.6896 23.5455 42.1127C19.3132 34.179 15.0808 26.2401 10.8485 18.3064C10.5932 17.8316 9.80187 17.9286 9.68445 18.4595C7.23898 29.1298 4.47187 39.7234 1.38823 50.2251C1.15338 51.0011 2.38378 51.3381 2.61352 50.5519Z" fill="url(#paint6_linear_1019_214)"/>
<defs>
<linearGradient id="paint0_linear_1019_214" x1="1270.41" y1="182" x2="1270.41" y2="222" gradientUnits="userSpaceOnUse">
<stop stop-color="#FFD233"/>
<stop offset="1" stop-color="#FFBF39"/>
</linearGradient>
<linearGradient id="paint1_linear_1019_214" x1="1123.29" y1="0" x2="1123.29" y2="37" gradientUnits="userSpaceOnUse">
<stop stop-color="#FFD233"/>
<stop offset="1" stop-color="#FFBF39"/>
</linearGradient>
<linearGradient id="paint2_linear_1019_214" x1="983" y1="128" x2="983" y2="156.986" gradientUnits="userSpaceOnUse">
<stop stop-color="#FFD233"/>
<stop offset="1" stop-color="#FFBF39"/>
</linearGradient>
<linearGradient id="paint3_linear_1019_214" x1="360.405" y1="46" x2="360.405" y2="86" gradientUnits="userSpaceOnUse">
<stop stop-color="#FFD233"/>
<stop offset="1" stop-color="#FFBF39"/>
</linearGradient>
<linearGradient id="paint4_linear_1019_214" x1="73" y1="193" x2="73" y2="223.798" gradientUnits="userSpaceOnUse">
<stop stop-color="#FFD233"/>
<stop offset="1" stop-color="#FFBF39"/>
</linearGradient>
<linearGradient id="paint5_linear_1019_214" x1="156" y1="142" x2="156" y2="170.986" gradientUnits="userSpaceOnUse">
<stop stop-color="#FFD233"/>
<stop offset="1" stop-color="#FFBF39"/>
</linearGradient>
<linearGradient id="paint6_linear_1019_214" x1="15.5094" y1="18" x2="15.5094" y2="51" gradientUnits="userSpaceOnUse">
<stop stop-color="#FFD233"/>
<stop offset="1" stop-color="#FFBF39"/>
</linearGradient>
</defs>
</svg>
