<svg width="319" height="222" viewBox="0 0 319 222" fill="none" xmlns="http://www.w3.org/2000/svg">
<path d="M291.223 220.701C293.169 207.809 296.173 195.112 300.214 182.716C299.842 182.716 299.466 182.716 299.095 182.716C302.564 194.234 306.033 205.752 309.507 217.269C309.693 217.023 309.878 216.781 310.069 216.535C307.422 216.559 305.745 212.616 304.31 210.777C302.996 209.086 301.533 207.502 299.8 206.23C296.512 203.81 292.309 202.742 288.394 204.182C287.702 204.437 287.995 205.552 288.701 205.301C298.797 201.748 308.745 197.796 318.535 193.463C318.303 193.161 318.066 192.855 317.834 192.553C309.706 202.631 297.269 209.077 291.603 221.114C291.288 221.788 292.286 222.378 292.607 221.7C298.221 209.769 310.594 203.369 318.656 193.375C319.078 192.85 318.568 192.191 317.955 192.465C308.258 196.756 298.403 200.666 288.399 204.186C288.501 204.558 288.603 204.934 288.706 205.306C294 203.355 299.053 206.378 302.462 210.335C304.486 212.685 306.4 217.734 310.069 217.701C310.436 217.696 310.738 217.334 310.631 216.967C307.161 205.45 303.692 193.932 300.218 182.415C300.051 181.853 299.276 181.871 299.099 182.415C295.054 194.81 292.049 207.507 290.108 220.399C289.992 221.124 291.111 221.435 291.223 220.701Z" fill="url(#paint0_linear_1017_90)"/>
<path d="M143.279 29.862C147.568 19.972 152.449 10.3664 157.911 1.07425C157.47 1.01621 157.029 0.958176 156.588 0.900137C158.207 5.60136 159.82 10.3026 161.44 15.0038C162.31 17.5343 163.181 20.0649 164.052 22.5954C164.231 23.1236 165.276 25.3117 165.172 25.8514C164.365 29.92 161.62 26.072 161.08 25.3871C156.535 19.6122 150.853 13.1988 142.699 14.969C142.826 15.4333 142.954 15.9034 143.082 16.3677C148.741 14.702 154.405 13.0363 160.064 11.3763C165.711 9.71638 171.91 6.9827 177.877 7.58632C177.813 7.11039 177.749 6.63447 177.685 6.15854C161.324 12.984 146.547 23.0249 134.207 35.753C133.557 36.4263 134.585 37.4536 135.235 36.7803C147.388 24.2437 161.95 14.2899 178.074 7.5573C178.828 7.24389 178.73 6.21657 177.882 6.12951C172.078 5.54911 166.251 8.03902 160.778 9.65253C154.754 11.4227 148.723 13.1988 142.699 14.969C141.799 15.236 142.176 16.5651 143.082 16.3677C149.634 14.9458 154.695 19.7282 158.485 24.4237C159.983 26.2751 162.688 30.9822 165.769 28.8927C166.721 28.2485 166.948 27.4011 166.808 26.3042C166.466 23.5415 164.864 20.5118 163.953 17.8768C161.962 12.0902 159.971 6.30363 157.981 0.522864C157.783 -0.0517303 156.982 -0.214235 156.657 0.348751C151.196 9.64092 146.315 19.2465 142.025 29.1365C141.66 29.9781 142.908 30.721 143.279 29.862Z" fill="url(#paint1_linear_1017_90)"/>
<path d="M8.19189 153.935C10.1844 145.41 12.6333 137.013 15.5436 128.758C15.151 128.758 14.7534 128.758 14.3608 128.758C18.1937 138.029 22.0217 147.3 25.8546 156.565C26.2275 156.408 26.6005 156.251 26.9735 156.094C21.0647 147.246 11.2346 141.71 0.599743 141.268C0.653727 141.67 0.707711 142.073 0.761696 142.475C11.0334 139.761 21.3052 137.052 31.5769 134.338C31.4689 133.946 31.361 133.548 31.253 133.156C21.2659 136.944 12.8394 143.84 7.17601 152.899C6.75395 153.572 7.81891 154.185 8.23606 153.518C13.7179 144.748 21.899 138.009 31.5769 134.338C32.3032 134.064 32.0284 132.95 31.253 133.156C20.9763 135.87 10.7095 138.579 0.43779 141.288C-0.244375 141.469 -0.0824219 142.466 0.599743 142.495C10.7831 142.922 20.2549 148.237 25.9184 156.717C26.2766 157.257 27.322 156.923 27.0373 156.246C23.2044 146.971 19.3765 137.7 15.5436 128.435C15.3129 127.88 14.5719 127.831 14.3608 128.435C11.4506 136.689 9.00166 145.086 7.00915 153.611C6.82756 154.376 8.01031 154.705 8.19189 153.935Z" fill="url(#paint2_linear_1017_90)"/>
<defs>
<linearGradient id="paint0_linear_1017_90" x1="303.405" y1="182" x2="303.405" y2="222" gradientUnits="userSpaceOnUse">
<stop stop-color="#FFD233"/>
<stop offset="1" stop-color="#FFBF39"/>
</linearGradient>
<linearGradient id="paint1_linear_1017_90" x1="156.292" y1="0" x2="156.292" y2="37" gradientUnits="userSpaceOnUse">
<stop stop-color="#FFD233"/>
<stop offset="1" stop-color="#FFBF39"/>
</linearGradient>
<linearGradient id="paint2_linear_1017_90" x1="16" y1="128" x2="16" y2="156.986" gradientUnits="userSpaceOnUse">
<stop stop-color="#FFD233"/>
<stop offset="1" stop-color="#FFBF39"/>
</linearGradient>
</defs>
</svg>
