<svg width="26" height="26" viewBox="0 0 26 26" fill="none" xmlns="http://www.w3.org/2000/svg">
<path d="M24.2288 17.6426C21.8063 17.6426 19.4962 17.1148 17.3656 16.0734C17.0316 15.9134 16.6442 15.8882 16.2905 16.0089C15.9369 16.1324 15.6477 16.3906 15.4849 16.7247L14.4744 18.8159C11.4428 17.0755 8.92774 14.5576 7.18458 11.5261L9.27861 10.5155C9.61546 10.3527 9.87089 10.0636 9.9944 9.70992C10.1151 9.35623 10.0926 8.96887 9.92984 8.63483C8.88563 6.50711 8.35791 4.19694 8.35791 1.77167C8.35791 0.996936 7.72914 0.368164 6.9544 0.368164H1.77265C0.997913 0.368164 0.369141 0.996936 0.369141 1.77167C0.369141 14.9282 11.0723 25.6313 24.2288 25.6313C25.0035 25.6313 25.6323 25.0026 25.6323 24.2278V19.0461C25.6323 18.2713 25.0035 17.6426 24.2288 17.6426Z" fill="#FAFAFA"/>
</svg>
