<svg width="1204" height="174" viewBox="0 0 1204 174" fill="none" xmlns="http://www.w3.org/2000/svg">
<path d="M587.807 12.6912C586.879 8.62111 594.501 3.94425 594.995 8.36951C595.205 10.2417 597.344 10.8263 598.481 9.30192C600.299 6.87469 602.625 4.44006 605.752 3.84805C608.601 3.30784 611.586 4.61026 612.334 7.5407C612.918 9.84953 616.53 8.87272 615.94 6.55649C614.907 2.52343 611.122 0 606.963 0C601.899 0 598.062 3.67045 595.242 7.4371C596.401 7.7479 597.568 8.05871 598.728 8.36951C597.546 -2.26443 582.069 4.36606 584.201 13.6754C584.732 15.999 588.338 15.0148 587.807 12.6912Z" fill="#74787E"/>
<g clip-path="url(#clip0_1017_91)">
<path d="M247.164 169.114C251.443 165.293 259.01 167.218 260.959 172.682C261.549 174.326 263.972 174.556 264.466 172.682C265.66 168.196 268.876 158.696 275.271 162.354C277.316 163.524 279.149 160.325 277.105 159.155C273.874 157.304 270.207 157.763 267.209 159.933C263.462 162.65 262.095 167.403 260.952 171.698C262.124 171.698 263.288 171.698 264.459 171.698C261.549 163.546 251.013 160.755 244.589 166.493C242.828 168.07 245.411 170.676 247.164 169.114Z" fill="#74787E"/>
</g>
<g clip-path="url(#clip1_1017_91)">
<path d="M3.51222 64.5865C5.4254 61.3496 12.0578 70.5682 12.8831 72.0822C13.8284 73.82 16.2368 72.8728 16.3793 71.1425C16.5594 68.905 16.5969 67.8757 18.36 66.4288C19.3504 64.9893 20.6258 64.8252 22.1789 65.9514C23.0717 66.4437 23.9195 67.0105 24.6998 67.6669C26.5755 69.1287 29.2539 66.5108 27.3557 65.0266C24.3547 62.6921 20.6333 60.3576 16.7695 62.2968C13.4758 63.9526 12.8981 67.8608 12.6355 71.1425C13.7984 70.8292 14.9688 70.516 16.1317 70.2027C13.7984 65.929 4.8627 54.9428 0.271061 62.6996C-0.951876 64.773 2.28928 66.6525 3.51222 64.5865Z" fill="#74787E"/>
</g>
<g clip-path="url(#clip2_1017_91)">
<path d="M388.512 144.587C390.425 141.35 397.058 150.568 397.883 152.082C398.828 153.82 401.237 152.873 401.379 151.142C401.559 148.905 401.597 147.876 403.36 146.429C404.35 144.989 405.626 144.825 407.179 145.951C408.072 146.444 408.92 147.011 409.7 147.667C411.575 149.129 414.254 146.511 412.356 145.027C409.355 142.692 405.633 140.358 401.769 142.297C398.476 143.953 397.898 147.861 397.635 151.142C398.798 150.829 399.969 150.516 401.132 150.203C398.798 145.929 389.863 134.943 385.271 142.7C384.048 144.773 387.289 146.653 388.512 144.587Z" fill="#74787E"/>
</g>
<g clip-path="url(#clip3_1017_91)">
<path d="M1051.01 33.8807C1052.65 31.1417 1058.34 38.9421 1059.04 40.2232C1059.85 41.6937 1061.92 40.8922 1062.04 39.428C1062.19 37.5347 1062.23 36.6638 1063.74 35.4395C1064.59 34.2215 1065.68 34.0826 1067.01 35.0356C1067.78 35.4521 1068.5 35.9318 1069.17 36.4871C1070.78 37.7241 1073.07 35.5089 1071.45 34.253C1068.88 32.2777 1065.69 30.3024 1062.37 31.9432C1059.55 33.3443 1059.06 36.6512 1058.83 39.428C1059.83 39.163 1060.83 38.8979 1061.83 38.6328C1059.83 35.0167 1052.17 25.7206 1048.23 32.284C1047.18 34.0385 1049.96 35.6288 1051.01 33.8807Z" fill="#74787E"/>
</g>
<path d="M1169.54 98.5017C1174.32 94.2037 1182.78 96.3694 1184.95 102.517C1185.61 104.366 1188.32 104.624 1188.87 102.517C1190.21 97.4689 1193.8 86.7822 1200.95 90.8969C1203.24 92.213 1205.28 88.6147 1203 87.2986C1199.39 85.2162 1195.29 85.7327 1191.94 88.1732C1187.75 91.2301 1186.22 96.5776 1184.95 101.409C1186.26 101.409 1187.56 101.409 1188.87 101.409C1185.61 92.238 1173.84 89.0978 1166.66 95.5531C1164.69 97.3273 1167.58 100.259 1169.54 98.5017Z" fill="#74787E"/>
<defs>
<clipPath id="clip0_1017_91">
<rect width="34" height="16" fill="white" transform="translate(244 158)"/>
</clipPath>
<clipPath id="clip1_1017_91">
<rect width="28" height="13" fill="white" transform="translate(0 60)"/>
</clipPath>
<clipPath id="clip2_1017_91">
<rect width="28" height="13" fill="white" transform="translate(385 140)"/>
</clipPath>
<clipPath id="clip3_1017_91">
<rect width="24" height="11" fill="white" transform="translate(1048 30)"/>
</clipPath>
</defs>
</svg>
