<svg width="163" height="395" viewBox="0 0 163 395" fill="none" xmlns="http://www.w3.org/2000/svg">
<path d="M113.537 12.5017C118.318 8.20373 126.775 10.3694 128.955 16.5166C129.613 18.3657 132.321 18.6239 132.874 16.5166C134.208 11.4689 137.802 0.782171 144.95 4.89693C147.235 6.21299 149.284 2.61466 146.999 1.2986C143.389 -0.783771 139.29 -0.267344 135.94 2.17319C131.752 5.23011 130.223 10.5776 128.947 15.4087C130.256 15.4087 131.557 15.4087 132.866 15.4087C129.613 6.23798 117.839 3.09776 110.658 9.55311C108.69 11.3273 111.577 14.2593 113.537 12.5017Z" fill="#74787E"/>
<g clip-path="url(#clip0_1017_93)">
<path d="M48.5122 169.587C50.4254 166.35 57.0578 175.568 57.8831 177.082C58.8284 178.82 61.2368 177.873 61.3793 176.142C61.5594 173.905 61.5969 172.876 63.36 171.429C64.3504 169.989 65.6258 169.825 67.1789 170.951C68.0717 171.444 68.9195 172.011 69.6998 172.667C71.5755 174.129 74.2539 171.511 72.3557 170.027C69.3547 167.692 65.6333 165.358 61.7695 167.297C58.4758 168.953 57.8981 172.861 57.6355 176.142C58.7984 175.829 59.9688 175.516 61.1317 175.203C58.7984 170.929 49.8627 159.943 45.2711 167.7C44.0481 169.773 47.2893 171.653 48.5122 169.587Z" fill="#74787E"/>
</g>
<path d="M137.512 264.587C139.425 261.35 146.058 270.568 146.883 272.082C147.828 273.82 150.237 272.873 150.379 271.142C150.559 268.905 150.597 267.876 152.36 266.429C153.35 264.989 154.626 264.825 156.179 265.951C157.072 266.444 157.92 267.011 158.7 267.667C160.575 269.129 163.254 266.511 161.356 265.027C158.355 262.692 154.633 260.358 150.769 262.297C147.476 263.953 146.898 267.861 146.635 271.142C147.798 270.829 148.969 270.516 150.132 270.203C147.798 265.929 138.863 254.943 134.271 262.7C133.048 264.773 136.289 266.653 137.512 264.587Z" fill="#74787E"/>
<path d="M122.807 387.691C121.879 383.621 129.501 378.944 129.995 383.37C130.205 385.242 132.344 385.826 133.481 384.302C135.299 381.875 137.625 379.44 140.752 378.848C143.601 378.308 146.586 379.61 147.334 382.541C147.918 384.85 151.53 383.873 150.94 381.556C149.907 377.523 146.122 375 141.963 375C136.899 375 133.062 378.67 130.242 382.437C131.401 382.748 132.568 383.059 133.728 383.37C132.546 372.736 117.069 379.366 119.201 388.675C119.732 390.999 123.338 390.015 122.807 387.691Z" fill="#74787E"/>
<path d="M3.01047 386.881C4.65034 384.142 10.3352 391.942 11.0426 393.223C11.8529 394.694 13.9172 393.892 14.0394 392.428C14.1938 390.535 14.2259 389.664 15.7372 388.439C16.586 387.221 17.6793 387.083 19.0105 388.036C19.7757 388.452 20.5024 388.932 21.1712 389.487C22.779 390.724 25.0748 388.509 23.4478 387.253C20.8754 385.278 17.6857 383.302 14.3738 384.943C11.5507 386.344 11.0555 389.651 10.8304 392.428C11.8272 392.163 12.8304 391.898 13.8272 391.633C11.8272 388.017 4.16803 378.721 0.232338 385.284C-0.815893 387.038 1.96224 388.629 3.01047 386.881Z" fill="#74787E"/>
<defs>
<clipPath id="clip0_1017_93">
<rect width="28" height="13" fill="white" transform="translate(45 165)"/>
</clipPath>
</defs>
</svg>
