<svg width="376" height="151" viewBox="0 0 376 151" fill="none" xmlns="http://www.w3.org/2000/svg">
<path d="M61.0967 45.1445C58.855 44.3207 56.4123 44.2217 54.1116 44.8613C51.8109 45.5009 49.7679 46.847 48.2698 48.7104C47.7068 40.2699 45.006 30.3164 35.3206 29.0814C33.5375 28.8516 31.7257 29.1105 30.0777 29.8306C28.4297 30.5507 27.0073 31.705 25.9616 33.1708C24.0247 35.9029 23.0488 39.203 23.1873 42.5518C21.9861 39.7757 20.1058 37.3481 17.7204 35.4935C14.122 32.8763 9.43843 32.2956 5.68503 34.921C-2.2216 40.4499 -1.42196 53.266 5.25257 59.351C5.31984 59.4205 5.40706 59.4674 5.50211 59.485C5.59716 59.5025 5.69532 59.49 5.78294 59.4491C5.79989 59.5343 5.84572 59.6109 5.91265 59.6661C5.97958 59.7213 6.06348 59.7515 6.15012 59.7517C16.1211 60.267 26.19 59.8335 36.1692 59.7517C46.1483 59.6699 56.2581 60.0298 66.1801 59.2937C66.3084 59.2792 66.4315 59.2343 66.5391 59.1628C66.642 59.2255 66.7583 59.2627 66.8783 59.2714C66.9984 59.2801 67.1188 59.2601 67.2296 59.2129C67.3404 59.1658 67.4384 59.0929 67.5156 59.0003C67.5927 58.9077 67.6468 58.798 67.6733 58.6803C68.9625 53.2741 66.3678 47.2546 61.0967 45.1445ZM36.1692 58.1405C26.19 58.3041 16.1048 58.1405 6.15012 58.9584H6.07668C6.06863 58.8446 6.0259 58.7362 5.95429 58.6476C0.903514 52.5626 -1.0303 42.4209 5.79926 36.6958C9.5853 33.5224 14.5218 34.4957 17.9407 37.7345C20.9434 40.5807 22.4122 44.6701 23.7585 48.4814C23.818 48.6983 23.961 48.8826 24.1561 48.9938C24.3512 49.105 24.5824 49.134 24.7988 49.0743C25.0152 49.0147 25.1991 48.8713 25.3101 48.6758C25.421 48.4802 25.4499 48.2485 25.3904 48.0316C24.6724 43.6477 24.3623 38.7896 26.8673 34.8719C28.0124 33.0115 29.8164 31.6534 31.918 31.0695C34.0196 30.4856 36.2637 30.7191 38.2009 31.7231C45.6588 35.2809 46.5155 44.2448 46.6216 51.5484C46.6216 52.3663 47.8782 52.8243 48.2535 51.9983C50.2771 47.7617 55.1076 45.0709 59.7748 46.4694C64.4421 47.868 67.1185 53.1106 66.1638 57.8134C56.2662 57.3226 46.1157 57.9769 36.1692 58.1405Z" fill="#BDE5F2"/>
<path d="M165.893 138.339C163.552 136.86 159.93 137.072 158.016 139.134C159.387 130.815 156.548 117.8 147.861 116.164C138.898 114.472 135.943 126.248 136.29 134.17C132 127.857 124.613 121.165 117.555 127.127C111.511 132.229 113.576 146.538 120.714 149.699C120.836 149.756 120.971 149.773 121.102 149.746C121.233 149.72 121.352 149.651 121.444 149.551C128.885 149.754 136.326 149.551 143.766 149.736C151.207 149.921 158.586 150.993 165.92 150.845C166.11 150.977 166.342 151.027 166.568 150.986C166.793 150.945 166.995 150.815 167.13 150.623C169.649 147.009 169.978 140.908 165.893 138.339ZM144.478 147.97C136.74 147.687 128.993 147.866 121.275 148.506C115.507 145.133 113.015 132.349 119.005 128.051C126.482 122.69 133.513 131.998 136.806 137.886C136.901 138.05 137.049 138.174 137.225 138.234C137.4 138.293 137.59 138.285 137.76 138.211C137.93 138.137 138.069 138.001 138.15 137.829C138.232 137.658 138.251 137.461 138.204 137.276C137.241 133.338 137.405 129.194 138.675 125.352C140.277 120.619 144.425 115.461 149.721 118.456C157.277 122.736 157.073 134.041 155.951 141.472C155.926 141.568 155.918 141.668 155.93 141.767C155.941 141.866 155.972 141.961 156.019 142.048C156.066 142.135 156.129 142.211 156.204 142.272C156.28 142.334 156.366 142.379 156.459 142.406C156.551 142.433 156.647 142.44 156.743 142.428C156.838 142.416 156.93 142.385 157.013 142.336C157.097 142.287 157.17 142.221 157.229 142.143C157.288 142.065 157.332 141.975 157.357 141.879C157.357 141.805 157.358 141.731 157.42 141.666C157.486 141.658 157.55 141.634 157.605 141.595C157.661 141.557 157.707 141.505 157.74 141.445C158.114 140.759 158.626 140.165 159.242 139.706C159.859 139.246 160.564 138.931 161.309 138.783C162.054 138.634 162.821 138.655 163.557 138.845C164.293 139.035 164.981 139.389 165.573 139.882C168.189 142.202 167.727 146.353 166.062 149.126C159.049 147.887 151.545 148.09 144.478 147.97Z" fill="#BDE5F2"/>
<path d="M326.517 18.8896C328.306 12.7955 329.912 6.64812 331.331 0.456275C331.106 0.485901 330.881 0.515528 330.655 0.545154C333.111 5.14905 335.567 9.7559 338.023 14.3598C338.192 14.1909 338.361 14.0221 338.53 13.8532C336.225 12.683 334.815 10.4166 332.637 9.0745C330.466 7.7354 327.844 7.53394 325.361 7.35619C325.394 7.59912 325.426 7.84206 325.459 8.08499C331.153 5.8897 336.906 3.86327 342.722 2.01164C342.601 1.80426 342.482 1.59984 342.361 1.39246C336.898 5.88674 331.55 10.5203 326.324 15.2871C325.971 15.61 326.496 16.1314 326.848 15.8115C332.077 11.0446 337.422 6.41112 342.885 1.91684C343.175 1.67983 342.864 1.191 342.524 1.29766C336.708 3.14929 330.955 5.17571 325.26 7.371C324.872 7.51913 324.929 8.06721 325.358 8.0998C328.182 8.30126 331.002 8.58863 333.271 10.4521C334.922 11.809 336.216 13.5125 338.157 14.499C338.486 14.6679 338.841 14.3272 338.663 13.9924C336.207 9.38853 333.751 4.78168 331.295 0.177789C331.147 -0.0977333 330.688 -0.0414428 330.62 0.266668C329.201 6.45852 327.595 12.6059 325.806 18.7C325.669 19.1503 326.383 19.3459 326.517 18.8896Z" fill="#FFD233"/>
<path d="M241.901 79.6741C244.143 72.0365 246.156 64.332 247.934 56.5718C247.652 56.609 247.37 56.6461 247.088 56.6832C250.166 62.4532 253.244 68.2269 256.322 73.9969C256.534 73.7853 256.745 73.5736 256.957 73.362C254.068 71.8954 252.301 69.0549 249.572 67.3729C246.85 65.6947 243.564 65.4422 240.453 65.2194C240.494 65.5239 240.534 65.8283 240.575 66.1328C247.712 63.3815 254.922 60.8418 262.211 58.5212C262.059 58.2613 261.91 58.0051 261.758 57.7452C254.911 63.3778 248.209 69.1849 241.659 75.1591C241.218 75.5638 241.875 76.2173 242.317 75.8163C248.87 69.8421 255.568 64.035 262.415 58.4023C262.779 58.1053 262.389 57.4927 261.962 57.6263C254.673 59.947 247.463 62.4866 240.326 65.238C239.84 65.4236 239.911 66.1105 240.449 66.1514C243.987 66.4039 247.522 66.764 250.366 69.0995C252.434 70.8 254.057 72.935 256.489 74.1714C256.901 74.3831 257.347 73.9561 257.124 73.5365C254.046 67.7665 250.968 61.9928 247.89 56.2228C247.704 55.8775 247.129 55.9481 247.043 56.3342C245.265 64.0944 243.252 71.7988 241.01 79.4365C240.839 80.0008 241.734 80.2459 241.901 79.6741Z" fill="#FFD233"/>
<path d="M341.287 85.9102C344.839 84.8736 348.579 87.014 349.647 90.6743C350.715 94.3346 348.703 98.1395 345.151 99.176C341.598 100.213 337.859 98.0722 336.79 94.4119C335.733 90.7517 337.745 86.9468 341.287 85.9102Z" fill="white"/>
<path d="M341.14 85.3905C341.8 85.2022 342.493 85.1006 343.173 85.1068C346.37 85.1362 349.245 87.3659 350.166 90.5172C351.318 94.4591 349.131 98.5756 345.308 99.6852C344.647 99.8736 343.955 99.9752 343.274 99.969C340.077 99.9396 337.203 97.7099 336.281 94.5585C335.726 92.6526 335.928 90.6456 336.841 88.9151C337.753 87.1847 339.277 85.935 341.14 85.3905ZM337.31 94.2656C338.095 96.9729 340.551 98.8747 343.273 98.8997C343.856 98.9051 344.43 98.824 344.993 98.6563C348.253 97.7035 350.1 94.1887 349.116 90.8208C348.331 88.1135 345.874 86.2117 343.152 86.1867C342.569 86.1813 341.996 86.2624 341.433 86.4301C339.862 86.8908 338.567 87.9482 337.786 89.4314C337.006 90.9147 336.839 92.6304 337.31 94.2656Z" fill="#B6CAD0"/>
<path d="M341.905 88.0436C344.309 87.3421 346.856 88.7912 347.578 91.2819C348.301 93.7726 346.938 96.3521 344.522 97.0535C342.118 97.7551 339.571 96.306 338.849 93.8153C338.137 91.3247 339.5 88.7452 341.905 88.0436Z" fill="white"/>
<path d="M341.758 87.524C342.224 87.3878 342.711 87.3167 343.186 87.3211C345.432 87.3417 347.46 88.9048 348.098 91.1247C348.904 93.897 347.366 96.7882 344.679 97.5735C344.214 97.7096 343.727 97.7808 343.252 97.7764C341.005 97.7557 338.989 96.1928 338.339 93.9727C337.533 91.2004 339.061 88.3092 341.758 87.524ZM339.379 93.6583C339.892 95.4234 341.49 96.6694 343.262 96.6856C343.64 96.6891 344.018 96.6386 344.387 96.534C346.509 95.9163 347.708 93.6268 347.069 91.4285C346.556 89.6633 344.958 88.4282 343.176 88.4118C342.798 88.4084 342.419 88.4589 342.062 88.5636C339.939 89.1813 338.74 91.4707 339.379 93.6583Z" fill="#B6CAD0"/>
<path d="M345.415 62.1661C354.76 59.7463 361.751 66.5823 363.459 73.467C365.719 80.2056 363.504 89.7219 354.317 92.6939C345.129 95.666 288.592 109.705 284.717 96.396C279.953 80.0438 336.071 64.5967 345.415 62.1661Z" fill="white"/>
<path d="M345.279 61.6464C346.644 61.2917 348.017 61.1208 349.346 61.133C356.982 61.2031 362.489 67.3343 363.968 73.3097C365.345 77.4265 365.032 82.1541 363.117 85.9598C361.357 89.4537 358.363 91.9643 354.473 93.2246C348.19 95.2513 318.599 102.756 299.988 102.584C290.645 102.499 285.328 100.473 284.186 96.5639C283.558 94.4197 283.892 92.1871 285.165 89.9415C293.213 75.7807 336.66 63.8893 345.279 61.6464ZM285.226 96.2494C286.221 99.6499 291.185 101.413 299.998 101.494C318.479 101.664 347.897 94.201 354.137 92.1847C357.745 91.019 360.521 88.69 362.149 85.4649C363.943 81.9173 364.232 77.5026 362.928 73.6025C361.543 67.9953 356.421 62.278 349.336 62.2129C348.094 62.2015 346.828 62.3627 345.551 62.6965C340.31 64.0632 294.104 76.4153 286.111 90.4686C284.991 92.4456 284.692 94.3977 285.226 96.2494Z" fill="#B6CAD0"/>
<path d="M327.037 58.9406C336.298 56.2501 340.758 63.4193 340.758 63.4193C340.758 63.4193 341.815 74.1537 327.908 78.2056C314.001 82.2575 301.695 77.8027 301.695 77.8027C301.695 77.8027 314.766 62.5216 327.037 58.9406Z" fill="white"/>
<path d="M326.881 58.4316C328.354 58.0023 329.803 57.7888 331.196 57.8016C337.861 57.8629 341.076 62.9254 341.215 63.1318L341.279 63.2404L341.288 63.3701C341.298 63.4782 342.222 74.6002 328.055 78.7253C323.993 79.9084 319.678 80.4844 315.228 80.4435C307.3 80.3706 301.744 78.3863 301.507 78.3085L300.775 78.0426L301.278 77.4532C301.834 76.8211 314.598 62.0016 326.881 58.4316ZM315.249 79.3637C319.602 79.4037 323.809 78.8375 327.762 77.6858C340.391 74.011 340.302 64.8515 340.228 63.598C339.748 62.9024 336.76 58.9328 331.186 58.8816C329.901 58.8697 328.56 59.0626 327.184 59.4712C316.602 62.5492 305.235 74.6707 302.649 77.5414C304.437 78.0763 309.179 79.3079 315.249 79.3637Z" fill="#B6CAD0"/>
<path d="M363.459 73.4778C365.467 79.4688 363.933 87.6522 357.104 91.4775C352.607 89.4597 348.6 84.6384 346.757 78.3357C344.925 72.033 345.717 65.8086 348.422 61.6969C356.247 61.272 361.938 67.3401 363.459 73.4778Z" fill="white"/>
<path d="M348.136 61.1759L348.406 61.1568C356.555 60.7132 362.427 67.0854 363.968 73.2989C366.06 79.5499 364.471 87.9595 357.37 91.9444L357.131 92.0826L356.883 91.9723C352.053 89.8003 348.07 84.7631 346.248 78.493C344.426 72.2229 345.068 65.835 347.982 61.4121L348.136 61.1759ZM347.288 78.1786C348.995 84.048 352.646 88.7581 357.088 90.8618C363.474 87.108 364.884 79.3987 362.939 73.6027C361.543 67.9953 356.432 62.2782 349.336 62.2129C349.142 62.2112 348.936 62.2093 348.742 62.2183C346.122 66.3739 345.581 72.3199 347.288 78.1786Z" fill="#B6CAD0"/>
<path d="M363.459 73.4778C365.068 78.2879 364.395 84.5135 360.532 88.7657C356.892 86.3562 353.777 82.083 352.217 76.7549C350.667 71.427 350.996 66.1486 352.783 62.1581C358.321 63.6563 362.241 68.5524 363.459 73.4778Z" fill="white"/>
<path d="M352.475 61.5074L352.917 61.6302C358.229 63.0723 362.573 67.6699 363.968 73.2989C365.829 78.835 364.627 85.0449 360.928 89.115L360.612 89.4577L360.225 89.2057C356.328 86.6319 353.225 82.1428 351.697 76.8906C350.168 71.6384 350.38 66.1862 352.288 61.9268L352.475 61.5074ZM352.736 76.5978C354.139 81.4276 356.942 85.5683 360.441 88.0413C364.067 83.7545 364.327 77.7627 362.939 73.6027C361.887 69.3809 358.454 64.4784 353.09 62.7982C351.466 66.7686 351.333 71.7679 352.736 76.5978Z" fill="#B6CAD0"/>
<path d="M358.366 55.2758C359.578 55.0385 361.328 58.6511 362.267 63.3471C363.207 68.043 362.976 72.0478 361.753 72.2958C360.541 72.5331 358.792 68.9205 357.852 64.2245C356.923 59.5287 357.154 55.5239 358.366 55.2758Z" fill="white"/>
<path d="M358.262 54.7456C358.338 54.7355 358.414 54.7254 358.5 54.7262C360.293 54.7426 361.992 59.154 362.797 63.2439C363.664 67.5936 363.738 72.4544 361.866 72.826C361.79 72.8361 361.715 72.8462 361.628 72.8454C359.835 72.8289 358.137 68.4176 357.332 64.3277C356.516 60.2593 356.56 56.6524 357.425 55.3535C357.699 54.9348 358.035 54.7975 358.262 54.7456ZM358.381 64.1213C359.372 69.131 361.023 71.7598 361.627 71.7654L361.638 71.7655C362.136 71.662 362.768 68.7194 361.725 63.45C360.745 58.4405 359.095 55.8116 358.469 55.8059C358.436 55.8164 358.382 55.8591 358.316 55.9557C357.736 56.8252 357.566 59.9881 358.381 64.1213Z" fill="#B6CAD0"/>
<path d="M333.022 60.1621C335.211 60.5495 336.785 62.0436 336.523 63.4992C336.262 64.944 334.277 65.8114 332.088 65.4241C329.898 65.0368 328.324 63.5427 328.586 62.087C328.848 60.6314 330.832 59.7748 333.022 60.1621Z" fill="white"/>
<path d="M332.033 59.5266C332.39 59.5299 332.757 59.5656 333.113 59.6229C334.277 59.828 335.321 60.3236 336.059 61.0324C336.852 61.7957 337.211 62.6955 337.051 63.5904C336.789 65.0569 335.149 66.0786 333.064 66.0595C332.708 66.0562 332.341 66.0204 331.985 65.9631C329.461 65.5187 327.727 63.7747 328.046 62.0064C328.319 60.5185 329.949 59.5074 332.033 59.5266ZM332.178 64.8849C334.023 65.215 335.79 64.4969 335.984 63.397C336.075 62.8794 335.832 62.3156 335.307 61.8139C334.718 61.2577 333.868 60.8611 332.919 60.6904C332.617 60.6336 332.315 60.6092 332.013 60.6064C330.49 60.5924 329.274 61.2509 329.103 62.1781C328.92 63.3213 330.324 64.5546 332.178 64.8849Z" fill="#B6CAD0"/>
<path d="M347.188 79.6463C349.167 85.3022 352.919 89.592 357.093 91.4772C356.235 91.9553 355.324 92.379 354.305 92.7044C345.118 95.6765 288.58 109.716 284.706 96.4065C284.214 94.7171 284.38 93.0446 285.065 91.3877C316.946 87.4577 335.965 83.1396 347.188 79.6463Z" fill="white"/>
<path d="M284.692 90.8876L285.006 90.8473C311.771 87.5508 332.645 83.6061 347.031 79.1266L347.529 78.9692L347.708 79.4676C349.582 84.8094 353.172 89.1085 357.324 90.9827L358.303 91.4237L357.37 91.9443C356.414 92.4864 355.47 92.8989 354.485 93.2139C348.201 95.2406 318.61 102.745 299.999 102.574C290.656 102.488 285.339 100.463 284.197 96.5532C283.695 94.8097 283.819 93.0072 284.571 91.1781L284.692 90.8876ZM285.226 96.2494C286.221 99.6499 291.185 101.413 299.999 101.494C318.479 101.664 347.897 94.2009 354.138 92.1846C354.733 91.9957 355.319 91.7635 355.905 91.4773C352.025 89.3679 348.713 85.2874 346.858 80.313C332.483 84.7386 311.826 88.6313 285.45 91.8882C284.885 93.3842 284.818 94.8201 285.226 96.2494Z" fill="#B6CAD0"/>
<path d="M293.415 85.6216C295.348 86.849 286.798 94.4387 284.195 93.2051C284.195 93.2051 277.565 85.8972 280.518 83.2027C283.47 80.5189 291.481 84.3942 293.415 85.6216Z" fill="white"/>
<path d="M283.545 81.74C287.141 81.773 292.024 84.1076 293.699 85.1706C293.925 85.3131 294.429 85.7497 294.15 86.6976C293.436 89.1319 287.656 93.9065 284.848 93.8807C284.513 93.8776 284.222 93.8101 283.964 93.689L283.792 93.5686C283.076 92.7844 276.897 85.7722 280.154 82.8104C280.949 82.0833 282.086 81.7266 283.545 81.74ZM284.502 92.7543C284.599 92.7876 284.718 92.7995 284.847 92.8007C287.148 92.8218 292.514 88.3998 293.105 86.3856C293.116 86.3425 293.183 86.1163 293.108 86.0724C291.755 85.2067 286.959 82.8406 283.524 82.809C282.347 82.7982 281.448 83.0599 280.859 83.5945C278.822 85.4875 282.727 90.7507 284.502 92.7543Z" fill="#B6CAD0"/>
<path d="M296.746 94.5516C296.456 96.817 289.937 103.194 285.979 103.763C282.02 104.331 285.027 96.8416 285.027 96.8416C285.722 94.0399 297.027 92.2753 296.746 94.5516Z" fill="white"/>
<path d="M294.297 92.9739C295.691 92.9867 296.574 93.2325 297.002 93.7224C297.226 93.9729 297.321 94.287 297.274 94.6213C296.96 97.1349 290.31 103.684 286.048 104.292C285.865 104.323 285.702 104.332 285.54 104.331C284.612 104.322 284.108 103.864 283.842 103.473C282.584 101.593 284.31 97.1375 284.487 96.7071C285.115 94.2396 291.295 92.9463 294.297 92.9739ZM284.754 102.877C284.882 103.072 285.204 103.334 285.907 103.222C289.747 102.674 295.973 96.359 296.196 94.4278C296.164 94.3951 295.832 94.0573 294.287 94.0431C290.95 94.0124 285.913 95.4782 285.521 97.0298C284.847 98.73 284.041 101.812 284.754 102.877Z" fill="#B6CAD0"/>
<path d="M370.955 80.4913C373.935 84.2447 375.564 87.9102 374.585 88.6896C373.617 89.4584 370.409 87.042 367.43 83.2885C364.45 79.5351 362.821 75.8696 363.8 75.0902C364.779 74.3215 367.976 76.7378 370.955 80.4913Z" fill="white"/>
<path d="M364.292 74.4143C366.053 74.4305 369.127 77.31 371.39 80.1605C374.145 83.6419 376.428 87.929 374.938 89.1141C374.72 89.2849 374.438 89.3795 374.114 89.3766C372.354 89.3604 369.28 86.4808 367.016 83.6304C364.261 80.1489 361.967 75.8618 363.469 74.6767C363.687 74.4951 363.968 74.4113 364.292 74.4143ZM367.865 82.9577C370.502 86.2869 373.12 88.2874 374.124 88.2966C374.189 88.2972 374.243 88.2869 374.265 88.2655C374.668 87.9452 373.884 85.0327 370.553 80.8332C367.904 77.504 365.298 75.5035 364.293 75.4943C364.228 75.4937 364.174 75.504 364.152 75.5254C363.739 75.8348 364.523 78.7473 367.865 82.9577Z" fill="#B6CAD0"/>
<path d="M354.554 77.5217C358.084 74.2817 361.622 72.3918 362.467 73.2959C363.312 74.2109 361.132 77.5822 357.602 80.8222C354.073 84.0623 350.534 85.963 349.689 85.0372C348.854 84.1331 351.024 80.7726 354.554 77.5217Z" fill="white"/>
<path d="M354.19 77.1295C357.196 74.3707 360.26 72.5196 361.836 72.5341C362.279 72.5382 362.624 72.6709 362.87 72.9432C364.164 74.3483 361.244 78.2312 357.976 81.236C354.969 83.9949 351.895 85.8459 350.329 85.8315C349.778 85.8264 349.467 85.6076 349.296 85.4224C348.002 84.0065 350.921 80.1344 354.19 77.1295ZM350.091 84.6845C350.112 84.7063 350.188 84.7394 350.339 84.7408C351.43 84.7508 354.155 83.2746 357.238 80.43C361.192 76.7943 362.417 74.0407 362.074 73.6703C362.053 73.6485 361.978 73.6154 361.827 73.614C360.736 73.604 358.011 75.0802 354.928 77.9247C350.973 81.5605 349.738 84.314 350.091 84.6845Z" fill="#B6CAD0"/>
<path d="M329.854 93.333C333.721 92.2129 337.793 94.5292 338.956 98.5144C340.118 102.5 337.93 106.648 334.064 107.779C330.197 108.91 326.124 106.583 324.962 102.598C323.8 98.6019 325.987 94.4531 329.854 93.333Z" fill="white"/>
<path d="M329.697 92.8132C330.412 92.6038 331.158 92.5026 331.903 92.5095C335.36 92.5413 338.47 94.9567 339.476 98.3681C340.072 100.436 339.858 102.605 338.869 104.475C337.879 106.356 336.225 107.713 334.21 108.299C333.495 108.509 332.749 108.61 332.004 108.603C328.547 108.571 325.426 106.166 324.431 102.744C323.835 100.676 324.049 98.5071 325.038 96.6369C326.039 94.7561 327.693 93.3996 329.697 92.8132ZM325.482 102.441C326.34 105.408 329.033 107.496 332.025 107.523C332.662 107.529 333.3 107.438 333.917 107.26C335.639 106.757 337.065 105.593 337.923 103.97C338.78 102.347 338.97 100.459 338.447 98.6718C337.588 95.7046 334.896 93.617 331.904 93.5895C331.267 93.5837 330.629 93.675 330.011 93.853C328.289 94.3555 326.863 95.5197 326.006 97.1426C325.138 98.7655 324.958 100.643 325.482 102.441Z" fill="#B6CAD0"/>
<path d="M330.525 95.6506C333.146 94.8863 335.918 96.467 336.704 99.1743C337.489 101.882 336.005 104.698 333.384 105.462C330.763 106.226 327.99 104.646 327.205 101.938C326.409 99.2309 327.904 96.415 330.525 95.6506Z" fill="white"/>
<path d="M330.378 95.1308C330.887 94.9843 331.406 94.9134 331.924 94.9182C334.355 94.9405 336.532 96.6238 337.234 99.0279C338.103 102.017 336.443 105.144 333.54 105.982C333.031 106.128 332.512 106.199 331.994 106.194C329.563 106.172 327.386 104.489 326.684 102.095C326.265 100.644 326.409 99.1228 327.112 97.8117C327.805 96.4896 328.97 95.5391 330.378 95.1308ZM327.724 101.792C328.289 103.73 330.048 105.096 332.003 105.114C332.425 105.118 332.836 105.057 333.236 104.942C335.565 104.262 336.895 101.736 336.194 99.3208C335.628 97.3823 333.869 96.0161 331.914 95.9981C331.493 95.9943 331.082 96.0553 330.681 96.1704C329.555 96.4949 328.619 97.2639 328.069 98.3173C327.498 99.3812 327.378 100.611 327.724 101.792Z" fill="#B6CAD0"/>
<path d="M367.586 72.2737C368.623 75.815 362.154 77.9912 362.154 77.9912C362.154 77.9912 357.231 75.2891 359.934 70.3566C359.923 70.3673 366.549 68.7325 367.586 72.2737Z" fill="white"/>
<path d="M359.571 69.8996L359.798 69.8476C359.863 69.8266 361.465 69.4418 363.258 69.4582C366.628 69.4892 367.749 70.9251 368.105 72.1273C369.268 76.1232 362.614 78.4166 362.332 78.5112L362.105 78.5847L361.901 78.4748C361.847 78.4419 356.538 75.4446 359.461 70.1145L359.571 69.8996ZM362.213 77.3976C363.308 76.9865 367.841 75.0841 367.066 72.4201C366.71 71.1856 365.419 70.5473 363.248 70.5274C361.974 70.5157 360.773 70.7314 360.286 70.835C358.382 74.5976 361.365 76.8606 362.213 77.3976Z" fill="#B6CAD0"/>
<path d="M337.444 82.1704C333.427 96.1198 320.47 107.276 312.65 106.006C304.82 104.735 313.003 87.5727 313.003 87.5727C324.914 79.7656 337.444 82.1704 337.444 82.1704Z" fill="white"/>
<path d="M312.574 87.2017L312.704 87.1165C320.203 82.2065 327.914 81.2297 333.055 81.277C335.788 81.3021 337.481 81.62 337.546 81.6314L338.128 81.7448L337.961 82.3157C333.988 96.1035 321.717 106.715 313.821 106.643C313.389 106.639 312.957 106.603 312.558 106.534C311.113 106.305 310.061 105.561 309.414 104.345C306.813 99.3855 312.266 87.8253 312.497 87.3414L312.574 87.2017ZM310.379 103.846C310.857 104.758 311.63 105.294 312.73 105.466C313.086 105.524 313.453 105.559 313.831 105.563C321.241 105.631 332.729 95.6599 336.748 82.6069C336.047 82.5141 334.752 82.3726 333.045 82.3569C328.077 82.3112 320.658 83.2475 313.421 87.9331C312.814 89.256 308.171 99.6356 310.379 103.846Z" fill="#B6CAD0"/>
</svg>
