<svg width="1258" height="166" viewBox="0 0 1258 166" fill="none" xmlns="http://www.w3.org/2000/svg">
<path d="M1233.27 28.3344C1235.96 19.1933 1238.37 9.97219 1240.5 0.684413C1240.16 0.728852 1239.82 0.773292 1239.48 0.817731C1243.17 7.72357 1246.85 14.6338 1250.54 21.5397C1250.79 21.2864 1251.04 21.0331 1251.29 20.7798C1247.84 19.0244 1245.72 15.6248 1242.46 13.6118C1239.2 11.6031 1235.27 11.3009 1231.54 11.0343C1231.59 11.3987 1231.64 11.7631 1231.69 12.1275C1240.23 8.83455 1248.86 5.79491 1257.58 3.01747C1257.4 2.70639 1257.22 2.39976 1257.04 2.08869C1248.85 8.8301 1240.83 15.7804 1232.99 22.9306C1232.46 23.415 1233.24 24.1971 1233.77 23.7172C1241.62 16.5669 1249.63 9.61667 1257.83 2.87526C1258.26 2.51975 1257.8 1.7865 1257.29 1.94649C1248.56 4.72393 1239.93 7.76356 1231.39 11.0565C1230.81 11.2787 1230.89 12.1008 1231.54 12.1497C1235.77 12.4519 1240 12.8829 1243.41 15.6782C1245.88 17.7135 1247.82 20.2687 1250.74 21.7486C1251.23 22.0019 1251.76 21.4908 1251.49 20.9886C1247.81 14.0828 1244.13 7.17252 1240.44 0.266684C1240.22 -0.1466 1239.53 -0.0621642 1239.43 0.400003C1237.3 9.68778 1234.89 18.9089 1232.21 28.05C1232 28.7255 1233.07 29.0188 1233.27 28.3344Z" fill="#FFD233"/>
<path d="M429 136.213C429 136.213 449.364 197.597 569.583 140.881C575.231 138.216 584.09 133.181 589.247 129.667L617.895 110.209C634.734 99.1009 636.46 82.3387 626.356 72.2163C619.181 65.0205 602.582 62.2932 592.729 69.6569C570.828 86.01 583.076 106.444 603.586 117.237C621.294 126.552 650.904 133.181 672.168 130.129C687.752 127.884 698.389 125.146 701.673 124.192C715.124 120.3 735.352 112.307 746.868 101.041C761.124 87.0904 776.081 68.6709 775.756 53.0205C774.909 12.5415 706.83 24.4366 743.416 65.3981C780.003 106.36 848.082 65.8282 878.289 62.4086C908.495 58.9995 935.302 57.2897 962.559 71.7128C991.563 87.059 990.192 104.23 1000.4 106.79C1010.61 109.349 1034.44 105.94 1034.44 105.94" stroke="#EAF0F1" stroke-width="2" stroke-miterlimit="10" stroke-linecap="round" stroke-dasharray="5 7"/>
<path d="M1130.23 71.7611C1135.54 70.2096 1141.14 73.4132 1142.74 78.8917C1144.34 84.3702 1141.33 90.065 1136.01 91.6165C1130.69 93.168 1125.09 89.9643 1123.5 84.4858C1121.91 79.0075 1124.92 73.3127 1130.23 71.7611Z" fill="white"/>
<path d="M1130.01 70.9832C1130.99 70.7013 1132.03 70.5492 1133.05 70.5585C1137.83 70.6025 1142.14 73.9397 1143.52 78.6565C1145.24 84.5564 1141.97 90.7176 1136.24 92.3785C1135.25 92.6604 1134.22 92.8125 1133.2 92.8031C1128.42 92.7591 1124.11 89.4219 1122.73 84.7052C1121.9 81.8525 1122.21 78.8486 1123.57 76.2585C1124.94 73.6685 1127.22 71.7981 1130.01 70.9832ZM1124.27 84.2667C1125.45 88.3188 1129.12 91.1653 1133.2 91.2028C1134.07 91.2108 1134.93 91.0894 1135.77 90.8385C1140.65 89.4123 1143.42 84.1517 1141.94 79.1108C1140.77 75.0587 1137.09 72.2122 1133.02 72.1748C1132.15 72.1667 1131.29 72.2882 1130.44 72.5391C1128.09 73.2287 1126.15 74.8113 1124.99 77.0313C1123.82 79.2514 1123.57 81.8193 1124.27 84.2667Z" fill="#B6CAD0"/>
<path d="M1131.15 74.9542C1134.75 73.9042 1138.56 76.073 1139.64 79.8009C1140.72 83.5288 1138.68 87.3897 1135.07 88.4396C1131.47 89.4896 1127.66 87.3207 1126.58 83.5928C1125.51 79.865 1127.55 76.0042 1131.15 74.9542Z" fill="white"/>
<path d="M1130.93 74.1762C1131.63 73.9725 1132.36 73.866 1133.07 73.8725C1136.43 73.9034 1139.46 76.2429 1140.42 79.5656C1141.63 83.7149 1139.32 88.0422 1135.3 89.2176C1134.61 89.4214 1133.88 89.5278 1133.17 89.5213C1129.8 89.4904 1126.79 87.151 1125.81 83.8282C1124.61 79.6789 1126.89 75.3515 1130.93 74.1762ZM1127.37 83.3576C1128.14 85.9996 1130.53 87.8644 1133.18 87.8887C1133.75 87.8939 1134.31 87.8183 1134.87 87.6617C1138.04 86.7372 1139.84 83.3105 1138.88 80.0202C1138.11 77.3782 1135.72 75.5296 1133.05 75.5051C1132.49 75.4999 1131.92 75.5755 1131.39 75.7322C1128.21 76.6568 1126.41 80.0835 1127.37 83.3576Z" fill="#B6CAD0"/>
<path d="M1136.41 36.2222C1150.39 32.6005 1160.85 42.8321 1163.41 53.1367C1166.79 63.2225 1163.48 77.4658 1149.73 81.9141C1135.98 86.3625 1051.36 107.375 1045.56 87.4551C1038.43 62.9803 1122.42 39.8602 1136.41 36.2222Z" fill="white"/>
<path d="M1136.2 35.4445C1138.24 34.9136 1140.3 34.6577 1142.29 34.676C1153.72 34.781 1161.96 43.9578 1164.17 52.9012C1166.23 59.0629 1165.77 66.1389 1162.9 71.8351C1160.26 77.0645 1155.78 80.8221 1149.96 82.7084C1140.56 85.7419 1096.27 96.9737 1068.41 96.7177C1054.43 96.5892 1046.47 93.5578 1044.76 87.7065C1043.82 84.4972 1044.32 81.1556 1046.23 77.7946C1058.27 56.5997 1123.3 38.8014 1136.2 35.4445ZM1046.32 87.2359C1047.81 92.3254 1055.24 94.9639 1068.43 95.0852C1096.09 95.3394 1140.12 84.1698 1149.46 81.152C1154.86 79.4073 1159.01 75.9215 1161.45 71.0943C1164.14 65.7845 1164.57 59.1769 1162.62 53.3396C1160.54 44.947 1152.88 36.3898 1142.27 36.2924C1140.41 36.2753 1138.52 36.5165 1136.61 37.0162C1128.76 39.0618 1059.61 57.5495 1047.64 78.5835C1045.97 81.5425 1045.52 84.4643 1046.32 87.2359Z" fill="#B6CAD0"/>
<path d="M1108.9 31.3948C1122.76 27.3678 1129.43 38.0981 1129.43 38.0981C1129.43 38.0981 1131.02 54.1646 1110.2 60.2292C1089.39 66.2938 1070.97 59.6262 1070.97 59.6262C1070.97 59.6262 1090.53 36.7545 1108.9 31.3948Z" fill="white"/>
<path d="M1108.66 30.6329C1110.87 29.9904 1113.04 29.6709 1115.12 29.69C1125.1 29.7817 1129.91 37.3589 1130.12 37.6679L1130.21 37.8305L1130.23 38.0246C1130.24 38.1864 1131.63 54.833 1110.42 61.0072C1104.34 62.7779 1097.88 63.64 1091.22 63.5788C1079.36 63.4697 1071.04 60.4998 1070.69 60.3833L1069.59 59.9853L1070.34 59.1031C1071.18 58.1571 1090.28 35.9763 1108.66 30.6329ZM1091.25 61.9626C1097.77 62.0224 1104.07 61.1751 1109.98 59.4513C1128.89 53.951 1128.75 40.2418 1128.64 38.3656C1127.92 37.3245 1123.45 31.3831 1115.11 31.3064C1113.18 31.2887 1111.18 31.5774 1109.12 32.1889C1093.28 36.7959 1076.27 54.9385 1072.4 59.2351C1075.07 60.0357 1082.17 61.8791 1091.25 61.9626Z" fill="#B6CAD0"/>
<path d="M1163.41 53.1529C1166.42 62.1198 1164.12 74.368 1153.9 80.0935C1147.17 77.0734 1141.17 69.8572 1138.41 60.4237C1135.67 50.9904 1136.86 41.674 1140.91 35.52C1152.62 34.8841 1161.13 43.9663 1163.41 53.1529Z" fill="white"/>
<path d="M1140.48 34.7402L1140.88 34.7116C1153.08 34.0478 1161.87 43.5851 1164.17 52.8851C1167.3 62.2412 1164.93 74.8281 1154.3 80.7923L1153.94 80.9992L1153.57 80.8341C1146.34 77.5832 1140.38 70.0439 1137.65 60.6593C1134.92 51.2746 1135.89 41.7137 1140.25 35.0937L1140.48 34.7402ZM1139.21 60.1886C1141.76 68.9736 1147.23 76.0233 1153.88 79.1719C1163.43 73.5535 1165.54 62.0148 1162.63 53.3397C1160.54 44.947 1152.89 36.39 1142.27 36.2924C1141.98 36.2897 1141.68 36.2869 1141.38 36.3004C1137.46 42.5203 1136.65 51.4198 1139.21 60.1886Z" fill="#B6CAD0"/>
<path d="M1163.41 53.153C1165.82 60.3524 1164.81 69.6705 1159.03 76.0349C1153.58 72.4285 1148.92 66.0327 1146.59 58.058C1144.27 50.0835 1144.76 42.1833 1147.43 36.2106C1155.72 38.4529 1161.59 45.7811 1163.41 53.153Z" fill="white"/>
<path d="M1146.97 35.2364L1147.63 35.4203C1155.58 37.5787 1162.08 44.4601 1164.17 52.8852C1166.96 61.1712 1165.16 70.4657 1159.62 76.5576L1159.15 77.0705L1158.57 76.6934C1152.74 72.841 1148.09 66.1221 1145.81 58.261C1143.52 50.3999 1143.84 42.2394 1146.69 35.8643L1146.97 35.2364ZM1147.36 57.8227C1149.46 65.0516 1153.66 71.2491 1158.89 74.9505C1164.32 68.5344 1164.71 59.5663 1162.63 53.3398C1161.06 47.0209 1155.92 39.6832 1147.89 37.1685C1145.46 43.1111 1145.26 50.5937 1147.36 57.8227Z" fill="#B6CAD0"/>
<path d="M1155.79 25.9092C1157.6 25.5541 1160.22 30.9611 1161.63 37.9897C1163.03 45.0183 1162.69 51.0124 1160.86 51.3835C1159.04 51.7386 1156.43 46.3316 1155.02 39.303C1153.63 32.2746 1153.98 26.2805 1155.79 25.9092Z" fill="white"/>
<path d="M1155.63 25.1158C1155.75 25.1006 1155.86 25.0855 1155.99 25.0867C1158.67 25.1114 1161.22 31.7139 1162.42 37.8354C1163.72 44.3457 1163.83 51.621 1161.03 52.1772C1160.91 52.1924 1160.8 52.2075 1160.67 52.2063C1157.99 52.1816 1155.45 45.5791 1154.24 39.4576C1153.02 33.3683 1153.09 27.9697 1154.38 26.0256C1154.79 25.399 1155.29 25.1935 1155.63 25.1158ZM1155.81 39.1487C1157.3 46.6468 1159.77 50.5815 1160.67 50.5898L1160.69 50.5899C1161.43 50.4351 1162.38 46.0307 1160.82 38.144C1159.35 30.646 1156.88 26.7114 1155.94 26.7028C1155.89 26.7185 1155.81 26.7824 1155.71 26.927C1154.85 28.2284 1154.59 32.9624 1155.81 39.1487Z" fill="#B6CAD0"/>
<path d="M1117.86 33.223C1121.13 33.8028 1123.49 36.039 1123.1 38.2177C1122.7 40.3803 1119.73 41.6785 1116.46 41.0988C1113.18 40.519 1110.82 38.2828 1111.22 36.1041C1111.61 33.9254 1114.58 32.6433 1117.86 33.223Z" fill="white"/>
<path d="M1116.38 32.2718C1116.91 32.2767 1117.46 32.3302 1117.99 32.416C1119.73 32.723 1121.3 33.4647 1122.4 34.5256C1123.59 35.6681 1124.13 37.0147 1123.89 38.3543C1123.49 40.5491 1121.04 42.0784 1117.92 42.0497C1117.39 42.0448 1116.84 41.9913 1116.3 41.9056C1112.53 41.2404 1109.93 38.6301 1110.41 35.9834C1110.82 33.7564 1113.26 32.2431 1116.38 32.2718ZM1116.59 40.2917C1119.35 40.7859 1122 39.7109 1122.29 38.0648C1122.42 37.2901 1122.06 36.4462 1121.28 35.6953C1120.39 34.8628 1119.12 34.2692 1117.7 34.0137C1117.25 33.9287 1116.8 33.8922 1116.34 33.888C1114.07 33.8671 1112.25 34.8526 1111.99 36.2404C1111.72 37.9514 1113.82 39.7974 1116.59 40.2917Z" fill="#B6CAD0"/>
<path d="M1139.06 62.3856C1142.02 70.851 1147.64 77.2717 1153.88 80.0933C1152.6 80.8089 1151.24 81.443 1149.71 81.9301C1135.96 86.3785 1051.34 107.391 1045.54 87.4711C1044.8 84.9426 1045.05 82.4393 1046.08 79.9593C1093.79 74.0773 1122.26 67.6142 1139.06 62.3856Z" fill="white"/>
<path d="M1045.52 79.2106L1045.99 79.1503C1086.05 74.2163 1117.29 68.3122 1138.82 61.6076L1139.57 61.372L1139.84 62.118C1142.64 70.1132 1148.01 76.5478 1154.23 79.353L1155.69 80.0131L1154.3 80.7923C1152.87 81.6036 1151.45 82.221 1149.98 82.6924C1140.57 85.7259 1096.28 96.9577 1068.43 96.7017C1054.45 96.5732 1046.49 93.5418 1044.78 87.6905C1044.03 85.081 1044.21 82.3832 1045.34 79.6454L1045.52 79.2106ZM1046.32 87.2359C1047.81 92.3254 1055.24 94.9639 1068.43 95.0852C1096.09 95.3394 1140.12 84.1698 1149.46 81.152C1150.35 80.8692 1151.23 80.5216 1152.1 80.0932C1146.3 76.9361 1141.34 70.8287 1138.56 63.3834C1117.05 70.0073 1086.13 75.8336 1046.65 80.7082C1045.81 82.9474 1045.71 85.0965 1046.32 87.2359Z" fill="#B6CAD0"/>
<path d="M1058.57 71.329C1061.47 73.1661 1048.67 84.5257 1044.78 82.6794C1044.78 82.6794 1034.85 71.7414 1039.27 67.7084C1043.69 63.6916 1055.68 69.4919 1058.57 71.329Z" fill="white"/>
<path d="M1043.8 65.5192C1049.18 65.5687 1056.49 69.0628 1059 70.6539C1059.34 70.8671 1060.09 71.5207 1059.67 72.9394C1058.61 76.5829 1049.96 83.7292 1045.75 83.6906C1045.25 83.6859 1044.82 83.585 1044.43 83.4036L1044.17 83.2234C1043.1 82.0497 1033.85 71.5543 1038.73 67.1214C1039.92 66.0331 1041.62 65.4991 1043.8 65.5192ZM1045.23 82.0046C1045.38 82.0544 1045.56 82.0722 1045.75 82.074C1049.19 82.1057 1057.23 75.4871 1058.11 72.4724C1058.13 72.4079 1058.23 72.0693 1058.11 72.0036C1056.09 70.708 1048.91 67.1665 1043.77 67.1193C1042.01 67.1031 1040.66 67.4948 1039.78 68.295C1036.73 71.1282 1042.58 79.0058 1045.23 82.0046Z" fill="#B6CAD0"/>
<path d="M1063.56 84.6948C1063.13 88.0855 1053.37 97.6303 1047.44 98.4811C1041.52 99.3318 1046.02 88.1223 1046.02 88.1223C1047.06 83.9289 1063.98 81.2879 1063.56 84.6948Z" fill="white"/>
<path d="M1059.9 82.3333C1061.98 82.3525 1063.3 82.7203 1063.94 83.4536C1064.28 83.8285 1064.42 84.2986 1064.35 84.7991C1063.88 88.5612 1053.93 98.3628 1047.55 99.2741C1047.27 99.32 1047.03 99.334 1046.79 99.3317C1045.4 99.319 1044.64 98.6331 1044.25 98.0475C1042.36 95.2336 1044.95 88.565 1045.21 87.9208C1046.15 84.2277 1055.4 82.292 1059.9 82.3333ZM1045.61 97.1548C1045.8 97.4475 1046.28 97.8399 1047.34 97.6718C1053.08 96.8517 1062.4 87.3999 1062.74 84.5094C1062.69 84.4605 1062.19 83.9548 1059.88 83.9336C1054.88 83.8876 1047.35 86.0815 1046.76 88.4039C1045.75 90.9487 1044.54 95.5608 1045.61 97.1548Z" fill="#B6CAD0"/>
<path d="M1174.63 63.6502C1179.09 69.2681 1181.53 74.7544 1180.06 75.921C1178.61 77.0715 1173.81 73.4549 1169.35 67.837C1164.9 62.219 1162.46 56.7328 1163.92 55.5662C1165.39 54.4158 1170.17 58.0323 1174.63 63.6502Z" fill="white"/>
<path d="M1164.66 54.5546C1167.29 54.5788 1171.89 58.8887 1175.28 63.1551C1179.41 68.3658 1182.82 74.7825 1180.59 76.5563C1180.27 76.8119 1179.84 76.9536 1179.36 76.9491C1176.72 76.9249 1172.12 72.615 1168.74 68.3486C1164.61 63.1379 1161.18 56.7211 1163.43 54.9474C1163.75 54.6756 1164.17 54.5502 1164.66 54.5546ZM1170.01 67.3419C1173.95 72.3247 1177.87 75.3189 1179.37 75.3327C1179.47 75.3336 1179.55 75.3182 1179.59 75.2862C1180.19 74.8067 1179.02 70.4475 1174.03 64.162C1170.06 59.179 1166.16 56.185 1164.66 56.1711C1164.56 56.1702 1164.48 56.1857 1164.45 56.2177C1163.83 56.6808 1165 61.04 1170.01 67.3419Z" fill="#B6CAD0"/>
<path d="M1150.08 59.2055C1155.37 54.3561 1160.66 51.5273 1161.93 52.8807C1163.19 54.2502 1159.93 59.296 1154.65 64.1455C1149.36 68.995 1144.07 71.8399 1142.8 70.4542C1141.55 69.101 1144.8 64.0712 1150.08 59.2055Z" fill="white"/>
<path d="M1149.54 58.6186C1154.04 54.4894 1158.62 51.7188 1160.98 51.7405C1161.65 51.7466 1162.16 51.9453 1162.53 52.3528C1164.47 54.4559 1160.1 60.2675 1155.2 64.7649C1150.7 68.8942 1146.1 71.6646 1143.76 71.6431C1142.93 71.6355 1142.47 71.3079 1142.21 71.0308C1140.28 68.9115 1144.65 63.1161 1149.54 58.6186ZM1143.4 69.9263C1143.44 69.9589 1143.55 70.0085 1143.77 70.0105C1145.41 70.0256 1149.49 67.8161 1154.1 63.5586C1160.02 58.1168 1161.85 53.9954 1161.34 53.4411C1161.31 53.4085 1161.19 53.3589 1160.97 53.3568C1159.34 53.3418 1155.26 55.5513 1150.64 59.8088C1144.72 65.2506 1142.87 69.3718 1143.4 69.9263Z" fill="#B6CAD0"/>
<path d="M1113.11 82.8709C1118.9 81.1945 1125 84.6613 1126.74 90.6261C1128.48 96.5908 1125.2 102.8 1119.41 104.493C1113.63 106.186 1107.53 102.703 1105.79 96.738C1104.05 90.7571 1107.33 84.5474 1113.11 82.8709Z" fill="white"/>
<path d="M1112.88 82.0929C1113.95 81.7794 1115.07 81.628 1116.18 81.6383C1121.35 81.6858 1126.01 85.3011 1127.51 90.407C1128.41 93.5027 1128.09 96.749 1126.61 99.5481C1125.13 102.363 1122.65 104.394 1119.63 105.271C1118.56 105.585 1117.45 105.736 1116.33 105.726C1111.16 105.678 1106.49 102.079 1105 96.957C1104.1 93.8613 1104.43 90.6151 1105.91 87.8159C1107.4 85.0008 1109.88 82.9706 1112.88 82.0929ZM1106.57 96.5027C1107.86 100.944 1111.88 104.068 1116.36 104.109C1117.32 104.118 1118.27 103.982 1119.2 103.715C1121.77 102.963 1123.91 101.221 1125.19 98.7915C1126.47 96.3623 1126.76 93.5361 1125.97 90.8616C1124.69 86.4206 1120.66 83.296 1116.18 83.2548C1115.23 83.2461 1114.27 83.3828 1113.35 83.6491C1110.77 84.4013 1108.64 86.1437 1107.35 88.5728C1106.05 91.0018 1105.79 93.8121 1106.57 96.5027Z" fill="#B6CAD0"/>
<path d="M1114.12 86.3396C1118.04 85.1956 1122.19 87.5615 1123.37 91.6136C1124.54 95.6656 1122.32 99.8805 1118.4 101.024C1114.47 102.168 1110.32 99.8026 1109.15 95.7505C1107.96 91.6982 1110.19 87.4836 1114.12 86.3396Z" fill="white"/>
<path d="M1113.9 85.5616C1114.66 85.3423 1115.44 85.2362 1116.21 85.2434C1119.85 85.2768 1123.11 87.7962 1124.16 91.3945C1125.46 95.868 1122.98 100.549 1118.63 101.803C1117.87 102.022 1117.09 102.128 1116.32 102.121C1112.68 102.087 1109.42 99.5679 1108.37 95.9858C1107.74 93.8139 1107.96 91.5366 1109.01 89.5741C1110.05 87.5953 1111.79 86.1727 1113.9 85.5616ZM1109.93 95.5313C1110.77 98.4326 1113.41 100.477 1116.33 100.504C1116.96 100.51 1117.58 100.419 1118.18 100.247C1121.66 99.2278 1123.65 95.4473 1122.6 91.8328C1121.76 88.9315 1119.12 86.8867 1116.2 86.8598C1115.57 86.854 1114.95 86.9453 1114.35 87.1176C1112.67 87.6032 1111.27 88.7542 1110.44 90.3309C1109.59 91.9233 1109.41 93.7645 1109.93 95.5313Z" fill="#B6CAD0"/>
<path d="M1169.59 51.3508C1171.14 56.6511 1161.46 59.9083 1161.46 59.9083C1161.46 59.9083 1154.09 55.864 1158.14 48.4813C1158.12 48.4974 1168.04 46.0506 1169.59 51.3508Z" fill="white"/>
<path d="M1157.59 47.7973L1157.93 47.7197C1158.03 47.6882 1160.43 47.1121 1163.11 47.1368C1168.15 47.1832 1169.83 49.3324 1170.37 51.1316C1172.11 57.1125 1162.15 60.545 1161.73 60.6866L1161.38 60.7966L1161.08 60.6322C1161 60.5829 1153.05 56.0968 1157.43 48.1191L1157.59 47.7973ZM1161.55 59.02C1163.19 58.4046 1169.97 55.5572 1168.81 51.5699C1168.28 49.7222 1166.35 48.7669 1163.1 48.737C1161.19 48.7195 1159.39 49.0424 1158.66 49.1974C1155.81 54.829 1160.28 58.2162 1161.55 59.02Z" fill="#B6CAD0"/>
<path d="M1124.47 66.1636C1118.46 87.0421 1099.07 103.74 1087.36 101.838C1075.64 99.9363 1087.89 74.2494 1087.89 74.2494C1105.72 62.5642 1124.47 66.1636 1124.47 66.1636Z" fill="white"/>
<path d="M1087.25 73.6939L1087.45 73.5664C1098.67 66.2174 1110.21 64.7554 1117.91 64.8262C1122 64.8638 1124.53 65.3397 1124.63 65.3567L1125.5 65.5264L1125.25 66.3808C1119.3 87.0175 1100.93 102.901 1089.12 102.792C1088.47 102.786 1087.82 102.732 1087.23 102.629C1085.06 102.286 1083.49 101.172 1082.52 99.353C1078.63 91.9297 1086.79 74.6272 1087.14 73.903L1087.25 73.6939ZM1083.97 98.6065C1084.68 99.9709 1085.84 100.774 1087.48 101.031C1088.02 101.117 1088.57 101.171 1089.13 101.176C1100.22 101.278 1117.42 86.3536 1123.43 66.8168C1122.38 66.6778 1120.44 66.466 1117.89 66.4425C1110.45 66.3742 1099.35 67.7755 1088.52 74.7886C1087.61 76.7686 1080.66 92.304 1083.97 98.6065Z" fill="#B6CAD0"/>
<path d="M51.8931 82.3387C49.5522 80.8598 45.9298 81.0724 44.0162 83.1337C45.3868 74.8146 42.5476 61.8 33.8607 60.1639C24.8979 58.4724 21.9429 70.2484 22.2901 78.17C18 71.8568 10.6126 65.1646 3.55455 71.1265C-2.48888 76.2289 -0.423965 90.5376 6.71422 93.6988C6.83558 93.7561 6.97109 93.7726 7.10191 93.7461C7.23272 93.7195 7.35232 93.6513 7.44406 93.5509C14.8849 93.7543 22.3257 93.5509 29.7665 93.7358C37.2073 93.9207 44.5858 94.9929 51.9198 94.845C52.1103 94.9768 52.3424 95.0272 52.5678 94.9859C52.7932 94.9446 52.9947 94.8147 53.1302 94.6232C55.6491 91.009 55.9784 84.9084 51.8931 82.3387ZM30.4785 91.9703C22.7405 91.6867 14.9932 91.8657 7.27494 92.5064C1.50743 89.1326 -0.984707 76.349 5.00532 72.0509C12.4817 66.6897 19.5131 75.9978 22.8063 81.8858C22.9009 82.0503 23.0494 82.1738 23.2247 82.2335C23.3999 82.2933 23.5901 82.2853 23.7601 82.2111C23.9302 82.1368 24.0687 82.0013 24.1502 81.8295C24.2317 81.6576 24.2507 81.461 24.2037 81.2757C23.2406 77.3381 23.4045 73.1942 24.6754 69.3518C26.2775 64.6192 30.4251 59.4614 35.7209 62.4563C43.2774 66.7359 43.0727 78.0406 41.9512 85.4722C41.9255 85.5681 41.9183 85.6683 41.9298 85.7672C41.9414 85.866 41.9716 85.9615 42.0187 86.0481C42.0658 86.1348 42.1289 86.211 42.2044 86.2724C42.2799 86.3338 42.3662 86.3791 42.4586 86.4058C42.5509 86.4325 42.6474 86.4401 42.7425 86.4281C42.8377 86.416 42.9296 86.3847 43.0131 86.3357C43.0966 86.2868 43.17 86.2213 43.229 86.1429C43.2881 86.0645 43.3318 85.9748 43.3575 85.8789C43.3575 85.805 43.3575 85.731 43.4198 85.6663C43.4862 85.658 43.5498 85.6336 43.6055 85.595C43.6611 85.5565 43.7073 85.505 43.7402 85.4445C44.1137 84.7587 44.6263 84.1654 45.2424 83.7058C45.8586 83.2462 46.5636 82.9311 47.3086 82.7825C48.0536 82.6339 48.8209 82.6553 49.5571 82.8453C50.2934 83.0352 50.9811 83.389 51.5727 83.8824C54.1894 86.2025 53.7266 90.3527 52.0622 93.1257C45.0486 91.8871 37.5455 92.0905 30.4785 91.9703Z" fill="#BDE5F2"/>
<path d="M527.893 87.3387C525.552 85.8598 521.93 86.0724 520.016 88.1337C521.387 79.8146 518.548 66.8 509.861 65.1639C500.898 63.4724 497.943 75.2484 498.29 83.17C494 76.8568 486.613 70.1646 479.555 76.1265C473.511 81.2289 475.576 95.5376 482.714 98.6988C482.836 98.7561 482.971 98.7726 483.102 98.7461C483.233 98.7195 483.352 98.6513 483.444 98.5509C490.885 98.7543 498.326 98.5509 505.766 98.7358C513.207 98.9207 520.586 99.9929 527.92 99.845C528.11 99.9768 528.342 100.027 528.568 99.9859C528.793 99.9446 528.995 99.8147 529.13 99.6232C531.649 96.009 531.978 89.9084 527.893 87.3387ZM506.478 96.9703C498.74 96.6867 490.993 96.8657 483.275 97.5064C477.507 94.1326 475.015 81.349 481.005 77.0509C488.482 71.6897 495.513 80.9978 498.806 86.8858C498.901 87.0503 499.049 87.1738 499.225 87.2335C499.4 87.2933 499.59 87.2853 499.76 87.2111C499.93 87.1368 500.069 87.0013 500.15 86.8295C500.232 86.6576 500.251 86.461 500.204 86.2757C499.241 82.3381 499.405 78.1942 500.675 74.3518C502.277 69.6192 506.425 64.4614 511.721 67.4563C519.277 71.7359 519.073 83.0406 517.951 90.4722C517.926 90.5681 517.918 90.6683 517.93 90.7672C517.941 90.866 517.972 90.9615 518.019 91.0481C518.066 91.1348 518.129 91.211 518.204 91.2724C518.28 91.3338 518.366 91.3791 518.459 91.4058C518.551 91.4325 518.647 91.4401 518.743 91.4281C518.838 91.416 518.93 91.3847 519.013 91.3357C519.097 91.2868 519.17 91.2213 519.229 91.1429C519.288 91.0645 519.332 90.9748 519.357 90.8789C519.357 90.805 519.358 90.731 519.42 90.6663C519.486 90.658 519.55 90.6336 519.605 90.595C519.661 90.5565 519.707 90.505 519.74 90.4445C520.114 89.7587 520.626 89.1654 521.242 88.7058C521.859 88.2462 522.564 87.9311 523.309 87.7825C524.054 87.6339 524.821 87.6553 525.557 87.8453C526.293 88.0352 526.981 88.389 527.573 88.8824C530.189 91.2025 529.727 95.3527 528.062 98.1257C521.049 96.8871 513.545 97.0905 506.478 96.9703Z" fill="#BDE5F2"/>
<path d="M255.097 35.1445C252.855 34.3207 250.412 34.2217 248.112 34.8613C245.811 35.5009 243.768 36.847 242.27 38.7104C241.707 30.2699 239.006 20.3164 229.321 19.0814C227.538 18.8516 225.726 19.1105 224.078 19.8306C222.43 20.5507 221.007 21.705 219.962 23.1708C218.025 25.9029 217.049 29.203 217.187 32.5518C215.986 29.7757 214.106 27.3481 211.72 25.4935C208.122 22.8763 203.438 22.2956 199.685 24.921C191.778 30.4499 192.578 43.266 199.253 49.351C199.32 49.4205 199.407 49.4674 199.502 49.485C199.597 49.5025 199.695 49.49 199.783 49.4491C199.8 49.5343 199.846 49.6109 199.913 49.6661C199.98 49.7213 200.063 49.7515 200.15 49.7517C210.121 50.267 220.19 49.8335 230.169 49.7517C240.148 49.6699 250.258 50.0298 260.18 49.2937C260.308 49.2792 260.431 49.2343 260.539 49.1628C260.642 49.2255 260.758 49.2627 260.878 49.2714C260.998 49.2801 261.119 49.2601 261.23 49.2129C261.34 49.1658 261.438 49.0929 261.516 49.0003C261.593 48.9077 261.647 48.798 261.673 48.6803C262.963 43.2741 260.368 37.2546 255.097 35.1445ZM230.169 48.1405C220.19 48.3041 210.105 48.1405 200.15 48.9584H200.077C200.069 48.8446 200.026 48.7362 199.954 48.6476C194.904 42.5626 192.97 32.4209 199.799 26.6958C203.585 23.5224 208.522 24.4957 211.941 27.7345C214.943 30.5807 216.412 34.6701 217.758 38.4814C217.818 38.6983 217.961 38.8826 218.156 38.9938C218.351 39.105 218.582 39.134 218.799 39.0743C219.015 39.0147 219.199 38.8713 219.31 38.6758C219.421 38.4802 219.45 38.2485 219.39 38.0316C218.672 33.6477 218.362 28.7896 220.867 24.8719C222.012 23.0115 223.816 21.6534 225.918 21.0695C228.02 20.4856 230.264 20.7191 232.201 21.7231C239.659 25.2809 240.516 34.2448 240.622 41.5484C240.622 42.3663 241.878 42.8243 242.254 41.9983C244.277 37.7617 249.108 35.0709 253.775 36.4694C258.442 37.868 261.118 43.1106 260.164 47.8134C250.266 47.3226 240.116 47.9769 230.169 48.1405Z" fill="#BDE5F2"/>
</svg>
