<svg width="845" height="511" viewBox="0 0 845 511" fill="none" xmlns="http://www.w3.org/2000/svg">
<path d="M486.412 511C462.731 511 438.959 509.001 415.337 504.983C319.055 488.568 217.151 453.321 142.726 410.685C76.166 372.543 -2.62403 309.056 0.0670889 223.232C5.00081 66.5325 356.73 10.2814 491.825 1.82657C583.024 -3.88613 707.473 1.06488 782.286 56.9923C853.511 110.254 864.126 198.896 813.832 320.5C783.751 393.242 716.593 453.397 629.58 485.559C583.951 502.45 535.391 511 486.412 511ZM548.547 5.71121C529.082 5.71121 510.274 6.41578 492.692 7.52024C359.81 15.8227 13.8516 70.798 9.03749 223.346C4.31308 374.028 250.82 471.03 417.669 499.46C487.728 511.4 559.461 504.887 625.125 480.627C710.074 449.227 775.708 390.329 805.191 319.053C854.707 199.372 844.69 112.444 775.499 60.7055C717.43 17.308 627.756 5.71121 548.547 5.71121Z" fill="#FFB188"/>
</svg>
