<svg width="1081" height="311" viewBox="0 0 1081 311" fill="none" xmlns="http://www.w3.org/2000/svg">
<path d="M98.6731 226.313C97.2331 224.113 93.7731 223.923 91.5431 224.813C90.2031 225.353 89.1131 226.283 88.5831 227.653C88.0131 229.103 88.1131 231.523 89.4131 232.573C89.9731 233.033 90.6631 232.883 90.9831 232.363C91.3131 232.593 91.6731 232.783 92.0631 232.943C90.1831 243.703 83.2231 256.523 70.6131 254.733C70.5631 254.723 70.5131 254.733 70.4631 254.733C68.2931 251.883 66.1631 248.993 63.9131 246.153C75.7831 239.003 82.8431 225.093 77.0131 211.433C76.2131 209.553 75.1231 208.003 73.8031 206.733C79.9431 201.173 88.4031 192.703 90.2731 184.473C90.4931 183.513 89.6531 182.563 88.6431 182.843C86.5931 183.423 84.7331 184.503 82.8431 185.473C77.1431 188.403 79.3431 181.943 79.3031 178.813C79.2931 177.913 78.1931 177.113 77.3631 177.703C75.8131 178.803 74.9231 180.073 74.2531 181.873C73.6531 183.483 72.8731 188.273 69.7431 185.443C68.5231 184.333 67.6231 182.863 66.4331 181.703C65.6431 180.933 64.2131 181.473 64.2331 182.613C64.3331 189.183 64.6831 195.753 65.1931 202.313C65.1931 202.353 65.2131 202.383 65.2231 202.423C55.4331 200.263 42.6631 203.613 35.6531 206.783C35.1031 207.033 34.9231 207.463 34.9431 207.903C29.2131 210.193 24.5931 214.463 22.0431 219.603C16.9731 214.643 11.6731 209.543 4.90312 207.113C4.05312 206.803 3.28312 207.593 3.23312 208.383C3.00312 212.173 5.11312 214.823 7.31312 217.583C4.99312 218.403 2.91312 219.443 0.953122 221.073C0.443122 221.503 0.433122 222.503 0.953122 222.933C2.41312 224.143 3.97312 224.903 5.64312 225.523C2.15312 228.663 -2.05688 234.183 2.44312 237.213C7.39312 240.543 15.5831 231.443 19.8931 227.863C19.7731 231.393 20.6031 235.053 22.6731 238.583C27.4631 246.763 37.9431 250.593 47.8831 250.493C46.3531 252.653 45.4331 255.213 44.4431 257.843C44.2831 258.273 44.0931 258.683 43.9331 259.113C37.7731 260.463 33.1531 263.873 26.3031 262.473C19.8031 261.153 16.8231 255.983 14.3131 250.533C15.4331 249.903 16.3331 248.793 16.6431 247.463C17.1731 245.163 15.2231 243.253 13.0931 242.893C12.0531 242.723 10.9331 242.993 10.0331 243.563C10.0131 243.143 9.43312 242.843 9.06312 243.193C6.79312 245.323 7.80312 248.683 10.0731 250.363C10.8231 250.923 11.6431 251.113 12.4431 251.083C13.1731 256.623 17.4331 261.803 22.6331 263.843C30.0331 266.753 36.5231 264.723 43.0631 261.293C40.2931 268.033 37.0831 274.613 34.5131 281.453C34.2131 282.253 34.8431 283.093 35.5731 283.323C41.7031 285.233 47.9731 284.883 54.2531 284.173C53.5231 285.153 52.9631 286.363 52.4431 287.153C51.4931 288.633 50.5831 290.133 49.6531 291.633C49.3331 291.103 48.9931 290.583 48.6331 290.103C48.6231 289.583 48.2131 289.193 47.7231 289.023C46.6731 287.923 45.4431 287.053 43.8931 286.613C40.4431 285.633 35.2631 292.273 38.1731 294.983C41.0131 297.623 44.7531 295.703 46.9931 293.033C47.3031 293.503 47.5931 293.983 47.8731 294.473C46.6731 296.423 45.4731 298.363 44.2131 300.273C41.3031 304.683 36.3531 310.143 32.9231 302.023C32.2731 300.483 31.7131 298.913 31.0531 297.383C29.9931 294.923 28.7931 291.733 26.9331 289.423C26.8431 289.083 26.6031 288.843 26.2931 288.713C25.8531 288.253 25.3931 287.833 24.8831 287.483C20.2231 284.363 14.9131 290.023 17.0331 294.803C19.0231 299.293 23.4231 296.143 25.6531 292.853C26.3031 293.913 26.8631 295.053 27.4031 296.163C28.5531 298.523 29.3931 301.023 30.4031 303.443C31.6931 306.533 35.6331 311.743 39.6531 309.493C44.0631 307.023 46.8731 301.893 49.3831 297.423C49.6031 297.883 49.8131 298.343 50.0331 298.793C51.4431 301.793 54.7331 308.523 58.9431 308.423C67.9031 308.213 70.4431 291.813 69.5131 283.023C75.8631 282.933 82.2231 283.163 88.6231 282.963C89.5231 282.933 90.4231 282.013 90.0731 281.063C87.4931 274.223 82.7731 269.003 77.8631 263.713C75.7831 261.473 73.8831 259.123 72.0331 256.743C82.6731 260.413 95.0931 243.163 94.2931 233.293C97.1531 232.943 100.473 229.063 98.6731 226.313ZM20.3031 224.433C20.1331 224.453 19.9531 224.523 19.7631 224.643C16.3331 226.903 13.4031 229.863 10.1431 232.353C9.55312 232.803 1.18312 237.743 3.70312 232.163C4.74312 229.843 6.91312 227.633 8.97312 226.173C9.88312 225.533 9.81312 224.113 8.66312 223.773C7.04312 223.293 5.52312 222.823 4.11312 221.993C5.86312 220.843 7.73312 220.133 9.79312 219.493C10.5231 219.263 11.1131 218.263 10.5831 217.563C8.84312 215.283 6.69312 213.163 6.04312 210.403C11.7831 212.933 16.2031 217.473 21.3931 220.953C20.9331 222.073 20.5631 223.243 20.3031 224.433ZM13.3731 248.823C12.6931 249.313 11.8931 249.203 11.1931 248.813C10.6531 248.513 10.2431 248.093 9.94312 247.613C10.1631 247.483 10.3531 247.303 10.4531 247.043C10.7131 246.373 10.6631 245.773 11.2331 245.263C11.5931 244.943 12.2031 244.953 12.6531 244.983C13.6531 245.053 14.6731 245.823 14.6331 246.873C14.6131 247.613 13.9331 248.423 13.3731 248.823ZM66.6031 202.303C66.9531 196.933 66.8531 191.553 66.8131 186.163C68.2631 187.903 70.0131 189.603 71.9631 189.063C74.5731 188.333 75.2531 186.243 76.0131 184.133C75.8731 185.983 76.1231 187.713 77.7331 188.653C80.5231 190.283 83.9031 188.053 86.8231 186.503C83.7531 193.883 76.0831 198.543 71.8731 205.153C70.2631 204.053 68.4231 203.263 66.4431 202.713C66.5231 202.613 66.5931 202.483 66.6031 202.303ZM30.5031 242.533C14.6431 232.683 24.8031 216.233 36.8031 209.263C36.8931 209.243 36.9731 209.243 37.0631 209.203C47.2731 204.613 65.7331 200.693 73.6731 211.353C82.1031 222.683 71.9231 238.203 61.9831 244.033C58.6731 245.973 55.0531 247.073 51.3431 247.473C51.1731 247.403 50.9731 247.403 50.7831 247.533C43.7631 248.153 36.4831 246.243 30.5031 242.533ZM65.9931 293.703C65.4031 296.323 64.5131 298.903 63.3131 301.313C59.9131 308.113 55.9931 303.203 53.9531 299.913C52.9631 298.313 52.1031 296.353 51.1631 294.423C53.1531 291.243 55.8631 287.413 56.6131 283.883C56.8731 283.853 57.1231 283.823 57.3831 283.793C60.7031 283.373 64.0231 283.183 67.3331 283.093C67.1931 286.653 66.7831 290.173 65.9931 293.703ZM72.1631 261.973C77.2531 267.723 83.0931 272.963 86.3431 280.003C80.5331 280.093 74.7331 279.903 68.9231 279.883C68.9131 279.843 68.9031 279.793 68.8931 279.753C68.6531 278.973 67.5031 279.083 67.4231 279.873C67.3231 279.873 67.2231 279.873 67.1231 279.873C60.5531 279.893 54.0431 281.333 47.4831 281.713C45.5931 281.823 37.2631 282.733 38.4531 279.543C40.1131 275.053 41.9431 270.633 43.8731 266.253C46.1831 260.993 48.1131 255.473 50.7231 250.363C54.5431 250.023 58.1931 249.103 61.2931 247.583C65.0031 252.343 68.1531 257.433 72.1631 261.973ZM94.8731 230.683C93.5331 231.583 91.6031 230.703 90.8731 229.433C90.8631 229.223 90.8631 229.003 90.9131 228.783C91.0731 228.113 91.5231 227.683 92.1131 227.353C93.3331 226.663 95.1331 226.703 96.2331 227.363C96.5731 227.563 96.7431 227.933 96.7031 228.153C96.5631 229.133 95.6431 230.163 94.8731 230.683Z" fill="#FF9C67"/>
<path d="M37.6421 310.543C37.1221 310.543 36.5921 310.453 36.0521 310.263C33.3721 309.333 31.0021 306.173 29.9421 303.633C29.5821 302.773 29.2521 301.903 28.9121 301.043C28.3121 299.493 27.6921 297.893 26.9521 296.383C26.5321 295.513 26.1021 294.623 25.6121 293.763C24.0221 295.853 21.6721 297.703 19.5821 297.523C18.6921 297.443 17.4421 296.943 16.5821 295.003C15.4521 292.453 16.2221 289.353 18.4621 287.473C20.4621 285.793 23.0321 285.633 25.1721 287.073C25.6321 287.383 26.0821 287.773 26.5921 288.303C26.9821 288.493 27.2621 288.803 27.3921 289.193C29.0021 291.233 30.1021 293.843 31.0721 296.143L31.5221 297.193C31.8721 298.013 32.1921 298.833 32.5221 299.663C32.8021 300.393 33.0921 301.113 33.3921 301.833C34.4221 304.273 35.6321 305.573 37.0021 305.693C38.8821 305.873 41.2321 303.893 43.8021 300.003C45.0221 298.153 46.1821 296.283 47.3021 294.463C47.1821 294.263 47.0621 294.053 46.9421 293.853C45.3321 295.553 43.3721 296.613 41.5921 296.723C40.2021 296.803 38.9321 296.343 37.8521 295.343C36.5521 294.133 36.4921 292.123 37.7021 289.983C39.0521 287.583 41.8021 285.493 44.0421 286.133C45.5121 286.553 46.8121 287.353 48.0121 288.593C48.6321 288.843 49.0421 289.343 49.1321 289.913C49.3021 290.143 49.4821 290.393 49.6621 290.683L49.7021 290.623C50.4721 289.373 51.2421 288.123 52.0321 286.883C52.2221 286.593 52.4121 286.243 52.6221 285.873C52.8121 285.523 53.0221 285.153 53.2521 284.783C46.6521 285.483 41.0421 285.543 35.4321 283.803C34.8821 283.633 34.3921 283.213 34.1321 282.683C33.9121 282.223 33.8821 281.723 34.0421 281.273C35.5821 277.153 37.3821 273.083 39.1321 269.133C40.1121 266.913 41.1221 264.633 42.0821 262.353C36.5221 265.113 29.9321 267.243 22.4521 264.313C17.1421 262.233 12.9121 257.043 12.0121 251.583C11.1921 251.533 10.4421 251.263 9.77215 250.773C8.34215 249.713 7.39215 248.043 7.29215 246.403C7.21215 245.023 7.70215 243.793 8.72215 242.843C9.02215 242.563 9.46215 242.483 9.85215 242.633C10.0021 242.693 10.1321 242.783 10.2421 242.893C11.1721 242.433 12.2121 242.263 13.1821 242.423C14.5621 242.653 15.8321 243.463 16.5721 244.563C17.1921 245.493 17.3821 246.543 17.1421 247.593C16.8421 248.863 16.0621 249.983 14.9721 250.733C17.3321 255.783 20.2121 260.733 26.4221 261.993C30.9521 262.913 34.4921 261.663 38.2521 260.343C39.9421 259.743 41.6921 259.123 43.5821 258.693C43.6221 258.583 43.6721 258.473 43.7121 258.363C43.8121 258.133 43.9021 257.903 43.9921 257.673L44.1821 257.183C45.0121 254.983 45.8121 252.883 46.9821 251.003C38.2321 250.873 27.4221 247.633 22.2721 238.853C20.4421 235.733 19.4921 232.413 19.4121 228.973C18.8721 229.443 18.2921 229.973 17.6921 230.523C12.9921 234.763 6.58215 240.603 2.17215 237.623C0.832147 236.723 0.102147 235.553 0.0121469 234.143C-0.217853 230.933 2.87215 227.473 4.72215 225.693C3.08215 225.023 1.80215 224.273 0.632147 223.313C0.272147 223.013 0.0621469 222.533 0.0621469 222.003C0.0621469 221.473 0.272147 220.983 0.632147 220.683C2.30215 219.293 4.12215 218.243 6.47215 217.333C4.43215 214.743 2.49215 212.043 2.71215 208.333C2.75215 207.723 3.09215 207.133 3.59215 206.803C4.03215 206.513 4.55215 206.443 5.04215 206.623C11.8321 209.063 17.1721 214.143 21.8821 218.753C24.5221 213.823 29.0521 209.773 34.4321 207.543C34.5121 207.003 34.8621 206.563 35.4221 206.313C43.1021 202.853 55.3922 200.013 64.6321 201.783C64.1021 194.803 63.8021 188.523 63.7121 182.613C63.7021 181.893 64.1122 181.273 64.7822 180.983C65.4622 180.693 66.2421 180.823 66.7621 181.333C67.3421 181.893 67.8521 182.523 68.3421 183.143C68.9021 183.843 69.4421 184.503 70.0621 185.063C70.7222 185.663 71.2721 185.903 71.6921 185.783C72.5821 185.533 73.1221 183.763 73.4821 182.583C73.5821 182.243 73.6822 181.933 73.7721 181.693C74.5121 179.713 75.4921 178.403 77.0621 177.293C77.5621 176.943 78.1922 176.903 78.7522 177.193C79.3821 177.513 79.7921 178.153 79.8021 178.813C79.8121 179.513 79.7122 180.343 79.6122 181.213C79.4122 182.923 79.1721 185.043 79.9322 185.563C80.3922 185.873 81.3121 185.683 82.6021 185.023L83.5821 184.513C85.1421 183.693 86.7522 182.853 88.5022 182.353C89.1122 182.183 89.7522 182.333 90.2122 182.773C90.6922 183.233 90.9022 183.923 90.7522 184.573C88.8821 192.813 80.7021 201.103 74.5221 206.733C75.7522 208.013 76.7421 209.523 77.4622 211.223C83.7421 225.943 75.2921 239.613 64.6321 246.273C66.0621 248.093 67.4622 249.943 68.8222 251.743C69.4422 252.573 70.0721 253.393 70.6921 254.223C83.7121 256.033 89.8321 242.063 91.4821 233.213C91.3321 233.143 91.1921 233.063 91.0621 232.983C90.8622 233.143 90.6221 233.253 90.3721 233.303C89.9221 233.383 89.4721 233.253 89.0921 232.933C87.5421 231.673 87.5322 228.933 88.1122 227.433C88.6622 226.023 89.7822 224.943 91.3622 224.313C93.8821 223.303 97.5621 223.663 99.0921 226.003C99.8321 227.133 99.8722 228.543 99.2222 229.963C98.3822 231.773 96.5822 233.263 94.8222 233.673C95.0921 240.143 90.2621 249.263 83.8521 254.243C80.2622 257.033 76.6521 258.163 73.3421 257.573C74.7921 259.403 76.4421 261.413 78.2321 263.343C82.7321 268.183 87.8421 273.683 90.5322 280.863C90.7321 281.403 90.6621 281.983 90.3222 282.483C89.9422 283.043 89.2822 283.423 88.6321 283.443C84.9521 283.563 81.2221 283.533 77.6221 283.503C75.1421 283.483 72.5821 283.463 70.0621 283.493C70.6122 289.923 69.3922 300.783 64.8421 305.953C63.1721 307.863 61.1821 308.853 58.9521 308.903C54.8121 308.973 51.6021 303.293 49.5821 298.983L49.3521 298.483C46.9321 302.773 44.1621 307.513 39.9021 309.893C39.1721 310.343 38.4121 310.543 37.6421 310.543ZM25.6721 291.923L26.0821 292.583C26.7621 293.673 27.3121 294.823 27.8521 295.943C28.6021 297.493 29.2321 299.113 29.8421 300.683C30.1721 301.543 30.5121 302.403 30.8621 303.253C31.6721 305.213 33.8121 308.443 36.3721 309.323C37.4321 309.693 38.4521 309.603 39.4121 309.063C43.5821 306.723 46.3321 301.853 48.7521 297.553L49.4321 296.343L50.4921 298.593C51.5821 300.923 54.9521 308.043 58.9321 307.933C60.8721 307.893 62.6121 307.013 64.0921 305.323C68.5722 300.233 69.6621 289.253 69.0121 283.083L68.9521 282.543L69.5022 282.533C72.2122 282.493 74.9622 282.513 77.6321 282.533C81.2221 282.553 84.9322 282.583 88.6021 282.473C88.9322 282.463 89.2922 282.253 89.4921 281.963C89.6021 281.803 89.7021 281.553 89.5921 281.253C86.9622 274.263 81.9322 268.843 77.4921 264.063C75.2822 261.683 73.2822 259.193 71.6321 257.063L70.5921 255.733L72.1822 256.283C76.4422 257.753 80.5422 255.573 83.2222 253.493C89.4422 248.663 94.2822 239.433 93.7822 233.343L93.7421 232.863L94.2222 232.803C95.7822 232.613 97.5421 231.223 98.3021 229.583C98.6621 228.813 98.9422 227.663 98.2522 226.593C97.0322 224.733 93.9022 224.413 91.7222 225.283C90.4122 225.803 89.4822 226.693 89.0422 227.833C88.5122 229.193 88.6822 231.343 89.7222 232.183C89.8722 232.313 90.0521 232.363 90.2021 232.333C90.3421 232.313 90.4622 232.223 90.5422 232.093L90.8222 231.643L91.2522 231.943C91.5522 232.153 91.8821 232.323 92.2321 232.463L92.6122 232.613L92.5422 233.013C90.5422 244.493 83.7522 255.383 72.9221 255.383C72.1422 255.383 71.3521 255.323 70.5322 255.213L70.2621 255.233L70.0521 255.023C69.3721 254.133 68.7021 253.243 68.0322 252.353C66.5722 250.413 65.0521 248.403 63.5121 246.453L63.1621 246.003L63.6521 245.713C74.1721 239.373 82.7021 226.003 76.5621 211.613C75.8222 209.873 74.7822 208.343 73.4722 207.073L73.0921 206.703L73.4921 206.343C77.0221 203.153 87.7421 193.423 89.8121 184.343C89.8821 184.033 89.7822 183.703 89.5521 183.493C89.4321 183.383 89.1821 183.203 88.8021 183.313C87.1521 183.783 85.5921 184.603 84.0821 185.393C83.7521 185.563 83.4221 185.733 83.1021 185.903C81.4022 186.773 80.1922 186.933 79.4022 186.373C78.1522 185.503 78.4022 183.253 78.6522 181.083C78.7522 180.243 78.8421 179.443 78.8321 178.803C78.8321 178.513 78.6221 178.213 78.3321 178.063C78.1421 178.003 77.8922 177.933 77.6422 178.113C76.2321 179.113 75.3821 180.253 74.7122 182.053C74.6321 182.273 74.5421 182.563 74.4421 182.883C73.9921 184.353 73.3922 186.363 71.9622 186.753C71.1822 186.973 70.3222 186.653 69.3922 185.813C68.7122 185.193 68.1321 184.473 67.5621 183.773C67.0821 183.183 66.5921 182.573 66.0621 182.053C65.7922 181.783 65.4322 181.803 65.1822 181.903C65.0722 181.953 64.7122 182.143 64.7222 182.593C64.8121 188.643 65.1222 195.073 65.6822 202.263C65.6922 202.223 65.6921 202.273 65.7021 202.303L65.7922 202.733L66.0521 202.403C66.0921 202.353 66.1021 202.323 66.1122 202.263C66.4221 197.603 66.3821 192.853 66.3421 188.263L66.3121 184.773L67.2021 185.843C68.5521 187.463 70.1621 189.053 71.8321 188.583C74.1221 187.943 74.7522 186.183 75.4722 184.153L76.8021 180.443L76.5121 184.173C76.3521 186.283 76.8021 187.533 77.9821 188.233C80.2321 189.553 82.9821 188.043 85.6422 186.583C85.9622 186.403 86.2822 186.233 86.5921 186.073L87.8321 185.413L87.2822 186.703C85.4821 191.033 82.1122 194.453 78.8622 197.763C76.5022 200.163 74.0621 202.653 72.2922 205.423L72.0121 205.863L71.5821 205.573C70.0821 204.553 68.3121 203.753 66.2922 203.203L65.0921 202.903C56.0121 200.903 43.5621 203.743 35.8321 207.223C35.5321 207.363 35.4021 207.563 35.4121 207.863L35.4321 208.223L35.1021 208.353C29.5921 210.553 24.9821 214.733 22.4621 219.813L22.1521 220.433L21.6621 219.953C16.9021 215.293 11.5121 210.023 4.70215 207.573C4.51215 207.503 4.32215 207.523 4.14215 207.643C3.90215 207.803 3.72215 208.103 3.71215 208.403C3.49215 211.993 5.51215 214.533 7.65215 217.233L8.08215 217.773L7.45215 218.043C4.90215 218.973 2.99215 220.023 1.26215 221.463C1.14215 221.563 1.06215 221.773 1.06215 222.003C1.06215 222.233 1.14215 222.443 1.27215 222.543C2.52215 223.573 3.92215 224.353 5.82215 225.053L6.60215 225.343L5.99215 225.893C4.76215 226.993 0.782147 230.853 1.01215 234.073C1.09215 235.173 1.65215 236.063 2.74215 236.793C6.50215 239.323 12.5821 233.793 17.0121 229.763C17.9521 228.913 18.8321 228.103 19.5921 227.473L20.4521 226.763L20.4121 227.873C20.2921 231.523 21.2021 235.043 23.1221 238.323C28.2421 247.053 39.2821 250.073 47.8921 249.983L48.8721 249.973L48.3121 250.773C46.9121 252.753 46.0421 255.063 45.1121 257.523L44.9221 258.023C44.8321 258.263 44.7321 258.503 44.6321 258.743C44.5521 258.923 44.4821 259.113 44.4021 259.293L44.3021 259.543L44.0421 259.603C42.1121 260.023 40.3121 260.663 38.5721 261.273C34.6921 262.643 31.0221 263.943 26.2121 262.963C19.3821 261.573 16.3621 256.163 13.8621 250.743L13.6721 250.323L14.0721 250.093C15.1121 249.503 15.8921 248.473 16.1621 247.353C16.3921 246.363 16.0621 245.583 15.7321 245.103C15.1521 244.233 14.1121 243.573 13.0121 243.393C12.1321 243.243 11.1221 243.473 10.3021 243.983L9.58215 244.443L9.54215 243.593L9.39215 243.553C8.60215 244.293 8.21215 245.253 8.28215 246.323C8.36215 247.673 9.16215 249.063 10.3621 249.953C10.9621 250.393 11.6421 250.603 12.4221 250.573L12.8721 250.553L12.9321 251.003C13.6221 256.273 17.6821 261.353 22.8021 263.363C30.4321 266.353 36.9321 263.913 42.8121 260.833L44.0321 260.193L43.5121 261.463C42.4021 264.173 41.2021 266.893 40.0321 269.523C38.2921 273.453 36.5021 277.523 34.9721 281.613C34.8821 281.853 34.9521 282.083 35.0221 282.233C35.1621 282.513 35.4321 282.753 35.7221 282.833C41.4621 284.613 47.2621 284.453 54.1921 283.663L55.3421 283.533L54.6521 284.463C54.2121 285.043 53.8321 285.743 53.4821 286.353C53.2621 286.743 53.0621 287.113 52.8621 287.413C52.0721 288.643 51.3021 289.893 50.5421 291.143L49.6621 292.583L49.2421 291.883C48.8621 291.253 48.5521 290.793 48.2521 290.393L48.1521 290.263V290.103C48.1421 289.793 47.8421 289.573 47.5821 289.493L47.4621 289.453L47.3721 289.363C46.2821 288.213 45.1021 287.463 43.7721 287.093C42.0221 286.593 39.7121 288.463 38.5721 290.473C38.2121 291.113 37.1321 293.323 38.5321 294.613C39.4021 295.423 40.4121 295.793 41.5321 295.733C43.2221 295.633 45.1221 294.503 46.6321 292.713L47.0621 292.203L47.4321 292.763C47.7421 293.243 48.0421 293.733 48.3221 294.233L48.4721 294.493L48.3121 294.743C47.1421 296.643 45.9221 298.613 44.6421 300.563C41.8121 304.843 39.2121 306.913 36.9221 306.703C35.1521 306.543 33.6621 305.033 32.4821 302.233C32.1721 301.503 31.8921 300.773 31.6021 300.033C31.2821 299.213 30.9621 298.403 30.6221 297.593L30.1721 296.533C29.2121 294.263 28.1321 291.683 26.5721 289.743L26.4821 289.553C26.4321 289.343 26.2621 289.233 26.1321 289.183L25.9621 289.063C25.4721 288.553 25.0521 288.183 24.6321 287.903C22.8521 286.713 20.7921 286.833 19.1221 288.243C17.5721 289.553 16.4021 292.093 17.5121 294.603C18.0421 295.803 18.7721 296.443 19.6821 296.523C21.5821 296.703 23.8921 294.593 25.2521 292.573L25.6721 291.923ZM67.0921 202.393C68.8121 202.913 70.3622 203.613 71.7222 204.473C73.5122 201.783 75.8622 199.393 78.1422 197.073C80.9722 194.193 83.8922 191.223 85.7222 187.683C83.0522 189.143 80.0922 190.633 77.4722 189.103C76.3622 188.453 75.8421 187.483 75.6221 186.483C74.9621 187.843 73.9921 189.023 72.0921 189.553C70.2822 190.053 68.6922 188.943 67.3222 187.493L67.3321 188.253C67.3721 192.863 67.4121 197.633 67.1021 202.333C67.1021 202.353 67.1021 202.373 67.0921 202.393ZM59.4721 305.233C57.5821 305.233 55.6321 303.573 53.5221 300.183C52.7721 298.963 52.1121 297.583 51.4121 296.113C51.1821 295.623 50.9521 295.133 50.7121 294.643L50.5921 294.393L50.7421 294.153C51.0321 293.693 51.3321 293.213 51.6521 292.723C53.4621 289.903 55.5021 286.703 56.1321 283.773L56.2121 283.423L57.3321 283.283C60.2921 282.913 63.4721 282.683 67.3321 282.583L67.8721 282.573L67.8521 283.113C67.6921 286.973 67.2522 290.473 66.4921 293.823C65.8721 296.573 64.9621 299.173 63.7721 301.543C62.5821 303.923 61.1921 305.163 59.6421 305.233C59.5721 305.223 59.5221 305.233 59.4721 305.233ZM51.7321 294.443C51.9321 294.853 52.1221 295.263 52.3221 295.673C53.0121 297.113 53.6521 298.483 54.3821 299.643C56.7921 303.513 58.5521 304.283 59.5921 304.223C60.7621 304.173 61.8721 303.113 62.8821 301.083C64.0321 298.783 64.9121 296.263 65.5221 293.593C66.2321 290.453 66.6521 287.183 66.8321 283.593C63.2521 283.703 60.2621 283.923 57.4621 284.273L57.0421 284.323C56.3021 287.323 54.2921 290.463 52.5021 293.253C52.2221 293.663 51.9721 294.063 51.7321 294.443ZM43.2721 282.403C40.8821 282.403 38.9221 282.103 38.1521 281.083C37.9021 280.753 37.6721 280.183 37.9721 279.353C39.5221 275.183 41.2921 270.833 43.4021 266.043C44.2421 264.123 45.0521 262.133 45.8321 260.213C47.1921 256.863 48.6021 253.393 50.2621 250.133L50.3921 249.883L50.6721 249.863C54.5221 249.523 58.1121 248.583 61.0721 247.133L61.4321 246.953L61.6821 247.273C63.1221 249.123 64.4921 251.043 65.8222 252.903C67.9221 255.833 70.0822 258.873 72.5322 261.633C73.6621 262.903 74.8222 264.153 75.9921 265.403C80.0422 269.743 84.2322 274.233 86.7922 279.783L87.1122 280.483L86.3421 280.493C82.7221 280.553 79.0521 280.493 75.5121 280.443C73.3121 280.413 71.1221 280.383 68.9221 280.373H68.5521L68.4121 279.893C68.3521 279.713 68.2021 279.703 68.1321 279.713C68.0521 279.723 67.9221 279.753 67.9121 279.913L67.8622 280.363H67.1122C63.3922 280.373 59.6121 280.853 55.9521 281.323C53.1921 281.673 50.3321 282.033 47.5021 282.203C47.3321 282.213 47.1221 282.233 46.8621 282.243C45.6321 282.343 44.4021 282.403 43.2721 282.403ZM51.0421 250.833C49.4521 253.983 48.0821 257.343 46.7721 260.593C45.9921 262.523 45.1821 264.523 44.3321 266.453C42.2321 271.223 40.4621 275.563 38.9221 279.713C38.7621 280.153 38.8721 280.363 38.9621 280.493C39.9121 281.763 45.1021 281.383 46.8021 281.253C47.0621 281.233 47.2821 281.213 47.4521 281.213C50.2421 281.053 53.0921 280.693 55.8321 280.343C59.5021 279.873 63.2921 279.393 67.0521 279.373C67.2421 279.013 67.5922 278.773 68.0422 278.723C68.5621 278.673 69.0422 278.923 69.2822 279.383C71.3721 279.393 73.4521 279.423 75.5322 279.453C78.8222 279.503 82.2122 279.553 85.5521 279.513C83.0322 274.423 79.0821 270.193 75.2621 266.093C74.0921 264.833 72.9221 263.583 71.7822 262.303C69.3021 259.503 67.1122 256.443 65.0022 253.493C63.7522 251.743 62.4721 249.943 61.1321 248.213C58.2221 249.573 54.7421 250.473 51.0421 250.833ZM12.3621 249.653C11.9121 249.653 11.4321 249.523 10.9521 249.253C10.3721 248.933 9.89215 248.473 9.52215 247.883L9.24215 247.443L9.69215 247.183C9.84215 247.103 9.93215 247.003 9.98215 246.873C10.0521 246.683 10.1021 246.503 10.1421 246.333C10.2621 245.873 10.3921 245.353 10.9021 244.903C11.4021 244.463 12.1221 244.453 12.6821 244.493C13.8921 244.583 15.1721 245.523 15.1321 246.893C15.1021 247.783 14.3521 248.733 13.6621 249.233C13.2721 249.513 12.8321 249.653 12.3621 249.653ZM10.6221 247.713C10.8521 247.993 11.1221 248.213 11.4321 248.383C11.8721 248.623 12.5121 248.833 13.0821 248.423C13.5921 248.053 14.1221 247.373 14.1421 246.863C14.1621 246.113 13.3721 245.543 12.6221 245.493C12.4221 245.483 11.8121 245.433 11.5721 245.653C11.2921 245.903 11.2221 246.183 11.1221 246.583C11.0721 246.793 11.0121 247.013 10.9221 247.233C10.8521 247.403 10.7521 247.573 10.6221 247.713ZM48.1121 248.153C41.9621 248.153 35.7021 246.353 30.2421 242.953C24.6821 239.503 21.7821 234.883 21.8621 229.583C21.9821 221.113 29.5621 212.883 36.5521 208.823L36.8221 208.743C46.0521 204.603 65.6721 199.763 74.0722 211.053C76.9521 214.923 77.9322 219.643 76.9022 224.703C75.1422 233.403 68.0621 241.043 62.2321 244.473C58.9921 246.373 55.3521 247.553 51.3921 247.983L51.2621 247.993L51.1421 247.943L51.0321 248.013L50.8221 248.033C49.9221 248.113 49.0221 248.153 48.1121 248.153ZM30.7721 242.113C36.8221 245.873 43.8721 247.623 50.6321 247.053C50.8721 246.923 51.1421 246.903 51.4021 246.973C55.1721 246.553 58.6521 245.423 61.7321 243.613C67.3721 240.303 74.2222 232.913 75.9221 224.513C76.9022 219.673 76.0121 215.353 73.2721 211.663C65.2522 200.883 46.2221 205.643 37.2721 209.663C37.1521 209.713 37.0521 209.733 36.9821 209.743C30.3121 213.623 22.9821 221.533 22.8721 229.613C22.7921 234.603 25.4521 238.803 30.7721 242.113ZM4.32215 235.293C3.89215 235.293 3.51215 235.203 3.23215 234.983C2.24215 234.203 3.00215 232.513 3.25215 231.963C4.23215 229.803 6.26215 227.483 8.69215 225.763C8.99215 225.553 9.15215 225.193 9.09215 224.863C9.06215 224.693 8.95215 224.383 8.52215 224.253C7.05215 223.813 5.37215 223.313 3.86215 222.423L3.17215 222.003L3.84215 221.563C5.79215 220.293 7.87215 219.553 9.66215 219.003C9.92215 218.923 10.1821 218.653 10.2721 218.373C10.3321 218.173 10.3121 217.993 10.2021 217.853C9.84215 217.373 9.45215 216.903 9.07215 216.433C7.61215 214.643 6.11215 212.793 5.57215 210.503L5.34215 209.523L6.26215 209.923C10.0321 211.583 13.2721 214.123 16.4021 216.573C18.1021 217.913 19.8621 219.293 21.6921 220.513L22.0321 220.743L21.8721 221.123C21.4121 222.243 21.0521 223.393 20.8021 224.533L20.7321 224.873L20.3821 224.923C20.2721 224.943 20.1621 224.983 20.0521 225.053C18.0221 226.393 16.1221 228.013 14.2821 229.593C13.0421 230.653 11.7721 231.743 10.4521 232.743C10.4121 232.783 6.57215 235.293 4.32215 235.293ZM5.12215 221.953C6.33215 222.543 7.63215 222.933 8.81215 223.283C9.50215 223.483 9.97215 224.013 10.0821 224.693C10.2021 225.403 9.88215 226.143 9.27215 226.573C6.98215 228.193 5.07215 230.353 4.17215 232.363C3.66215 233.493 3.67215 234.043 3.86215 234.193C4.68215 234.853 8.97215 232.633 9.85215 231.953C11.1421 230.963 12.4121 229.883 13.6321 228.833C15.4921 227.243 17.4121 225.593 19.5021 224.223C19.6321 224.143 19.7621 224.073 19.8921 224.023C20.1121 223.053 20.4221 222.083 20.7921 221.123C19.0621 219.943 17.3921 218.633 15.7821 217.373C12.9921 215.183 10.1121 212.923 6.87215 211.323C7.50215 212.923 8.64215 214.323 9.84215 215.803C10.2321 216.283 10.6221 216.763 10.9921 217.243C11.3021 217.653 11.3821 218.163 11.2221 218.673C11.0321 219.273 10.5321 219.773 9.96215 219.953C8.46215 220.423 6.75215 221.013 5.12215 221.953ZM93.6221 231.553C93.3821 231.553 93.1321 231.523 92.8922 231.463C91.8821 231.233 90.9421 230.543 90.4421 229.683L90.3821 229.573V229.453C90.3721 229.223 90.3721 228.963 90.4421 228.673C90.6621 227.713 91.3721 227.213 91.8821 226.923C93.2321 226.153 95.2222 226.163 96.5022 226.933C96.9822 227.223 97.2822 227.763 97.2122 228.233C97.0422 229.373 96.0322 230.513 95.1621 231.103C94.7021 231.403 94.1721 231.553 93.6221 231.553ZM91.3721 229.293C91.7421 229.863 92.4122 230.333 93.1122 230.493C93.5022 230.583 94.0722 230.623 94.5921 230.273C95.2921 229.803 96.0921 228.873 96.2122 228.083C96.2122 228.053 96.1322 227.893 95.9722 227.793C95.0022 227.213 93.3821 227.213 92.3622 227.793C91.8022 228.113 91.5122 228.453 91.4022 228.903C91.3722 229.033 91.3621 229.163 91.3721 229.293Z" fill="#FF9C67"/>
<path d="M66.9514 219.393C65.9414 219.053 65.2514 220.233 65.6714 221.063C68.4314 226.463 62.7114 231.763 58.8614 235.153C52.4614 240.803 43.0314 239.033 35.8514 236.193C34.7914 235.773 34.1114 237.483 35.0914 238.003C44.4414 243.003 54.9214 243.063 62.8414 235.593C65.7814 232.833 74.4714 221.913 66.9514 219.393Z" fill="#FF9C67"/>
<path d="M48.0607 241.993C43.7807 241.993 39.2807 240.823 34.8507 238.443C34.0807 238.033 33.9807 237.123 34.2707 236.483C34.6107 235.763 35.3307 235.443 36.0307 235.723C42.7807 238.393 52.1607 240.393 58.5207 234.773C61.7907 231.883 67.8807 226.503 65.2207 221.283C64.9107 220.673 65.0107 219.903 65.4707 219.363C65.8907 218.883 66.5007 218.713 67.1107 218.913C68.9007 219.513 69.9907 220.603 70.3307 222.163C71.3907 226.973 64.8607 234.383 63.1907 235.963C58.9407 239.963 53.6907 241.993 48.0607 241.993ZM35.5307 236.633C35.3507 236.633 35.2407 236.803 35.1807 236.913C35.1107 237.073 35.0407 237.413 35.3207 237.573C45.3407 242.933 55.2407 242.083 62.4907 235.243C65.2007 232.693 70.1507 226.083 69.3407 222.383C69.0807 221.183 68.2407 220.353 66.7807 219.873C66.5607 219.803 66.3707 219.853 66.2107 220.023C66.0507 220.213 65.9507 220.553 66.1007 220.833C69.1207 226.743 62.6507 232.463 59.1807 235.533C52.4407 241.493 42.6707 239.433 35.6607 236.663C35.6207 236.643 35.5707 236.633 35.5307 236.633Z" fill="#FF9C67"/>
<path d="M49.152 228.303C48.432 226.863 47.292 225.623 45.932 224.773C45.342 224.403 44.692 224.203 44.002 224.133C43.712 224.103 43.292 224.193 43.042 224.353C42.682 224.583 42.712 224.813 42.482 225.103C42.182 225.463 42.562 226.063 43.012 225.783C43.142 225.703 43.802 225.873 43.962 225.923C44.392 226.043 44.762 226.413 45.072 226.723C45.812 227.443 46.402 228.363 46.732 229.333C47.332 231.153 50.022 230.033 49.152 228.303Z" fill="#FF9C67"/>
<path d="M47.9322 230.763C47.8422 230.763 47.7522 230.753 47.6522 230.743C46.9922 230.643 46.4822 230.183 46.2422 229.483C45.9522 228.603 45.4022 227.743 44.7122 227.073C44.4122 226.773 44.1022 226.483 43.8122 226.403C43.4822 226.313 43.2622 226.273 43.1522 226.263C42.7822 226.443 42.3722 226.363 42.1022 226.053C41.7922 225.693 41.7822 225.153 42.0822 224.783C42.1322 224.723 42.1722 224.653 42.2122 224.573C42.3022 224.393 42.4222 224.153 42.7622 223.933C43.0922 223.723 43.6322 223.603 44.0422 223.633C44.8322 223.713 45.5522 223.953 46.1922 224.343C47.6322 225.243 48.8422 226.563 49.6022 228.073C49.9322 228.733 49.8922 229.423 49.5022 229.973C49.1422 230.463 48.5422 230.763 47.9322 230.763ZM43.1222 225.263C43.3222 225.263 43.6122 225.313 44.0922 225.443C44.6322 225.593 45.0522 226.003 45.3922 226.333C46.2322 227.153 46.8622 228.153 47.2122 229.173C47.3222 229.513 47.5322 229.713 47.8222 229.753C48.1422 229.803 48.5022 229.653 48.7022 229.393C48.8722 229.153 48.8822 228.853 48.7222 228.533C48.0422 227.183 46.9622 226.003 45.6822 225.203C45.1822 224.893 44.6022 224.703 43.9722 224.643C43.7822 224.623 43.4722 224.693 43.3322 224.793C43.2222 224.863 43.2022 224.903 43.1422 225.033C43.1022 225.103 43.0622 225.193 43.0022 225.293C43.0122 225.273 43.0622 225.263 43.1222 225.263Z" fill="#FF9C67"/>
<path d="M54.8045 221.123C53.2445 219.793 51.0545 219.033 49.0145 219.313C48.2045 219.423 48.2445 220.753 49.0145 220.903C50.4645 221.183 51.7945 221.513 52.9445 222.483C53.4845 222.933 53.9345 223.523 54.1945 224.183C54.4445 224.823 54.2745 225.473 54.5245 226.103C54.8945 227.023 56.1145 227.333 56.6945 226.383C57.7745 224.623 56.1345 222.263 54.8045 221.123Z" fill="#FF9C67"/>
<path d="M55.723 227.463C55.683 227.463 55.633 227.463 55.593 227.453C54.923 227.403 54.323 226.943 54.053 226.283C53.893 225.893 53.873 225.503 53.843 225.163C53.823 224.873 53.803 224.603 53.713 224.363C53.493 223.813 53.113 223.293 52.613 222.863C51.543 221.963 50.303 221.663 48.903 221.383C48.303 221.263 47.883 220.693 47.903 220.023C47.923 219.373 48.333 218.883 48.923 218.803C51.013 218.523 53.383 219.253 55.113 220.733C56.593 221.993 58.343 224.603 57.103 226.633C56.803 227.163 56.293 227.463 55.723 227.463ZM49.853 219.753C49.593 219.753 49.333 219.773 49.073 219.803C48.943 219.823 48.913 219.973 48.913 220.053C48.913 220.173 48.953 220.373 49.103 220.403C50.583 220.693 52.013 221.043 53.263 222.093C53.893 222.623 54.373 223.283 54.653 223.993C54.803 224.383 54.823 224.763 54.853 225.093C54.873 225.403 54.893 225.663 54.983 225.903C55.103 226.203 55.383 226.423 55.673 226.453C55.903 226.473 56.113 226.353 56.263 226.113C57.173 224.633 55.643 222.493 54.473 221.493C53.173 220.393 51.463 219.753 49.853 219.753Z" fill="#FF9C67"/>
<path d="M1079.42 105.217C1078.9 91.5867 1079.24 77.9767 1078.52 64.3367C1077.37 42.6867 1080.7 17.9267 1064.42 0.906731C1063.77 0.236731 1062.54 0.376731 1062.1 1.20673C1056.96 10.7267 1050.81 19.7067 1047.2 29.9767C1044.28 38.2867 1046.6 50.5767 1048.6 59.1067C1046.94 59.8967 1045.69 61.4567 1045.95 63.3467C1045.7 64.0967 1045.73 64.9567 1046 65.8067C1043.73 72.1667 1041.4 76.5967 1035.37 80.1967C1029.99 83.4167 1023.7 84.3367 1017.55 84.5167C1017.42 84.5167 1017.31 84.5467 1017.22 84.5867C1017.17 84.0767 1017.17 83.6467 1017.23 83.3267C1017.27 83.0867 1017.24 82.8767 1017.17 82.6867C1024.31 81.0767 1030.97 77.3967 1034.35 71.1067C1039.93 60.7267 1027.84 46.2667 1018.32 43.3367C1018.22 43.3067 1018.14 43.3167 1018.04 43.3067C1005.59 38.5067 989.599 44.2667 983.629 56.2067C977.739 67.9767 988.619 78.9967 999.489 82.4167C999.639 84.6067 999.639 86.7267 999.529 88.8067C995.259 91.0167 991.099 90.7567 986.729 88.4167C982.829 86.3367 981.049 82.9867 978.679 79.6067C978.919 79.3467 979.139 79.0567 979.339 78.7467C980.689 76.5667 979.259 73.8567 977.029 73.0367C975.869 72.6067 974.589 72.6967 973.479 73.2167C973.119 73.3867 972.719 73.6467 972.339 73.9567C969.559 74.9967 970.299 78.5867 972.129 80.1867C973.479 81.3667 975.159 81.5167 976.629 80.9667C978.849 89.9867 991.309 95.4967 999.349 91.1267C998.429 100.197 995.159 108.477 990.899 117.107C990.379 118.167 991.029 119.207 992.169 119.327C993.399 119.447 995.889 119.577 998.949 119.567C998.299 123.807 998.839 128.157 999.329 132.487C996.879 132.497 994.419 133.747 993.209 136.007C990.369 141.287 998.959 141.207 1001.64 140.797C1002.23 140.707 1002.7 140.007 1002.68 139.437C1002.64 138.307 1002.55 137.197 1002.44 136.077C1002.45 136.077 1002.45 136.087 1002.46 136.087C1003.61 136.567 1004.56 134.797 1003.66 134.017C1003.18 133.607 1002.65 133.307 1002.1 133.057C1001.52 128.557 1000.74 124.097 1000.71 119.537C1004.26 119.477 1008.31 119.247 1011.96 118.667C1011.12 126.267 1010.15 143.127 1020.47 140.777C1026.77 139.347 1020.54 125.887 1015.03 133.477C1013.76 128.547 1014.3 123.347 1013.96 118.307C1018.63 117.357 1022.23 115.727 1022.51 113.027C1023.01 108.127 1021.24 102.507 1020.33 97.7567C1019.82 95.0867 1018.06 89.5467 1017.42 85.9867C1017.47 85.9967 1017.5 86.0167 1017.55 86.0267C1027.76 87.2267 1042.67 82.4367 1046.95 72.0867C1045.68 84.4167 1046.75 96.7667 1047.18 109.127C1047.24 110.947 1047.08 113.017 1046.85 115.207C1046.68 115.187 1046.51 115.187 1046.34 115.167C1045.89 115.117 1045.8 115.857 1046.23 115.957C1046.41 115.997 1046.58 116.017 1046.76 116.047C1045.93 123.497 1044.54 132.147 1048.46 137.487C1051.5 141.627 1060.59 141.367 1064.96 141.897C1070.46 142.567 1075.19 140.747 1077.81 135.807C1082.23 127.417 1079.76 114.217 1079.42 105.217ZM977.469 77.3967C977.049 79.0267 974.979 79.6867 973.619 78.9367C973.099 78.6467 972.699 78.1967 972.419 77.6867C973.579 76.8467 974.099 74.9767 975.869 75.3067C976.869 75.4867 977.739 76.3467 977.469 77.3967ZM1016.23 136.617C1017.67 134.777 1020.1 132.787 1020.37 136.517C1020.48 138.077 1019.22 138.187 1017.99 137.927C1017.13 137.747 1016.58 137.277 1016.18 136.667C1016.19 136.647 1016.21 136.637 1016.23 136.617ZM1017.29 97.4767C1011.82 99.2267 1006.79 101.547 1000.97 98.8567C1000.93 98.8367 1000.89 98.8367 1000.85 98.8267C1001.92 93.6667 1002.16 88.3667 1001.1 82.8767C1001.91 83.0767 1002.72 83.2367 1003.52 83.3367C1007.04 83.8067 1010.93 83.7567 1014.78 83.1467C1014.52 85.5267 1015.43 88.1367 1015.89 90.4167C1016.37 92.7767 1016.84 95.1267 1017.29 97.4767ZM987.349 55.4067C992.029 46.0567 1006.77 42.7467 1016.51 44.8867C1016.54 45.4367 1016.86 45.9667 1017.54 46.1767C1026.61 48.9567 1036.03 61.7967 1031.09 71.0067C1027.1 78.4467 1015.6 80.5467 1008.04 80.7467C994.589 81.0967 980.359 69.3667 987.349 55.4067ZM996.779 136.067C997.699 135.377 998.649 135.187 999.609 135.277C999.699 136.257 999.769 137.227 999.809 138.197C997.649 138.327 993.919 138.217 996.779 136.067ZM1000.26 116.517C1000.15 116.497 1000.04 116.507 999.929 116.537C998.079 116.617 996.239 116.657 994.429 116.557C996.929 111.367 999.109 106.107 1000.43 100.697C1002 101.497 1003.89 101.987 1005.87 102.237C1005.24 104.667 1005.72 107.717 1005.83 110.187C1005.92 112.087 1006.07 114.087 1006.66 115.917C1004.56 116.197 1002.41 116.407 1000.26 116.517ZM1017.79 100.077C1018.28 102.667 1018.75 105.267 1019.16 107.877C1019.3 108.737 1020.22 112.217 1019.31 112.907C1017.31 114.407 1013.93 114.707 1011.56 115.147C1010.55 115.337 1009.51 115.507 1008.47 115.667C1008.21 113.557 1008.05 111.467 1008.03 109.327C1008.01 107.117 1008.51 104.557 1008.03 102.377C1011.5 102.447 1015.07 101.717 1017.79 100.077ZM1077.06 119.447C1072.55 118.917 1067.87 119.077 1063.37 118.957C1058.9 118.837 1054.1 118.357 1049.59 118.867C1049.61 118.077 1049.63 117.297 1049.66 116.507C1055.45 117.137 1061.22 116.427 1067.07 115.957C1067.24 115.947 1067.42 115.947 1067.6 115.937C1068.02 116.687 1069.08 116.587 1069.63 115.957C1072.08 116.087 1074.74 116.427 1076.9 115.847C1076.94 116.957 1077 118.147 1077.06 119.447ZM1075.11 54.8267C1075.93 74.4967 1076.28 94.1167 1076.82 113.797C1074.78 113.297 1072.2 113.667 1070.03 113.787C1070.11 111.807 1070.05 109.507 1069.77 107.317C1070.5 100.797 1068.7 92.6867 1068.22 87.8567C1066.41 69.7567 1068.34 51.2467 1067.31 33.0267C1069.75 34.3067 1072.61 34.1767 1074.12 32.0167C1074.88 39.4967 1074.8 47.2367 1075.11 54.8267ZM1050.26 29.7667C1051.3 25.7967 1053.18 21.9167 1055.35 18.1367C1056.49 20.4167 1061.6 19.9667 1063.54 19.7167C1065.95 19.4067 1069.14 18.4867 1070.69 16.3767C1072.14 20.1567 1073.05 24.0967 1073.65 28.1467C1073.37 28.2067 1073.13 28.3667 1073 28.6567C1071.64 31.7167 1068.83 32.1367 1066.77 29.3367C1066.18 28.5367 1064.62 28.4167 1064.4 29.6467C1064 31.9467 1060.24 34.7967 1060.11 29.6167C1060.08 28.4367 1058.29 27.7567 1057.73 28.9767C1056.98 30.6267 1056.01 31.7567 1054.46 32.6867C1052.19 34.0467 1049.53 33.1467 1050.3 30.1467C1050.33 30.0067 1050.31 29.8767 1050.26 29.7667ZM1048.76 66.4167C1048.5 66.1967 1048.29 65.9467 1048.11 65.6867C1048.06 65.4867 1047.96 65.3167 1047.83 65.1967C1047.74 65.0067 1047.67 64.8067 1047.63 64.6067C1047.77 64.5267 1047.9 64.4067 1047.99 64.2267C1048.71 62.7267 1048.96 60.7867 1051.14 61.1067C1052.84 61.3567 1053.81 62.6967 1053.32 64.3567C1052.72 66.3767 1050.61 67.9567 1048.76 66.4167ZM1049.96 69.3267C1052.12 69.5167 1054.34 67.9667 1055.39 65.8067C1056.86 62.7767 1055.28 59.4367 1052.01 58.6667C1051.62 58.5767 1051.21 58.5467 1050.79 58.5667C1050.8 58.3867 1050.81 58.1967 1050.82 58.0167C1050.83 57.9067 1050.8 57.8167 1050.76 57.7267C1050.65 49.9467 1048.66 42.3367 1049.41 34.5767C1049.8 34.9267 1050.3 35.2267 1050.96 35.4367C1053.33 36.2067 1055.82 35.0567 1057.66 33.3267C1057.71 34.3867 1057.73 35.4667 1057.76 36.5267C1057.27 39.2267 1057.34 41.9867 1057.86 44.6867C1057.83 49.2967 1057.7 53.9267 1057.57 58.5367C1057.23 58.6967 1056.96 59.0167 1056.92 59.5267C1055.81 72.4967 1056.45 85.4767 1058.27 98.3267C1058.44 103.587 1058.47 108.837 1058.1 114.067C1058.07 114.497 1058.35 114.727 1058.68 114.767C1055.7 115.137 1052.73 115.457 1049.7 115.397C1049.84 110.297 1049.9 105.207 1049.65 100.027C1049.14 89.7767 1048.69 79.5767 1049.98 69.3767C1049.97 69.3567 1049.96 69.3467 1049.96 69.3267ZM1069.73 138.887C1066.2 139.857 1062.15 138.567 1058.62 138.087C1051.63 137.147 1049.21 134.467 1049.35 127.287C1049.38 125.937 1049.42 124.607 1049.46 123.267C1053.14 124.117 1057.06 124.277 1060.8 124.647C1066.15 125.177 1071.73 125.977 1077.11 125.527C1076.85 131.527 1075.36 137.347 1069.73 138.887ZM1062.71 122.907C1058.39 122.607 1053.82 121.897 1049.49 122.377C1049.51 121.557 1049.54 120.737 1049.56 119.907C1053.47 120.427 1057.57 120.317 1061.48 120.537C1066.61 120.817 1071.96 121.567 1077.13 121.397C1077.15 122.187 1077.16 122.997 1077.16 123.807C1072.38 123.287 1067.51 123.237 1062.71 122.907Z" fill="#FF9C67"/>
<path d="M1067.08 142.547C1066.37 142.547 1065.64 142.497 1064.89 142.407C1064.07 142.307 1063.06 142.237 1061.99 142.157C1057.2 141.807 1050.65 141.337 1048.05 137.797C1044.33 132.727 1045.25 124.807 1046.05 117.817L1046.2 116.477C1046.17 116.477 1046.15 116.467 1046.12 116.457C1045.66 116.357 1045.37 115.917 1045.45 115.417C1045.53 114.937 1045.94 114.627 1046.39 114.687C1046.57 112.907 1046.73 110.907 1046.67 109.157C1046.58 106.477 1046.46 103.787 1046.33 101.107C1045.93 92.4267 1045.53 83.4667 1046.21 74.6167C1040.99 83.0967 1028.13 87.5767 1018.03 86.5967C1018.41 88.4367 1019.02 90.7167 1019.57 92.7467C1020.09 94.6567 1020.57 96.4567 1020.81 97.6767C1021.03 98.8167 1021.29 100.007 1021.57 101.217C1022.46 105.187 1023.38 109.297 1022.99 113.087C1022.73 115.657 1019.86 117.557 1014.47 118.717C1014.56 120.237 1014.57 121.787 1014.59 123.287C1014.62 126.297 1014.65 129.407 1015.27 132.377C1017.11 130.367 1018.84 130.557 1019.77 130.887C1022.24 131.767 1023.74 135.027 1023.59 137.517C1023.47 139.487 1022.37 140.857 1020.57 141.267C1018.15 141.817 1016.14 141.397 1014.6 140.027C1010.56 136.427 1010.59 126.887 1011.38 119.267C1007.76 119.787 1003.96 119.977 1001.2 120.027C1001.26 123.447 1001.74 126.867 1002.2 130.187C1002.32 131.027 1002.43 131.867 1002.54 132.707C1003.11 132.977 1003.57 133.277 1003.97 133.627C1004.65 134.217 1004.6 135.187 1004.2 135.827C1003.9 136.307 1003.46 136.587 1002.98 136.637C1003.08 137.697 1003.13 138.567 1003.16 139.397C1003.19 140.177 1002.6 141.137 1001.7 141.267C999.869 141.547 994.289 141.797 992.609 139.417C991.919 138.447 991.969 137.207 992.759 135.747C993.929 133.587 996.189 132.177 998.769 131.987L998.759 131.877C998.319 127.977 997.869 123.957 998.379 120.047C995.449 120.037 993.199 119.907 992.129 119.807C991.399 119.737 990.789 119.357 990.459 118.767C990.139 118.197 990.139 117.507 990.459 116.877C993.949 109.807 997.639 101.347 998.759 91.9667C994.969 93.6667 990.159 93.5167 985.669 91.5367C980.979 89.4667 977.509 85.7767 976.289 81.5867C974.669 82.0167 973.059 81.6467 971.799 80.5467C970.509 79.4167 969.779 77.4767 970.059 75.9367C970.269 74.8067 970.979 73.9467 972.089 73.5067C972.479 73.1967 972.889 72.9367 973.259 72.7567C974.499 72.1667 975.939 72.0867 977.199 72.5567C978.559 73.0567 979.649 74.1667 980.119 75.5367C980.529 76.7267 980.399 77.9567 979.759 79.0067C979.619 79.2267 979.469 79.4367 979.309 79.6367C979.609 80.0767 979.909 80.5067 980.199 80.9467C982.049 83.6967 983.799 86.2867 986.969 87.9767C991.269 90.2767 995.119 90.4467 999.049 88.4967C999.149 86.5467 999.139 84.6767 999.019 82.7967C991.659 80.3867 985.299 74.9967 982.749 68.9967C980.929 64.7067 981.079 60.2067 983.189 55.9867C989.229 43.8967 1005.23 37.8767 1018.15 42.8167C1018.25 42.8167 1018.35 42.8267 1018.47 42.8567C1024.91 44.8367 1031.95 51.6267 1034.84 58.6567C1036.76 63.3267 1036.74 67.7167 1034.79 71.3467C1031.74 77.0267 1025.7 81.1767 1017.74 83.0767C1017.74 83.1967 1017.74 83.3167 1017.71 83.4367C1017.68 83.5867 1017.67 83.7867 1017.68 84.0267C1025.12 83.7967 1030.66 82.4467 1035.11 79.7867C1040.8 76.3867 1043.16 72.2467 1045.47 65.8067C1045.22 64.9367 1045.21 64.0767 1045.44 63.3167C1045.25 61.5267 1046.22 59.8567 1048.03 58.8567C1046.04 50.2767 1043.81 38.1167 1046.73 29.8267C1049.32 22.4567 1053.27 15.6367 1057.09 9.04674C1058.61 6.41674 1060.19 3.69674 1061.66 0.98674C1061.94 0.46674 1062.48 0.0967402 1063.11 0.0167402C1063.74 -0.0632598 1064.37 0.14674 1064.79 0.57674C1078.17 14.5567 1078.44 33.5767 1078.7 51.9667C1078.76 56.0567 1078.82 60.2967 1079.03 64.3267C1079.43 71.8867 1079.51 79.5567 1079.58 86.9767C1079.64 92.9567 1079.7 99.1367 1079.93 105.217C1080 107.147 1080.17 109.257 1080.35 111.497C1081.03 119.867 1081.79 129.347 1078.24 136.067C1076 140.287 1072.08 142.547 1067.08 142.547ZM1047.29 115.667L1047.04 117.937C1046.25 124.747 1045.36 132.467 1048.85 137.217C1051.18 140.387 1057.46 140.847 1062.06 141.177C1063.14 141.257 1064.17 141.327 1065.01 141.437C1068.98 141.917 1074.34 141.307 1077.35 135.607C1080.77 129.137 1080.01 119.817 1079.35 111.587C1079.17 109.337 1079 107.207 1078.92 105.257C1078.69 99.1567 1078.63 92.9767 1078.57 86.9867C1078.5 79.5767 1078.42 71.9167 1078.02 64.3867C1077.8 60.3367 1077.74 56.0967 1077.69 51.9967C1077.43 33.7967 1077.17 14.9867 1064.06 1.28674C1063.86 1.07674 1063.56 0.98674 1063.24 1.02674C1062.93 1.06674 1062.67 1.23674 1062.54 1.47674C1061.07 4.20674 1059.49 6.92674 1057.96 9.56674C1054.16 16.1167 1050.24 22.8867 1047.67 30.1767C1044.79 38.3467 1047.1 50.5567 1049.09 59.0267L1049.18 59.4167L1048.82 59.5867C1047.51 60.2067 1046.2 61.5167 1046.44 63.3167L1046.46 63.4267L1046.42 63.5367C1046.21 64.1767 1046.23 64.9167 1046.47 65.6867L1046.52 65.8467L1046.46 66.0067C1044.05 72.7467 1041.61 77.0767 1035.62 80.6567C1029.53 84.2967 1022.39 84.9067 1017.56 85.0467C1017.51 85.0467 1017.46 85.0567 1017.42 85.0767L1016.84 85.3367L1017.65 85.5767C1028.31 86.8367 1042.47 81.6567 1046.48 71.9367L1047.79 68.7667L1047.44 72.1767C1046.45 81.7867 1046.9 91.5967 1047.33 101.087C1047.45 103.777 1047.58 106.467 1047.67 109.147C1047.74 111.117 1047.54 113.357 1047.34 115.297L1047.29 115.667ZM1012.51 118.097L1012.44 118.747C1011.27 129.327 1012.27 136.627 1015.26 139.297C1016.57 140.467 1018.23 140.797 1020.35 140.317C1022.09 139.917 1022.53 138.557 1022.6 137.477C1022.74 135.167 1021.23 132.487 1019.44 131.847C1018.09 131.367 1016.7 132.037 1015.43 133.797L1014.81 134.657L1014.54 133.627C1013.67 130.247 1013.63 126.727 1013.6 123.317C1013.58 121.687 1013.57 119.997 1013.46 118.367L1013.43 117.927L1013.86 117.837C1017.43 117.107 1021.74 115.677 1022.01 112.997C1022.38 109.357 1021.48 105.337 1020.6 101.447C1020.32 100.217 1020.06 99.0167 1019.84 97.8667C1019.61 96.6867 1019.13 94.8967 1018.62 93.0067C1017.99 90.6967 1017.29 88.0667 1016.93 86.0867L1016.8 85.3367H1016.79L1016.73 84.6367C1016.68 84.0367 1016.68 83.5867 1016.74 83.2367C1016.76 83.1067 1016.75 82.9867 1016.7 82.8467L1016.52 82.3167L1017.06 82.1967C1024.95 80.4167 1030.94 76.3967 1033.91 70.8667C1036.19 66.6267 1035.17 62.0867 1033.91 59.0267C1031.13 52.2467 1024.36 45.7067 1018.17 43.8067C1018.08 43.8067 1018.03 43.8067 1017.98 43.7967L1017.86 43.7667C1005.6 39.0367 989.819 44.9567 984.079 56.4267C982.079 60.4267 981.939 64.5267 983.669 68.5967C986.139 74.4267 992.409 79.6667 999.639 81.9367L999.959 82.0367L999.979 82.3767C1000.13 84.5067 1000.14 86.6167 1000.02 88.8267L999.999 89.1067L999.749 89.2367C995.469 91.4567 991.129 91.3267 986.489 88.8467C983.109 87.0367 981.289 84.3467 979.369 81.4967C979.009 80.9667 978.649 80.4267 978.269 79.8867L978.039 79.5567L978.319 79.2567C978.539 79.0167 978.739 78.7567 978.919 78.4767C979.399 77.6967 979.499 76.7667 979.189 75.8667C978.819 74.7967 977.929 73.8967 976.859 73.5067C975.849 73.1367 974.699 73.1967 973.699 73.6767C973.369 73.8367 973.009 74.0667 972.659 74.3567L972.519 74.4367C971.689 74.7467 971.199 75.3167 971.049 76.1367C970.829 77.3367 971.439 78.9167 972.459 79.8167C973.569 80.7867 975.029 81.0367 976.459 80.5067L976.989 80.3067L977.119 80.8467C978.129 84.9467 981.479 88.6067 986.069 90.6367C990.609 92.6367 995.489 92.6567 999.109 90.6867L999.939 90.2367L999.839 91.1767C998.839 101.077 994.979 109.957 991.339 117.327C991.169 117.667 991.169 118.007 991.319 118.287C991.489 118.587 991.809 118.777 992.209 118.817C993.329 118.927 995.759 119.057 998.939 119.057H999.519L999.429 119.637C998.819 123.607 999.289 127.767 999.739 131.787L999.869 132.987H999.309C996.909 132.997 994.679 134.277 993.619 136.237C993.019 137.357 992.949 138.217 993.409 138.857C994.609 140.567 999.299 140.637 1001.54 140.297C1001.87 140.247 1002.16 139.777 1002.15 139.447C1002.11 138.477 1002.04 137.447 1001.91 136.117L1001.83 135.287L1002.6 135.607C1003.01 135.777 1003.27 135.417 1003.34 135.307C1003.51 135.027 1003.58 134.617 1003.3 134.387C1002.91 134.057 1002.45 133.777 1001.86 133.507L1001.6 133.397L1001.56 133.117C1001.44 132.187 1001.31 131.257 1001.18 130.327C1000.69 126.817 1000.19 123.187 1000.16 119.537V119.037L1000.66 119.027C1003.57 118.977 1007.87 118.797 1011.84 118.167L1012.51 118.097ZM1066.89 139.737C1065.03 139.737 1063.13 139.387 1061.27 139.037C1060.33 138.867 1059.44 138.697 1058.57 138.577C1051.26 137.597 1048.72 134.637 1048.86 127.277C1048.88 126.227 1048.91 125.177 1048.94 124.127L1048.98 122.927L1049.19 115.937L1049.73 115.997C1054.59 116.527 1059.34 116.117 1064.37 115.667C1065.26 115.587 1066.15 115.507 1067.04 115.437C1067.16 115.427 1067.29 115.427 1067.42 115.417L1067.9 115.397L1068.05 115.667C1068.14 115.827 1068.28 115.917 1068.47 115.937C1068.74 115.967 1069.07 115.837 1069.26 115.607L1069.42 115.427L1069.66 115.437C1070.11 115.457 1070.58 115.487 1071.04 115.527C1073.03 115.657 1075.09 115.797 1076.78 115.347L1077.38 115.187L1077.59 119.997L1077.01 119.927C1073.83 119.557 1070.51 119.527 1067.29 119.497C1065.97 119.487 1064.66 119.477 1063.36 119.437C1062.18 119.407 1060.98 119.347 1059.76 119.287C1056.4 119.127 1052.93 118.967 1049.65 119.337L1049.4 119.367L1049.63 119.397C1052.19 119.737 1054.87 119.807 1057.46 119.877C1058.82 119.917 1060.17 119.947 1061.51 120.017C1063.23 120.107 1065 120.257 1066.71 120.407C1070.14 120.697 1073.7 120.987 1077.11 120.877L1077.61 120.857L1077.62 121.357C1077.64 122.157 1077.65 122.967 1077.65 123.787V124.337L1077.1 124.277C1074.12 123.947 1071.04 123.807 1068.06 123.667C1066.26 123.587 1064.46 123.497 1062.67 123.377C1061.59 123.297 1060.49 123.197 1059.39 123.097C1056.21 122.807 1052.93 122.507 1049.81 122.817C1052.5 123.417 1055.35 123.657 1058.11 123.887C1059.03 123.967 1059.94 124.037 1060.84 124.127C1061.76 124.217 1062.68 124.317 1063.61 124.417C1068.06 124.887 1072.65 125.387 1077.07 125.007L1077.64 124.957L1077.62 125.527C1077.27 133.487 1074.74 138.007 1069.87 139.337C1068.9 139.637 1067.9 139.737 1066.89 139.737ZM1049.94 123.897L1049.93 124.167C1049.9 125.207 1049.87 126.247 1049.85 127.297C1049.72 134.177 1051.87 136.677 1058.69 137.587C1059.58 137.707 1060.49 137.877 1061.44 138.047C1064.2 138.557 1067.06 139.087 1069.6 138.397C1073.94 137.207 1076.17 133.287 1076.58 126.067C1072.25 126.357 1067.81 125.887 1063.5 125.427C1062.58 125.327 1061.66 125.227 1060.74 125.137C1059.84 125.047 1058.93 124.977 1058.02 124.897C1055.35 124.687 1052.59 124.457 1049.94 123.897ZM1062.74 122.407C1064.52 122.527 1066.32 122.617 1068.11 122.697C1070.92 122.827 1073.82 122.967 1076.65 123.257C1076.65 122.807 1076.64 122.357 1076.63 121.907C1073.31 121.977 1069.91 121.697 1066.61 121.417C1064.9 121.277 1063.14 121.127 1061.44 121.037C1060.12 120.967 1058.77 120.927 1057.42 120.897C1054.98 120.837 1052.47 120.767 1050.03 120.477L1049.99 121.827C1053.12 121.547 1056.35 121.847 1059.47 122.137C1060.58 122.227 1061.67 122.327 1062.74 122.407ZM1054.15 118.137C1056.04 118.137 1057.94 118.227 1059.81 118.317C1061.02 118.377 1062.21 118.427 1063.39 118.457C1064.68 118.487 1065.99 118.507 1067.3 118.517C1070.34 118.547 1073.49 118.577 1076.54 118.887L1076.43 116.467C1074.73 116.797 1072.82 116.667 1070.97 116.537C1070.59 116.507 1070.2 116.487 1069.83 116.467C1069.43 116.827 1068.88 117.017 1068.36 116.957C1067.95 116.917 1067.61 116.737 1067.35 116.447C1067.27 116.447 1067.19 116.447 1067.11 116.457C1066.22 116.527 1065.33 116.607 1064.45 116.687C1059.77 117.097 1054.93 117.517 1050.15 117.067L1050.11 118.317C1051.44 118.177 1052.79 118.137 1054.15 118.137ZM998.539 138.737C995.689 138.737 995.399 137.967 995.299 137.697C995.009 136.897 995.829 136.157 996.479 135.677C997.419 134.967 998.469 134.677 999.649 134.787L1000.07 134.827L1000.11 135.247C1000.21 136.317 1000.27 137.287 1000.31 138.187L1000.33 138.677L999.839 138.707C999.359 138.717 998.929 138.737 998.539 138.737ZM997.079 136.467C996.249 137.087 996.239 137.357 996.239 137.357C996.339 137.507 997.219 137.797 999.279 137.717C999.249 137.097 999.199 136.447 999.139 135.747C998.379 135.757 997.719 135.987 997.079 136.467ZM1018.91 138.537C1018.6 138.537 1018.25 138.497 1017.88 138.417C1016.98 138.227 1016.28 137.737 1015.76 136.937L1015.55 136.617L1015.88 136.267C1016.56 135.407 1018.21 133.557 1019.57 133.967C1020.33 134.197 1020.77 135.047 1020.87 136.477C1020.92 137.187 1020.74 137.727 1020.32 138.087C1019.98 138.397 1019.51 138.537 1018.91 138.537ZM1016.81 136.687C1017.15 137.087 1017.56 137.327 1018.08 137.437C1018.84 137.597 1019.39 137.567 1019.65 137.337C1019.82 137.197 1019.89 136.927 1019.86 136.547C1019.79 135.617 1019.57 135.007 1019.26 134.917C1018.86 134.797 1017.9 135.367 1016.81 136.687ZM996.749 117.117C995.919 117.117 995.149 117.097 994.409 117.057L993.659 117.017L993.989 116.337C996.909 110.257 998.809 105.257 999.959 100.577L1000.11 99.9667L1000.67 100.257C1002.12 100.997 1003.89 101.497 1005.94 101.747L1006.51 101.817L1006.37 102.367C1005.91 104.157 1006.07 106.307 1006.23 108.377C1006.28 108.997 1006.32 109.597 1006.35 110.177C1006.43 111.927 1006.57 113.947 1007.16 115.777L1007.34 116.347L1006.74 116.427C1004.48 116.727 1002.31 116.927 1000.29 117.027H1000.23L1000.17 117.017C1000.14 117.007 1000.11 117.017 1000.08 117.027L999.959 117.047C998.779 117.087 997.719 117.117 996.749 117.117ZM995.209 116.087C996.569 116.137 998.059 116.117 999.849 116.037C999.999 116.007 1000.14 115.997 1000.29 116.017C1002.09 115.927 1004.02 115.747 1006.02 115.497C1005.54 113.717 1005.41 111.847 1005.34 110.207C1005.31 109.647 1005.27 109.047 1005.22 108.437C1005.08 106.577 1004.92 104.487 1005.27 102.647C1003.58 102.397 1002.07 101.987 1000.77 101.397C999.639 105.807 997.859 110.507 995.209 116.087ZM1008.04 116.237L1007.98 115.727C1007.7 113.447 1007.55 111.347 1007.54 109.337C1007.53 108.567 1007.59 107.757 1007.64 106.967C1007.74 105.447 1007.85 103.867 1007.55 102.497L1007.41 101.877L1008.05 101.887C1011.65 101.957 1015.04 101.167 1017.55 99.6567L1018.17 99.2867L1018.3 99.9967C1018.88 103.057 1019.31 105.537 1019.67 107.807C1019.69 107.947 1019.73 108.147 1019.79 108.407C1020.22 110.507 1020.56 112.617 1019.63 113.317C1017.9 114.627 1015.31 115.047 1013.03 115.417C1012.55 115.497 1012.09 115.567 1011.67 115.647C1010.65 115.837 1009.61 116.007 1008.56 116.167L1008.04 116.237ZM1008.63 102.887C1008.83 104.227 1008.73 105.647 1008.63 107.037C1008.58 107.847 1008.52 108.607 1008.53 109.337C1008.54 111.167 1008.66 113.057 1008.9 115.107C1009.76 114.967 1010.62 114.827 1011.46 114.667C1011.89 114.587 1012.36 114.507 1012.85 114.427C1015.02 114.077 1017.47 113.677 1019.01 112.517C1019.24 112.337 1019.39 111.517 1018.79 108.607C1018.73 108.337 1018.69 108.107 1018.66 107.967C1018.33 105.877 1017.93 103.607 1017.42 100.867C1014.99 102.157 1011.91 102.867 1008.63 102.887ZM1050.37 115.907C1050.14 115.907 1049.91 115.907 1049.68 115.897L1049.18 115.887L1049.19 115.387C1049.32 110.577 1049.4 105.387 1049.14 100.057C1048.67 90.5967 1048.14 79.8867 1049.47 69.3767L1049.5 68.7867L1050.02 68.8367C1051.88 68.9967 1053.96 67.6467 1054.96 65.5967C1055.6 64.2867 1055.63 62.8367 1055.05 61.6167C1054.47 60.3867 1053.33 59.4967 1051.92 59.1567C1051.6 59.0767 1051.25 59.0567 1050.84 59.0667L1050.29 59.0867L1050.35 57.9967L1050.3 57.8967L1050.28 57.7367C1050.24 54.5867 1049.87 51.3967 1049.52 48.3167C1049.01 43.8167 1048.48 39.1667 1048.92 34.5267L1049.01 33.5367L1049.75 34.1967C1050.12 34.5267 1050.56 34.7767 1051.12 34.9467C1053.87 35.8267 1056.37 33.8467 1057.32 32.9467L1058.11 32.2067L1058.16 33.2867C1058.2 34.0267 1058.22 34.7667 1058.24 35.5067L1058.27 36.5467L1058.26 36.5967C1057.8 39.1467 1057.83 41.8367 1058.36 44.5767C1058.34 49.2367 1058.21 53.8367 1058.08 58.5367L1058.07 58.8367L1057.8 58.9667C1057.58 59.0767 1057.45 59.2667 1057.43 59.5467C1056.4 71.6567 1056.85 84.6667 1058.78 98.2267C1058.99 104.507 1058.94 109.527 1058.61 114.077C1058.61 114.147 1058.6 114.227 1058.75 114.247L1062.77 114.747L1058.75 115.237C1056.07 115.587 1053.24 115.907 1050.37 115.907ZM1050.2 114.907C1052.71 114.887 1055.23 114.677 1057.62 114.387C1057.6 114.277 1057.59 114.157 1057.6 114.027C1057.93 109.447 1057.98 104.607 1057.77 98.3367C1056.16 87.0167 1055.57 76.0367 1056.02 65.6367C1055.97 65.7667 1055.91 65.8967 1055.85 66.0267C1054.74 68.2967 1052.56 69.8067 1050.42 69.8367C1049.16 80.1367 1049.68 90.6867 1050.14 99.9967C1050.39 105.187 1050.32 110.217 1050.2 114.907ZM1051.32 58.0667C1051.61 58.0867 1051.88 58.1167 1052.13 58.1767C1053.84 58.5767 1055.22 59.6767 1055.93 61.1767C1056.05 61.4167 1056.14 61.6667 1056.22 61.9267C1056.28 61.1067 1056.34 60.2967 1056.41 59.4867C1056.45 58.9767 1056.69 58.5367 1057.07 58.2567C1057.2 53.6567 1057.32 49.1467 1057.35 44.6867C1056.81 41.9367 1056.78 39.1467 1057.25 36.4867L1057.22 35.5367C1057.21 35.1467 1057.2 34.7567 1057.19 34.3667C1055.11 35.9967 1052.82 36.5567 1050.8 35.8967C1050.45 35.7867 1050.13 35.6467 1049.83 35.4767C1049.53 39.7367 1050.02 44.0267 1050.5 48.1867C1050.85 51.2667 1051.21 54.4367 1051.26 57.6067C1051.31 57.7467 1051.33 57.8767 1051.32 58.0167V58.0667ZM1077.35 114.437L1076.71 114.287C1075.15 113.907 1073.26 114.057 1071.43 114.197C1070.96 114.237 1070.51 114.267 1070.06 114.297L1069.51 114.327L1069.53 113.777C1069.62 111.617 1069.53 109.357 1069.27 107.397L1069.26 107.337L1069.27 107.277C1069.8 102.557 1068.97 96.9367 1068.31 92.4167C1068.07 90.7767 1067.84 89.2167 1067.71 87.9167C1066.7 77.7867 1066.85 67.3767 1067.01 57.3067C1067.13 49.3367 1067.26 41.1067 1066.8 33.0667L1066.75 32.1867L1067.53 32.5967C1069.56 33.6567 1072.26 33.8067 1073.7 31.7467L1074.47 30.6467L1074.61 31.9867C1075.12 37.0667 1075.25 42.3367 1075.38 47.4267C1075.44 49.9067 1075.5 52.3767 1075.6 54.8367C1076.18 68.7067 1076.53 82.7967 1076.87 96.4167C1077.01 102.217 1077.16 108.007 1077.32 113.817L1077.35 114.437ZM1070.28 107.307C1070.52 109.137 1070.61 111.227 1070.56 113.247C1070.82 113.227 1071.09 113.207 1071.36 113.187C1073.04 113.057 1074.77 112.927 1076.32 113.177C1076.17 107.587 1076.03 101.997 1075.89 96.4067C1075.55 82.7867 1075.2 68.7067 1074.62 54.8467C1074.52 52.3867 1074.46 49.9067 1074.4 47.4267C1074.29 42.7267 1074.17 37.8767 1073.75 33.1867C1072.26 34.4667 1070.08 34.7167 1067.87 33.8267C1068.28 41.6367 1068.15 49.5967 1068.04 57.3067C1067.89 67.3467 1067.73 77.7367 1068.74 87.8067C1068.87 89.0867 1069.09 90.6267 1069.33 92.2567C1069.97 96.8067 1070.8 102.477 1070.28 107.307ZM1006.49 100.597C1004.65 100.597 1002.76 100.237 1000.76 99.3167C1000.78 99.3267 1000.73 99.3167 1000.69 99.3067L1000.27 99.1667L1000.36 98.7367C1001.51 93.1867 1001.59 88.0367 1000.61 82.9767L1000.46 82.2067L1001.22 82.3867C1002.04 82.5867 1002.84 82.7367 1003.59 82.8367C1007.13 83.3067 1010.97 83.2467 1014.71 82.6467L1015.36 82.5467L1015.29 83.1967C1015.1 84.8867 1015.55 86.7367 1015.98 88.5167C1016.13 89.1367 1016.27 89.7367 1016.39 90.3167C1016.86 92.6667 1017.33 95.0167 1017.79 97.3767L1017.87 97.8167L1017.45 97.9567C1016.79 98.1667 1016.15 98.3867 1015.5 98.5967C1012.47 99.6167 1009.55 100.597 1006.49 100.597ZM1001.43 98.5167C1006.27 100.637 1010.6 99.1867 1015.18 97.6467C1015.69 97.4767 1016.2 97.3067 1016.72 97.1367C1016.29 94.9267 1015.85 92.7267 1015.41 90.5167C1015.3 89.9467 1015.15 89.3567 1015.01 88.7567C1014.61 87.1067 1014.2 85.3967 1014.25 83.7367C1010.62 84.2567 1006.91 84.2967 1003.47 83.8367C1002.91 83.7667 1002.34 83.6567 1001.74 83.5367C1002.57 88.3567 1002.47 93.2767 1001.43 98.5167ZM1007.43 81.2567C999.379 81.2567 991.419 77.1867 987.489 70.9967C984.419 66.1767 984.219 60.5667 986.909 55.1867C991.509 45.9967 1006.26 42.1267 1016.62 44.3967L1016.99 44.4767L1017.01 44.8567C1017.02 45.0967 1017.13 45.5267 1017.68 45.6967C1023.35 47.4367 1029.07 52.9367 1031.6 59.0767C1033.43 63.5367 1033.41 67.7367 1031.53 71.2467C1026.79 80.0767 1012.36 81.1367 1008.05 81.2467C1007.84 81.2467 1007.63 81.2567 1007.43 81.2567ZM987.789 55.6367C984.549 62.1067 986.289 67.2667 988.319 70.4567C992.109 76.4267 1000.19 80.4567 1008.01 80.2467C1012.18 80.1367 1026.15 79.1367 1030.63 70.7767C1032.82 66.6867 1031.86 62.3667 1030.66 59.4567C1028.24 53.5767 1022.78 48.3067 1017.37 46.6567C1016.69 46.4467 1016.22 45.9567 1016.05 45.3067C1006.09 43.2667 992.139 46.9467 987.789 55.6367ZM974.869 79.7367C974.339 79.7367 973.819 79.6167 973.379 79.3667C972.809 79.0567 972.329 78.5567 971.989 77.9167L971.779 77.5267L972.139 77.2667C972.469 77.0367 972.749 76.6867 973.039 76.3167C973.679 75.5167 974.479 74.5267 975.969 74.8067C976.689 74.9367 977.339 75.3567 977.699 75.9267C978.009 76.4067 978.099 76.9567 977.949 77.5067C977.729 78.3667 977.099 79.0767 976.229 79.4467C975.799 79.6467 975.329 79.7367 974.869 79.7367ZM973.079 77.7867C973.299 78.0967 973.559 78.3267 973.859 78.4967C974.419 78.8067 975.179 78.8267 975.839 78.5467C976.179 78.3967 976.789 78.0367 976.989 77.2767C977.059 76.9967 977.019 76.7267 976.859 76.4867C976.649 76.1467 976.229 75.8867 975.789 75.8067C974.929 75.6467 974.479 76.1467 973.819 76.9667C973.589 77.2367 973.349 77.5267 973.079 77.7867ZM1050.35 67.5267C1049.68 67.5267 1049.02 67.2767 1048.44 66.7867C1048.18 66.5667 1047.93 66.2967 1047.7 65.9567L1047.63 65.7967C1047.6 65.6867 1047.56 65.6067 1047.5 65.5567L1047.38 65.3967C1047.28 65.1667 1047.2 64.9367 1047.15 64.7067L1047.07 64.3567L1047.38 64.1767C1047.46 64.1267 1047.51 64.0767 1047.54 64.0167C1047.67 63.7467 1047.79 63.4567 1047.9 63.1767C1048.42 61.8967 1049.05 60.2967 1051.22 60.6167C1052.23 60.7667 1053.05 61.2567 1053.52 61.9967C1053.97 62.7067 1054.07 63.5967 1053.8 64.4967C1053.38 65.9067 1052.34 67.0567 1051.15 67.4167C1050.89 67.4967 1050.62 67.5267 1050.35 67.5267ZM1048.57 65.4567C1048.74 65.6967 1048.9 65.8767 1049.08 66.0267C1049.64 66.4967 1050.24 66.6367 1050.86 66.4567C1051.72 66.1967 1052.52 65.2967 1052.84 64.2167C1053.03 63.5867 1052.97 62.9967 1052.67 62.5367C1052.35 62.0467 1051.78 61.7067 1051.07 61.6067C1049.74 61.4167 1049.38 62.1767 1048.82 63.5467C1048.7 63.8467 1048.57 64.1567 1048.43 64.4467C1048.37 64.5767 1048.29 64.6867 1048.2 64.7867C1048.21 64.8267 1048.23 64.8667 1048.25 64.9067C1048.39 65.0567 1048.5 65.2467 1048.57 65.4567ZM1052.38 33.7967C1051.73 33.7967 1051.12 33.6167 1050.64 33.2567C1050.12 32.8667 1049.31 31.9267 1049.81 30.0067L1049.74 29.8467L1049.78 29.6367C1050.7 26.1267 1052.34 22.3867 1054.92 17.8867L1055.38 17.0767L1055.8 17.9167C1056.48 19.2767 1059.35 19.7667 1063.48 19.2267C1064.98 19.0367 1068.64 18.3367 1070.29 16.0867L1070.83 15.3467L1071.16 16.1967C1072.51 19.7267 1073.49 23.6067 1074.15 28.0767L1074.22 28.5367L1073.77 28.6367C1073.56 28.6867 1073.49 28.7867 1073.46 28.8667C1072.72 30.5267 1071.52 31.5567 1070.17 31.7067C1068.82 31.8567 1067.46 31.1167 1066.37 29.6367C1066.15 29.3467 1065.69 29.1667 1065.32 29.2567C1065.08 29.3167 1064.94 29.4667 1064.89 29.7367C1064.61 31.3067 1063.01 33.1567 1061.51 33.0267C1060.83 32.9767 1059.68 32.4667 1059.61 29.6267C1059.6 29.2267 1059.23 28.9167 1058.87 28.8467C1058.65 28.8067 1058.35 28.8267 1058.19 29.1767C1057.38 30.9667 1056.34 32.1367 1054.72 33.1067C1053.94 33.5667 1053.13 33.7967 1052.38 33.7967ZM1050.78 29.7567C1050.82 29.9267 1050.82 30.0967 1050.78 30.2667C1050.52 31.2667 1050.69 32.0467 1051.24 32.4667C1051.93 32.9867 1053.12 32.8967 1054.19 32.2567C1055.62 31.3967 1056.54 30.3567 1057.27 28.7667C1057.59 28.0667 1058.29 27.7067 1059.06 27.8667C1059.81 28.0167 1060.58 28.6667 1060.6 29.6067C1060.64 31.1067 1060.99 31.9867 1061.58 32.0367C1062.37 32.0967 1063.69 30.7367 1063.9 29.5667C1064.02 28.8967 1064.45 28.4367 1065.08 28.2867C1065.83 28.1167 1066.71 28.4267 1067.16 29.0467C1068.03 30.2267 1069.05 30.8167 1070.05 30.7167C1071.04 30.6067 1071.94 29.7867 1072.53 28.4667C1072.65 28.2067 1072.84 27.9867 1073.09 27.8467C1072.49 23.9467 1071.64 20.5067 1070.51 17.3567C1068.48 19.3867 1065.07 20.0367 1063.6 20.2267C1061.16 20.5467 1057.1 20.7567 1055.4 19.0667C1053.12 23.1267 1051.64 26.5467 1050.78 29.7567Z" fill="#FF9C67"/>
<path d="M1024.91 62.3969C1024.33 61.4769 1022.95 61.8669 1022.91 62.9369C1022.35 77.6169 996.742 74.0969 991.562 63.7669C991.242 63.1269 990.292 63.5869 990.452 64.2369C992.692 73.6669 1004.35 75.7069 1012.56 74.8569C1017.65 74.3369 1029.45 69.6169 1024.91 62.3969Z" fill="#FF9C67"/>
<path d="M1009.03 75.5368C1000.38 75.5368 991.831 72.2468 989.951 64.3468C989.821 63.7968 990.141 63.2268 990.691 63.0268C991.211 62.8368 991.751 63.0468 992.001 63.5368C994.991 69.5068 1005.99 73.6168 1014.21 71.8368C1017.17 71.1968 1022.16 69.1868 1022.4 62.9168C1022.43 62.1968 1022.89 61.6168 1023.58 61.4368C1024.27 61.2568 1024.95 61.5268 1025.33 62.1268C1026.6 64.1468 1026.77 66.1268 1025.84 68.0268C1023.68 72.4668 1016.15 74.9868 1012.59 75.3568C1011.42 75.4768 1010.23 75.5368 1009.03 75.5368ZM991.061 63.9668C991.031 63.9668 991.001 63.9768 990.971 64.0068C990.921 64.0568 990.931 64.0968 990.931 64.1168C993.211 73.7168 1005.55 75.0668 1012.5 74.3568C1016.44 73.9468 1023.13 71.3068 1024.95 67.5868C1025.71 66.0168 1025.56 64.3568 1024.49 62.6568C1024.27 62.3068 1023.94 62.3668 1023.85 62.3968C1023.65 62.4468 1023.43 62.6268 1023.41 62.9568C1023.21 68.1068 1020.02 71.6068 1014.43 72.8168C1006.54 74.5268 994.651 71.0368 991.111 63.9868C991.101 63.9768 991.081 63.9668 991.061 63.9668Z" fill="#FF9C67"/>
<path d="M1005.3 54.0169C1004.55 52.8769 1002.92 53.6169 1003.16 54.9169C1003.42 56.3069 1004.06 57.5869 1004.24 59.0169C1004.32 59.6769 1004.3 60.3269 1004.27 60.9869C1004.26 61.2269 1004.21 61.4369 1004.16 61.6669C1004.15 61.7369 1004.14 61.7669 1004.13 61.8069C1003.73 61.9969 1003.82 62.5769 1004.28 62.6069C1007.54 62.8269 1006.32 55.5669 1005.3 54.0169Z" fill="#FF9C67"/>
<path d="M1004.43 63.1068C1004.37 63.1068 1004.31 63.1068 1004.25 63.0968C1003.82 63.0668 1003.47 62.7668 1003.39 62.3468C1003.33 62.0168 1003.44 61.7068 1003.68 61.4968L1003.69 61.4168C1003.72 61.2668 1003.75 61.1168 1003.76 60.9568C1003.78 60.3368 1003.81 59.7068 1003.73 59.0668C1003.64 58.3168 1003.41 57.6168 1003.17 56.8768C1002.98 56.2768 1002.77 55.6468 1002.65 54.9968C1002.49 54.1668 1002.92 53.3668 1003.68 53.0668C1004.42 52.7668 1005.24 53.0268 1005.7 53.7268C1006.51 54.9568 1007.56 59.8068 1006.29 61.9868C1005.88 62.7268 1005.23 63.1068 1004.43 63.1068ZM1004.32 53.9568C1004.21 53.9568 1004.12 53.9868 1004.07 54.0068C1003.82 54.1068 1003.57 54.3868 1003.65 54.8268C1003.76 55.4168 1003.94 55.9868 1004.14 56.5868C1004.38 57.3368 1004.64 58.1268 1004.74 58.9668C1004.83 59.6768 1004.8 60.3868 1004.78 61.0168C1004.77 61.2368 1004.73 61.4268 1004.69 61.6268L1004.58 62.1068C1004.95 62.0668 1005.23 61.8768 1005.45 61.4968C1006.46 59.7668 1005.58 55.3368 1004.89 54.2868C1004.7 54.0168 1004.49 53.9568 1004.32 53.9568ZM1004.06 61.6468L1004.07 61.6668H1004.16L1004.06 61.6468Z" fill="#FF9C67"/>
<path d="M1013.43 54.8967C1013.03 53.3467 1012.17 50.9967 1010.34 50.8567C1009.58 50.7967 1009.16 51.5967 1009.28 52.2467C1009.41 52.9167 1009.84 53.2267 1010.23 53.7667C1010.71 54.4367 1011.01 55.2267 1011.27 56.0067C1011.82 57.6567 1011.84 59.3367 1011.73 61.0467C1011.66 62.1067 1013.14 62.1567 1013.47 61.2767C1014.23 59.2667 1013.96 56.9367 1013.43 54.8967Z" fill="#FF9C67"/>
<path d="M1012.54 62.3871C1012.43 62.3871 1012.33 62.3771 1012.23 62.3571C1011.58 62.2171 1011.19 61.6871 1011.24 61.0071C1011.33 59.5471 1011.36 57.8371 1010.8 56.1571C1010.52 55.3171 1010.25 54.6371 1009.83 54.0571C1009.73 53.9171 1009.63 53.7971 1009.53 53.6771C1009.23 53.3171 1008.92 52.9471 1008.8 52.3371C1008.7 51.8071 1008.85 51.2271 1009.21 50.8371C1009.52 50.4971 1009.95 50.3171 1010.39 50.3571C1011.99 50.4771 1013.21 52.0071 1013.92 54.7671C1014.61 57.4671 1014.62 59.6571 1013.94 61.4471C1013.7 62.0971 1013.09 62.3871 1012.54 62.3871ZM1010.27 51.3571C1010.14 51.3571 1010.04 51.4071 1009.95 51.5071C1009.81 51.6671 1009.74 51.9271 1009.78 52.1571C1009.85 52.5171 1010.03 52.7371 1010.29 53.0371C1010.4 53.1771 1010.52 53.3171 1010.64 53.4771C1011.16 54.1971 1011.48 55.0471 1011.75 55.8471C1012.36 57.6871 1012.34 59.5271 1012.24 61.0771C1012.23 61.2571 1012.29 61.3471 1012.45 61.3771C1012.65 61.4171 1012.93 61.3271 1013.01 61.0971C1013.61 59.4971 1013.59 57.5071 1012.95 55.0171C1012.54 53.4071 1011.74 51.4571 1010.31 51.3571C1010.3 51.3571 1010.28 51.3571 1010.27 51.3571Z" fill="#FF9C67"/>
</svg>
