<svg width="89" height="94" viewBox="0 0 89 94" fill="none" xmlns="http://www.w3.org/2000/svg">
<path fill-rule="evenodd" clip-rule="evenodd" d="M71.5605 73.1509L74.5934 75.5483L71.5605 76.8192V73.1509Z" stroke="white" stroke-width="0.133937" stroke-linecap="round" stroke-linejoin="round"/>
<path fill-rule="evenodd" clip-rule="evenodd" d="M71.5605 73.1509L74.5934 75.5483L71.5605 76.8192V73.1509Z" fill="white"/>
<path fill-rule="evenodd" clip-rule="evenodd" d="M37.0271 70.71C37.186 70.71 37.316 70.8399 37.316 70.9988C37.316 71.1577 37.186 71.2877 37.0271 71.2877C36.8683 71.2877 36.7383 71.1577 36.7383 70.9988C36.7383 70.8399 36.8683 70.71 37.0271 70.71Z" stroke="white" stroke-width="0.189702" stroke-linecap="round" stroke-linejoin="round"/>
<path fill-rule="evenodd" clip-rule="evenodd" d="M37.0271 70.71C37.186 70.71 37.316 70.8399 37.316 70.9988C37.316 71.1577 37.186 71.2877 37.0271 71.2877C36.8683 71.2877 36.7383 71.1577 36.7383 70.9988C36.7383 70.8399 36.8683 70.71 37.0271 70.71Z" fill="white"/>
<path fill-rule="evenodd" clip-rule="evenodd" d="M48.4256 70.7822C48.5844 70.7822 48.7144 70.9122 48.7144 71.0711C48.7144 71.2299 48.5844 71.3599 48.4256 71.3599C48.2667 71.3599 48.1367 71.2299 48.1367 71.0711C48.1367 70.9122 48.2667 70.7822 48.4256 70.7822Z" stroke="white" stroke-width="0.189702" stroke-linecap="round" stroke-linejoin="round"/>
<path fill-rule="evenodd" clip-rule="evenodd" d="M48.4256 70.7822C48.5844 70.7822 48.7144 70.9122 48.7144 71.0711C48.7144 71.2299 48.5844 71.3599 48.4256 71.3599C48.2667 71.3599 48.1367 71.2299 48.1367 71.0711C48.1367 70.9122 48.2667 70.7822 48.4256 70.7822Z" fill="white"/>
<path fill-rule="evenodd" clip-rule="evenodd" d="M17.7634 73.0928L14.7305 75.4902L17.7634 76.7611V73.0928Z" stroke="white" stroke-width="0.133937" stroke-linecap="round" stroke-linejoin="round"/>
<path fill-rule="evenodd" clip-rule="evenodd" d="M17.7634 73.0928L14.7305 75.4902L17.7634 76.7611V73.0928Z" fill="white"/>
<path fill-rule="evenodd" clip-rule="evenodd" d="M72.1953 72.2843C78.1744 70.5512 83.6337 67.1284 88.7463 63.8066L83.5326 72.2843L88.804 74.3496C84.7746 76.9925 81.5684 79.0578 76.4269 81.2097L76.0947 74.8117L72.1953 72.2987V72.2843Z" stroke="white" stroke-width="0.133937" stroke-linecap="round" stroke-linejoin="round"/>
<path fill-rule="evenodd" clip-rule="evenodd" d="M72.1953 72.2843C78.1744 70.5512 83.6337 67.1284 88.7463 63.8066L83.5326 72.2843L88.804 74.3496C84.7746 76.9925 81.5684 79.0578 76.4269 81.2097L76.0947 74.8117L72.1953 72.2987V72.2843Z" fill="white"/>
<path fill-rule="evenodd" clip-rule="evenodd" d="M14.7866 76.4432C32.5074 83.2311 52.3512 85.6141 74.5635 76.3276L74.7657 87.0727C52.2356 95.1171 35.5403 94.8283 14.6133 87.0872L14.7866 76.4432Z" stroke="white" stroke-width="0.133937" stroke-linecap="round" stroke-linejoin="round"/>
<path fill-rule="evenodd" clip-rule="evenodd" d="M14.7866 76.4432C32.5074 83.2311 52.3512 85.6141 74.5635 76.3276L74.7657 87.0727C52.2356 95.1171 35.5403 94.8283 14.6133 87.0872L14.7866 76.4432Z" fill="white"/>
<path fill-rule="evenodd" clip-rule="evenodd" d="M17.1986 71.6344C11.2194 69.9013 5.76021 66.4785 0.647613 63.1567L5.8613 71.6344L0.589844 73.6997C4.61926 76.3426 7.82546 78.4079 12.9669 80.5598L13.2991 74.1618L17.1986 71.6488V71.6344Z" stroke="white" stroke-width="0.133937" stroke-linecap="round" stroke-linejoin="round"/>
<path fill-rule="evenodd" clip-rule="evenodd" d="M17.1986 71.6344C11.2194 69.9013 5.76021 66.4785 0.647613 63.1567L5.8613 71.6344L0.589844 73.6997C4.61926 76.3426 7.82546 78.4079 12.9669 80.5598L13.2991 74.1618L17.1986 71.6488V71.6344Z" fill="white"/>
<path d="M32.1469 28.8125C30.5149 29.1302 30.0094 29.1736 27.1354 30.9789C26.7166 37.1024 23.7848 39.1821 18.8888 40.1931C22.2683 57.885 23.9003 67.7924 42.7476 76.8622C62.317 68.3846 63.8045 55.1265 65.7109 40.6408C60.3239 39.8031 56.9444 35.2827 57.9265 30.6467C56.28 29.6357 54.2292 28.9858 52.8428 28.8125" stroke="white" stroke-width="0.189763" stroke-linecap="round" stroke-linejoin="round"/>
<path fill-rule="evenodd" clip-rule="evenodd" d="M33.404 20.6094C33.043 20.7827 32.5953 21.4759 32.6097 21.9092C34.6172 27.2384 37.3324 28.6104 42.4738 29.5059C42.6472 26.5741 36.0614 29.2315 33.404 20.6238V20.6094Z" fill="white"/>
<path fill-rule="evenodd" clip-rule="evenodd" d="M52.0341 20.6094C52.3952 20.7827 52.8429 21.4759 52.8284 21.9092C50.8209 27.2384 48.1058 28.6104 42.9643 29.5059C42.791 26.5741 49.3767 29.2315 52.0341 20.6238V20.6094Z" fill="white"/>
<path fill-rule="evenodd" clip-rule="evenodd" d="M36.2056 24.552C37.4043 23.3677 37.4621 22.8911 38.0976 21.4902L39.4552 23.1511C38.8341 17.2586 29.981 19.2228 32.2918 23.2377C29.4033 22.5878 28.3201 22.4723 26.1538 20.797C27.1647 20.927 27.8291 21.0136 28.4356 20.6092C24.6084 19.916 24.0741 19.6849 21.2145 17.0853C21.9366 17.4464 22.9476 17.3597 23.4964 17.2153C20.0446 15.4533 19.828 15.2656 17.6328 12.2182C18.9903 12.8248 20.1891 13.3014 21.33 13.3881C16.6074 10.4563 14.1377 7.0912 17.3439 0.144424C15.5386 5.7625 21.07 9.27199 25.0561 9.83524C20.8679 9.3442 19.4381 8.02995 17.5606 5.97913C20.088 11.3372 25.6194 10.7307 30.5153 10.9762C34.1259 10.8029 37.7221 11.4817 38.6608 15.9155C39.2963 20.2337 40.4228 23.2233 42.6758 24.9275V22.4001L41.6215 21.9091C46.2575 22.7034 45.5354 18.4862 47.1096 14.8901C49.146 10.2541 52.7566 11.1784 56.8582 10.8029C63.3284 10.7162 65.3792 9.74859 68.3399 5.67585C68.6576 5.24257 65.6392 9.84969 60.4688 9.7197C65.5814 9.15645 69.2931 5.11259 68.1232 0C70.9684 6.15244 69.5675 10.644 64.2238 13.3303C65.6536 13.2581 66.2457 12.9115 67.6755 12.3482C66.0291 14.8323 65.4947 15.8288 61.6242 17.3308C62.4907 17.4175 63.2417 17.3742 64.0216 17.1575C62.0575 19.4539 61.0465 19.9304 57.4215 20.6092C57.7536 20.8259 58.5335 21.0136 59.0101 20.9992C57.1759 22.1979 56.1072 22.7612 53.7242 23.2377C53.7387 17.2731 46.2575 18.544 45.9542 23.2233L47.7306 21.9091C47.5862 23.1222 48.265 23.8877 49.276 24.682L45.1455 26.1695L42.6614 27.816C41.3038 25.8807 38.8197 25.6641 36.1767 24.5231L36.2056 24.552Z" fill="white"/>
<path fill-rule="evenodd" clip-rule="evenodd" d="M26.9624 25.707C26.1969 24.7249 24.2761 24.1905 23.1207 25.1004C22.9185 25.2448 23.3951 24.5805 24.3194 24.2627C27.7712 23.6995 23.1063 21.4176 21.9076 26.0392C22.0375 25.1582 22.2397 24.7971 22.3408 24.5227C22.803 23.2085 21.041 22.8618 21.2143 25.9092C21.0555 25.5481 20.6944 25.4615 20.4633 25.6203C19.8134 26.0247 20.5644 26.6169 21.2143 27.6134C20.5789 27.2956 17.4304 26.7613 16.7228 30.1119C16.275 32.2638 18.6003 33.8669 20.16 32.7693C20.8388 32.2638 20.8822 31.3684 20.2178 31.0795C19.409 30.7185 18.7302 31.3106 18.7014 31.3106C17.1849 31.455 17.7771 28.1189 20.1312 28.3644C23.1063 28.6677 23.7417 34.9645 15.7551 33.9825C12.289 33.5347 7.40744 32.0183 4.77893 36.0333C3.11806 38.5462 4.34566 41.117 4.53341 41.868C4.79337 42.9367 2.19375 44.7709 1.42831 43.1534C0.735072 41.6658 -0.550297 43.2833 0.258475 44.4243C0.951708 45.4641 3.08918 45.4641 4.27345 44.2799C5.03889 47.876 6.56978 47.2694 5.7899 45.7241C5.39995 45.0309 5.77545 45.7819 6.51201 46.2151C7.49409 46.8362 8.73614 46.4173 7.04638 45.3486C6.39648 44.9731 5.94876 44.5831 5.52993 44.0488C8.0429 46.7206 10.0648 44.3376 8.11512 43.3411C10.0359 43.3844 11.8268 42.3013 12.3034 40.3804C13.7043 39.6439 15.3796 39.7594 15.2641 41.2181C15.2063 41.7669 14.6286 42.2724 14.3975 42.2435C14.2242 42.229 14.0365 42.1424 13.9209 42.229C13.8054 42.3013 13.7476 42.5034 13.9498 42.8067C14.5853 43.7166 16.1739 42.7634 16.1162 41.2181C16.0584 40.0627 15.1774 39.3117 14.0509 39.4272C12.4623 39.5861 12.3178 40.4382 12.3901 39.8605C14.4409 38.2574 15.5385 39.9183 16.0873 39.355C16.535 38.8495 14.9463 37.4197 12.8811 38.7918C13.3432 38.3874 13.5743 38.3585 13.8632 38.2285C15.1919 37.6364 13.7187 36.1632 12.2456 38.4163C11.2058 35.4989 6.61311 36.1632 6.51201 39.4128C6.45424 41.1747 8.90944 41.8824 8.96721 40.366C8.98166 39.8749 8.59171 39.1961 8.34619 39.225C7.89848 39.3695 8.08623 37.5497 9.93485 37.7664C12.1156 38.0119 11.8846 41.738 8.80835 42.2579C3.04585 43.1678 3.17583 33.6792 11.408 34.4013C13.1266 34.9356 14.3398 36.5965 15.2641 37.0442C15.7984 37.3475 16.3617 37.2609 16.4339 36.9865C16.5495 36.5243 15.6829 36.2355 16.6361 36.6687C17.7771 37.1887 19.3224 37.4919 19.3224 36.8132C19.3224 36.2643 17.8204 36.1199 16.9394 35.86C13.5454 34.8779 11.9857 33.9247 15.3219 35.2823C19.0624 36.7698 21.4743 35.73 21.3154 35.1667C21.171 34.6179 19.1924 35.1378 18.1814 35.1812C17.8059 35.2101 15.4085 35.0367 17.2571 35.0945C21.5321 35.2678 23.7562 32.4949 22.8463 29.953C22.3408 28.4944 21.9364 29.1731 22.3408 27.8156C23.4673 23.9595 26.6735 26.7324 25.3593 27.079C25.316 27.0934 23.9151 27.209 24.8105 28.1477C26.0814 29.3898 28.19 27.2668 26.9335 25.6781L26.9624 25.707Z" fill="white"/>
<path fill-rule="evenodd" clip-rule="evenodd" d="M14.1085 51.9344C13.8774 51.7177 13.7041 51.27 13.8774 50.6634C14.0652 50.1002 13.1264 49.508 12.852 50.3313C12.8087 50.4324 12.5198 49.5514 13.3286 49.3781C13.9063 49.2481 14.1374 50.1291 14.1807 50.1579C14.6573 50.6779 15.5238 49.0603 14.1229 48.4826C13.3719 48.1793 12.5487 48.6271 12.231 49.277C12.2887 48.6415 12.7942 48.396 12.3176 47.9049C11.9855 47.5728 11.3067 47.8183 11.3933 48.9592C9.08254 45.4786 13.0109 43.0812 14.3251 45.2187C14.9895 46.3018 12.8953 47.775 12.8809 45.4931C12.8809 45.2042 12.2887 45.262 12.0288 45.6808C11.3067 46.7784 13.2853 48.5982 14.7584 47.0673C15.9715 45.8541 14.8884 44.1066 13.5741 43.8033C11.9277 43.4134 10.2813 44.3666 9.97797 46.4607C9.71801 48.1793 10.9023 49.7391 12.361 51.2122C10.0502 49.7102 8.28821 50.1002 7.52277 50.7068C6.6129 51.4289 6.87286 52.4398 7.62387 52.0499C8.23044 51.7322 8.57706 51.2844 9.47249 51.1834C9.51581 51.1834 9.5447 51.1689 9.57358 51.1689C9.24141 51.2411 7.92715 51.6455 7.92715 53.1042C7.88383 55.1117 10.0502 55.8482 10.7723 54.4907C11.1767 53.7252 10.7867 52.2376 10.1946 53.5519C9.67468 54.6351 8.89479 53.913 8.83702 53.0753C8.72148 51.4433 11.5522 51.3133 13.0831 52.1654C13.4297 52.3532 13.8052 52.6276 14.1518 52.9164C15.8127 54.5051 17.2714 56.0504 16.8959 57.6391C16.5926 58.91 15.8271 59.531 14.5706 59.2422C13.0397 58.8811 13.0686 56.4837 14.1374 56.1371C15.4516 55.7183 14.8595 57.4225 15.3794 57.7257C16.0726 58.1012 16.7225 56.1948 15.2928 55.5305C13.4586 54.6784 11.9999 56.5848 12.7942 58.4334C11.6822 56.787 13.1986 55.6172 12.4765 55.0828C11.6244 54.4762 10.5845 57.408 12.6065 58.9533C11.9566 58.9967 11.4655 59.3722 11.2633 59.9065C10.7001 61.3941 12.4621 62.3184 13.1986 61.5096C13.603 61.0475 13.1264 60.7731 12.4765 60.7298C11.7111 60.6142 11.9277 59.8199 12.2743 59.5455C13.3575 58.6067 13.2419 60.051 15.1483 60.051C15.8993 60.051 16.5492 59.7621 17.0258 59.1266C16.6503 59.9787 16.2026 60.1665 15.3794 60.2243C11.5811 60.4698 18.0079 63.416 17.7768 58.0724C17.8924 59.1989 17.748 59.7766 17.6902 60.2243C17.5313 61.7985 19.6399 61.6396 18.3545 57.899C20.8531 58.7078 15.9138 53.5519 14.1518 51.8766L14.1085 51.9344Z" fill="white"/>
<path fill-rule="evenodd" clip-rule="evenodd" d="M58.216 25.707C58.9815 24.7249 60.9023 24.1905 62.0577 25.1004C62.2599 25.2448 61.7833 24.5805 60.859 24.2627C57.4073 23.6995 62.0722 21.4176 63.2709 26.0392C63.1409 25.1582 62.9387 24.7971 62.8376 24.5227C62.3754 23.2085 64.1374 22.8618 63.9641 25.9092C64.123 25.5481 64.484 25.4615 64.7151 25.6203C65.365 26.0247 64.614 26.6169 63.9641 27.6134C64.5996 27.2956 67.748 26.7613 68.4557 30.1119C68.9034 32.2638 66.5782 33.8669 65.0184 32.7693C64.3396 32.2638 64.2963 31.3684 64.9606 31.0795C65.7694 30.7185 66.4482 31.3106 66.4771 31.3106C67.9935 31.455 67.4014 28.1189 65.0473 28.3644C62.0722 28.6677 61.4367 34.9645 69.4233 33.9825C72.8895 33.5347 77.771 32.0183 80.3995 36.0333C82.0604 38.5462 80.8183 41.117 80.645 41.868C80.3851 42.9367 82.9847 44.7709 83.7501 43.1534C84.4434 41.6658 85.7287 43.2833 84.92 44.4243C84.2267 45.4641 82.0893 45.4641 80.905 44.2799C80.1395 47.876 78.6086 47.2694 79.3885 45.7241C79.7785 45.0309 79.403 45.7819 78.6664 46.2151C77.6699 46.8362 76.4423 46.4173 78.1321 45.3486C78.782 44.9731 79.2297 44.5831 79.6485 44.0488C77.1355 46.7206 75.1136 44.3376 77.0633 43.3411C75.1425 43.3844 73.3516 42.3013 72.875 40.3804C71.4741 39.6439 69.7988 39.7594 69.9144 41.2181C69.9721 41.7669 70.5498 42.2724 70.7809 42.2435C70.9542 42.229 71.142 42.1424 71.2575 42.229C71.373 42.3013 71.4308 42.5034 71.2286 42.8067C70.5931 43.7166 69.0045 42.7634 69.0623 41.2181C69.12 40.0627 69.9866 39.3117 71.1275 39.4272C72.7162 39.5861 72.8606 40.4382 72.7884 39.8605C70.7376 38.2574 69.6399 39.9183 69.0911 39.355C68.6434 38.8495 70.2321 37.4197 72.2973 38.7918C71.8352 38.3874 71.6041 38.3585 71.3153 38.2285C69.9866 37.6364 71.4597 36.1632 72.9328 38.4163C73.9727 35.4989 78.5653 36.1632 78.6664 39.4128C78.7242 41.1747 76.269 41.8824 76.2112 40.366C76.1968 39.8749 76.5867 39.1961 76.8322 39.225C77.28 39.3695 77.0922 37.5497 75.2436 37.7664C73.0628 38.0119 73.2939 41.738 76.3701 42.2579C82.1326 43.1678 82.0026 33.6792 73.7705 34.4013C72.0518 34.9356 70.8387 36.5965 69.9144 37.0442C69.38 37.3475 68.8167 37.2609 68.7445 36.9865C68.629 36.5243 69.4955 36.2355 68.5423 36.6687C67.4014 37.1887 65.8561 37.4919 65.8561 36.8132C65.8561 36.2643 67.3581 36.1199 68.239 35.86C71.633 34.8779 73.1928 33.9247 69.8566 35.2823C66.116 36.7698 63.7041 35.73 63.863 35.1667C64.0074 34.6179 65.986 35.1378 66.997 35.1812C67.3725 35.2101 69.7699 35.0367 67.9213 35.0945C63.6464 35.2678 61.4222 32.4949 62.3321 29.953C62.8376 28.4944 63.242 29.1731 62.8376 27.8156C61.7111 23.9595 58.5049 26.7324 59.8191 27.079C59.8769 27.0934 61.2634 27.209 60.368 28.1477C59.097 29.3898 56.9884 27.2668 58.2449 25.6781L58.216 25.707Z" fill="white"/>
<path fill-rule="evenodd" clip-rule="evenodd" d="M71.0707 51.9344C71.3018 51.7177 71.4751 51.27 71.3018 50.6634C71.1141 50.1002 72.0528 49.508 72.3272 50.3313C72.3706 50.4324 72.6594 49.5514 71.8506 49.3781C71.2729 49.2481 71.0419 50.1291 70.9985 50.1579C70.5219 50.6779 69.6554 49.0603 71.0563 48.4826C71.8073 48.1793 72.6305 48.6271 72.9483 49.277C72.8905 48.6415 72.385 48.396 72.8616 47.9049C73.1938 47.5728 73.8726 47.8183 73.7859 48.9592C76.0967 45.4786 72.1684 43.0812 70.8541 45.2187C70.1898 46.3018 72.2839 47.775 72.2983 45.4931C72.2983 45.2042 72.8905 45.262 73.1504 45.6808C73.8726 46.7784 71.894 48.5982 70.4208 47.0673C69.2077 45.8541 70.2909 44.1066 71.6051 43.8033C73.2515 43.4134 74.898 44.3666 75.2013 46.4607C75.4612 48.1793 74.2769 49.7391 72.8183 51.2122C75.129 49.7102 76.891 50.1002 77.6565 50.7068C78.5663 51.4289 78.3064 52.4398 77.5554 52.0499C76.9488 51.7322 76.6022 51.2844 75.7067 51.1834C75.6634 51.1834 75.6345 51.1689 75.6056 51.1689C75.9378 51.2411 77.2521 51.6455 77.2521 53.1042C77.2954 55.1117 75.129 55.8482 74.4069 54.4907C74.0025 53.7252 74.3925 52.2376 74.9846 53.5519C75.5045 54.6351 76.2844 53.913 76.3422 53.0753C76.4577 51.4433 73.627 51.3133 72.0962 52.1654C71.7495 52.3532 71.374 52.6276 71.0274 52.9164C69.3665 54.5051 67.9079 56.0504 68.2834 57.6391C68.5867 58.91 69.3521 59.531 70.6086 59.2422C72.1395 58.8811 72.1106 56.4837 71.0419 56.1371C69.7276 55.7183 70.3197 57.4225 69.7998 57.7257C69.1066 58.1012 68.4567 56.1948 69.8865 55.5305C71.7207 54.6784 73.1793 56.5848 72.385 58.4334C73.4971 56.787 71.9806 55.6172 72.7027 55.0828C73.5548 54.4762 74.5947 57.408 72.5728 58.9533C73.2227 58.9967 73.7137 59.3722 73.9159 59.9065C74.4791 61.3941 72.7172 62.3184 71.9806 61.5096C71.5762 61.0475 72.0528 60.7731 72.7027 60.7298C73.4682 60.6142 73.2515 59.8199 72.9049 59.5455C71.8217 58.6067 71.9373 60.051 70.0309 60.051C69.2799 60.051 68.63 59.7621 68.1534 59.1266C68.5289 59.9787 68.9766 60.1665 69.7998 60.2243C73.5982 60.4698 67.1713 63.416 67.4024 58.0724C67.2868 59.1989 67.4313 59.7766 67.489 60.2243C67.6479 61.7985 65.5393 61.6396 66.8247 57.899C64.3262 58.7078 69.2655 53.5519 71.0274 51.8766L71.0707 51.9344Z" fill="white"/>
<path d="M33.4768 27.2669C31.1082 27.6857 28.913 27.8735 25.9379 30.1987C25.4902 36.7411 22.7895 38.2431 17.5469 39.3263C20.031 58.3469 22.6739 68.9764 42.8354 78.6817C63.7769 69.6119 65.6977 54.7218 67.7485 39.2252C61.8993 39.1096 58.0144 34.5747 59.5741 29.9676C56.7723 28.4223 55.4581 27.6713 51.8619 27.1514" stroke="white" stroke-width="1.0351" stroke-linecap="round" stroke-linejoin="round"/>
<path d="M39.4127 72.7459H38.9939V70.074C38.8928 70.1751 38.7628 70.2618 38.604 70.3629C38.4451 70.464 38.2862 70.5362 38.1562 70.5795V70.1751C38.3873 70.0596 38.5895 69.9296 38.7628 69.7707C38.9361 69.6119 39.0661 69.4675 39.1383 69.3086H39.4127V72.7314V72.7459ZM40.5537 71.9515L40.9581 71.9227C40.987 72.1104 41.0592 72.2548 41.1603 72.327C41.2614 72.4137 41.3769 72.457 41.5358 72.457C41.6657 72.457 41.7813 72.4281 41.8679 72.3704C41.969 72.3126 42.0412 72.2404 42.099 72.1393C42.1568 72.0382 42.2146 71.9082 42.2579 71.7349C42.3012 71.5616 42.3156 71.4027 42.3156 71.2294C42.3156 71.215 42.3156 71.1861 42.3156 71.1428C42.229 71.2728 42.1135 71.3883 41.969 71.4605C41.8246 71.5472 41.6657 71.5905 41.5069 71.5905C41.2325 71.5905 40.987 71.4894 40.7992 71.2872C40.6115 71.085 40.5104 70.8106 40.5104 70.4784C40.5104 70.1318 40.6115 69.8574 40.8136 69.6408C41.0158 69.4241 41.2758 69.323 41.5791 69.323C41.7957 69.323 41.9979 69.3808 42.1857 69.4963C42.3734 69.6119 42.5034 69.7852 42.6045 70.0018C42.7056 70.2185 42.7489 70.5362 42.7489 70.955C42.7489 71.3883 42.7056 71.7349 42.6045 71.9949C42.5034 72.2548 42.3734 72.4426 42.1857 72.587C41.9979 72.717 41.7813 72.7892 41.5358 72.7892C41.2758 72.7892 41.0592 72.717 40.8859 72.5726C40.7125 72.4281 40.6115 72.2115 40.5826 71.9515H40.5537ZM42.2579 70.4495C42.2579 70.204 42.2001 70.0163 42.0701 69.8863C41.9401 69.7419 41.7957 69.6697 41.608 69.6697C41.4202 69.6697 41.2614 69.7419 41.1169 69.9007C40.987 70.0452 40.9147 70.2473 40.9147 70.4929C40.9147 70.7095 40.987 70.8828 41.1025 71.0272C41.2325 71.1572 41.3913 71.2294 41.5935 71.2294C41.7813 71.2294 41.9401 71.1572 42.0701 71.0272C42.2001 70.8973 42.2579 70.7095 42.2579 70.464V70.4495ZM43.1966 71.9515L43.601 71.9227C43.6299 72.1104 43.7021 72.2548 43.8032 72.327C43.9043 72.4137 44.0198 72.457 44.1787 72.457C44.3087 72.457 44.4242 72.4281 44.5109 72.3704C44.612 72.3126 44.6842 72.2404 44.742 72.1393C44.7997 72.0382 44.8575 71.9082 44.9008 71.7349C44.9442 71.5616 44.9586 71.4027 44.9586 71.2294C44.9586 71.215 44.9586 71.1861 44.9586 71.1428C44.8719 71.2728 44.7564 71.3883 44.612 71.4605C44.4676 71.5472 44.3087 71.5905 44.1498 71.5905C43.8754 71.5905 43.6299 71.4894 43.4422 71.2872C43.2544 71.085 43.1533 70.8106 43.1533 70.4784C43.1533 70.1318 43.2544 69.8574 43.4566 69.6408C43.6588 69.4241 43.9187 69.323 44.222 69.323C44.4387 69.323 44.6409 69.3808 44.8286 69.4963C45.0164 69.6119 45.1463 69.7852 45.2474 70.0018C45.3485 70.2185 45.3919 70.5362 45.3919 70.955C45.3919 71.3883 45.3485 71.7349 45.2474 71.9949C45.1463 72.2548 45.0164 72.4426 44.8286 72.587C44.6409 72.717 44.4242 72.7892 44.1787 72.7892C43.9187 72.7892 43.7021 72.717 43.5288 72.5726C43.3555 72.4281 43.2544 72.2115 43.2255 71.9515H43.1966ZM44.9008 70.4495C44.9008 70.204 44.8431 70.0163 44.7131 69.8863C44.5831 69.7419 44.4387 69.6697 44.2509 69.6697C44.0632 69.6697 43.9043 69.7419 43.7599 69.9007C43.6299 70.0452 43.5577 70.2473 43.5577 70.4929C43.5577 70.7095 43.6299 70.8828 43.7454 71.0272C43.8754 71.1572 44.0343 71.2294 44.2365 71.2294C44.4242 71.2294 44.5831 71.1572 44.7131 71.0272C44.8431 70.8973 44.9008 70.7095 44.9008 70.464V70.4495ZM47.3416 72.7459H46.9228V70.074C46.8217 70.1751 46.6917 70.2618 46.5328 70.3629C46.3739 70.464 46.2151 70.5362 46.0851 70.5795V70.1751C46.3162 70.0596 46.5184 69.9296 46.6917 69.7707C46.865 69.6119 46.995 69.4675 47.0672 69.3086H47.3416V72.7314V72.7459Z" fill="white"/>
<path fill-rule="evenodd" clip-rule="evenodd" d="M40.106 13.3302C36.9431 14.8756 41.2325 20.4359 42.6479 20.0604C44.2798 20.1181 47.9193 15.1933 45.0597 13.5469C44.7998 13.4024 42.6334 13.2725 42.6334 13.2725L40.106 13.3302Z" stroke="white" stroke-width="0.103513" stroke-linecap="round" stroke-linejoin="round"/>
<path fill-rule="evenodd" clip-rule="evenodd" d="M40.106 13.3302C36.9431 14.8756 41.2325 20.4359 42.6479 20.0604C44.2798 20.1181 47.9193 15.1933 45.0597 13.5469C44.7998 13.4024 42.6334 13.2725 42.6334 13.2725L40.106 13.3302Z" fill="white"/>
<path fill-rule="evenodd" clip-rule="evenodd" d="M35.584 10.8902L42.5308 9.0127L49.2753 10.948V13.3454C49.9397 14.7174 48.1488 14.2842 48.9432 13.3165L48.9287 11.1646L42.6463 12.5655L35.584 10.9046V10.8902Z" stroke="white" stroke-width="0.388158" stroke-linecap="round" stroke-linejoin="round"/>
<path fill-rule="evenodd" clip-rule="evenodd" d="M35.584 10.8902L42.5308 9.0127L49.2753 10.948V13.3454C49.9397 14.7174 48.1488 14.2842 48.9432 13.3165L48.9287 11.1646L42.6463 12.5655L35.584 10.9046V10.8902Z" fill="white"/>
<path fill-rule="evenodd" clip-rule="evenodd" d="M41.9954 17.5188C41.7499 15.9445 41.6199 15.7279 40.0312 15.3091C40.4212 16.6811 40.7678 16.9988 41.9954 17.5188Z" stroke="white" stroke-width="0.10826" stroke-linecap="round" stroke-linejoin="round"/>
<path fill-rule="evenodd" clip-rule="evenodd" d="M41.9954 17.5188C41.7499 15.9445 41.6199 15.7279 40.0312 15.3091C40.4212 16.6811 40.7678 16.9988 41.9954 17.5188Z" fill="#002F55"/>
<path fill-rule="evenodd" clip-rule="evenodd" d="M43.2246 17.5612C43.4701 15.987 43.6001 15.7704 45.1888 15.3516C44.7988 16.7236 44.4522 17.0413 43.2246 17.5612Z" stroke="white" stroke-width="0.10826" stroke-linecap="round" stroke-linejoin="round"/>
<path fill-rule="evenodd" clip-rule="evenodd" d="M43.2246 17.5612C43.4701 15.987 43.6001 15.7704 45.1888 15.3516C44.7988 16.7236 44.4522 17.0413 43.2246 17.5612Z" fill="#002F55"/>
<path fill-rule="evenodd" clip-rule="evenodd" d="M42.2852 17.7349H43.0939L42.6607 19.3668L42.2852 17.7349Z" stroke="white" stroke-width="0.10826" stroke-linecap="round" stroke-linejoin="round"/>
<path fill-rule="evenodd" clip-rule="evenodd" d="M42.2852 17.7349H43.0939L42.6607 19.3668L42.2852 17.7349Z" fill="#002F55"/>
<path fill-rule="evenodd" clip-rule="evenodd" d="M39.4127 13.3308L39.1094 12.3198L42.6766 13.3308L46.0561 12.4209L45.7817 13.6918L42.6333 15.3238L39.4127 13.3308Z" stroke="#062E62" stroke-width="0.388158" stroke-linecap="round" stroke-linejoin="round"/>
<path fill-rule="evenodd" clip-rule="evenodd" d="M39.4127 13.3308L39.1094 12.3198L42.6766 13.3308L46.0561 12.4209L45.7817 13.6918L42.6333 15.3238L39.4127 13.3308Z" fill="white"/>
<path fill-rule="evenodd" clip-rule="evenodd" d="M47.5148 23.5986C44.3519 24.754 44.4097 25.0862 42.7344 27.1948C44.2508 24.8118 45.074 23.9597 47.5148 23.5986Z" stroke="white" stroke-width="0.039426" stroke-linecap="round" stroke-linejoin="round"/>
<path fill-rule="evenodd" clip-rule="evenodd" d="M47.5148 23.5986C44.3519 24.754 44.4097 25.0862 42.7344 27.1948C44.2508 24.8118 45.074 23.9597 47.5148 23.5986Z" fill="white"/>
<path fill-rule="evenodd" clip-rule="evenodd" d="M48.0617 24.5813C44.7544 25.2456 44.7688 25.5778 42.8047 27.412C44.6678 25.2889 45.6065 24.5668 48.0617 24.5813Z" stroke="white" stroke-width="0.039426" stroke-linecap="round" stroke-linejoin="round"/>
<path fill-rule="evenodd" clip-rule="evenodd" d="M48.0617 24.5813C44.7544 25.2456 44.7688 25.5778 42.8047 27.412C44.6678 25.2889 45.6065 24.5668 48.0617 24.5813Z" fill="white"/>
<path fill-rule="evenodd" clip-rule="evenodd" d="M37.8945 23.4111C41.0574 24.5665 40.9996 24.8987 42.675 27.0073C41.1585 24.6243 40.3353 23.7722 37.8945 23.4111Z" stroke="white" stroke-width="0.039426" stroke-linecap="round" stroke-linejoin="round"/>
<path fill-rule="evenodd" clip-rule="evenodd" d="M37.8945 23.4111C41.0574 24.5665 40.9996 24.8987 42.675 27.0073C41.1585 24.6243 40.3353 23.7722 37.8945 23.4111Z" fill="white"/>
<path fill-rule="evenodd" clip-rule="evenodd" d="M37.3477 24.4074C40.655 25.0718 40.6405 25.404 42.6047 27.2381C40.7416 25.1151 39.8029 24.393 37.3477 24.4074Z" stroke="white" stroke-width="0.039426" stroke-linecap="round" stroke-linejoin="round"/>
<path fill-rule="evenodd" clip-rule="evenodd" d="M37.3477 24.4074C40.655 25.0718 40.6405 25.404 42.6047 27.2381C40.7416 25.1151 39.8029 24.393 37.3477 24.4074Z" fill="white"/>
<path fill-rule="evenodd" clip-rule="evenodd" d="M34.1133 8.95406C38.7637 4.75134 45.2772 4.30363 50.982 9.05516C50.7509 9.66174 50.4909 9.82061 49.6821 9.6473C45.7394 6.22446 39.8325 5.93561 35.4564 9.4451C34.7199 9.69062 34.4021 9.47399 34.1133 8.95406Z" fill="white"/>
<path d="M40.6976 44.1499C41.0875 44.2366 41.4486 44.3665 41.7952 44.5543C42.1418 44.742 42.4307 44.9731 42.6906 45.2331C42.9506 45.493 43.1528 45.8108 43.3117 46.1574C43.4705 46.504 43.5427 46.8939 43.5427 47.2983C43.5427 47.9194 43.3839 48.5115 43.0661 49.0603C42.7484 49.6091 42.344 50.1002 41.8385 50.5045C41.3475 50.9234 40.7842 51.2555 40.1777 51.5011C39.5711 51.7466 38.9645 51.8621 38.3868 51.8621C38.0691 51.8621 37.7658 51.8188 37.4769 51.7177C37.1881 51.6166 36.9426 51.4866 36.7115 51.3133C36.4949 51.14 36.3071 50.9234 36.1771 50.6778C36.0471 50.4323 35.9749 50.1435 35.9749 49.8257C35.9749 49.3347 36.0905 48.9014 36.336 48.4971C36.5815 48.1071 36.827 47.7749 37.0726 47.5294C37.1737 47.4283 37.2747 47.3272 37.4047 47.2117C37.5347 47.0961 37.6503 46.995 37.7658 46.9084C37.8813 46.8217 37.968 46.7495 38.0546 46.6918C38.1413 46.634 38.1846 46.6051 38.1991 46.6051C38.2713 46.6051 38.3002 46.6484 38.3002 46.7351C38.3002 46.7784 38.2135 46.8506 38.0402 46.9806C37.8669 47.0961 37.6214 47.3128 37.3036 47.6161C36.9859 47.9194 36.7259 48.266 36.5237 48.6559C36.3216 49.0459 36.2205 49.4069 36.2205 49.7391C36.2205 50.3168 36.4082 50.7789 36.7982 51.1111C37.1881 51.4433 37.6647 51.6166 38.2279 51.6166C38.8056 51.6166 39.34 51.4722 39.831 51.1689C40.3076 50.8656 40.7265 50.4901 41.0875 50.0135C41.4486 49.5369 41.723 49.0314 41.9107 48.4682C42.0985 47.9049 42.1996 47.3705 42.1996 46.8362C42.1996 46.3596 42.1418 45.9696 42.0263 45.6519C41.9107 45.3342 41.7808 45.0742 41.6075 44.872C41.4341 44.6698 41.2464 44.5254 41.0442 44.4387C40.842 44.3521 40.6254 44.3088 40.4232 44.3088C40.2499 44.3088 40.1343 44.3232 40.0332 44.3521C39.9466 44.381 39.8455 44.4099 39.7588 44.4387C39.6722 44.4676 39.5711 44.4965 39.4411 44.5254C39.3256 44.5543 39.1523 44.5687 38.9501 44.5687C38.6901 44.5687 38.5601 44.4676 38.5601 44.2799C38.5601 44.1643 38.6179 44.0921 38.7334 44.0344C38.849 43.9766 39.0656 43.9477 39.3689 43.9477C39.5711 43.9477 39.73 43.9477 39.8455 43.9622C39.9466 43.9766 40.0477 43.9766 40.1343 43.9766C40.5532 43.9766 40.9287 43.8611 41.2753 43.6155C41.6219 43.3845 41.9107 43.0812 42.1563 42.7346C42.3873 42.3735 42.5751 41.998 42.7051 41.5792C42.8351 41.1603 42.9073 40.7704 42.9073 40.3949C42.9073 39.8605 42.8351 39.4417 42.6762 39.0951C42.5173 38.7629 42.2718 38.4885 41.9107 38.2574C41.2753 38.6907 40.6976 39.2251 40.1921 39.8605C39.6866 40.496 39.2389 41.1603 38.8201 41.868C38.4013 42.5757 38.0113 43.2978 37.6358 44.0199C37.2603 44.742 36.8704 45.4208 36.4949 46.0419C36.076 46.7062 35.585 47.385 35.0362 48.0927C34.4729 48.7859 33.8664 49.4214 33.202 49.9702C32.5377 50.5334 31.8155 50.9811 31.0357 51.3422C30.2702 51.7033 29.447 51.8766 28.5805 51.8766C28.2194 51.8766 27.8872 51.8332 27.5839 51.7466C27.2806 51.6599 27.0062 51.5299 26.7752 51.3566C26.5441 51.1833 26.3708 50.9956 26.2408 50.7789C26.1108 50.5623 26.053 50.3312 26.053 50.0857C26.053 49.8546 26.1397 49.6524 26.2986 49.4936C26.4719 49.3347 26.6741 49.2481 26.9051 49.2481C27.4251 49.2481 27.6706 49.4936 27.6706 49.9991C27.6706 50.1435 27.6417 50.2735 27.5695 50.389C27.4973 50.5045 27.4684 50.6201 27.4684 50.7356C27.4684 50.9667 27.555 51.1833 27.7428 51.3566C27.9305 51.5444 28.2338 51.631 28.6815 51.631C29.2448 51.631 29.7936 51.5444 30.328 51.3566C30.8768 51.1689 31.4112 50.8656 31.9311 50.4179C32.4654 49.9702 32.9998 49.378 33.5486 48.627C34.0974 47.876 34.6607 46.9373 35.2528 45.7963C35.715 44.9009 36.1627 44.0921 36.6248 43.3556C37.0726 42.619 37.5636 41.9402 38.0691 41.3048C38.5746 40.6837 39.1234 40.106 39.7011 39.5717C40.2788 39.0373 40.9287 38.5463 41.6219 38.0841C41.0153 37.8097 40.3654 37.6075 39.6866 37.5064C39.0078 37.3909 38.329 37.3331 37.6358 37.3331C36.8559 37.3331 36.0616 37.4342 35.2384 37.622C35.5561 37.9108 35.7872 38.3007 35.9316 38.7629C36.076 39.2395 36.1482 39.6872 36.1482 40.106C36.1482 40.857 35.9749 41.6225 35.6428 42.4024C35.2961 43.1823 34.8484 43.8899 34.2707 44.511C33.693 45.132 33.0431 45.6519 32.2921 46.0419C31.5411 46.4318 30.7612 46.634 29.938 46.634C29.317 46.634 28.7826 46.4462 28.3349 46.0707C27.9017 45.6952 27.6706 45.132 27.6706 44.3954C27.6706 43.6011 27.9017 42.8356 28.3494 42.0846C28.7971 41.3336 29.3748 40.6549 30.068 40.0338C30.7612 39.4128 31.5267 38.8929 32.3499 38.4452C33.1731 38.0119 33.9675 37.6942 34.7185 37.5209C34.3863 37.2609 34.0108 37.0587 33.6064 36.9432C33.202 36.8276 32.7976 36.7699 32.3788 36.7699C31.8155 36.7699 31.2956 36.8565 30.7757 37.0154C30.2702 37.1742 29.7936 37.3909 29.3603 37.6364C28.9271 37.8964 28.5227 38.1852 28.1761 38.5029C27.8294 38.8207 27.5406 39.1528 27.324 39.485C27.0062 39.9472 26.7607 40.3227 26.6018 40.626C26.443 40.9293 26.3274 41.1603 26.2552 41.3336C26.183 41.507 26.1397 41.6225 26.1253 41.6947C26.1108 41.7525 26.0819 41.7958 26.0386 41.7958C25.9664 41.7958 25.9375 41.7669 25.9375 41.6947C25.9375 41.6369 26.0242 41.4059 26.1975 40.9726C26.3708 40.5538 26.6741 40.0338 27.1073 39.4417C27.3817 39.0518 27.7139 38.6762 28.1039 38.3296C28.4794 37.9686 28.8982 37.6653 29.3603 37.4053C29.8081 37.1454 30.2991 36.9287 30.8046 36.7843C31.3245 36.6254 31.8444 36.5532 32.3932 36.5532C32.8698 36.5532 33.332 36.6254 33.7797 36.7843C34.2274 36.9432 34.6462 37.1598 35.0073 37.4486C35.4695 37.3331 35.9172 37.2465 36.3649 37.1887C36.8126 37.1309 37.2603 37.0876 37.708 37.0876C39.1811 37.0876 40.582 37.362 41.9252 37.8964C42.1563 37.7664 42.4018 37.6364 42.6617 37.5064C42.9217 37.362 43.1528 37.3042 43.3839 37.3042C43.4416 37.3042 43.4705 37.3331 43.4705 37.3909C43.4705 37.4198 43.4416 37.4486 43.3839 37.4631C43.3261 37.4775 43.2539 37.5064 43.1383 37.5497C43.0372 37.5786 42.9073 37.6364 42.7484 37.7231C42.5895 37.7953 42.4162 37.9108 42.1996 38.0408C42.7773 38.3296 43.225 38.7196 43.5716 39.1817C43.9182 39.6583 44.0915 40.2071 44.0915 40.8282C44.0915 41.2759 43.9904 41.6803 43.7738 42.0413C43.5716 42.4024 43.2972 42.7201 42.965 42.9945C42.6329 43.2689 42.2574 43.5 41.853 43.6877C41.4486 43.8755 41.0586 44.0055 40.6687 44.1066V44.1499H40.6976ZM28.0028 44.4821C28.0028 45.0453 28.1616 45.4786 28.4794 45.8252C28.7971 46.1574 29.2737 46.3307 29.9091 46.3307C30.5879 46.3307 31.2667 46.0996 31.9311 45.6519C32.5954 45.2042 33.202 44.6409 33.7364 43.9766C34.2707 43.3122 34.704 42.6046 35.0362 41.8536C35.3684 41.1026 35.5272 40.4238 35.5272 39.8028C35.5272 39.2973 35.4695 38.8784 35.3684 38.5318C35.2673 38.1852 35.1228 37.9108 34.9351 37.7231C34.2419 37.8964 33.4909 38.1708 32.6821 38.5607C31.8733 38.9507 31.1223 39.4417 30.4291 40.0194C29.7358 40.5971 29.1581 41.2759 28.696 42.0269C28.2338 42.7779 28.0028 43.6011 28.0028 44.4965V44.4821Z" fill="white" stroke="white" stroke-width="0.308257"/>
<path fill-rule="evenodd" clip-rule="evenodd" d="M56.7844 60.2675L55.6435 61.3218C51.3397 64.7013 43.7141 64.5569 43.7285 58.7077C43.743 54.3028 47.9746 49.4646 52.7406 48.2659C55.6435 47.7315 56.7267 48.1648 58.3586 49.8545L58.9219 49.6523L59.1096 50.3311L58.3731 50.5333C58.4164 51.2699 57.5932 52.2664 56.77 52.6564C55.2391 53.3785 53.5927 51.241 56.9866 49.7101C56.1778 48.7569 54.6181 48.8869 53.5493 49.0169C50.502 49.3924 47.4691 52.1509 46.2559 54.6783C44.855 57.5812 45.1294 61.1196 47.5413 62.0583C49.5777 62.8527 52.6972 62.6216 54.2715 61.0907C54.6758 60.7008 54.878 60.3686 54.8636 59.7764C55.629 58.0867 57.7809 58.7944 56.77 60.2675H56.7844ZM57.4777 50.5478C54.6758 51.3132 56.9 53.0607 57.4777 50.5478V50.5478Z" fill="white"/>
<path d="M20.4051 83.9968C20.7228 84.2134 20.925 84.4301 21.0406 84.6612C21.1561 84.8922 21.1705 85.1089 21.0839 85.3544C20.9972 85.5999 20.8095 85.8021 20.5206 85.9321C20.2318 86.0765 19.8852 86.0621 19.4663 85.9176C19.3941 85.8888 19.2641 85.8454 19.1053 85.7732C19.0042 85.7299 18.9464 85.701 18.932 85.701C18.3543 85.4988 17.9643 85.3688 17.7621 85.3111C17.6899 85.2822 17.661 85.2533 17.6755 85.2244C17.6755 85.21 17.6899 85.1955 17.7188 85.1955C17.7477 85.1955 17.8199 85.21 17.9499 85.2244C18.0221 85.2388 18.0943 85.2244 18.1521 85.1955C18.2099 85.1666 18.2821 85.0655 18.3543 84.9211C18.4265 84.7767 18.5276 84.5456 18.6287 84.2423C18.7298 83.939 18.8309 83.6935 18.9031 83.5202C18.9753 83.3325 19.0331 83.2025 19.062 83.1014C19.1775 82.7981 19.2497 82.5526 19.293 82.3504C19.3364 82.1626 19.3364 82.0326 19.3219 81.9604C19.293 81.8882 19.2208 81.8304 19.0908 81.7582C19.0331 81.7294 19.0186 81.7005 19.0331 81.6716C19.0475 81.6427 19.0764 81.6283 19.1342 81.6427L19.6396 81.8304C19.7985 81.8882 19.9574 81.946 20.1162 81.9893C20.4484 82.0904 20.6651 82.1626 20.7517 82.1915C21.0983 82.307 21.3438 82.4804 21.4883 82.7114C21.6327 82.9281 21.6616 83.1736 21.5749 83.4336C21.5027 83.6357 21.3727 83.7946 21.185 83.8957C20.9972 83.9968 20.7373 84.0401 20.3906 84.0257L20.4051 83.9968ZM19.9863 82.1337C19.8274 82.5381 19.6974 82.8559 19.6108 83.1158L19.4663 83.5346C19.4519 83.5924 19.4375 83.6213 19.4519 83.6502C19.4663 83.6646 19.5097 83.6935 19.5674 83.7224C19.9285 83.8524 20.2318 83.8813 20.4917 83.8379C20.7517 83.7802 20.9395 83.6069 21.0406 83.3036C21.1272 83.0436 21.1128 82.827 21.0117 82.6392C20.8961 82.4515 20.7228 82.3215 20.4773 82.2348C20.3329 82.1915 20.174 82.1626 19.9718 82.1482L19.9863 82.1337ZM19.3941 83.7946C19.3508 83.8379 19.3075 83.9101 19.2641 84.0257L18.932 84.8922C18.8164 85.1955 18.7731 85.3688 18.7731 85.4122C18.7731 85.4555 18.8164 85.4988 18.9031 85.5566C18.9897 85.6143 19.1342 85.6721 19.3219 85.7443C19.4952 85.8021 19.6541 85.831 19.7841 85.8165C19.9141 85.8021 20.044 85.7443 20.1885 85.6288C20.3329 85.5132 20.4484 85.3544 20.5206 85.1522C20.6217 84.8489 20.6217 84.6034 20.4917 84.3867C20.3618 84.1846 20.1307 84.0112 19.7841 83.8957C19.6685 83.8524 19.5385 83.8091 19.3941 83.7802V83.7946ZM24.0446 83.0869L24.1745 83.1303C24.2468 83.6213 24.319 84.459 24.3623 85.6143C24.3912 86.3509 24.4345 86.8131 24.4778 87.0008C24.5212 87.1741 24.6367 87.3041 24.8245 87.3908C24.8822 87.4196 24.9111 87.4485 24.8967 87.4919C24.8822 87.5207 24.8678 87.5352 24.8389 87.5207L24.7956 87.5063C24.6223 87.4341 24.4056 87.3619 24.1457 87.2752C23.7413 87.1452 23.4669 87.073 23.3513 87.0441C23.2936 87.0297 23.2647 87.0008 23.2791 86.9719C23.2936 86.943 23.308 86.943 23.3513 86.943C23.5102 86.9719 23.6402 86.9864 23.7124 86.9575C23.7846 86.943 23.8279 86.8853 23.8568 86.7986C23.8857 86.712 23.8857 86.4953 23.8713 86.1343L23.8568 85.5999C23.7557 85.571 23.3224 85.441 22.5281 85.21C22.1671 85.6721 21.9649 85.9754 21.9215 86.1054C21.8927 86.2209 21.9071 86.322 21.9937 86.4087C22.0804 86.4953 22.1671 86.5531 22.2537 86.582C22.3259 86.6109 22.3548 86.6398 22.3404 86.6831C22.3404 86.6975 22.3259 86.712 22.297 86.712C21.9937 86.6109 21.8204 86.5387 21.7627 86.5242C21.4449 86.4231 21.2283 86.3653 21.1272 86.3365C21.0694 86.322 21.0406 86.2931 21.055 86.2498C21.0694 86.2209 21.0983 86.2065 21.1561 86.2209C21.3872 86.2643 21.5894 86.1632 21.7916 85.9321C21.9937 85.701 22.3115 85.2822 22.7736 84.6612C23.1925 84.0979 23.6257 83.578 24.059 83.0869H24.0446ZM23.7413 83.6646C23.4524 83.9679 23.0914 84.4301 22.6437 85.0367C22.8458 85.08 22.9758 85.1233 23.0625 85.1522L23.8568 85.4122C23.8424 85.1955 23.8279 84.9067 23.799 84.5456C23.7702 84.1123 23.7413 83.8235 23.7413 83.6791V83.6646ZM28.3917 88.3006C28.2906 88.2862 28.2473 88.2717 28.2328 88.2717C28.1606 88.2573 28.0307 88.214 27.8429 88.1706C27.6552 88.1129 27.2797 88.0118 26.6875 87.8674L25.951 87.6796C25.9221 87.6796 25.821 87.6507 25.6477 87.6218C25.4744 87.5929 25.3733 87.5641 25.3299 87.5641C25.1855 87.5207 25.1133 87.4919 25.1277 87.4485C25.1422 87.4196 25.1711 87.4052 25.2288 87.4196C25.4166 87.4485 25.561 87.4485 25.6477 87.4052C25.7343 87.3619 25.8065 87.2752 25.8643 87.1452C25.9221 87.0297 26.0232 86.6831 26.1676 86.1198L26.4276 85.0944C26.5142 84.7622 26.5575 84.5312 26.5575 84.3867C26.5575 84.2423 26.5286 84.1268 26.4564 84.0401C26.3842 83.9535 26.2831 83.8813 26.1676 83.8379C26.1098 83.8235 26.0809 83.7946 26.0954 83.7513C26.1098 83.708 26.1387 83.708 26.1965 83.7224C26.2109 83.7224 26.2398 83.7368 26.2687 83.7513C26.572 83.8524 26.9186 83.9535 27.323 84.0546L27.8285 84.1701C27.8862 84.1846 27.9007 84.2134 27.8862 84.2423C27.8718 84.2712 27.8429 84.2856 27.7851 84.2712C27.6552 84.2423 27.5252 84.2279 27.4241 84.2712C27.323 84.3001 27.2508 84.3434 27.193 84.4156C27.1497 84.4734 27.0919 84.6178 27.0486 84.8056L26.6875 86.1487L26.4998 86.8997C26.442 87.1308 26.4131 87.2897 26.4131 87.3619C26.4131 87.4341 26.442 87.5063 26.4853 87.5785C26.5286 87.6507 26.6442 87.7085 26.8031 87.7518C26.8175 87.7518 26.9908 87.7951 27.323 87.8674C27.5974 87.8962 27.8573 87.824 28.1318 87.6652C28.3917 87.4919 28.5795 87.333 28.695 87.1741C28.7239 87.1308 28.7528 87.1164 28.7817 87.1164C28.8105 87.1308 28.825 87.1452 28.8105 87.203C28.7961 87.2608 28.7239 87.4485 28.5795 87.7518C28.4495 88.0695 28.3628 88.2429 28.3339 88.2862L28.3917 88.3006ZM30.8325 84.9933C30.688 84.95 30.5725 84.9356 30.5147 84.9211C30.0959 84.8345 29.7782 84.8489 29.5471 84.9789C29.316 85.1089 29.186 85.2388 29.1138 85.3688C29.0994 85.4122 29.0705 85.4266 29.0272 85.4266C29.0127 85.4266 28.9983 85.4122 28.9838 85.3833C29.0416 85.1522 29.1427 84.8633 29.3016 84.4878C29.3882 84.5023 29.4604 84.5167 29.4749 84.5167C29.6193 84.5456 29.8215 84.6034 30.067 84.6756C30.3414 84.7478 30.7458 84.8489 31.3091 84.9789C31.8868 85.1089 32.2623 85.1811 32.4356 85.21C32.5944 85.2244 32.8111 85.2677 33.0855 85.3255C33.071 85.4699 33.0566 85.6143 33.0422 85.7732C33.0133 85.9465 32.9988 86.0621 32.9988 86.1343C32.9988 86.1487 32.9988 86.1632 32.9844 86.1776C32.9699 86.2209 32.9555 86.2354 32.9122 86.2354C32.8833 86.2354 32.8688 86.2209 32.8544 86.192C32.84 86.1776 32.8111 86.1054 32.7822 86.0043C32.71 85.831 32.6378 85.6866 32.5511 85.5855C32.4645 85.4844 32.3489 85.3977 32.2189 85.3544C32.089 85.2966 31.829 85.2244 31.4246 85.1233C31.338 85.4122 31.2513 85.7443 31.1791 86.1198C30.9047 87.3619 30.7747 88.0984 30.7747 88.3295C30.7747 88.5606 30.948 88.7195 31.2657 88.7917C31.338 88.8061 31.3813 88.835 31.3668 88.8639C31.3524 88.9072 31.3235 88.9072 31.2369 88.8928L29.4604 88.5028C29.4171 88.4884 29.4027 88.4739 29.4027 88.4306C29.4171 88.3873 29.4604 88.3873 29.5471 88.4017C29.706 88.4306 29.8359 88.4162 29.937 88.3584C30.0526 88.2862 30.1248 88.1851 30.1681 88.0407C30.2115 87.8962 30.3125 87.4774 30.4714 86.7697C30.6014 86.1776 30.7169 85.5855 30.8036 84.9933H30.8325ZM33.4321 85.2533L33.9665 85.3399L34.7897 85.441C34.8908 85.4555 34.9341 85.4844 34.9341 85.5132C34.9341 85.5421 34.9052 85.5566 34.8474 85.5566C34.6308 85.5566 34.4864 85.6143 34.4142 85.7299C34.342 85.8454 34.2553 86.322 34.1398 87.1452C34.0964 87.4485 34.0676 87.7951 34.0242 88.1706C33.9953 88.5461 33.9809 88.7772 33.9809 88.8639C33.9953 88.9361 34.0242 89.0083 34.0676 89.0661C34.1109 89.1238 34.212 89.1672 34.3564 89.2105C34.3997 89.2249 34.4286 89.2394 34.4286 89.2827C34.4286 89.3116 34.3997 89.3405 34.3564 89.326L33.6343 89.2249L33.0133 89.1527C32.9411 89.1383 32.9122 89.1238 32.9122 89.0805C32.9122 89.0372 32.9411 89.0227 32.9988 89.0372C33.1866 89.0516 33.3021 89.0083 33.3454 88.8928C33.3888 88.7772 33.461 88.4162 33.5476 87.7807C33.6343 87.1741 33.6921 86.6831 33.7354 86.2931C33.7787 85.9176 33.7787 85.6866 33.7354 85.5855C33.6921 85.4988 33.6054 85.4266 33.461 85.3833C33.4032 85.3688 33.3888 85.3399 33.3888 85.3111C33.3888 85.2822 33.4177 85.2677 33.461 85.2677L33.4321 85.2533ZM38.2992 86.1343C38.4147 86.0476 38.4869 85.9898 38.5014 85.9465C38.5302 85.9032 38.5591 85.8743 38.588 85.8888C38.6313 85.8888 38.6458 85.9321 38.6458 86.0043L38.6313 87.0441C38.6313 87.1019 38.6169 87.1452 38.6169 87.1452C38.6169 87.1597 38.6025 87.1597 38.5736 87.1597C38.5447 87.1597 38.5158 87.1164 38.4869 87.0297C38.3858 86.6975 38.2125 86.4376 37.9959 86.2209C37.7792 86.0043 37.5337 85.8888 37.2593 85.8599C37.0138 85.8454 36.7972 85.9032 36.5805 86.0476C36.3639 86.192 36.1906 86.3942 36.0606 86.6686C35.9306 86.943 35.844 87.2463 35.8295 87.5785C35.7862 88.1418 35.9017 88.6039 36.1906 88.9794C36.465 89.3549 36.7972 89.5571 37.1871 89.586C37.4471 89.6004 37.6926 89.5427 37.9237 89.3982C38.1547 89.2538 38.3281 89.0805 38.458 88.8639C38.4869 88.8061 38.5302 88.7772 38.5591 88.7772C38.6025 88.7772 38.6169 88.8061 38.6169 88.8494C38.6169 88.9072 38.5302 89.0227 38.3714 89.2105C38.2125 89.3982 37.9959 89.5282 37.7504 89.6293C37.5048 89.7304 37.2304 89.7737 36.956 89.7449C36.6239 89.716 36.3206 89.6149 36.0317 89.4271C35.7429 89.2394 35.5262 88.9939 35.3818 88.6761C35.2374 88.3728 35.1652 88.0118 35.1941 87.6218C35.2229 87.2319 35.3385 86.8853 35.5262 86.582C35.714 86.2787 35.9739 86.0621 36.2917 85.9032C36.6094 85.7588 36.9271 85.6866 37.2593 85.7154C37.4326 85.7299 37.6059 85.7732 37.7792 85.831C37.9526 85.9032 38.1403 85.9898 38.3136 86.1198L38.2992 86.1343ZM40.7688 85.9754H40.9132C41.1154 86.4376 41.3754 87.2174 41.7076 88.3295C41.9242 89.0372 42.0686 89.4705 42.1553 89.6438C42.2419 89.8026 42.3864 89.9037 42.5885 89.9326C42.6608 89.9471 42.6896 89.9615 42.6896 90.0048C42.6896 90.0337 42.6752 90.0481 42.6319 90.0481H42.5885C42.4152 90.0193 42.1842 90.0048 41.8953 89.9904C41.462 89.9759 41.1876 89.9615 41.0721 89.9759C41.0143 89.9759 40.9854 89.9471 40.9854 89.9182C40.9854 89.8893 41.0143 89.8748 41.0577 89.8748C41.231 89.8604 41.3465 89.846 41.4043 89.8026C41.4765 89.7593 41.5054 89.7015 41.5054 89.6149C41.5054 89.5282 41.462 89.3116 41.3609 88.965L41.2165 88.445C41.1154 88.445 40.6533 88.4306 39.8445 88.4017C39.6134 88.9361 39.4979 89.2827 39.4834 89.4271C39.4834 89.5427 39.5268 89.6438 39.6279 89.7015C39.729 89.7593 39.8301 89.8026 39.9167 89.8171C39.9889 89.8315 40.0178 89.846 40.0178 89.8893C40.0178 89.9037 40.0034 89.9182 39.9745 89.9326C39.6568 89.9037 39.469 89.8893 39.4112 89.8893C39.0791 89.8748 38.8624 89.8748 38.7469 89.8748C38.6891 89.8748 38.6458 89.846 38.6602 89.8171C38.6602 89.7882 38.6891 89.7593 38.7469 89.7593C38.978 89.7449 39.1513 89.6004 39.2812 89.326C39.4112 89.0516 39.6279 88.5606 39.9167 87.8529C40.1767 87.203 40.4655 86.5964 40.7688 86.0043V85.9754ZM40.6244 86.6109C40.4222 86.9719 40.1911 87.5063 39.9023 88.214C40.1045 88.214 40.2489 88.214 40.3355 88.214L41.1732 88.2717C41.1154 88.0695 41.0143 87.7951 40.8988 87.4485C40.7544 87.0441 40.6677 86.7553 40.6244 86.6253V86.6109ZM47.6 86.3509C47.7156 86.2498 47.7734 86.192 47.7878 86.1487C47.8022 86.1054 47.8311 86.0765 47.8745 86.0765C47.9178 86.0765 47.9322 86.1054 47.9467 86.1776L48.0189 87.2174C48.0189 87.2752 48.0189 87.3185 48.0189 87.333C48.0189 87.3474 48.0044 87.3474 47.9755 87.3474C47.9467 87.3474 47.9033 87.3041 47.8745 87.2174C47.7445 86.8997 47.5567 86.6398 47.3256 86.452C47.0946 86.2498 46.8346 86.1487 46.5602 86.1487C46.3147 86.1487 46.098 86.2354 45.8958 86.3798C45.6937 86.5387 45.5348 86.7553 45.4337 87.0441C45.3182 87.333 45.2748 87.6363 45.2748 87.9685C45.2748 88.5317 45.4337 88.9794 45.7514 89.3405C46.0692 89.6871 46.4013 89.8604 46.7913 89.8604C47.0512 89.8604 47.2823 89.7737 47.4989 89.6149C47.7156 89.456 47.8745 89.2538 47.99 89.0372C48.0189 88.9794 48.0478 88.9505 48.0766 88.9505C48.12 88.9505 48.1489 88.9794 48.1489 89.0227C48.1489 89.0805 48.0766 89.2105 47.9322 89.3982C47.7878 89.586 47.5856 89.7449 47.3401 89.8748C47.0946 89.9904 46.8346 90.0626 46.5602 90.0626C46.228 90.0626 45.9103 89.9759 45.6214 89.8171C45.3182 89.6438 45.0871 89.4271 44.9138 89.1238C44.7405 88.835 44.6538 88.4884 44.6538 88.084C44.6538 87.694 44.7405 87.3474 44.8993 87.0297C45.0726 86.712 45.3037 86.4664 45.607 86.2931C45.9103 86.1198 46.228 86.0332 46.5602 86.0332C46.7335 86.0332 46.9068 86.0621 47.0946 86.1054C47.2823 86.1632 47.4556 86.2354 47.6578 86.3509H47.6ZM48.3366 87.954C48.3222 87.694 48.3655 87.3908 48.5099 87.0586C48.6399 86.7264 48.8565 86.452 49.1454 86.2209C49.4342 85.9898 49.7808 85.8599 50.1708 85.831C50.7196 85.7877 51.1818 85.9465 51.5717 86.3076C51.9616 86.6686 52.1783 87.1019 52.2072 87.5929C52.2505 88.1273 52.0916 88.6184 51.7306 89.0661C51.3695 89.5138 50.9218 89.7737 50.3585 89.8171C49.8242 89.8604 49.3765 89.716 48.9865 89.3694C48.5966 89.0227 48.3799 88.5606 48.3366 87.954ZM48.9865 87.8096C49.0154 88.1273 49.0876 88.4595 49.2176 88.7917C49.3476 89.1238 49.5209 89.3549 49.7375 89.4849C49.9541 89.6149 50.1997 89.6726 50.4307 89.6582C50.8207 89.6293 51.1095 89.4127 51.3117 89.0227C51.5139 88.6328 51.6006 88.1851 51.5573 87.6796C51.5139 87.203 51.3695 86.7842 51.0951 86.4376C50.8207 86.0909 50.503 85.9321 50.113 85.961C49.8242 85.9898 49.5931 86.1054 49.4053 86.3076C49.232 86.5242 49.1021 86.7553 49.0443 87.0441C48.9721 87.3185 48.9576 87.5785 48.9721 87.7951L48.9865 87.8096ZM56.0777 89.0227C55.9766 89.0372 55.9333 89.0516 55.9188 89.0516C55.8466 89.0661 55.7166 89.0805 55.5289 89.1094C55.3411 89.1383 54.9512 89.1961 54.3446 89.2971L53.6081 89.4271C53.5792 89.4271 53.4781 89.456 53.3048 89.4849C53.1315 89.5282 53.0304 89.5427 53.0015 89.5571C52.8571 89.586 52.7704 89.5716 52.7704 89.5427C52.7704 89.5138 52.7849 89.4849 52.8426 89.4849C53.0304 89.4416 53.1604 89.3838 53.2181 89.2971C53.2759 89.2105 53.3192 89.1094 53.3192 88.9794C53.3192 88.8494 53.2759 88.4884 53.1892 87.9251L53.0159 86.8853C52.9582 86.5531 52.9004 86.3076 52.8571 86.1776C52.7993 86.0476 52.7271 85.961 52.626 85.9032C52.5249 85.8454 52.4094 85.831 52.2938 85.831C52.236 85.831 52.1927 85.8165 52.1927 85.7877C52.1927 85.7443 52.2072 85.7299 52.2649 85.7154C52.2794 85.7154 52.3083 85.7154 52.3371 85.701C52.6549 85.6721 53.0159 85.6143 53.4203 85.5566L53.9258 85.4699C53.9836 85.4555 54.0125 85.4699 54.0125 85.5132C54.0125 85.5421 53.998 85.571 53.9402 85.5855C53.7958 85.6143 53.6947 85.6577 53.6081 85.7299C53.5214 85.8021 53.4781 85.8743 53.4492 85.9465C53.4348 86.0187 53.4348 86.1632 53.4781 86.3653L53.6803 87.7518L53.8103 88.5173C53.8536 88.7628 53.8825 88.9072 53.9258 88.9794C53.9547 89.0516 54.0125 89.1094 54.0847 89.1527C54.1569 89.1961 54.2869 89.2105 54.4457 89.1816C54.4602 89.1816 54.6335 89.1383 54.9656 89.0805C55.2256 88.9939 55.4422 88.835 55.6156 88.575C55.7889 88.3151 55.9044 88.084 55.9333 87.8962C55.9477 87.8385 55.9622 87.8096 55.9911 87.8096C56.0199 87.8096 56.0488 87.824 56.0488 87.8674C56.0633 87.9251 56.0633 88.1273 56.0633 88.4595C56.0633 88.8061 56.0633 89.0083 56.0633 89.0516L56.0777 89.0227ZM59.7461 88.3728C59.645 88.4017 59.6016 88.4017 59.5872 88.4162C59.515 88.4306 59.385 88.4595 59.1973 88.4884C59.0095 88.5173 58.6196 88.5895 58.0274 88.7195L57.2909 88.8639C57.262 88.8639 57.1609 88.8928 57.002 88.9361C56.8287 88.9794 56.7276 89.0083 56.6987 89.0083C56.5543 89.0372 56.4677 89.0372 56.4677 88.9939C56.4677 88.965 56.4821 88.9361 56.5399 88.9216C56.7276 88.8783 56.8432 88.8061 56.9009 88.7195C56.9587 88.6328 56.9876 88.5317 56.9876 88.3873C56.9876 88.2573 56.9298 87.8962 56.8143 87.333L56.6121 86.2931C56.5399 85.961 56.4821 85.7299 56.4243 85.5999C56.3666 85.4699 56.2799 85.3833 56.1788 85.3255C56.0777 85.2677 55.9622 85.2533 55.8322 85.2677C55.7744 85.2677 55.7311 85.2533 55.7311 85.2244C55.7166 85.1811 55.7455 85.1666 55.8033 85.1522C55.8177 85.1522 55.8466 85.1522 55.8755 85.1377C56.1932 85.0944 56.5399 85.0367 56.9587 84.95L57.4642 84.8345C57.5219 84.82 57.5508 84.8345 57.5508 84.8778C57.5508 84.9067 57.5364 84.9356 57.4786 84.95C57.3486 84.9789 57.2331 85.0222 57.1464 85.0944C57.0598 85.1666 57.0165 85.2388 57.002 85.3111C56.9876 85.3833 57.002 85.5277 57.0453 85.7299L57.3053 87.1019L57.4642 87.8674C57.5075 88.0984 57.5508 88.2573 57.5942 88.3295C57.623 88.4017 57.6808 88.4595 57.753 88.5028C57.8252 88.5461 57.9552 88.5461 58.1141 88.5173C58.1285 88.5173 58.3018 88.4739 58.634 88.3873C58.894 88.3006 59.1106 88.1129 59.2695 87.8529C59.4283 87.5929 59.5294 87.3619 59.5728 87.1741C59.5872 87.1164 59.6016 87.0875 59.6305 87.0875C59.6594 87.0875 59.6883 87.1019 59.6883 87.1452C59.7027 87.203 59.7172 87.4052 59.7172 87.7374C59.7316 88.084 59.7316 88.2862 59.7316 88.3295L59.7461 88.3728ZM62.4468 83.7946C62.5479 83.9968 62.6779 84.2856 62.8078 84.6612C62.8078 84.6756 62.7934 84.69 62.779 84.69C62.7645 84.69 62.7501 84.69 62.7356 84.6756C62.5623 84.4878 62.389 84.3579 62.2446 84.2712C62.1002 84.1846 61.9557 84.1268 61.8258 84.1123C61.6958 84.0979 61.4791 84.1123 61.1759 84.1846C60.887 84.2423 60.6704 84.3145 60.526 84.3867C60.5115 84.4156 60.5115 84.4445 60.526 84.5023C60.526 84.5167 60.526 84.5456 60.5404 84.5745C60.5548 84.7334 60.6415 85.1522 60.7859 85.831C60.7859 85.8599 60.8004 85.9032 60.8148 85.9465C60.9592 85.9176 61.0603 85.9032 61.1181 85.8888C61.3636 85.831 61.5225 85.7588 61.6236 85.6577C61.7102 85.5566 61.7824 85.3833 61.8113 85.1233C61.8113 85.08 61.8258 85.0511 61.8547 85.0511C61.8835 85.0367 61.9124 85.0655 61.9269 85.1233L61.9413 85.2388C61.9557 85.3977 61.9846 85.5566 62.028 85.7154C62.0857 85.9754 62.1435 86.2065 62.2013 86.4231C62.2157 86.4953 62.2013 86.5242 62.1724 86.5387C62.1435 86.5387 62.1291 86.5242 62.1002 86.4809C62.0135 86.2643 61.8835 86.1198 61.7391 86.0476C61.5947 85.9754 61.2914 85.9898 60.8726 86.0765C60.9015 86.2209 60.9448 86.452 61.017 86.7553C61.1036 87.1597 61.1759 87.4196 61.2336 87.5207C61.2914 87.6218 61.3781 87.694 61.4936 87.7374C61.6236 87.7807 61.8113 87.7663 62.0713 87.7085C62.8223 87.5496 63.2411 87.1741 63.3422 86.6109C63.3567 86.5387 63.3711 86.5098 63.4 86.4953C63.4289 86.4953 63.4433 86.5098 63.4578 86.5531C63.4578 86.582 63.4578 86.5964 63.4578 86.6253C63.4578 86.6686 63.4578 86.8131 63.4578 87.0586C63.4578 87.1164 63.4578 87.2752 63.4433 87.5352L62.2302 87.7951C62.0568 87.8385 61.7969 87.8818 61.4647 87.9396C61.1325 87.9973 60.8292 88.0551 60.5693 88.1129C60.3093 88.1706 60.1793 88.1995 60.1649 88.1851C60.1505 88.1706 60.136 88.1706 60.136 88.1562C60.1216 88.1129 60.1505 88.0984 60.2227 88.084C60.4393 88.0407 60.5693 87.954 60.6126 87.824C60.6559 87.694 60.6271 87.4052 60.526 86.9719L60.396 86.3798L60.2804 85.831C60.2515 85.7154 60.2082 85.5132 60.1216 85.1955C60.0349 84.8922 59.9916 84.7189 59.9771 84.6756C59.9627 84.6323 59.9194 84.6034 59.8616 84.5601C59.8038 84.5312 59.6883 84.5023 59.5005 84.5023C59.4428 84.5023 59.4139 84.4878 59.4139 84.459C59.3995 84.4301 59.4428 84.4012 59.5005 84.3867L60.0927 84.2856C60.3093 84.2568 60.8148 84.1412 61.6236 83.9679C62.1579 83.8524 62.4323 83.7946 62.4468 83.7946ZM66.9239 83.7513C66.895 83.7657 66.8661 83.7368 66.8228 83.6791C66.5629 83.3902 66.2885 83.188 65.9707 83.0725C65.6674 82.9714 65.3641 82.957 65.0753 83.0436C64.8442 83.1158 64.6276 83.2602 64.4543 83.4624C64.281 83.6646 64.1654 83.939 64.1077 84.2856C64.0499 84.6323 64.0788 84.9644 64.1799 85.2966C64.3243 85.7732 64.5843 86.1487 64.9886 86.4087C65.3786 86.6686 65.7974 86.7408 66.2162 86.6109C66.3751 86.5675 66.4906 86.4953 66.5773 86.4231C66.6784 86.3365 66.7506 86.2498 66.8228 86.1343C66.895 86.0187 66.9239 85.9321 66.9384 85.8888C66.9384 85.8454 66.9239 85.7154 66.8661 85.5421C66.7795 85.2388 66.664 85.0367 66.5629 84.9644C66.4473 84.8922 66.3029 84.8778 66.1151 84.9356L66.0285 84.9644C65.9707 84.9789 65.9418 84.9644 65.9274 84.9356C65.913 84.8922 65.9418 84.8633 65.9996 84.8345L66.1585 84.7911L66.7939 84.5889L67.5738 84.329C67.6172 84.3145 67.646 84.329 67.6605 84.3723C67.6749 84.4156 67.6605 84.4445 67.6027 84.459C67.4872 84.5023 67.4005 84.5601 67.3427 84.6178C67.285 84.6756 67.2561 84.7334 67.2416 84.7911C67.2416 84.8489 67.2561 84.9356 67.2994 85.0511C67.4294 85.4988 67.4872 85.7443 67.4872 85.7877C67.4727 85.831 67.3283 85.9898 67.0539 86.2498C66.7651 86.5098 66.4618 86.6831 66.1296 86.7842C65.5808 86.943 65.0464 86.9142 64.5554 86.6831C64.0499 86.452 63.7322 86.0621 63.5588 85.5132C63.4433 85.1377 63.4433 84.7767 63.53 84.4156C63.6311 84.0546 63.8044 83.7513 64.0788 83.4769C64.3532 83.2169 64.6565 83.0292 64.9886 82.9281C65.3064 82.8414 65.6674 82.827 66.0863 82.8992C66.2018 82.9136 66.2885 82.9281 66.3173 82.9136C66.3751 82.8992 66.4184 82.8559 66.4329 82.7981C66.4473 82.7403 66.4618 82.7114 66.4906 82.7114C66.534 82.697 66.5773 82.7403 66.6206 82.8559C66.6784 83.0292 66.7939 83.2747 66.9384 83.6213C66.9528 83.6357 66.9528 83.6502 66.9528 83.6646C66.9672 83.708 66.9528 83.7368 66.9095 83.7513H66.9239ZM70.4045 81.4116C70.5201 81.5994 70.6645 81.8882 70.8378 82.2493C70.8378 82.2637 70.8234 82.2782 70.8089 82.2782C70.7945 82.2782 70.78 82.2782 70.7656 82.2637C70.5634 82.0904 70.3901 81.9749 70.2457 81.9027C70.0868 81.8304 69.9424 81.7871 69.8124 81.7871C69.6824 81.7727 69.4658 81.816 69.1769 81.9171C68.9025 82.0038 68.6859 82.0904 68.5415 82.1626C68.527 82.1915 68.5415 82.2204 68.5559 82.2782C68.5559 82.2926 68.5703 82.3215 68.5703 82.3504C68.5992 82.5092 68.7148 82.9136 68.9314 83.578C68.9458 83.6069 68.9603 83.6502 68.9747 83.6935C69.1192 83.6502 69.2203 83.6213 69.278 83.6069C69.5091 83.5346 69.6824 83.448 69.7546 83.3325C69.8413 83.2314 69.8846 83.0436 69.8846 82.7836C69.8846 82.7403 69.899 82.7114 69.9135 82.7114C69.9424 82.697 69.9713 82.7259 69.9857 82.7836L70.0146 82.8992C70.0435 83.058 70.0868 83.2025 70.1446 83.3613C70.2312 83.6213 70.3034 83.8524 70.3756 84.0546C70.3901 84.1123 70.3901 84.1557 70.3612 84.1701C70.3323 84.1846 70.3179 84.1557 70.289 84.1123C70.1734 83.9101 70.0435 83.7657 69.8846 83.708C69.7257 83.6502 69.4369 83.6791 69.0181 83.8235C69.0614 83.9679 69.1192 84.1846 69.2203 84.4878C69.3502 84.8922 69.4369 85.1377 69.4947 85.2388C69.5524 85.3399 69.6535 85.3977 69.7835 85.4266C69.9135 85.4555 70.1012 85.4266 70.3612 85.3544C71.0978 85.1233 71.4877 84.7189 71.5455 84.1557C71.5455 84.0835 71.5744 84.0401 71.6032 84.0401C71.6321 84.0257 71.661 84.0401 71.661 84.0835C71.661 84.1123 71.6755 84.1268 71.6755 84.1557C71.6755 84.199 71.6899 84.3434 71.7188 84.5889C71.7188 84.6467 71.7332 84.8056 71.7477 85.0655L70.5634 85.4266C70.3901 85.4844 70.1446 85.5566 69.8124 85.6432C69.4802 85.7299 69.1914 85.8165 68.9314 85.8888C68.6714 85.961 68.5415 86.0043 68.527 86.0043C68.5126 86.0043 68.4981 85.9898 68.4981 85.9754C68.4837 85.9321 68.5126 85.9032 68.5703 85.8888C68.787 85.8165 68.9025 85.7299 68.9314 85.5855C68.9603 85.4555 68.917 85.1811 68.7725 84.7478L68.5848 84.1701L68.4259 83.6213C68.397 83.5058 68.3248 83.3036 68.2093 83.0147C68.1082 82.7114 68.036 82.5526 68.0071 82.5092C67.9782 82.4659 67.9349 82.437 67.8771 82.4081C67.8193 82.3793 67.6894 82.3648 67.5161 82.3793C67.4583 82.3793 67.4294 82.3648 67.4294 82.3359C67.415 82.307 67.4438 82.2782 67.5161 82.2493L68.1082 82.1049C68.3104 82.0471 68.8159 81.9027 69.6102 81.6571C70.1301 81.4983 70.4045 81.4116 70.419 81.4116H70.4045Z" fill="#002F55" stroke="#002F55" stroke-width="0.0234892"/>
</svg>
