<svg width="382" height="807" viewBox="0 0 382 807" fill="none" xmlns="http://www.w3.org/2000/svg">
<g clip-path="url(#clip0_910_5508)">
<rect width="382" height="807" rx="20" fill="white"/>
<mask id="mask0_910_5508" style="mask-type:alpha" maskUnits="userSpaceOnUse" x="0" y="0" width="382" height="807">
<rect width="382" height="807" rx="20" fill="white"/>
</mask>
<g mask="url(#mask0_910_5508)">
<path d="M-9.83775 252.07C-11.905 328.472 -15.6976 405.688 -5.81094 481.706C-4.48382 492.17 -5.78311 508.238 4.71219 514.334C14.4023 519.954 24.4944 513.456 26.5375 504.868C42.948 501.425 56.9429 488.542 64.8745 473.407C70.2024 463.247 73.1691 452.016 73.5536 440.55C73.662 435.026 73.0865 429.509 71.8403 424.125C70.5636 418.162 67.822 412.705 66.1093 406.876C64.8107 402.454 65.2528 399.949 67.3069 395.883C70.444 389.652 74.5188 384.933 78.6513 379.181C86.6612 368.15 93.5586 356.353 99.2424 343.962C105.514 330.129 110.688 315.1 108.554 299.649C106.643 285.842 100.389 273.962 91.0548 263.718C69.568 240.117 36.2019 235.636 6.00227 235.158C-3.20542 235.055 -9.60321 243.559 -9.83775 252.07Z" fill="#F8FCED"/>
<path d="M46.0098 158.654C36.4256 158.246 26.9261 156.938 17.7165 154.758C6.47607 152.053 -5.5451 148.099 -11.7416 139.71C-15.6131 134.409 -16.1331 128.185 -16.6704 122.26C-17.1692 116.51 -17.2841 110.728 -17.5592 104.975L-19.0894 71.2355C-20.149 48.758 -20.783 26.29 -21.5436 3.76925C-21.7934 -3.58788 -12.1404 -11.6956 -2.27911 -10.601C75.6948 -1.93871 154.482 0.735885 232.952 -2.61556C243.71 -3.07253 254.456 -3.64341 265.191 -4.3282C270.718 -4.67533 276.253 -5.05831 281.796 -5.47716C288.767 -5.99422 290.515 -6.11298 296.402 -6.6544C306.264 -7.51402 317.334 -4.32148 319.631 4.27915C320.128 6.29603 320.143 8.36322 319.675 10.3759C329.944 41.6509 298.91 78.2771 254.479 73.6867C243.957 72.6188 233.956 70.1654 223.804 67.8168C219.303 66.7226 214.734 65.8122 210.116 65.0894C210.381 65.1619 206.612 64.7779 205.868 64.7362C204.591 64.7075 203.315 64.6789 202.039 64.6502C201.539 64.639 200.132 64.7405 199.909 64.7354C198.842 64.8612 197.859 65.0304 196.843 65.2238C196.469 65.2986 194.768 65.7011 194.609 65.6975C193.182 66.1894 191.87 66.8335 190.495 67.3848L189.915 67.6213C189.139 68.0862 188.404 68.5853 187.69 69.1015C186.976 69.6177 186.402 70.0456 185.785 70.5473C185.579 70.7173 184.525 71.6666 184.004 72.1207C183.483 72.5747 182.554 73.6765 182.63 73.5784C182.117 74.1739 181.614 74.7697 181.122 75.3741C180.126 76.6075 179.204 77.8259 178.313 79.1448C176.391 81.9067 174.672 84.7529 173.162 87.6696C165.9 101.644 158.925 114.619 146.196 126.075C134.35 136.579 119.621 144.854 103.087 150.297C85.0431 156.262 65.7403 159.546 46.0098 158.654Z" fill="url(#paint0_linear_910_5508)" fill-opacity="0.08"/>
<path d="M380.017 576.514C379.827 556.204 379.647 535.884 379.607 515.574C379.607 507.904 372.477 499.104 364.107 500.074C325.377 504.564 295.727 535.484 293.437 574.524C292.937 583.044 293.607 591.574 293.617 600.104C293.617 602.104 293.617 604.034 293.497 605.994C293.497 606.994 293.397 607.924 293.317 608.884C293.317 609.054 293.247 609.624 293.197 610.134C293.067 610.854 292.777 612.694 292.797 612.604C292.607 613.504 292.397 614.404 292.157 615.294C291.917 616.184 291.627 617.034 291.357 617.914L291.207 618.424L291.007 618.744C290.577 619.544 290.157 620.354 289.677 621.134C289.597 621.274 289.207 621.834 288.897 622.284C288.397 622.804 287.177 624.174 287.247 624.114C286.847 624.504 286.427 624.864 286.007 625.234C286.087 625.034 283.537 626.824 283.007 627.114C282.477 627.404 281.807 627.744 281.197 628.034C280.887 628.174 280.457 628.354 280.057 628.494C272.817 630.984 265.277 632.154 257.757 633.444C239.757 636.524 223.597 642.344 212.587 657.714C207.687 664.544 204.657 672.634 201.847 680.484C200.607 683.974 199.437 687.484 198.157 690.974C196.377 695.794 196.547 695.744 194.107 700.244C193.247 701.824 192.287 703.344 191.297 704.844C191.207 704.974 190.867 705.394 190.647 705.664C190.167 706.214 189.647 706.764 189.187 707.284C188.907 707.574 186.187 710.014 186.587 709.804C185.058 710.922 183.447 711.925 181.767 712.804C181.097 713.164 178.147 714.414 178.767 714.234C177.337 714.754 175.907 715.234 174.447 715.654C170.836 716.671 167.161 717.449 163.447 717.984C163.567 717.984 160.337 718.354 159.687 718.424C157.857 718.604 156.037 718.774 154.207 718.924C150.037 719.264 145.867 719.514 141.707 719.924C133.236 720.515 124.818 721.712 116.517 723.504C97.8374 727.914 81.6974 739.094 72.6474 756.264C67.9874 765.104 64.6474 774.864 64.1374 784.854C63.6571 794.186 64.4375 803.54 66.4574 812.664C68.0774 819.844 78.0774 817.664 78.6174 811.014C78.6774 810.264 78.7474 809.514 78.8174 808.754C81.0688 809.909 83.5482 810.551 86.0774 810.634C104.337 811.294 122.397 809.764 140.627 808.784C158.487 807.83 176.364 807.114 194.257 806.634C230.377 805.634 266.477 805.884 302.597 806.574C323.137 806.964 343.667 807.624 364.177 808.764C373.567 809.244 381.567 800.324 381.567 791.324C381.417 719.704 380.677 648.114 380.017 576.514Z" fill="url(#paint1_linear_910_5508)" fill-opacity="0.1"/>
<path d="M332.545 755.353C332.255 755.093 331.955 754.853 331.655 754.623C339.055 756.483 349.185 753.453 351.555 745.393C353.555 738.563 346.555 735.953 340.395 735.673C342.837 734.694 345.093 733.304 347.065 731.563C350.037 728.947 352.399 725.711 353.985 722.083C363.685 722.303 373.545 715.453 371.695 704.843C370.225 696.413 359.895 691.103 352.365 695.643L352.275 695.723C349.565 691.153 345.937 687.195 341.62 684.097C337.304 680.999 332.392 678.829 327.195 677.723C328.035 668.583 320.525 660.513 311.055 662.233C303.135 663.673 295.465 675.063 301.725 682.163C296.074 685.854 292.068 691.587 290.545 698.163C289.882 701.089 289.814 704.12 290.345 707.073C285.895 701.163 276.865 695.153 270.345 699.713C261.425 705.973 273.025 718.563 278.455 722.523C279.155 723.043 279.945 721.893 279.355 721.313C275.235 717.263 263.095 706.053 272.035 700.993C278.755 697.183 287.165 704.753 291.035 709.853C293.765 718.763 301.565 726.143 310.035 730.123C310.103 730.297 310.226 730.445 310.385 730.543C317.635 735.003 326.385 738.103 334.555 737.123C334.621 737.138 334.69 737.138 334.755 737.123C340.945 736.543 355.835 738.643 348.325 748.123C344.325 753.123 337.455 754.703 331.485 752.973C331.358 752.942 331.225 752.944 331.099 752.979C330.973 753.014 330.858 753.081 330.766 753.173C330.673 753.266 330.606 753.381 330.571 753.507C330.536 753.633 330.534 753.766 330.565 753.893C328.236 752.441 325.606 751.538 322.875 751.253C323.452 750.013 323.726 748.654 323.675 747.288C323.625 745.922 323.251 744.587 322.585 743.393C322.355 742.983 321.645 743.263 321.815 743.713C322.275 744.911 322.471 746.194 322.39 747.474C322.309 748.755 321.953 750.003 321.345 751.133C318.438 751.006 315.529 751.32 312.715 752.063C316.425 736.443 297.225 722.003 283.465 730.853C283.295 730.383 283.135 729.853 282.935 729.423C282.177 727.593 281.152 725.884 279.895 724.353C281.131 723.311 282.534 722.486 284.045 721.913C285.485 721.373 287.175 721.353 288.505 720.583C288.537 720.566 288.563 720.54 288.581 720.51C288.599 720.479 288.609 720.444 288.609 720.408C288.609 720.372 288.599 720.337 288.581 720.306C288.563 720.276 288.537 720.25 288.505 720.233C285.605 718.953 281.565 721.233 279.015 723.333C273.765 717.703 265.525 715.063 258.245 719.283C248.655 724.843 248.505 739.413 252.365 748.483C255.805 756.573 265.895 762.253 274.305 758.663C274.362 758.715 274.426 758.759 274.495 758.793C278.035 765.573 285.835 769.093 293.255 768.853C293.339 768.85 293.42 768.829 293.495 768.793C291.995 773.793 292.245 779.113 295.495 783.083C295.509 783.283 295.582 783.475 295.705 783.633C303.775 793.183 317.275 791.073 326.215 784.003C334.285 777.613 342.295 764.023 332.545 755.353ZM352.745 696.543C360.495 694.043 369.885 697.423 370.205 706.713C370.305 708.843 369.847 710.962 368.875 712.86C367.903 714.758 366.452 716.369 364.665 717.533C361.525 719.533 358.005 719.653 354.575 720.533C355.132 719.015 355.561 717.453 355.855 715.863C357.665 716.433 360.515 714.713 361.695 713.753C362.821 712.883 363.723 711.757 364.325 710.468C364.927 709.179 365.211 707.764 365.155 706.343C364.795 701.543 358.725 697.513 354.395 700.123C353.994 699.047 353.53 697.995 353.005 696.973C352.915 696.813 352.815 696.653 352.735 696.493L352.745 696.543ZM356.165 714.673C356.18 714.54 356.159 714.405 356.105 714.283C356.652 709.821 356.177 705.294 354.715 701.043C358.335 699.753 362.865 701.683 363.715 705.703C363.886 706.807 363.794 707.936 363.447 708.997C363.099 710.059 362.506 711.024 361.715 711.813C361.044 712.536 360.257 713.141 359.385 713.603C359.215 713.673 356.155 714.683 356.165 714.653V714.673ZM302.005 672.193C302.599 670.258 303.678 668.507 305.139 667.106C306.601 665.706 308.397 664.703 310.355 664.193C318.835 661.913 326.355 668.963 325.575 677.443C324.281 677.22 322.976 677.067 321.665 676.983C321.77 676.894 321.838 676.769 321.855 676.633C322.445 671.483 317.515 666.563 312.275 667.633C307.505 668.633 304.275 675.213 306.885 679.413C305.371 680.05 303.91 680.805 302.515 681.673C301.885 678.353 301.015 675.533 302.005 672.173V672.193ZM320.515 676.903H319.215C315.388 676.918 311.595 677.619 308.015 678.973C307.075 675.123 307.945 670.293 312.425 669.233C316.685 668.233 320.825 672.283 320.365 676.463C320.361 676.617 320.414 676.767 320.515 676.883V676.903ZM312.515 729.603C306.965 726.273 301.115 722.173 297.135 716.943C297.2 716.911 297.252 716.858 297.283 716.793C297.314 716.727 297.322 716.653 297.305 716.583C295.905 709.803 305.025 702.703 310.465 700.703C312.548 699.926 314.753 699.526 316.975 699.523C317.489 702.936 318.661 706.217 320.425 709.183C320.393 709.161 320.355 709.15 320.315 709.15C320.276 709.15 320.238 709.161 320.205 709.183C318.765 709.943 317.855 711.593 316.925 712.903C315.687 714.352 314.676 715.981 313.925 717.733C313.755 718.233 314.435 718.523 314.775 718.203C315.961 716.876 316.994 715.42 317.855 713.863C318.795 712.473 320.155 711.053 320.485 709.393C320.491 709.367 320.491 709.339 320.485 709.313C320.565 709.463 320.645 709.613 320.735 709.763C320.818 709.905 320.945 710.015 321.097 710.077C321.249 710.138 321.418 710.147 321.575 710.103C324.805 708.933 327.895 709.103 331.205 708.633C331.775 708.553 331.625 707.763 331.205 707.633C328.505 706.723 325.755 707.633 323.065 708.053C321.005 708.403 320.775 706.813 320.015 705.053C319.255 703.293 318.705 701.453 318.115 699.633C321.643 699.844 325.029 701.097 327.845 703.233C339.635 712.143 332.715 725.363 325.925 734.833C321.235 733.733 316.825 731.653 312.515 729.583V729.603ZM331.795 735.353C330.36 735.374 328.924 735.274 327.505 735.053C331.785 729.603 335.835 723.133 335.945 716.053C336.045 709.143 331.785 703.053 325.695 699.993C322.684 698.526 319.353 697.838 316.007 697.994C312.661 698.149 309.408 699.143 306.545 700.883C302.025 703.513 294.855 710.053 296.435 716.003C293.727 712.272 292.264 707.783 292.255 703.173C292.305 690.173 303.835 680.473 316.125 679.313C322.105 678.819 328.113 679.808 333.619 682.193C339.124 684.577 343.956 688.284 347.685 692.983C355.405 702.773 356.595 716.193 348.895 726.373C346.925 729.081 344.358 731.3 341.393 732.857C338.427 734.414 335.144 735.268 331.795 735.353ZM253.795 746.513C250.905 738.293 251.035 725.443 259.795 720.773C266.395 717.263 273.275 720.003 277.725 725.043C277.788 725.173 277.885 725.284 278.005 725.363C279.684 727.338 280.965 729.62 281.775 732.083C284.665 741.013 281.285 750.563 274.835 756.983C265.875 758.903 257.095 755.963 253.775 746.493L253.795 746.513ZM293.225 767.353C285.835 767.613 280.085 764.163 275.585 758.633C279.386 755.384 282.176 751.114 283.625 746.33C285.075 741.545 285.124 736.445 283.765 731.633C290.605 728.883 297.875 728.443 304.145 733.113C310.415 737.783 312.145 744.983 311.245 752.383C307.28 753.554 303.581 755.487 300.355 758.073C297.387 760.65 295.14 763.955 293.835 767.663C293.776 767.556 293.687 767.47 293.578 767.414C293.469 767.359 293.346 767.338 293.225 767.353ZM297.385 782.663C292.865 774.843 294.205 765.753 301.555 759.663C308.705 753.733 321.555 750.303 329.885 755.723C348.285 767.673 314.395 801.003 297.385 782.683V782.663Z" fill="#DBEAF2"/>
<path d="M321.606 769.513C319.686 763.413 313.286 759.073 306.756 760.943C300.056 762.863 296.056 770.563 298.866 777.023C301.776 783.723 310.536 787.573 317.346 784.643C322.936 782.233 325.926 774.253 321.606 769.513ZM314.656 783.603C308.466 784.923 301.246 780.603 299.946 774.363C298.856 769.153 302.636 763.763 307.736 762.513C312.836 761.263 317.736 764.513 320.216 768.783C320.158 768.811 320.108 768.852 320.068 768.902C320.028 768.952 320 769.01 319.986 769.072C319.972 769.134 319.971 769.199 319.985 769.261C319.999 769.324 320.026 769.382 320.066 769.433C323.906 774.893 321.356 782.163 314.656 783.603Z" fill="#DBEAF2"/>
<path d="M325.535 758.723C325.306 758.137 324.939 757.616 324.465 757.203C324.521 757.166 324.569 757.118 324.605 757.062C324.641 757.005 324.664 756.942 324.674 756.876C324.683 756.809 324.679 756.742 324.66 756.678C324.641 756.613 324.609 756.554 324.565 756.503C324.101 756.049 323.533 755.715 322.911 755.53C322.288 755.345 321.63 755.314 320.993 755.44C320.356 755.566 319.76 755.845 319.255 756.253C318.75 756.661 318.352 757.186 318.095 757.783C317.864 758.387 317.78 759.039 317.851 759.682C317.923 760.325 318.147 760.942 318.505 761.481C318.863 762.021 319.345 762.466 319.91 762.782C320.476 763.097 321.108 763.272 321.755 763.293C324.095 763.273 326.345 761.133 325.535 758.723ZM322.175 761.723C321.762 761.787 321.34 761.746 320.947 761.604C320.554 761.463 320.203 761.225 319.925 760.913C319.648 760.6 319.453 760.224 319.359 759.817C319.264 759.41 319.273 758.985 319.385 758.583C319.505 757.993 319.84 757.469 320.325 757.113C320.319 757.173 320.326 757.233 320.346 757.29C320.366 757.346 320.398 757.398 320.44 757.441C320.482 757.484 320.533 757.517 320.589 757.538C320.645 757.559 320.705 757.568 320.765 757.563C322.035 757.423 323.215 757.343 323.975 758.623C324.825 760.053 323.615 761.453 322.175 761.723Z" fill="#DBEAF2"/>
<path d="M332.186 770.923C332.866 768.753 331.496 765.753 329.106 765.393C328.937 765.373 328.766 765.411 328.621 765.5C328.476 765.589 328.365 765.724 328.306 765.883C327.725 765.811 327.136 765.891 326.596 766.115C326.056 766.34 325.584 766.701 325.226 767.163C324.844 767.592 324.563 768.101 324.4 768.651C324.238 769.202 324.2 769.782 324.288 770.35C324.376 770.917 324.588 771.458 324.909 771.934C325.23 772.41 325.652 772.809 326.146 773.103C328.316 774.273 331.426 773.353 332.186 770.923ZM327.246 771.923C326.909 771.799 326.606 771.599 326.36 771.339C326.113 771.079 325.93 770.765 325.825 770.423C325.719 770.08 325.694 769.718 325.752 769.364C325.809 769.01 325.947 768.675 326.156 768.383C326.34 768.06 326.591 767.78 326.893 767.562C327.194 767.344 327.539 767.193 327.904 767.12C328.268 767.046 328.644 767.051 329.007 767.134C329.369 767.217 329.71 767.377 330.006 767.603C330.28 767.879 330.495 768.207 330.64 768.567C330.784 768.928 330.854 769.314 330.846 769.703C330.817 770.116 330.69 770.515 330.476 770.869C330.263 771.223 329.968 771.522 329.616 771.739C329.265 771.957 328.866 772.088 328.454 772.122C328.042 772.156 327.628 772.091 327.246 771.933V771.923Z" fill="#DBEAF2"/>
<path d="M276.215 748.973C278.405 744.143 276.965 735.893 271.215 734.713C270.455 733.293 268.055 732.883 266.535 732.793C264.875 732.704 263.215 732.967 261.664 733.565C260.113 734.163 258.706 735.083 257.535 736.263C252.805 741.133 253.705 749.873 259.405 753.633C265.105 757.393 273.355 755.293 276.215 748.973ZM261.315 752.773C257.095 750.653 255.255 745.353 256.615 740.953C257.063 739.622 257.804 738.409 258.784 737.404C259.764 736.398 260.957 735.625 262.275 735.143C263.535 734.653 267.375 733.753 269.445 734.623C269.328 734.677 269.23 734.766 269.165 734.878C269.1 734.99 269.071 735.119 269.082 735.248C269.093 735.377 269.143 735.499 269.226 735.599C269.309 735.698 269.42 735.769 269.545 735.803C275.055 736.943 276.765 743.553 274.615 748.223C274.053 749.406 273.26 750.465 272.283 751.337C271.305 752.209 270.163 752.876 268.924 753.3C267.685 753.724 266.373 753.896 265.066 753.805C263.76 753.715 262.484 753.364 261.315 752.773Z" fill="#DBEAF2"/>
<path d="M260.155 727.353C259.693 726.623 258.983 726.083 258.155 725.833C257.495 725.633 256.245 725.553 255.905 726.303C255.905 726.303 255.905 726.303 255.905 726.373L255.685 726.523C255.037 727.072 254.622 727.848 254.525 728.693C254.503 729.147 254.591 729.599 254.781 730.012C254.971 730.424 255.258 730.785 255.617 731.063C255.976 731.341 256.398 731.528 256.845 731.608C257.292 731.688 257.752 731.659 258.185 731.523C258.633 731.45 259.057 731.269 259.419 730.996C259.782 730.723 260.072 730.366 260.266 729.956C260.46 729.545 260.551 729.094 260.532 728.641C260.513 728.187 260.383 727.745 260.155 727.353ZM258.155 730.443C256.855 730.853 255.385 730.123 255.605 728.623C255.678 728.244 255.824 727.884 256.037 727.563C256.25 727.242 256.525 726.967 256.845 726.753C257.09 726.707 257.341 726.707 257.585 726.753C258.138 726.857 258.639 727.146 259.005 727.573C259.201 727.799 259.335 728.071 259.394 728.364C259.454 728.656 259.437 728.959 259.346 729.244C259.254 729.528 259.091 729.784 258.872 729.987C258.653 730.19 258.386 730.333 258.095 730.403L258.155 730.443Z" fill="#DBEAF2"/>
<path d="M267.435 725.523C267.159 725.179 266.819 724.89 266.435 724.673C266.438 724.609 266.423 724.546 266.393 724.49C266.364 724.434 266.319 724.386 266.265 724.353C265.794 724.079 265.247 723.963 264.705 724.023C264.362 723.939 264.001 723.969 263.677 724.107C263.352 724.246 263.081 724.487 262.905 724.793C262.461 725.157 262.117 725.629 261.905 726.163C261.105 728.343 263.195 730.043 265.255 729.773C267.315 729.503 268.735 727.353 267.435 725.523ZM265.075 728.523C263.715 728.663 262.575 727.593 263.215 726.253C263.363 725.946 263.575 725.673 263.835 725.453C264.147 725.304 264.491 725.239 264.835 725.263C265.356 725.347 265.831 725.613 266.175 726.013C267.165 727.083 266.425 728.353 265.095 728.513L265.075 728.523Z" fill="#DBEAF2"/>
<path d="M273.916 731.023C274.082 730.435 274.067 729.811 273.875 729.232C273.682 728.653 273.32 728.144 272.836 727.773C272.85 727.699 272.838 727.622 272.801 727.556C272.765 727.491 272.706 727.44 272.636 727.413C271.948 727.122 271.176 727.098 270.471 727.346C269.767 727.594 269.18 728.095 268.826 728.753C268.662 729.088 268.568 729.452 268.548 729.825C268.529 730.197 268.585 730.569 268.713 730.919C268.841 731.27 269.038 731.59 269.293 731.862C269.547 732.134 269.855 732.352 270.196 732.503C270.53 732.69 270.903 732.8 271.285 732.825C271.668 732.85 272.051 732.79 272.408 732.648C272.764 732.506 273.084 732.287 273.345 732.006C273.606 731.724 273.801 731.389 273.916 731.023ZM271.266 731.343C271.058 731.316 270.858 731.248 270.677 731.143C270.496 731.038 270.338 730.898 270.212 730.732C270.085 730.565 269.993 730.376 269.94 730.173C269.888 729.971 269.876 729.76 269.906 729.553C269.943 729.772 270.048 729.974 270.205 730.13C270.363 730.286 270.566 730.388 270.786 730.423C271.296 730.513 271.846 729.833 271.336 729.423H271.256C271.314 729.278 271.425 729.161 271.566 729.093C271.966 728.913 272.286 729.313 272.416 729.653C272.806 730.443 272.296 731.513 271.266 731.353V731.343Z" fill="#DBEAF2"/>
<path d="M328.655 719.973C329.275 719.203 328.225 718.123 327.525 718.873C319.225 727.813 305.755 722.133 305.625 710.143C305.625 709.853 305.135 709.773 305.095 710.083C303.355 723.283 320.355 730.183 328.655 719.973Z" fill="#DBEAF2"/>
<path d="M309.095 686.263C306.005 684.923 302.175 687.033 301.285 690.183C301.265 690.285 301.282 690.39 301.332 690.481C301.382 690.572 301.463 690.642 301.56 690.679C301.657 690.716 301.763 690.718 301.861 690.684C301.959 690.65 302.042 690.582 302.095 690.493C303.195 688.363 305.495 686.583 308.035 687.223C308.697 687.427 309.293 687.802 309.763 688.31C310.234 688.818 310.562 689.441 310.715 690.116C310.869 690.792 310.841 691.495 310.636 692.157C310.43 692.818 310.054 693.413 309.545 693.883C308.905 694.423 309.835 695.323 310.465 694.783C313.195 692.473 312.335 687.663 309.095 686.263Z" fill="#DBEAF2"/>
<path d="M346.605 709.493C344.195 707.853 340.305 708.493 339.405 711.493C339.295 711.843 339.795 712.003 339.975 711.713C340.337 711.149 340.83 710.682 341.412 710.352C341.995 710.021 342.648 709.837 343.317 709.816C343.987 709.794 344.651 709.935 345.253 710.228C345.856 710.52 346.378 710.954 346.775 711.493C348.205 713.603 347.485 715.653 347.055 717.903C346.965 718.373 347.615 718.853 347.955 718.403C349.895 715.873 349.245 711.353 346.605 709.493Z" fill="#DBEAF2"/>
</g>
</g>
<defs>
<linearGradient id="paint0_linear_910_5508" x1="-80.6963" y1="74.1173" x2="273.388" y2="17.4603" gradientUnits="userSpaceOnUse">
<stop stop-color="#63B9F3"/>
<stop offset="0.333333" stop-color="#55C1D6"/>
<stop offset="0.666667" stop-color="#52D2BA"/>
<stop offset="1" stop-color="#0FA67B"/>
</linearGradient>
<linearGradient id="paint1_linear_910_5508" x1="229.951" y1="446.882" x2="199.549" y2="780.618" gradientUnits="userSpaceOnUse">
<stop stop-color="#63B9F3"/>
<stop offset="0.333333" stop-color="#55C1D6"/>
<stop offset="0.666667" stop-color="#52D2BA"/>
<stop offset="1" stop-color="#0FA67B"/>
</linearGradient>
<clipPath id="clip0_910_5508">
<rect width="382" height="807" fill="white"/>
</clipPath>
</defs>
</svg>
