<svg width="382" height="517" viewBox="0 0 382 517" fill="none" xmlns="http://www.w3.org/2000/svg">
<g clip-path="url(#clip0_910_5509)">
<rect width="382" height="517" rx="20" fill="white"/>
<mask id="mask0_910_5509" style="mask-type:alpha" maskUnits="userSpaceOnUse" x="0" y="0" width="382" height="517">
<rect width="382" height="517" rx="20" fill="white"/>
</mask>
<g mask="url(#mask0_910_5509)">
<path d="M-9.83775 252.07C-11.905 328.472 -15.6976 405.688 -5.81094 481.706C-4.48382 492.17 -5.78311 508.238 4.71219 514.334C14.4023 519.954 24.4944 513.456 26.5375 504.868C42.948 501.425 56.9429 488.542 64.8745 473.407C70.2024 463.247 73.1691 452.016 73.5536 440.55C73.662 435.026 73.0865 429.509 71.8403 424.125C70.5636 418.162 67.822 412.705 66.1093 406.876C64.8107 402.454 65.2528 399.949 67.3069 395.883C70.444 389.652 74.5188 384.933 78.6513 379.181C86.6612 368.15 93.5586 356.353 99.2424 343.962C105.514 330.129 110.688 315.1 108.554 299.649C106.643 285.842 100.389 273.962 91.0548 263.718C69.568 240.117 36.2019 235.636 6.00227 235.158C-3.20542 235.055 -9.60321 243.559 -9.83775 252.07Z" fill="#F8FCED"/>
<path d="M46.0098 158.654C36.4256 158.246 26.9261 156.938 17.7165 154.758C6.47607 152.053 -5.5451 148.099 -11.7416 139.71C-15.6131 134.409 -16.1331 128.185 -16.6704 122.26C-17.1692 116.51 -17.2841 110.728 -17.5592 104.975L-19.0894 71.2355C-20.149 48.758 -20.783 26.29 -21.5436 3.76925C-21.7934 -3.58788 -12.1404 -11.6956 -2.27911 -10.601C75.6948 -1.93871 154.482 0.735885 232.952 -2.61556C243.71 -3.07253 254.456 -3.64341 265.191 -4.3282C270.718 -4.67533 276.253 -5.05831 281.796 -5.47716C288.767 -5.99422 290.515 -6.11298 296.402 -6.6544C306.264 -7.51402 317.334 -4.32148 319.631 4.27915C320.128 6.29603 320.143 8.36322 319.675 10.3759C329.944 41.6509 298.91 78.2771 254.479 73.6867C243.957 72.6188 233.956 70.1654 223.804 67.8168C219.303 66.7226 214.734 65.8122 210.116 65.0894C210.381 65.1619 206.612 64.7779 205.868 64.7362C204.591 64.7075 203.315 64.6789 202.039 64.6502C201.539 64.639 200.132 64.7405 199.909 64.7354C198.842 64.8612 197.859 65.0304 196.843 65.2238C196.469 65.2986 194.768 65.7011 194.609 65.6975C193.182 66.1894 191.87 66.8335 190.495 67.3848L189.915 67.6213C189.139 68.0862 188.404 68.5853 187.69 69.1015C186.976 69.6177 186.402 70.0456 185.785 70.5473C185.579 70.7173 184.525 71.6666 184.004 72.1207C183.483 72.5747 182.554 73.6765 182.63 73.5784C182.117 74.1739 181.614 74.7697 181.122 75.3741C180.126 76.6075 179.204 77.8259 178.313 79.1448C176.391 81.9067 174.672 84.7529 173.162 87.6696C165.9 101.644 158.925 114.619 146.196 126.075C134.35 136.579 119.621 144.854 103.087 150.297C85.0431 156.262 65.7403 159.546 46.0098 158.654Z" fill="url(#paint0_linear_910_5509)" fill-opacity="0.08"/>
<path d="M384.017 328.514C383.827 308.204 383.647 287.884 383.607 267.574C383.607 259.904 376.477 251.104 368.107 252.074C329.377 256.564 299.727 287.484 297.437 326.524C296.937 335.044 297.607 343.574 297.617 352.104C297.617 354.104 297.617 356.034 297.497 357.994C297.497 358.994 297.397 359.924 297.317 360.884C297.317 361.054 297.247 361.624 297.197 362.134C297.067 362.854 296.777 364.694 296.797 364.604C296.607 365.504 296.397 366.404 296.157 367.294C295.917 368.184 295.627 369.034 295.357 369.914L295.207 370.424L295.007 370.744C294.577 371.544 294.157 372.354 293.677 373.134C293.597 373.274 293.207 373.834 292.897 374.284C292.397 374.804 291.177 376.174 291.247 376.114C290.847 376.504 290.427 376.864 290.007 377.234C290.087 377.034 287.537 378.824 287.007 379.114C286.477 379.404 285.807 379.744 285.197 380.034C284.887 380.174 284.457 380.354 284.057 380.494C276.817 382.984 269.277 384.154 261.757 385.444C243.757 388.524 227.597 394.344 216.587 409.714C211.687 416.544 208.657 424.634 205.847 432.484C204.607 435.974 203.437 439.484 202.157 442.974C200.377 447.794 200.547 447.744 198.107 452.244C197.247 453.824 196.287 455.344 195.297 456.844C195.207 456.974 194.867 457.394 194.647 457.664C194.167 458.214 193.647 458.764 193.187 459.284C192.907 459.574 190.187 462.014 190.587 461.804C189.058 462.922 187.447 463.925 185.767 464.804C185.097 465.164 182.147 466.414 182.767 466.234C181.337 466.754 179.907 467.234 178.447 467.654C174.836 468.671 171.161 469.449 167.447 469.984C167.567 469.984 164.337 470.354 163.687 470.424C161.857 470.604 160.037 470.774 158.207 470.924C154.037 471.264 149.867 471.514 145.707 471.924C137.236 472.515 128.818 473.712 120.517 475.504C101.837 479.914 85.6974 491.094 76.6474 508.264C71.9874 517.104 68.6474 526.864 68.1374 536.854C67.6571 546.186 68.4375 555.54 70.4574 564.664C72.0774 571.844 82.0774 569.664 82.6174 563.014C82.6774 562.264 82.7474 561.514 82.8174 560.754C85.0688 561.909 87.5482 562.551 90.0774 562.634C108.337 563.294 126.397 561.764 144.627 560.784C162.487 559.83 180.364 559.114 198.257 558.634C234.377 557.634 270.477 557.884 306.597 558.574C327.137 558.964 347.667 559.624 368.177 560.764C377.567 561.244 385.567 552.324 385.567 543.324C385.417 471.704 384.677 400.114 384.017 328.514Z" fill="url(#paint1_linear_910_5509)" fill-opacity="0.1"/>
<path d="M192.302 389.565C189.229 388.032 185.556 387.667 182.182 387.229C178.343 386.621 174.447 386.455 170.57 386.735C170.4 386.752 170.244 386.833 170.132 386.962L169.118 385.818C166.556 382.818 163.92 379.874 161.195 377.028C156.241 371.854 151.083 366.153 145.163 362.083C145.098 362.029 145.016 362 144.932 362C144.848 362 144.766 362.029 144.701 362.083C144.608 362.072 144.513 362.082 144.424 362.11C144.334 362.138 144.251 362.184 144.18 362.246C144.11 362.308 144.052 362.383 144.012 362.468C143.972 362.553 143.95 362.645 143.947 362.739V362.893C135.767 370.009 128.665 378.274 122.863 387.432C122.792 387.355 122.703 387.296 122.604 387.262C122.505 387.228 122.398 387.22 122.295 387.237C115.078 388.308 107.852 389.897 100.668 391.203C100.573 391.222 100.488 391.278 100.433 391.357L99.8973 391.252C99.7626 391.216 99.6202 391.22 99.488 391.264C99.3557 391.308 99.2392 391.39 99.1529 391.5C99.0667 391.609 99.0144 391.742 99.0026 391.881C98.9907 392.02 99.0199 392.159 99.0864 392.281C104.52 402.888 111.526 413.949 120.527 421.913C120.589 421.97 120.664 422.011 120.745 422.031C120.827 422.051 120.912 422.05 120.994 422.028C121.075 422.007 121.149 421.964 121.209 421.906C121.27 421.847 121.314 421.774 121.338 421.694C121.375 421.703 121.414 421.703 121.452 421.694C132.606 422.025 143.77 421.614 154.87 420.461C160.311 419.885 165.696 419.447 171.162 419.342C172.922 419.348 174.681 419.264 176.433 419.091C177.171 419.01 177.917 418.896 178.655 418.774L179.984 418.588C180.133 418.607 180.283 418.578 180.414 418.507C180.485 418.551 180.566 418.574 180.649 418.574C180.733 418.574 180.814 418.551 180.885 418.507L181.031 418.41C181.108 418.361 181.171 418.295 181.215 418.215C181.259 418.136 181.283 418.046 181.283 417.955C181.283 417.865 181.259 417.775 181.215 417.696C181.171 417.616 181.108 417.549 181.031 417.501C180.963 417.464 180.892 417.431 180.82 417.404C185.485 408.726 189.288 399.61 192.173 390.189C192.197 390.088 192.197 389.982 192.173 389.881C192.206 389.875 192.238 389.861 192.264 389.839C192.291 389.818 192.311 389.79 192.324 389.759C192.337 389.727 192.342 389.693 192.338 389.659C192.334 389.625 192.322 389.593 192.302 389.565ZM181.452 388.503C184.282 388.786 187.129 389.492 189.967 389.792C185.053 391.462 180.117 393.06 175.159 394.584C175.28 394.502 175.366 394.377 175.399 394.234C175.432 394.091 175.41 393.941 175.338 393.814C174.134 391.704 172.68 389.746 171.008 387.984C174.486 388.211 177.973 388.154 181.452 388.503ZM145.277 363.445C149.932 368.562 155.332 373.071 160.028 378.123C162.46 380.701 164.804 383.329 167.099 386.005C169.394 388.681 171.616 392.111 174.397 394.52C174.506 394.618 174.648 394.673 174.795 394.674C164.658 397.777 154.429 400.561 144.109 403.026C144.377 389.849 144.855 376.647 145.277 363.445ZM124.249 388.081C126.367 384.834 128.662 381.707 131.126 378.715C135.181 373.76 139.803 369.292 143.874 364.369C143.428 377.466 143.063 390.57 142.439 403.667C135.043 400.885 127.566 398.331 119.992 396.133C120.002 395.997 119.962 395.861 119.879 395.752L120.414 394.706C120.957 393.944 121.338 392.938 121.809 392.111C122.579 390.741 123.398 389.403 124.249 388.081ZM122.157 388.576C120.754 390.903 119.457 393.263 118.297 395.647C113.294 394.236 108.234 392.987 103.125 391.933C109.558 391.399 115.929 390.275 122.157 388.576ZM156.216 419.042C144.62 420.291 133.072 420.915 121.468 421.248C121.438 421.246 121.408 421.251 121.38 421.263C121.352 421.274 121.327 421.291 121.306 421.313C121.292 421.28 121.273 421.25 121.249 421.223C117.251 416.407 113.034 411.89 109.409 406.756C106.306 402.353 103.499 397.748 101.008 392.971C106.896 394.138 112.702 395.582 118.451 397.22C118.526 397.285 118.615 397.332 118.71 397.359C118.805 397.385 118.905 397.39 119.003 397.374C137.727 402.783 155.77 410.349 173.724 418.02C167.837 418.215 162.055 418.41 156.192 419.042H156.216ZM179.976 417.047C179.97 417.106 179.97 417.166 179.976 417.226C178.636 417.189 177.297 417.334 175.995 417.655C175.972 417.568 175.929 417.488 175.868 417.421C175.807 417.355 175.731 417.304 175.646 417.274C165.477 412.903 155.251 408.549 144.896 404.591C160.279 400.921 175.463 396.464 190.389 391.235C187.437 400.04 183.96 408.659 179.976 417.047Z" fill="#CEEAE5"/>
</g>
</g>
<defs>
<linearGradient id="paint0_linear_910_5509" x1="-80.6963" y1="74.1173" x2="273.388" y2="17.4603" gradientUnits="userSpaceOnUse">
<stop stop-color="#63B9F3"/>
<stop offset="0.333333" stop-color="#55C1D6"/>
<stop offset="0.666667" stop-color="#52D2BA"/>
<stop offset="1" stop-color="#0FA67B"/>
</linearGradient>
<linearGradient id="paint1_linear_910_5509" x1="233.951" y1="198.882" x2="203.549" y2="532.618" gradientUnits="userSpaceOnUse">
<stop stop-color="#63B9F3"/>
<stop offset="0.333333" stop-color="#55C1D6"/>
<stop offset="0.666667" stop-color="#52D2BA"/>
<stop offset="1" stop-color="#0FA67B"/>
</linearGradient>
<clipPath id="clip0_910_5509">
<rect width="382" height="517" fill="white"/>
</clipPath>
</defs>
</svg>
