<svg width="860" height="600" viewBox="0 0 860 600" fill="none" xmlns="http://www.w3.org/2000/svg">
<g clip-path="url(#clip0_1011_1462)">
<rect y="0.000244141" width="860" height="600" rx="20" fill="white"/>
<mask id="mask0_1011_1462" style="mask-type:alpha" maskUnits="userSpaceOnUse" x="0" y="0" width="860" height="600">
<rect width="860" height="600" rx="20" fill="#CEE0EA"/>
</mask>
<g mask="url(#mask0_1011_1462)">
<path d="M61.0098 161.654C51.4256 161.246 41.9261 159.938 32.7165 157.758C21.4761 155.053 9.4549 151.099 3.25842 142.71C-0.613076 137.409 -1.13307 131.185 -1.67043 125.26C-2.16916 119.51 -2.28406 113.728 -2.55924 107.975L-4.08945 74.2355C-5.14896 51.758 -5.78303 29.29 -6.54361 6.76925C-6.7934 -0.587879 2.85957 -8.69562 12.7209 -7.60096C90.6948 1.06129 169.482 3.73589 247.952 0.384436C258.71 -0.072527 269.456 -0.643407 280.191 -1.3282C285.718 -1.67533 291.253 -2.05831 296.796 -2.47716C303.767 -2.99422 305.515 -3.11298 311.402 -3.6544C321.264 -4.51402 332.334 -1.32148 334.631 7.27915C335.128 9.29603 335.143 11.3632 334.675 13.3759C344.944 44.6509 313.91 81.2771 269.479 76.6867C258.957 75.6188 248.956 73.1654 238.804 70.8168C234.303 69.7226 229.734 68.8122 225.116 68.0894C225.381 68.1619 221.612 67.7779 220.868 67.7362C219.591 67.7075 218.315 67.6789 217.039 67.6502C216.539 67.639 215.132 67.7405 214.909 67.7354C213.842 67.8612 212.859 68.0304 211.843 68.2238C211.469 68.2985 209.768 68.7011 209.609 68.6975C208.182 69.1894 206.87 69.8335 205.495 70.3848L204.915 70.6213C204.139 71.0862 203.404 71.5853 202.69 72.1015C201.976 72.6177 201.402 73.0456 200.785 73.5473C200.579 73.7173 199.525 74.6666 199.004 75.1207C198.483 75.5747 197.554 76.6765 197.63 76.5784C197.117 77.174 196.614 77.7697 196.122 78.3741C195.126 79.6075 194.204 80.8259 193.313 82.1448C191.391 84.9067 189.672 87.7529 188.162 90.6696C180.9 104.644 173.925 117.619 161.196 129.075C149.35 139.579 134.621 147.854 118.087 153.297C100.043 159.262 80.7403 162.546 61.0098 161.654Z" fill="url(#paint0_linear_1011_1462)" fill-opacity="0.08"/>
<path d="M834.932 -5.34673C758.632 -9.79673 681.572 -15.9967 605.282 -8.48673C594.782 -7.48673 578.762 -9.28673 572.342 1.01327C566.422 10.5233 572.602 20.8133 581.122 23.1233C584.052 39.6333 596.492 54.0233 611.372 62.4233C621.361 68.0656 632.494 71.3813 643.942 72.1233C649.46 72.404 654.992 72.0009 660.412 70.9233C666.412 69.8333 671.952 67.2633 677.832 65.7333C682.292 64.5733 684.782 65.0933 688.782 67.2733C694.912 70.6033 699.502 74.8233 705.122 79.1333C715.898 87.4835 727.474 94.7456 739.682 100.813C753.312 107.513 768.172 113.153 783.682 111.503C797.542 110.023 809.612 104.143 820.142 95.1333C844.402 74.3933 849.922 41.1833 851.342 11.0133C851.732 1.81327 843.432 -4.84673 834.932 -5.34673Z" fill="#F8FCED"/>
<path d="M274.72 526.322C266.36 513.547 253.958 503.951 238.889 500.562C224.465 497.321 210.336 499.404 195.86 501.112L194.157 501.29C193.01 501.369 191.035 501.508 191.072 501.519C188.504 501.657 185.93 501.662 183.361 501.535L181.597 501.403C180.817 501.307 180.042 501.171 179.276 500.995C176.405 500.213 173.547 499.425 170.739 498.469C162.279 495.541 154.164 491.61 145.704 488.65C138.187 484.027 129.845 480.908 121.141 479.467C87.9101 474.222 57.877 495.511 49.2874 527.783C41.6273 556.742 50.8769 589.134 68.0662 613.018C84.8283 636.322 107.204 654.081 134.454 663.598C186.599 681.788 251.296 658.082 275.778 607.471C287.852 582.461 290.569 550.532 274.72 526.322Z" fill="url(#paint1_linear_1011_1462)" fill-opacity="0.05"/>
</g>
<mask id="mask1_1011_1462" style="mask-type:alpha" maskUnits="userSpaceOnUse" x="0" y="0" width="860" height="600">
<rect width="860" height="600" rx="20" fill="white"/>
</mask>
<g mask="url(#mask1_1011_1462)">
<path d="M77.4423 547.494C70.6723 545.564 63.6623 546.664 56.9523 548.764C66.7123 541.764 76.5323 531.364 66.7623 523.524C56.0923 514.964 42.5823 526.524 35.1623 536.524C36.4923 530.044 37.0123 523.174 35.6723 516.904C34.6023 511.904 31.2923 505.564 25.2723 506.024C18.8323 506.524 16.1823 514.024 15.1023 519.374C13.99 524.904 14.0138 530.603 15.1723 536.124C12.8829 531.432 9.94034 527.089 6.43233 523.224C2.80233 519.224 -3.89767 512.494 -9.97767 515.634C-15.5577 518.514 -13.2277 526.014 -11.1177 530.334C-7.96893 536.655 -3.69207 542.349 1.50234 547.134C-5.00462 545.281 -11.857 544.99 -18.4977 546.284C-23.1877 547.284 -29.1077 550.094 -29.9077 555.394C-30.8377 561.474 -24.5477 564.864 -19.7177 566.504C-13.9849 568.425 -7.92802 569.189 -1.89768 568.754C-7.43768 571.574 -12.6677 574.984 -16.2577 580.194C-19.7377 585.254 -22.2577 594.054 -16.9777 598.884C-12.0777 603.344 -3.5577 600.794 1.5823 598.194C6.43904 595.61 10.7299 592.081 14.2023 587.814C12.7544 593.259 12.5629 598.963 13.6423 604.494C14.6923 609.864 18.0523 621.344 25.3523 620.704C31.9323 620.124 35.2723 611.314 36.0423 605.834C36.6252 600.771 36.2864 595.645 35.0423 590.704C37.6834 595.383 41.3607 599.395 45.7923 602.434C51.3623 606.044 60.2923 608.354 65.9223 603.554C71.9223 598.454 66.9223 591.024 62.9923 586.484C59.1298 582.041 54.6589 578.166 49.7123 574.974C56.7923 577.134 63.9523 579.064 71.4023 578.104C79.5923 577.034 87.1023 571.954 88.7123 563.494C90.1623 555.594 84.6923 549.494 77.4423 547.494ZM85.9323 565.124C82.9323 573.654 73.7123 576.514 65.4623 576.044C56.7223 575.544 48.4623 571.884 40.0823 569.804C38.8923 569.514 37.9823 571.344 39.2123 571.884C45.5604 574.644 51.4144 578.424 56.5423 583.074C61.0223 587.194 72.1623 597.984 62.8623 602.804C56.2523 606.234 47.8623 601.994 43.0523 597.354C38.0523 592.544 34.8923 586.114 31.9923 579.884C31.4523 578.734 29.5523 579.544 29.9323 580.744C33.3123 591.284 38.0723 607.004 29.0923 616.204C28.4882 616.754 27.7769 617.173 27.0031 617.435C26.2293 617.697 25.4097 617.797 24.5957 617.727C23.7816 617.658 22.9907 617.421 22.2725 617.031C21.5544 616.642 20.9245 616.108 20.4223 615.464C19.6807 614.378 19.035 613.231 18.4923 612.034C16.806 608.507 15.7468 604.714 15.3623 600.824C14.6845 594.171 15.9268 587.463 18.9423 581.494C19.0728 581.239 19.1009 580.944 19.0208 580.669C18.9407 580.395 18.7584 580.161 18.5114 580.016C18.2645 579.872 17.9716 579.827 17.6928 579.892C17.414 579.956 17.1705 580.125 17.0123 580.364C13.6374 585.666 9.29928 590.289 4.22231 593.994C-0.427687 597.204 -9.14767 601.274 -14.6377 597.804C-21.9877 593.154 -15.6377 581.934 -11.2577 577.684C-6.54767 573.054 -0.347692 570.304 5.59231 567.624C6.79231 567.084 5.90233 565.354 4.74233 565.624C-1.51316 566.999 -7.98943 567.03 -14.2577 565.714C-19.1377 564.714 -30.6777 561.434 -27.3077 554.144C-25.0477 549.274 -17.8977 548.144 -13.2477 547.794C-6.80076 547.438 -0.350338 548.429 5.69234 550.704C6.89234 551.134 7.33233 549.464 6.49233 548.814C1.56169 545.043 -2.69513 540.465 -6.09769 535.274C-8.72769 531.274 -16.7477 517.554 -6.80765 516.984C-0.997653 516.654 4.56235 523.414 7.88235 527.494C11.8978 532.516 15.0661 538.16 17.2623 544.204C17.3001 544.317 17.3749 544.414 17.4748 544.479C17.5746 544.545 17.6935 544.574 17.8123 544.564C17.8084 544.604 17.8084 544.644 17.8123 544.684C18.2923 545.814 20.2923 544.994 19.8123 543.844C17.2205 537.789 16.113 531.203 16.5823 524.634C17.0123 519.424 18.5823 508.954 25.3423 508.374C32.1023 507.794 33.7023 517.024 33.9223 521.894C34.1923 528.954 33.2728 536.009 31.2023 542.764C31.1387 543.026 31.1704 543.303 31.2916 543.544C31.4128 543.785 31.6158 543.976 31.8643 544.081C32.1128 544.187 32.3907 544.201 32.6485 544.121C32.9064 544.041 33.1274 543.872 33.2723 543.644C35.9165 538.509 39.5139 533.924 43.8723 530.134C49.1023 525.694 57.1723 520.544 64.0223 524.394C72.7923 529.344 65.5723 538.394 60.6423 542.914C55.8831 547.259 50.4704 550.829 44.6023 553.494C43.4523 554.024 44.2823 556.064 45.4723 555.564C53.7123 552.144 62.4723 548.414 71.5923 548.904C80.3223 549.324 89.3523 555.224 85.9323 565.104V565.124Z" fill="#FDFADE"/>
<path d="M32.8021 560.794C32.5146 559.411 31.7628 558.168 30.6714 557.271C29.5799 556.374 28.2146 555.878 26.8021 555.864H26.7121C23.3321 555.414 20.4121 558.594 20.4521 561.864C20.5551 563.578 21.3345 565.181 22.6189 566.321C23.9033 567.461 25.5877 568.045 27.3021 567.944C28.1343 567.839 28.9374 567.571 29.6652 567.154C30.393 566.737 31.031 566.18 31.5423 565.515C32.0537 564.85 32.4284 564.091 32.6446 563.28C32.8608 562.47 32.9143 561.625 32.8021 560.794V560.794ZM26.5721 565.944C25.4573 565.854 24.4142 565.359 23.6402 564.551C22.8661 563.744 22.415 562.681 22.3721 561.564C22.4111 560.722 22.6674 559.905 23.1161 559.192C23.5647 558.478 24.1903 557.893 24.9321 557.494C25.0322 557.577 25.1499 557.637 25.2764 557.668C25.4029 557.699 25.5347 557.701 25.6621 557.674C28.0721 557.184 30.8221 558.884 30.9221 561.494C30.9224 562.657 30.4673 563.774 29.6543 564.606C28.8412 565.437 27.7349 565.918 26.5721 565.944V565.944Z" fill="#FDFADE"/>
<path d="M533.077 49.0731C533.077 48.8826 533.014 48.692 532.986 48.5015C532.986 48.6648 533.041 48.8553 533.086 49.0912L533.077 49.0731Z" fill="#D3F0FF"/>
<path d="M681.159 69.1892C678.773 67.7374 675.08 67.9461 673.129 69.9695C674.526 61.8032 671.632 49.0276 662.776 47.4215C653.639 45.7611 650.626 57.3209 650.98 65.097C646.607 58.8997 639.075 52.3304 631.88 58.1829C625.719 63.1915 627.824 77.2375 635.101 80.3407C635.225 80.3969 635.363 80.4131 635.496 80.3871C635.63 80.361 635.752 80.2941 635.845 80.1955C643.431 80.3951 651.016 80.1955 658.602 80.377C666.187 80.5585 673.71 81.611 681.186 81.4658C681.38 81.5952 681.617 81.6447 681.847 81.6042C682.077 81.5636 682.282 81.4361 682.42 81.2481C684.988 77.7003 685.324 71.7117 681.159 69.1892ZM659.328 78.6439C651.439 78.3655 643.541 78.5412 635.673 79.1702C629.793 75.8583 627.252 63.3095 633.359 59.0902C640.981 53.8275 648.149 62.9647 651.506 68.7446C651.603 68.906 651.754 69.0272 651.933 69.0859C652.112 69.1446 652.305 69.1367 652.479 69.0639C652.652 68.991 652.793 68.858 652.876 68.6893C652.959 68.5206 652.979 68.3276 652.931 68.1457C651.949 64.2804 652.116 60.2125 653.412 56.4407C655.045 51.795 659.273 46.7319 664.672 49.6718C672.376 53.8729 672.167 64.9699 671.024 72.2652C670.998 72.3593 670.99 72.4577 671.002 72.5547C671.014 72.6517 671.044 72.7454 671.093 72.8305C671.141 72.9156 671.205 72.9904 671.282 73.0506C671.359 73.1109 671.447 73.1554 671.541 73.1816C671.635 73.2078 671.733 73.2152 671.83 73.2034C671.927 73.1916 672.021 73.1608 672.106 73.1128C672.191 73.0648 672.266 73.0004 672.326 72.9235C672.387 72.8466 672.431 72.7585 672.457 72.6644C672.457 72.5918 672.457 72.5192 672.521 72.4557C672.589 72.4475 672.653 72.4235 672.71 72.3857C672.767 72.3479 672.814 72.2973 672.848 72.2379C673.228 71.5647 673.751 70.9824 674.379 70.5312C675.007 70.0799 675.726 69.7707 676.485 69.6248C677.245 69.479 678.027 69.5 678.778 69.6864C679.528 69.8728 680.229 70.2202 680.832 70.7045C683.5 72.982 683.028 77.056 681.331 79.7781C674.181 78.5623 666.532 78.7619 659.328 78.6439Z" fill="#D3F0FF"/>
<path d="M551.941 91.5191C549.448 90.6052 546.732 90.4953 544.173 91.2049C541.615 91.9145 539.343 93.4079 537.677 95.4752C537.051 86.1112 534.048 75.0686 523.277 73.6984C521.295 73.4435 519.28 73.7308 517.447 74.5296C515.615 75.3285 514.033 76.6091 512.87 78.2353C510.716 81.2664 509.631 84.9275 509.785 88.6427C508.449 85.5629 506.358 82.8697 503.706 80.8122C499.704 77.9086 494.496 77.2644 490.322 80.177C481.53 86.3108 482.419 100.529 489.841 107.28C489.916 107.357 490.013 107.409 490.118 107.429C490.224 107.448 490.333 107.434 490.431 107.389C490.45 107.483 490.501 107.568 490.575 107.63C490.649 107.691 490.743 107.724 490.839 107.725C501.927 108.296 513.124 107.815 524.221 107.725C535.318 107.634 546.56 108.033 557.594 107.216C557.737 107.2 557.873 107.151 557.993 107.071C558.107 107.141 558.237 107.182 558.37 107.192C558.504 107.201 558.638 107.179 558.761 107.127C558.884 107.075 558.993 106.994 559.079 106.891C559.165 106.788 559.225 106.667 559.254 106.536C560.688 100.538 557.803 93.8601 551.941 91.5191ZM524.221 105.937C513.124 106.119 501.909 105.937 490.839 106.844H490.757C490.748 106.718 490.701 106.598 490.621 106.5C485.005 99.7489 482.854 88.4975 490.449 82.146C494.659 78.6254 500.149 79.7052 503.95 83.2984C507.29 86.456 508.923 90.9928 510.42 95.2211C510.486 95.4618 510.645 95.6663 510.862 95.7896C511.079 95.913 511.336 95.9451 511.577 95.879C511.818 95.8128 512.022 95.6537 512.145 95.4368C512.269 95.2198 512.301 94.9627 512.235 94.7221C511.436 89.8586 511.091 84.4689 513.877 80.1226C515.15 78.0586 517.157 76.5519 519.494 75.9041C521.831 75.2563 524.326 75.5153 526.48 76.6292C534.774 80.5763 535.726 90.521 535.844 98.6237C535.844 99.5311 537.242 100.039 537.659 99.1228C539.909 94.4226 545.281 91.4374 550.471 92.989C555.661 94.5406 558.637 100.357 557.576 105.574C546.569 105.03 535.282 105.756 524.221 105.937V105.937Z" fill="#D3F0FF"/>
<path d="M610.792 31.9238C601.41 26.7609 591.121 34.0198 587.509 42.9664C585.477 32.8947 579.143 22.7685 567.357 25.0914C553.746 27.8135 549.817 42.05 552.376 54.0544C549.436 50.679 545.526 48.1475 541.125 51.042C536.724 53.9365 537.042 60.161 541.243 63.0283C541.129 63.0775 541.036 63.164 540.978 63.2733C540.921 63.3827 540.902 63.5084 540.925 63.6299C540.948 63.7513 541.012 63.8613 541.106 63.9416C541.2 64.0219 541.319 64.0678 541.442 64.0717C564.127 65.5417 587.11 64.8158 609.83 64.9791C610.071 64.9791 610.302 64.8835 610.472 64.7133C610.642 64.5432 610.738 64.3124 610.738 64.0717C616.363 55.1523 623.332 38.8198 610.792 31.9238ZM542.268 62.9285C542.321 62.804 542.329 62.6654 542.293 62.5353C542.257 62.4052 542.178 62.2911 542.068 62.2116C537.477 58.7364 539.056 51.3233 545.208 51.4594C549.3 51.5501 551.714 55.3429 553.656 58.4824C554.118 59.2355 555.425 58.7546 555.135 57.8563C551.396 46.4507 552.966 30.4811 566.84 27.0785C579.942 23.8211 585.695 37.6765 586.212 48.3199C586.212 48.5822 586.316 48.8338 586.501 49.0192C586.687 49.2047 586.938 49.3089 587.201 49.3089C587.463 49.3089 587.715 49.2047 587.9 49.0192C588.086 48.8338 588.19 48.5822 588.19 48.3199C589.097 38.2482 602.708 26.3435 611.972 35.3718C620.093 43.2931 613.85 55.2703 609.032 63.0555C586.847 62.8377 564.435 61.8487 542.268 62.9285Z" fill="#D3F0FF"/>
<path d="M676.322 11.2541C676.318 11.1694 676.318 11.0846 676.322 11C676.322 11 676.322 11.1724 676.322 11.2541Z" fill="#D3F0FF"/>
<path d="M801.545 555.353C801.255 555.093 800.955 554.853 800.655 554.623C808.055 556.483 818.185 553.453 820.555 545.393C822.555 538.563 815.555 535.953 809.395 535.673C811.837 534.694 814.093 533.304 816.065 531.563C819.037 528.947 821.399 525.711 822.985 522.083C832.685 522.303 842.545 515.453 840.695 504.843C839.225 496.413 828.895 491.103 821.365 495.643L821.275 495.723C818.565 491.153 814.937 487.195 810.62 484.097C806.304 480.999 801.392 478.829 796.195 477.723C797.035 468.583 789.525 460.513 780.055 462.233C772.135 463.673 764.465 475.063 770.725 482.163C765.074 485.854 761.068 491.587 759.545 498.163C758.882 501.089 758.814 504.12 759.345 507.073C754.895 501.163 745.865 495.153 739.345 499.713C730.425 505.973 742.025 518.563 747.455 522.523C748.155 523.043 748.945 521.893 748.355 521.313C744.235 517.263 732.095 506.053 741.035 500.993C747.755 497.183 756.165 504.753 760.035 509.853C762.765 518.763 770.565 526.143 779.035 530.123C779.103 530.297 779.226 530.445 779.385 530.543C786.635 535.003 795.385 538.103 803.555 537.123C803.621 537.138 803.69 537.138 803.755 537.123C809.945 536.543 824.835 538.643 817.325 548.123C813.325 553.123 806.455 554.703 800.485 552.973C800.358 552.942 800.225 552.944 800.099 552.979C799.973 553.014 799.858 553.081 799.766 553.173C799.673 553.266 799.606 553.381 799.571 553.507C799.536 553.633 799.534 553.766 799.565 553.893C797.236 552.441 794.606 551.538 791.875 551.253C792.452 550.013 792.726 548.654 792.675 547.288C792.625 545.922 792.251 544.587 791.585 543.393C791.355 542.983 790.645 543.263 790.815 543.713C791.275 544.911 791.471 546.194 791.39 547.474C791.309 548.755 790.953 550.003 790.345 551.133C787.438 551.006 784.529 551.32 781.715 552.063C785.425 536.443 766.225 522.003 752.465 530.853C752.295 530.383 752.135 529.853 751.935 529.423C751.177 527.593 750.152 525.884 748.895 524.353C750.131 523.311 751.534 522.486 753.045 521.913C754.485 521.373 756.175 521.353 757.505 520.583C757.537 520.566 757.563 520.54 757.581 520.51C757.599 520.479 757.609 520.444 757.609 520.408C757.609 520.372 757.599 520.337 757.581 520.306C757.563 520.276 757.537 520.25 757.505 520.233C754.605 518.953 750.565 521.233 748.015 523.333C742.765 517.703 734.525 515.063 727.245 519.283C717.655 524.843 717.505 539.413 721.365 548.483C724.805 556.573 734.895 562.253 743.305 558.663C743.362 558.715 743.426 558.759 743.495 558.793C747.035 565.573 754.835 569.093 762.255 568.853C762.339 568.85 762.42 568.829 762.495 568.793C760.995 573.793 761.245 579.113 764.495 583.083C764.509 583.283 764.582 583.475 764.705 583.633C772.775 593.183 786.275 591.073 795.215 584.003C803.285 577.613 811.295 564.023 801.545 555.353ZM821.745 496.543C829.495 494.043 838.885 497.423 839.205 506.713C839.305 508.843 838.847 510.962 837.875 512.86C836.903 514.758 835.452 516.369 833.665 517.533C830.525 519.533 827.005 519.653 823.575 520.533C824.132 519.015 824.561 517.453 824.855 515.863C826.665 516.433 829.515 514.713 830.695 513.753C831.821 512.883 832.723 511.757 833.325 510.468C833.927 509.179 834.211 507.764 834.155 506.343C833.795 501.543 827.725 497.513 823.395 500.123C822.994 499.047 822.53 497.995 822.005 496.973C821.915 496.813 821.815 496.653 821.735 496.493L821.745 496.543ZM825.165 514.673C825.18 514.54 825.159 514.405 825.105 514.283C825.652 509.821 825.177 505.294 823.715 501.043C827.335 499.753 831.865 501.683 832.715 505.703C832.886 506.807 832.794 507.936 832.447 508.997C832.099 510.059 831.506 511.024 830.715 511.813C830.044 512.536 829.257 513.141 828.385 513.603C828.215 513.673 825.155 514.683 825.165 514.653V514.673ZM771.005 472.193C771.599 470.258 772.678 468.507 774.139 467.106C775.601 465.706 777.397 464.703 779.355 464.193C787.835 461.913 795.355 468.963 794.575 477.443C793.281 477.22 791.976 477.067 790.665 476.983C790.77 476.894 790.838 476.769 790.855 476.633C791.445 471.483 786.515 466.563 781.275 467.633C776.505 468.633 773.275 475.213 775.885 479.413C774.371 480.05 772.91 480.805 771.515 481.673C770.885 478.353 770.015 475.533 771.005 472.173V472.193ZM789.515 476.903H788.215C784.388 476.918 780.595 477.619 777.015 478.973C776.075 475.123 776.945 470.293 781.425 469.233C785.685 468.233 789.825 472.283 789.365 476.463C789.361 476.617 789.414 476.767 789.515 476.883V476.903ZM781.515 529.603C775.965 526.273 770.115 522.173 766.135 516.943C766.2 516.911 766.252 516.858 766.283 516.793C766.314 516.727 766.322 516.653 766.305 516.583C764.905 509.803 774.025 502.703 779.465 500.703C781.548 499.926 783.753 499.526 785.975 499.523C786.489 502.936 787.661 506.217 789.425 509.183C789.393 509.161 789.355 509.15 789.315 509.15C789.276 509.15 789.238 509.161 789.205 509.183C787.765 509.943 786.855 511.593 785.925 512.903C784.687 514.352 783.676 515.981 782.925 517.733C782.755 518.233 783.435 518.523 783.775 518.203C784.961 516.876 785.994 515.42 786.855 513.863C787.795 512.473 789.155 511.053 789.485 509.393C789.491 509.367 789.491 509.339 789.485 509.313C789.565 509.463 789.645 509.613 789.735 509.763C789.818 509.905 789.945 510.015 790.097 510.077C790.249 510.138 790.418 510.147 790.575 510.103C793.805 508.933 796.895 509.103 800.205 508.633C800.775 508.553 800.625 507.763 800.205 507.633C797.505 506.723 794.755 507.633 792.065 508.053C790.005 508.403 789.775 506.813 789.015 505.053C788.255 503.293 787.705 501.453 787.115 499.633C790.643 499.844 794.029 501.097 796.845 503.233C808.635 512.143 801.715 525.363 794.925 534.833C790.235 533.733 785.825 531.653 781.515 529.583V529.603ZM800.795 535.353C799.36 535.374 797.924 535.274 796.505 535.053C800.785 529.603 804.835 523.133 804.945 516.053C805.045 509.143 800.785 503.053 794.695 499.993C791.684 498.526 788.353 497.838 785.007 497.994C781.661 498.149 778.408 499.143 775.545 500.883C771.025 503.513 763.855 510.053 765.435 516.003C762.727 512.272 761.264 507.783 761.255 503.173C761.305 490.173 772.835 480.473 785.125 479.313C791.105 478.819 797.113 479.808 802.619 482.193C808.124 484.577 812.956 488.284 816.685 492.983C824.405 502.773 825.595 516.193 817.895 526.373C815.925 529.081 813.358 531.3 810.393 532.857C807.427 534.414 804.144 535.268 800.795 535.353V535.353ZM722.795 546.513C719.905 538.293 720.035 525.443 728.795 520.773C735.395 517.263 742.275 520.003 746.725 525.043C746.788 525.173 746.885 525.284 747.005 525.363C748.684 527.338 749.965 529.62 750.775 532.083C753.665 541.013 750.285 550.563 743.835 556.983C734.875 558.903 726.095 555.963 722.775 546.493L722.795 546.513ZM762.225 567.353C754.835 567.613 749.085 564.163 744.585 558.633C748.386 555.384 751.176 551.114 752.625 546.33C754.075 541.545 754.124 536.445 752.765 531.633C759.605 528.883 766.875 528.443 773.145 533.113C779.415 537.783 781.145 544.983 780.245 552.383C776.28 553.554 772.581 555.487 769.355 558.073C766.387 560.65 764.14 563.955 762.835 567.663C762.776 567.556 762.687 567.47 762.578 567.414C762.469 567.359 762.346 567.338 762.225 567.353ZM766.385 582.663C761.865 574.843 763.205 565.753 770.555 559.663C777.705 553.733 790.555 550.303 798.885 555.723C817.285 567.673 783.395 601.003 766.385 582.683V582.663Z" fill="#DBEAF2"/>
<path d="M790.606 569.513C788.686 563.413 782.286 559.073 775.756 560.943C769.056 562.863 765.056 570.563 767.866 577.023C770.776 583.723 779.536 587.573 786.346 584.643C791.936 582.233 794.926 574.253 790.606 569.513ZM783.656 583.603C777.466 584.923 770.246 580.603 768.946 574.363C767.856 569.153 771.636 563.763 776.736 562.513C781.836 561.263 786.736 564.513 789.216 568.783C789.158 568.811 789.108 568.852 789.068 568.902C789.028 568.952 789 569.01 788.986 569.072C788.972 569.134 788.971 569.199 788.985 569.261C788.999 569.324 789.026 569.382 789.066 569.433C792.906 574.893 790.356 582.163 783.656 583.603Z" fill="#DBEAF2"/>
<path d="M794.535 558.723C794.306 558.137 793.939 557.616 793.465 557.203C793.521 557.166 793.569 557.118 793.605 557.062C793.641 557.005 793.664 556.942 793.674 556.876C793.683 556.809 793.679 556.742 793.66 556.678C793.641 556.613 793.609 556.554 793.565 556.503C793.101 556.049 792.533 555.715 791.911 555.53C791.288 555.345 790.63 555.314 789.993 555.44C789.356 555.566 788.76 555.845 788.255 556.253C787.75 556.661 787.352 557.186 787.095 557.783C786.864 558.387 786.78 559.039 786.851 559.682C786.923 560.325 787.147 560.942 787.505 561.481C787.863 562.021 788.345 562.466 788.91 562.782C789.476 563.097 790.108 563.272 790.755 563.293C793.095 563.273 795.345 561.133 794.535 558.723ZM791.175 561.723C790.762 561.787 790.34 561.746 789.947 561.604C789.554 561.463 789.203 561.225 788.925 560.913C788.648 560.6 788.453 560.224 788.359 559.817C788.264 559.41 788.273 558.985 788.385 558.583C788.505 557.993 788.84 557.469 789.325 557.113C789.319 557.173 789.326 557.233 789.346 557.29C789.366 557.346 789.398 557.398 789.44 557.441C789.482 557.484 789.533 557.517 789.589 557.538C789.645 557.559 789.705 557.568 789.765 557.563C791.035 557.423 792.215 557.343 792.975 558.623C793.825 560.053 792.615 561.453 791.175 561.723V561.723Z" fill="#DBEAF2"/>
<path d="M801.186 570.923C801.866 568.753 800.496 565.753 798.106 565.393C797.937 565.373 797.766 565.411 797.621 565.5C797.476 565.589 797.365 565.724 797.306 565.883C796.725 565.811 796.136 565.891 795.596 566.115C795.056 566.34 794.584 566.701 794.226 567.163C793.844 567.592 793.563 568.101 793.4 568.651C793.238 569.202 793.2 569.782 793.288 570.35C793.376 570.917 793.588 571.458 793.909 571.934C794.23 572.41 794.652 572.809 795.146 573.103C797.316 574.273 800.426 573.353 801.186 570.923ZM796.246 571.923C795.909 571.799 795.606 571.599 795.36 571.339C795.113 571.079 794.93 570.765 794.825 570.423C794.719 570.08 794.694 569.718 794.752 569.364C794.809 569.01 794.947 568.675 795.156 568.383C795.34 568.06 795.591 567.78 795.893 567.562C796.194 567.344 796.539 567.193 796.904 567.12C797.268 567.046 797.644 567.051 798.007 567.134C798.369 567.217 798.71 567.377 799.006 567.603C799.28 567.879 799.495 568.207 799.64 568.567C799.784 568.928 799.854 569.314 799.846 569.703C799.817 570.116 799.69 570.515 799.476 570.869C799.263 571.223 798.968 571.522 798.616 571.739C798.265 571.957 797.866 572.088 797.454 572.122C797.042 572.156 796.628 572.091 796.246 571.933V571.923Z" fill="#DBEAF2"/>
<path d="M745.215 548.973C747.405 544.143 745.965 535.893 740.215 534.713C739.455 533.293 737.055 532.883 735.535 532.793C733.875 532.704 732.215 532.967 730.664 533.565C729.113 534.163 727.706 535.083 726.535 536.263C721.805 541.133 722.705 549.873 728.405 553.633C734.105 557.393 742.355 555.293 745.215 548.973ZM730.315 552.773C726.095 550.653 724.255 545.353 725.615 540.953C726.063 539.622 726.804 538.409 727.784 537.404C728.764 536.398 729.957 535.625 731.275 535.143C732.535 534.653 736.375 533.753 738.445 534.623C738.328 534.677 738.23 534.766 738.165 534.878C738.1 534.99 738.071 535.119 738.082 535.248C738.093 535.377 738.143 535.499 738.226 535.599C738.309 535.698 738.42 535.769 738.545 535.803C744.055 536.943 745.765 543.553 743.615 548.223C743.053 549.406 742.26 550.465 741.283 551.337C740.305 552.209 739.163 552.876 737.924 553.3C736.685 553.724 735.373 553.896 734.066 553.805C732.76 553.715 731.484 553.364 730.315 552.773V552.773Z" fill="#DBEAF2"/>
<path d="M729.155 527.353C728.693 526.623 727.983 526.083 727.155 525.833C726.495 525.633 725.245 525.553 724.905 526.303C724.905 526.303 724.905 526.303 724.905 526.373L724.685 526.523C724.037 527.072 723.622 527.848 723.525 528.693C723.503 529.147 723.591 529.599 723.781 530.012C723.971 530.424 724.258 530.785 724.617 531.063C724.976 531.341 725.398 531.528 725.845 531.608C726.292 531.688 726.752 531.659 727.185 531.523C727.633 531.45 728.057 531.269 728.419 530.996C728.782 530.723 729.072 530.366 729.266 529.956C729.46 529.545 729.551 529.094 729.532 528.641C729.513 528.187 729.383 527.745 729.155 527.353ZM727.155 530.443C725.855 530.853 724.385 530.123 724.605 528.623C724.678 528.244 724.824 527.884 725.037 527.563C725.25 527.242 725.525 526.967 725.845 526.753C726.09 526.707 726.341 526.707 726.585 526.753C727.138 526.857 727.639 527.146 728.005 527.573C728.201 527.799 728.335 528.071 728.394 528.364C728.454 528.656 728.437 528.959 728.346 529.244C728.254 529.528 728.091 529.784 727.872 529.987C727.653 530.19 727.386 530.333 727.095 530.403L727.155 530.443Z" fill="#DBEAF2"/>
<path d="M736.435 525.523C736.159 525.179 735.819 524.89 735.435 524.673C735.438 524.609 735.423 524.546 735.393 524.49C735.364 524.434 735.319 524.386 735.265 524.353C734.794 524.079 734.247 523.963 733.705 524.023C733.362 523.939 733.001 523.969 732.677 524.107C732.352 524.246 732.081 524.487 731.905 524.793C731.461 525.157 731.117 525.629 730.905 526.163C730.105 528.343 732.195 530.043 734.255 529.773C736.315 529.503 737.735 527.353 736.435 525.523ZM734.075 528.523C732.715 528.663 731.575 527.593 732.215 526.253C732.363 525.946 732.575 525.673 732.835 525.453C733.147 525.304 733.491 525.239 733.835 525.263C734.356 525.347 734.831 525.613 735.175 526.013C736.165 527.083 735.425 528.353 734.095 528.513L734.075 528.523Z" fill="#DBEAF2"/>
<path d="M742.916 531.023C743.082 530.435 743.067 529.811 742.875 529.232C742.682 528.653 742.32 528.144 741.836 527.773C741.85 527.699 741.838 527.622 741.801 527.556C741.765 527.491 741.706 527.44 741.636 527.413C740.948 527.122 740.176 527.098 739.471 527.346C738.767 527.594 738.18 528.095 737.826 528.753C737.662 529.088 737.568 529.452 737.548 529.825C737.529 530.197 737.585 530.569 737.713 530.919C737.841 531.27 738.038 531.59 738.293 531.862C738.547 532.134 738.855 532.352 739.196 532.503C739.53 532.69 739.903 532.8 740.285 532.825C740.668 532.85 741.051 532.79 741.408 532.648C741.764 532.506 742.084 532.287 742.345 532.006C742.606 531.724 742.801 531.389 742.916 531.023V531.023ZM740.266 531.343C740.058 531.316 739.858 531.248 739.677 531.143C739.496 531.038 739.338 530.898 739.212 530.732C739.085 530.565 738.993 530.376 738.94 530.173C738.888 529.971 738.876 529.76 738.906 529.553C738.943 529.772 739.048 529.974 739.205 530.13C739.363 530.286 739.566 530.388 739.786 530.423C740.296 530.513 740.846 529.833 740.336 529.423H740.256C740.314 529.278 740.425 529.161 740.566 529.093C740.966 528.913 741.286 529.313 741.416 529.653C741.806 530.443 741.296 531.513 740.266 531.353V531.343Z" fill="#DBEAF2"/>
<path d="M797.655 519.973C798.275 519.203 797.225 518.123 796.525 518.873C788.225 527.813 774.755 522.133 774.625 510.143C774.625 509.853 774.135 509.773 774.095 510.083C772.355 523.283 789.355 530.183 797.655 519.973Z" fill="#DBEAF2"/>
<path d="M778.095 486.263C775.005 484.923 771.175 487.033 770.285 490.183C770.265 490.285 770.282 490.39 770.332 490.481C770.382 490.572 770.463 490.642 770.56 490.679C770.657 490.716 770.763 490.718 770.861 490.684C770.959 490.65 771.042 490.582 771.095 490.493C772.195 488.363 774.495 486.583 777.035 487.223C777.697 487.427 778.293 487.802 778.763 488.31C779.234 488.818 779.562 489.441 779.715 490.116C779.869 490.792 779.841 491.495 779.636 492.157C779.43 492.818 779.054 493.413 778.545 493.883C777.905 494.423 778.835 495.323 779.465 494.783C782.195 492.473 781.335 487.663 778.095 486.263Z" fill="#DBEAF2"/>
<path d="M815.605 509.493C813.195 507.853 809.305 508.493 808.405 511.493C808.295 511.843 808.795 512.003 808.975 511.713C809.337 511.149 809.83 510.682 810.412 510.352C810.995 510.021 811.648 509.837 812.317 509.816C812.987 509.794 813.651 509.935 814.253 510.228C814.856 510.52 815.378 510.954 815.775 511.493C817.205 513.603 816.485 515.653 816.055 517.903C815.965 518.373 816.615 518.853 816.955 518.403C818.895 515.873 818.245 511.353 815.605 509.493Z" fill="#DBEAF2"/>
</g>
<path d="M884.017 379.514C883.827 359.204 883.647 338.884 883.607 318.574C883.607 310.904 876.477 302.104 868.107 303.074C829.377 307.564 799.727 338.484 797.437 377.524C796.937 386.044 797.607 394.574 797.617 403.104C797.617 405.104 797.617 407.034 797.497 408.994C797.497 409.994 797.397 410.924 797.317 411.884C797.317 412.054 797.247 412.624 797.197 413.134C797.067 413.854 796.777 415.694 796.797 415.604C796.607 416.504 796.397 417.404 796.157 418.294C795.917 419.184 795.627 420.034 795.357 420.914L795.207 421.424L795.007 421.744C794.577 422.544 794.157 423.354 793.677 424.134C793.597 424.274 793.207 424.834 792.897 425.284C792.397 425.804 791.177 427.174 791.247 427.114C790.847 427.504 790.427 427.864 790.007 428.234C790.087 428.034 787.537 429.824 787.007 430.114C786.477 430.404 785.807 430.744 785.197 431.034C784.887 431.174 784.457 431.354 784.057 431.494C776.817 433.984 769.277 435.154 761.757 436.444C743.757 439.524 727.597 445.344 716.587 460.714C711.687 467.544 708.657 475.634 705.847 483.484C704.607 486.974 703.437 490.484 702.157 493.974C700.377 498.794 700.547 498.744 698.107 503.244C697.247 504.824 696.287 506.344 695.297 507.844C695.207 507.974 694.867 508.394 694.647 508.664C694.167 509.214 693.647 509.764 693.187 510.284C692.907 510.574 690.187 513.014 690.587 512.804C689.058 513.922 687.447 514.925 685.767 515.804C685.097 516.164 682.147 517.414 682.767 517.234C681.337 517.754 679.907 518.234 678.447 518.654C674.836 519.671 671.161 520.449 667.447 520.984C667.567 520.984 664.337 521.354 663.687 521.424C661.857 521.604 660.037 521.774 658.207 521.924C654.037 522.264 649.867 522.514 645.707 522.924C637.236 523.515 628.818 524.712 620.517 526.504C601.837 530.914 585.697 542.094 576.647 559.264C571.987 568.104 568.647 577.864 568.137 587.854C567.657 597.186 568.437 606.54 570.457 615.664C572.077 622.844 582.077 620.664 582.617 614.014C582.677 613.264 582.747 612.514 582.817 611.754C585.069 612.909 587.548 613.551 590.077 613.634C608.337 614.294 626.397 612.764 644.627 611.784C662.487 610.83 680.364 610.114 698.257 609.634C734.377 608.634 770.477 608.884 806.597 609.574C827.137 609.964 847.667 610.624 868.177 611.764C877.567 612.244 885.567 603.324 885.567 594.324C885.417 522.704 884.677 451.114 884.017 379.514Z" fill="url(#paint2_linear_1011_1462)" fill-opacity="0.1"/>
</g>
<defs>
<linearGradient id="paint0_linear_1011_1462" x1="-65.6963" y1="77.1173" x2="288.388" y2="20.4603" gradientUnits="userSpaceOnUse">
<stop stop-color="#63B9F3"/>
<stop offset="0.333333" stop-color="#55C1D6"/>
<stop offset="0.666667" stop-color="#52D2BA"/>
<stop offset="1" stop-color="#0FA67B"/>
</linearGradient>
<linearGradient id="paint1_linear_1011_1462" x1="102.119" y1="433.106" x2="194.655" y2="645.27" gradientUnits="userSpaceOnUse">
<stop stop-color="#63B9F3"/>
<stop offset="0.333333" stop-color="#55C1D6"/>
<stop offset="0.666667" stop-color="#52D2BA"/>
<stop offset="1" stop-color="#0FA67B"/>
</linearGradient>
<linearGradient id="paint2_linear_1011_1462" x1="733.951" y1="249.882" x2="703.549" y2="583.618" gradientUnits="userSpaceOnUse">
<stop stop-color="#63B9F3"/>
<stop offset="0.333333" stop-color="#55C1D6"/>
<stop offset="0.666667" stop-color="#52D2BA"/>
<stop offset="1" stop-color="#0FA67B"/>
</linearGradient>
<clipPath id="clip0_1011_1462">
<rect width="860" height="600" fill="white"/>
</clipPath>
</defs>
</svg>
