<svg width="334" height="137" viewBox="0 0 334 137" fill="none" xmlns="http://www.w3.org/2000/svg">
<path d="M2.01417 24.1965C3.23036 16.1389 5.10835 8.20312 7.63362 0.456049C7.40141 0.456049 7.1663 0.456049 6.93409 0.456049C9.10234 7.65453 11.2706 14.853 13.4417 22.0515C13.5579 21.8976 13.674 21.7467 13.793 21.5929C12.1385 21.6074 11.0906 19.1431 10.1937 17.9936C9.37229 16.9371 8.45797 15.9473 7.37529 15.152C5.32024 13.6397 2.69338 12.9721 0.246478 13.8719C-0.186011 14.0316 -0.00314676 14.7282 0.43805 14.5714C6.74833 12.351 12.9657 9.88083 19.0844 7.17269C18.9393 6.98402 18.7913 6.79245 18.6461 6.60378C13.5666 12.9024 5.79337 16.9313 2.25218 24.4548C2.0548 24.8757 2.67887 25.2443 2.87915 24.8206C6.3884 17.3638 14.121 13.364 19.1599 7.11754C19.424 6.78955 19.1047 6.37738 18.7216 6.54863C12.6609 9.23064 6.50161 11.6746 0.249381 13.8748C0.313238 14.107 0.377095 14.3421 0.440953 14.5744C3.74993 13.3553 6.90797 15.2449 9.03849 17.7179C10.304 19.1866 11.4999 22.3417 13.793 22.3214C14.0223 22.3185 14.2109 22.0921 14.1442 21.8628C11.9759 14.6643 9.80768 7.46585 7.63653 0.267377C7.53203 -0.0838389 7.0473 -0.0722284 6.937 0.267377C4.40882 8.01445 2.53083 15.9502 1.31754 24.0078C1.24498 24.4606 1.94451 24.6551 2.01417 24.1965Z" fill="#FFEFB5"/>
<path d="M106.778 41.3618C107.852 34.2485 109.51 27.2427 111.739 20.4036C111.534 20.4036 111.326 20.4036 111.121 20.4036C113.036 26.7584 114.95 33.1133 116.866 39.4682C116.969 39.3324 117.071 39.1991 117.177 39.0633C115.716 39.0761 114.791 36.9006 113.999 35.8859C113.274 34.9531 112.467 34.0793 111.511 33.3772C109.697 32.0422 107.378 31.4528 105.218 32.2472C104.836 32.3881 104.997 33.0031 105.387 32.8647C110.957 30.9045 116.446 28.7238 121.848 26.3331C121.72 26.1665 121.589 25.9974 121.461 25.8308C116.977 31.3913 110.114 34.948 106.988 41.5899C106.814 41.9614 107.365 42.2869 107.542 41.9127C110.64 35.3298 117.466 31.7988 121.914 26.2844C122.148 25.9948 121.866 25.631 121.528 25.7821C116.177 28.1498 110.74 30.3074 105.22 32.2498C105.277 32.4548 105.333 32.6623 105.389 32.8673C108.31 31.7911 111.098 33.4592 112.979 35.6424C114.096 36.939 115.152 39.7244 117.177 39.7065C117.379 39.7039 117.546 39.504 117.487 39.3016C115.572 32.9467 113.658 26.5919 111.742 20.237C111.649 19.927 111.221 19.9372 111.124 20.237C108.892 27.0762 107.234 34.0819 106.163 41.1953C106.099 41.595 106.717 41.7667 106.778 41.3618Z" fill="#FFEFB5"/>
<path d="M16.3481 106.799C17.9387 101.382 19.366 95.9177 20.6274 90.4139C20.4273 90.4402 20.2271 90.4665 20.027 90.4929C22.2101 94.5852 24.3932 98.6802 26.5763 102.773C26.7264 102.622 26.8765 102.472 27.0266 102.322C24.9778 101.282 23.7243 99.2675 21.7888 98.0745C19.8585 96.8842 17.5279 96.7051 15.3211 96.5471C15.35 96.7631 15.379 96.979 15.408 97.195C20.4694 95.2436 25.5835 93.4423 30.753 91.7964C30.645 91.6121 30.5396 91.4304 30.4317 91.246C25.5756 95.241 20.8223 99.3596 16.1769 103.597C15.8635 103.884 16.3297 104.347 16.643 104.063C21.291 99.8258 26.0417 95.7071 30.8978 91.7122C31.1559 91.5015 30.8794 91.067 30.5765 91.1618C25.4071 92.8077 20.293 94.6089 15.2315 96.5603C14.8865 96.692 14.9366 97.1792 15.3184 97.2081C17.8281 97.3872 20.3351 97.6426 22.3523 99.2991C23.8191 100.505 24.9699 102.019 26.6948 102.896C26.9871 103.046 27.3032 102.744 27.1452 102.446C24.962 98.3537 22.7789 94.2587 20.5958 90.1663C20.4641 89.9214 20.056 89.9715 19.9954 90.2453C18.734 95.7492 17.3067 101.214 15.7161 106.631C15.5949 107.031 16.2296 107.205 16.3481 106.799Z" fill="#FFEFB5"/>
<path d="M80.7725 89.2939C81.8427 82.2032 83.4954 75.2197 85.7176 68.4023C85.5132 68.4023 85.3063 68.4023 85.102 68.4023C87.0101 74.737 88.9181 81.0716 90.8287 87.4063C90.9309 87.2709 91.0331 87.1381 91.1378 87.0027C89.6819 87.0155 88.7598 84.8469 87.9705 83.8354C87.2476 82.9056 86.443 82.0346 85.4903 81.3347C83.6818 80.0039 81.3702 79.4165 79.2169 80.2083C78.8363 80.3488 78.9972 80.9618 79.3855 80.8239C84.9385 78.8698 90.4098 76.6961 95.7943 74.313C95.6666 74.1469 95.5363 73.9784 95.4086 73.8123C90.9386 79.3551 84.0982 82.9005 80.9819 89.5213C80.8082 89.8916 81.3574 90.216 81.5336 89.8431C84.6218 83.2811 91.4264 79.7613 95.8607 74.2644C96.0931 73.9758 95.8122 73.6131 95.475 73.7638C90.1416 76.124 84.7214 78.2747 79.2195 80.2108C79.2756 80.4152 79.3318 80.6221 79.388 80.8264C82.2999 79.7536 85.079 81.4165 86.9539 83.5927C88.0675 84.8852 89.1199 87.6617 91.1378 87.6438C91.3396 87.6413 91.5056 87.4421 91.4469 87.2403C89.5388 80.9056 87.6308 74.5709 85.7201 68.2363C85.6282 67.9272 85.2016 67.9374 85.1046 68.2363C82.8798 75.0537 81.2271 82.0372 80.1594 89.1279C80.0956 89.5264 80.7112 89.6975 80.7725 89.2939Z" fill="#FFEFB5"/>
<path d="M229.06 95.8633C229.06 95.8633 217.731 73.3321 232.603 65.8194C252.157 55.4972 270.013 76.2463 273.696 85.4433C273.696 85.4433 282.893 71.4661 294.55 73.8562C306.2 76.2463 308.653 91.5793 308.653 91.5793C308.653 91.5793 329.507 92.8023 331.96 103.229C334.413 113.656 324.601 126.536 295.165 124.083C265.729 121.63 262.661 130.219 252.849 133.895C243.037 137.578 200.106 133.28 213.601 103.229C220.96 89.1263 241.332 98.5958 244.267 103.229C247.719 108.673 246.105 117.947 236.293 113.656" stroke="white" stroke-width="3" stroke-miterlimit="10" stroke-linecap="round"/>
<path d="M308.647 91.5792C308.647 91.5792 297.451 90.5799 300.903 99.8607C303.496 106.835 314.035 102.516 311.791 100.476" stroke="white" stroke-width="3" stroke-miterlimit="10" stroke-linecap="round"/>
<path d="M264.12 127.829C264.12 127.829 278.293 117.877 286.455 117.067" stroke="white" stroke-width="3" stroke-miterlimit="10" stroke-linecap="round"/>
</svg>
