<svg width="1293" height="321" viewBox="0 0 1293 321" fill="none" xmlns="http://www.w3.org/2000/svg">
<path d="M1161.63 210.705C1161.63 210.705 1147.43 182.476 1166.07 173.064C1190.56 160.131 1212.94 186.128 1217.55 197.65C1217.55 197.65 1229.07 180.139 1243.68 183.133C1258.27 186.128 1261.35 205.338 1261.35 205.338C1261.35 205.338 1287.47 206.87 1290.55 219.934C1293.62 232.998 1281.33 249.135 1244.45 246.061C1207.57 242.988 1203.72 253.749 1191.43 258.355C1179.14 262.969 1125.35 257.584 1142.26 219.934C1151.48 202.265 1177 214.129 1180.68 219.934C1185 226.755 1182.98 238.374 1170.69 232.998" stroke="white" stroke-width="3" stroke-miterlimit="10" stroke-linecap="round"/>
<path d="M1261.34 205.338C1261.34 205.338 1247.31 204.086 1251.64 215.714C1254.89 224.452 1268.09 219.041 1265.28 216.484" stroke="white" stroke-width="3" stroke-miterlimit="10" stroke-linecap="round"/>
<path d="M1205.55 250.755C1205.55 250.755 1223.31 238.286 1233.54 237.271" stroke="white" stroke-width="3" stroke-miterlimit="10" stroke-linecap="round"/>
<path d="M931.356 118.68C931.356 118.68 921.096 98.2746 934.565 91.4707C952.274 82.1223 968.445 100.914 971.781 109.243C971.781 109.243 980.11 96.5847 990.667 98.7493C1001.22 100.914 1003.44 114.8 1003.44 114.8C1003.44 114.8 1022.33 115.908 1024.55 125.351C1026.77 134.794 1017.88 146.459 991.224 144.238C964.565 142.016 961.787 149.795 952.901 153.124C944.014 156.46 905.134 152.567 917.356 125.351C924.02 112.579 942.47 121.155 945.128 125.351C948.255 130.282 946.793 138.681 937.907 134.794" stroke="white" stroke-width="3" stroke-miterlimit="10" stroke-linecap="round"/>
<path d="M1003.43 114.8C1003.43 114.8 993.294 113.895 996.421 122.3C998.769 128.617 1008.31 124.705 1006.28 122.857" stroke="white" stroke-width="3" stroke-miterlimit="10" stroke-linecap="round"/>
<path d="M963.11 147.63C963.11 147.63 975.945 138.617 983.338 137.883" stroke="white" stroke-width="3" stroke-miterlimit="10" stroke-linecap="round"/>
<path d="M198.223 259.626C200.169 246.734 203.173 234.037 207.214 221.641C206.842 221.641 206.466 221.641 206.095 221.641C209.564 233.159 213.033 244.676 216.507 256.194C216.693 255.948 216.878 255.706 217.069 255.46C214.422 255.483 212.745 251.54 211.31 249.701C209.996 248.011 208.533 246.427 206.8 245.155C203.512 242.735 199.309 241.667 195.394 243.107C194.702 243.362 194.995 244.477 195.701 244.226C205.797 240.673 215.745 236.721 225.535 232.388C225.303 232.086 225.066 231.779 224.834 231.478C216.706 241.555 204.269 248.002 198.603 260.039C198.288 260.713 199.286 261.302 199.607 260.624C205.221 248.694 217.594 242.294 225.656 232.3C226.078 231.775 225.568 231.115 224.955 231.389C215.258 235.681 205.403 239.591 195.399 243.111C195.501 243.483 195.603 243.859 195.706 244.23C201 242.28 206.053 245.303 209.462 249.26C211.486 251.61 213.4 256.658 217.069 256.626C217.436 256.621 217.738 256.259 217.631 255.892C214.161 244.374 210.692 232.857 207.218 221.339C207.051 220.777 206.276 220.796 206.099 221.339C202.054 233.735 199.049 246.432 197.108 259.324C196.992 260.049 198.111 260.36 198.223 259.626Z" fill="#FFEFB5"/>
<path d="M306.223 133.626C308.169 120.734 311.173 108.037 315.214 95.6412C314.842 95.6412 314.466 95.6412 314.095 95.6412C317.564 107.159 321.033 118.676 324.507 130.194C324.693 129.948 324.878 129.706 325.069 129.46C322.422 129.483 320.745 125.54 319.31 123.701C317.996 122.011 316.533 120.427 314.8 119.155C311.512 116.735 307.309 115.667 303.394 117.107C302.702 117.362 302.995 118.477 303.701 118.226C313.797 114.673 323.745 110.721 333.535 106.388C333.303 106.086 333.066 105.779 332.834 105.478C324.706 115.555 312.269 122.002 306.603 134.039C306.288 134.713 307.286 135.302 307.607 134.624C313.221 122.694 325.594 116.294 333.656 106.3C334.078 105.775 333.568 105.115 332.955 105.389C323.258 109.681 313.403 113.591 303.399 117.111C303.501 117.483 303.603 117.859 303.706 118.23C309 116.28 314.053 119.303 317.462 123.26C319.486 125.61 321.4 130.658 325.069 130.626C325.436 130.621 325.738 130.259 325.631 129.892C322.161 118.374 318.692 106.857 315.218 95.3393C315.051 94.7774 314.276 94.796 314.099 95.3393C310.054 107.735 307.049 120.432 305.108 133.324C304.992 134.049 306.111 134.36 306.223 133.626Z" fill="#FFEFB5"/>
<path d="M189.223 107.626C191.169 94.7337 194.173 82.0365 198.214 69.6412C197.842 69.6412 197.466 69.6412 197.095 69.6412C200.564 81.1588 204.033 92.6763 207.507 104.194C207.693 103.948 207.878 103.706 208.069 103.46C205.422 103.483 203.745 99.5404 202.31 97.7013C200.996 96.0108 199.533 94.4272 197.8 93.1547C194.512 90.7351 190.309 89.6669 186.394 91.1066C185.702 91.362 185.995 92.4766 186.701 92.2258C196.797 88.673 206.745 84.7208 216.535 80.3878C216.303 80.086 216.066 79.7794 215.834 79.4776C207.706 89.5554 195.269 96.0016 189.603 108.039C189.288 108.713 190.286 109.302 190.607 108.624C196.221 96.6935 208.594 90.2939 216.656 80.2996C217.078 79.7748 216.568 79.1153 215.955 79.3893C206.258 83.6806 196.403 87.5909 186.399 91.1112C186.501 91.4828 186.603 91.859 186.706 92.2305C192 90.2799 197.053 93.3033 200.462 97.2601C202.486 99.6101 204.4 104.658 208.069 104.626C208.436 104.621 208.738 104.259 208.631 103.892C205.161 92.3745 201.692 80.8569 198.218 69.3393C198.051 68.7774 197.276 68.796 197.099 69.3393C193.054 81.7346 190.049 94.4318 188.108 107.324C187.992 108.049 189.111 108.36 189.223 107.626Z" fill="#FFEFB5"/>
<path d="M506.223 87.6259C508.169 74.7337 511.173 62.0365 515.214 49.6412C514.842 49.6412 514.466 49.6412 514.095 49.6412C517.564 61.1588 521.033 72.6763 524.507 84.1939C524.693 83.9477 524.878 83.7062 525.069 83.4601C522.422 83.4833 520.745 79.5404 519.31 77.7013C517.996 76.0108 516.533 74.4272 514.8 73.1547C511.512 70.7351 507.309 69.6669 503.394 71.1066C502.702 71.362 502.995 72.4766 503.701 72.2258C513.797 68.673 523.745 64.7208 533.535 60.3878C533.303 60.086 533.066 59.7794 532.834 59.4776C524.706 69.5554 512.269 76.0016 506.603 88.0393C506.288 88.7127 507.286 89.3025 507.607 88.6244C513.221 76.6935 525.594 70.2939 533.656 60.2996C534.078 59.7748 533.568 59.1153 532.955 59.3893C523.258 63.6806 513.403 67.5909 503.399 71.1112C503.501 71.4828 503.603 71.859 503.706 72.2305C509 70.2799 514.053 73.3033 517.462 77.2601C519.486 79.6101 521.4 84.6583 525.069 84.6258C525.436 84.6212 525.738 84.2589 525.631 83.892C522.161 72.3745 518.692 60.8569 515.218 49.3393C515.051 48.7774 514.276 48.796 514.099 49.3393C510.054 61.7346 507.049 74.4318 505.108 87.3241C504.992 88.0486 506.111 88.3597 506.223 87.6259Z" fill="#FFEFB5"/>
<path d="M8.19189 26.8595C10.1844 18.3349 12.6333 9.93792 15.5436 1.68323C15.151 1.68323 14.7534 1.68323 14.3608 1.68323C18.1937 10.9538 22.0217 20.2244 25.8546 29.49C26.2275 29.333 26.6005 29.1759 26.9735 29.0189C21.0647 20.1704 11.2346 14.6345 0.599743 14.1929C0.653727 14.5953 0.707711 14.9977 0.761696 15.4001C11.0334 12.6862 21.3052 9.97718 31.5769 7.26324C31.4689 6.87063 31.361 6.47311 31.253 6.0805C21.2659 9.86921 12.8394 16.7645 7.17601 25.824C6.75395 26.4964 7.81891 27.1098 8.23606 26.4424C13.7179 17.6724 21.899 10.9342 31.5769 7.26324C32.3032 6.98841 32.0284 5.87437 31.253 6.0805C20.9763 8.79443 10.7095 11.5035 0.43779 14.2125C-0.244375 14.3941 -0.0824219 15.3903 0.599743 15.4198C10.7831 15.8467 20.2549 21.1617 25.9184 29.6422C26.2766 30.182 27.322 29.8483 27.0373 29.171C23.2044 19.8956 19.3765 10.625 15.5436 1.35933C15.3129 0.804762 14.5719 0.755685 14.3608 1.35933C11.4506 9.61401 9.00166 18.011 7.00915 26.5356C6.82756 27.3012 8.01031 27.63 8.19189 26.8595Z" fill="#FFEFB5"/>
<path d="M82.6135 154.477C85.6972 143.975 88.4643 133.381 90.9097 122.711C90.5217 122.762 90.1337 122.813 89.7457 122.864C93.9781 130.798 98.2104 138.737 102.443 146.671C102.734 146.38 103.025 146.089 103.316 145.798C99.3438 143.781 96.9136 139.875 93.1612 137.563C89.419 135.255 84.9007 134.908 80.6224 134.601C80.6786 135.02 80.7347 135.439 80.7909 135.857C90.6034 132.074 100.518 128.582 110.54 125.391C110.331 125.034 110.126 124.682 109.917 124.324C100.503 132.069 91.2875 140.054 82.2817 148.269C81.6741 148.825 82.5778 149.724 83.1853 149.172C92.1963 140.958 101.406 132.973 110.821 125.228C111.321 124.82 110.785 123.977 110.198 124.161C100.176 127.352 90.2614 130.844 80.4488 134.627C79.78 134.882 79.877 135.827 80.6173 135.883C85.4827 136.23 90.343 136.725 94.2537 139.937C97.0974 142.275 99.3285 145.21 102.673 146.911C103.239 147.202 103.852 146.614 103.546 146.038C99.3132 138.104 95.0808 130.165 90.8485 122.231C90.5932 121.756 89.8019 121.853 89.6844 122.384C87.239 133.055 84.4719 143.648 81.3882 154.15C81.1534 154.926 82.3838 155.263 82.6135 154.477Z" fill="#FFEFB5"/>
<path d="M402.521 305.681C403.572 299.879 408.618 297.488 413.37 297.146C419.298 296.714 424.681 299.899 430.045 302.325C435.739 304.9 441.326 306.387 447.435 305.085C453.285 303.839 458.698 300.626 464.596 299.632C470.855 298.57 475.487 301.838 480.659 305.305C484.731 308.031 489.339 310.6 494.162 309.045C499.388 307.36 502.145 301.544 506.837 298.879C512.94 295.412 520.316 298.475 525.908 301.811C535.856 307.743 545.761 317.04 557.655 312.285C562.676 310.278 566.977 306.634 571.693 303.928C576.769 301.016 581.784 300.406 587.094 302.866C595.372 306.702 602.958 315.82 612.551 314.464C617.513 313.758 621.111 310.032 625.016 306.832C629.551 303.112 633.906 302.057 638.699 305.832C645.998 311.58 651.32 321.034 661.405 318.478C670.259 316.238 676.254 307.127 684.856 304.27C695.548 300.722 701.783 314.204 711.473 316.136C720.453 317.924 726.586 309.463 732.16 302.886C735.224 299.276 738.588 295.488 742.979 294.165C747.544 292.795 752.229 294.556 756.338 296.81C764.075 301.057 771.715 308.477 780.696 308.614C785.862 308.689 789.406 305.531 793.574 302.516C799.311 298.372 805.75 300.002 811.397 303.523C816.713 306.839 820.521 311.813 825.273 315.896C829.261 319.321 834.127 321.082 839.119 320.917C846.339 320.684 854.094 316.985 859.44 311.422C863.573 307.127 868.024 305.065 873.664 304.805C876.409 304.681 879.166 304.914 881.869 305.517C884.897 306.188 887.864 307.613 890.982 307.634C900.19 307.696 903.446 296.323 910.21 291.48C915.436 287.746 919.623 292.604 923.293 296.604C926.41 300.002 929.78 302.482 934.273 302.085C937.871 301.763 940.617 299.434 940.989 295.227C941.223 292.597 937.619 292.617 937.385 295.227C937.157 297.783 934.454 298.166 932.652 297.995C929.786 297.721 927.84 295.885 925.84 293.7C922.422 289.966 918.818 285.657 913.682 285.938C905.344 286.39 901.95 297.214 895.727 301.818C890.73 305.51 884.741 301.653 879.377 300.954C874.211 300.29 868.75 300.68 863.909 302.989C860.365 304.674 858.124 307.696 855.097 310.155C851.901 312.744 848.285 314.745 844.489 315.882C839.395 317.417 833.965 317.136 829.333 314.067C826.762 312.361 824.804 309.853 822.594 307.641C820.311 305.353 817.878 303.208 815.301 301.366C810.844 298.187 805.6 295.618 800.242 295.871C797.863 295.981 795.581 296.652 793.448 297.865C790.613 299.482 788.318 302.181 785.369 303.537C776.695 307.538 767.379 298.735 760.14 294.405C752.62 289.904 744.288 287.315 736.647 292.994C732.911 295.775 729.932 299.625 726.874 303.277C723.919 306.805 720.621 310.813 716.296 311.963C706.541 314.567 699.795 300.934 690.503 299.632C681.186 298.331 673.882 306.887 666.403 311.71C662.288 314.361 657.687 315.999 653.164 313.587C648.965 311.347 645.884 307.052 642.315 303.804C639.108 300.893 635.42 298.666 631.197 299.214C626.175 299.865 622.541 304.085 618.57 307.202C613.957 310.826 609.356 311.237 604.238 308.723C599.823 306.551 595.906 303.256 591.642 300.763C587.605 298.406 583.226 296.632 578.625 297.159C573.501 297.748 569.002 300.811 564.647 303.715C559.415 307.209 554.075 310.477 547.797 309.251C541.532 308.024 536.066 303.763 530.696 300.153C521.055 293.686 509.708 289.713 500.487 299.077C498.553 301.044 496.721 303.386 494.312 304.62C491.333 306.14 488.227 305.174 485.44 303.619C480.833 301.044 476.76 297.098 471.66 295.789C459.587 292.686 448.966 304.332 436.778 300.639C426.579 297.55 417.13 289.459 406.324 294.878C402.647 296.721 399.866 300.03 399.043 304.592C398.575 307.175 402.053 308.278 402.521 305.681Z" fill="white"/>
</svg>
